<mxfile host="app.diagrams.net" agent="Mozilla/5.0 (Macintosh; Intel Mac OS X 10_15_7) AppleWebKit/537.36 (KHTML, like Gecko) Chrome/129.0.0.0 Safari/537.36" border="50" scale="3" compressed="false" locked="false" version="24.7.17">
  <diagram name="Blank" id="YmL12bMKpDGza6XwsDPr">
    <mxGraphModel dx="2204" dy="978" grid="0" gridSize="10" guides="1" tooltips="1" connect="1" arrows="1" fold="1" page="0" pageScale="1" pageWidth="827" pageHeight="1169" background="none" math="1" shadow="0">
      <root>
        <mxCell id="X5NqExCQtvZxIxQ7pmgY-0" />
        <mxCell id="1" parent="X5NqExCQtvZxIxQ7pmgY-0" />
        <mxCell id="Gr0Zq-AI6Quabplr0KPa-179" value="Mindmap" style="swimlane;html=1;startSize=20;horizontal=1;containerType=tree;labelBackgroundColor=none;strokeColor=#D4E1F5;strokeWidth=1;fillColor=none;fontFamily=Comic Sans MS;fontSize=9;swimlaneLine=0;dashed=1;collapsible=0;" parent="1" vertex="1">
          <mxGeometry x="-979" y="-62" width="926" height="528" as="geometry" />
        </mxCell>
        <mxCell id="Gr0Zq-AI6Quabplr0KPa-236" value="" style="shape=image;html=1;verticalAlign=top;verticalLabelPosition=bottom;labelBackgroundColor=#ffffff;imageAspect=0;aspect=fixed;image=https://cdn3.iconfinder.com/data/icons/tango-icon-library/48/system-users-128.png;dashed=0;fontFamily=Comic Sans MS;fontSize=12;fontColor=#000000;align=center;strokeColor=#000099;strokeWidth=2;fillColor=#D2D3D3;" parent="Gr0Zq-AI6Quabplr0KPa-179" vertex="1">
          <mxGeometry x="37" y="191" width="39" height="37" as="geometry" />
        </mxCell>
        <mxCell id="Gr0Zq-AI6Quabplr0KPa-237" style="edgeStyle=none;jumpStyle=arc;html=1;entryX=0.5;entryY=1;entryPerimeter=0;endArrow=classicThin;endFill=1;jettySize=auto;orthogonalLoop=1;strokeColor=none;strokeWidth=2;fontFamily=Comic Sans MS;fontSize=12;rounded=0;startSize=8;endSize=8;curved=1;" parent="Gr0Zq-AI6Quabplr0KPa-179" target="Gr0Zq-AI6Quabplr0KPa-236" edge="1">
          <mxGeometry relative="1" as="geometry">
            <mxPoint x="187" y="275.5" as="sourcePoint" />
          </mxGeometry>
        </mxCell>
        <mxCell id="xX0nyE1Sm6BZzaNnp2QI-4" value="Commit" style="text;html=1;align=center;verticalAlign=middle;whiteSpace=wrap;rounded=0;" vertex="1" parent="Gr0Zq-AI6Quabplr0KPa-179">
          <mxGeometry x="136" y="194.5" width="60" height="30" as="geometry" />
        </mxCell>
        <mxCell id="xX0nyE1Sm6BZzaNnp2QI-3" value="" style="endArrow=classic;html=1;rounded=0;exitX=1;exitY=0.5;exitDx=0;exitDy=0;" edge="1" parent="Gr0Zq-AI6Quabplr0KPa-179" source="Gr0Zq-AI6Quabplr0KPa-236" target="xX0nyE1Sm6BZzaNnp2QI-4">
          <mxGeometry width="50" height="50" relative="1" as="geometry">
            <mxPoint x="315" y="240" as="sourcePoint" />
            <mxPoint x="154" y="210" as="targetPoint" />
          </mxGeometry>
        </mxCell>
        <mxCell id="xX0nyE1Sm6BZzaNnp2QI-7" value="" style="shape=image;html=1;verticalAlign=top;verticalLabelPosition=bottom;labelBackgroundColor=#ffffff;imageAspect=0;aspect=fixed;image=https://cdn4.iconfinder.com/data/icons/ionicons/512/icon-social-github-128.png" vertex="1" parent="Gr0Zq-AI6Quabplr0KPa-179">
          <mxGeometry x="239" y="169.5" width="80" height="80" as="geometry" />
        </mxCell>
        <mxCell id="xX0nyE1Sm6BZzaNnp2QI-13" style="edgeStyle=orthogonalEdgeStyle;rounded=0;orthogonalLoop=1;jettySize=auto;html=1;exitX=0;exitY=0;exitDx=0;exitDy=0;entryX=0.25;entryY=0;entryDx=0;entryDy=0;" edge="1" parent="Gr0Zq-AI6Quabplr0KPa-179" source="xX0nyE1Sm6BZzaNnp2QI-11" target="xX0nyE1Sm6BZzaNnp2QI-12">
          <mxGeometry relative="1" as="geometry" />
        </mxCell>
        <mxCell id="xX0nyE1Sm6BZzaNnp2QI-11" value="" style="rounded=0;whiteSpace=wrap;html=1;" vertex="1" parent="Gr0Zq-AI6Quabplr0KPa-179">
          <mxGeometry x="203.5" y="127" width="72" height="56" as="geometry" />
        </mxCell>
        <mxCell id="xX0nyE1Sm6BZzaNnp2QI-12" value="Nodejs app" style="text;html=1;align=center;verticalAlign=middle;whiteSpace=wrap;rounded=0;" vertex="1" parent="Gr0Zq-AI6Quabplr0KPa-179">
          <mxGeometry x="215" y="142.5" width="45" height="24.5" as="geometry" />
        </mxCell>
        <mxCell id="xX0nyE1Sm6BZzaNnp2QI-8" value="" style="endArrow=classic;html=1;rounded=0;exitX=1;exitY=0.5;exitDx=0;exitDy=0;entryX=0;entryY=0.5;entryDx=0;entryDy=0;" edge="1" parent="Gr0Zq-AI6Quabplr0KPa-179" source="xX0nyE1Sm6BZzaNnp2QI-4" target="xX0nyE1Sm6BZzaNnp2QI-7">
          <mxGeometry width="50" height="50" relative="1" as="geometry">
            <mxPoint x="1346" y="337" as="sourcePoint" />
            <mxPoint x="1249" y="289" as="targetPoint" />
          </mxGeometry>
        </mxCell>
        <mxCell id="xX0nyE1Sm6BZzaNnp2QI-22" value="" style="shape=image;verticalLabelPosition=bottom;verticalAlign=top;imageAspect=0;aspect=fixed;image=data:image/png,iVBORw0KGgoAAAANSUhEUgAAAZEAAAGRCAYAAACkIY5XAAAmtElEQVR42u2dzZXjOJaF04Q2QSaUCTIhTJAJWnbXZrTLytrQBJrAZWX3hibQBJpAEzhBAspQRigUkvge8B7w3XNwpme6uicEXuDi/X/7BgAAAAB57Jr5X7vv8373Y355/Z+n3V9z87r6izXfuaaL/0y3/neFtd/9Pf/BTgMAgHfBeL3MXy/1w4VQTA+IhMQaLwRmvwgYXwUAACyLxo/5uF7c6QXjEWFpV3H7Pu/4agAAkFM4FrfUcimHy3l2uIbVUsIFBgAAyYVjcioct6wUBAUAAMSFY3FVlSkcnwvK4pojjgIAABvEIwTGh0qE47O1xFD2sAEAAO4RjpCGe6rI6rh39YuowhAAAEA8trm6EBMAAEA8EBMAANgiIKGuA/HY7ubawyYAQD3isVRw+63tsLo6ChgBAOW7rkJFOZe+zpoW6w6mAQBKtD4OuK4SVsJTtAgAKMj66LnYM6zv8wkGAgD8CkhoUYL1kdsqIVYCAHAnIKEFu7+Ywu/zRa6twWms5AVWAgDsi8frq9f4RdvHViJhzseG9Nj1t4b/jkOsdemMZ501MBQAYFlA9sbcV2F+x1KPkjDQ/GuCYhCW3pyI0tgRAGBQQA5mYgCJReOu/QnxocaIpTKSvQUAsHNB5o9/BOFwEkCOre1zC8pEpTsAwIKAtBmD4I33zKNooXQZ04APsBgAkP7yy1d9vjYeLM2vHxMSmiwxJYQEAJBBQIYc4lHF3uboaoyQAAAKFZAqW55nEROEBABQkIDQTPDbLzdXi5AAAPxfaOliIC21DB/EZJ9MwBESAICCgLSJXFd7dvummJwQEgCANwFJUQfSYH3c+T1CnYm+VUJBIgBA4OV7oDlgteI+ISQAgC0CslevNMf62PaN9Nvt840AAE8JyE75cmrZZdFvpene6thlAMCjrpKBoK2j76XdQYApiQCABwSkIf7h9tu1ikKyZ4cBALcvoeBjJ0jr+xse1b4h8REAwBcukQkBKeBb6mXVER8BAHzqCukREISEmBYAwIoLBAEpU0gm73NcAACSF42OGwsBsSMkJ9xaAAC9S0YjNZQsLGvfuOUbAwA0Xqn7Enzma8FdcMl1V2I74/p/W17kFaepKsS8RrK1AOCFOnquRI8+/+EJn/6ptgtQZR4MRYgAVCwg8sH0IbEFNQgEiKu6BGMH4ElYSHacJgBqExD5YHqyQjSFQPFQk5tLIWOLPmgAVCci0hdxoiCr8nCsamaaiO8jmXgAYIVsuXwLEJC3YHEFWUeRA5LxsJ6TBQBWiNkMnUTTFX+rgyjd1y+emUeDRgCwQixeHAmGY93qOnws3K3VEBsBAOSyQpJcGgppyI8H3gv1+Ss8KnacMgDKfnlOnrKxEsx4f6gmosTAu/AeY40AULAVchDMxkri5jFghXyMARXo+xesZmfmCAAFWyFS1cpjkr83FMbNRldX0mUpGncqPI4EQJ0CInkhJ+qNpdR9lsD754+MztMjAwCQ9oJovV0QSkOyNFZfQkB5bWJJui8A4JMLefLWoVdpVK9q4J3HBgF2AMoTkB/zi0c3hSsBKSTwLuj2nDh5AODKyjonxKmI/HqJew28i7kRGVoFAK6snKmbIrGK0O5+yhh4d3eRClquuLQAwJWVtsmitIis/z2hKrsj8P7Q3o+4tAAAkq6sXYa/XbSzbKyFGLNZJY4C72Lp1bi0AHAvIhKX5pDpbxdvTx6tkoY+XF+KyM6rBQsAkLoIpDJtMhXUac64iHszZBQT8wOwhPaHwkMA3IqI1Az1TP78FIOSMgfeTQ/A8s4fAMD2S7jz6spKJSIXrpsuax8ugxetmEsrcWo4AEDuEp48N9NLPbI1ZrJN9OESd2mR6guAOwGRiodkDALnmPttIPDeWwq8C2VpDZxIALyJiMzskKxB0RwicrF/+6yBdyMDsKRaxHMiAfDnymq8uyFyisi7l/hUcx8uuvoCUKeI9J7jIVZEJArJLnNb+qwDsErgEgDg8YM/eY6HWBKRdy7CKWPF+yGTS+tE0SEANQlICA6792NbE5GLvW1rskqE+q/1nEwAvIiITDA0+6G3/Bsy9+EaUgqJUL0IlesAuBERmZdj9tx+D0KYcQ58WiEhQwuAqiyRk0SKKSJy598ZanJyBN7bhN+i9x5jAwDcf+CbElIyvbnksvThStR7S6QtDGm+ALgRkR4RyRPXyTAAa0zh1hKxbpktAkA9ImLkd7hNDkgaeE9QgyHS0dfRUC4AEBFEJHuGWcI+XOqZTyIZf4gIAG5EpIjZ2KXUJiQZgKUctEZEAEBE/F2+hRW4qQbelS9oodojWsIDgIjwOzZexlp9uFR/q1AXBKrWAUBE+B1CVon0AKyR7wEA4LBXdGlJB975HgAADnuFl5ZQmxpEBADAYa/t0pJsL8/3AABw2Cu5tBT6bU18DwAAh73wS2uNg+h0/tXNzpJpB4+IAFCJiAyIiMpFrNkKpUnwtzPdEIBKRGSi7Ykhiyq84jvP3XypWAegLhGhd5aV6Yxp2sNPCX7HCyICACLyyIHfISIb/vYU/bISuolKGXQGALjv8i1igJDjeSJNIvFYrZAUgi8kIntOJwAeRETmwB8QkadcPmNCAUn2ui9l0BkAoCLXg5sZ63pNFc1k0Ym45hJMYAQAyFxqEumYHSJyt2BPGQRkShm38lBRDwCQOvAhqGu+K6xnEYlCPWQQjyAgykOoFPg0cDIB8CQkEpdVZveDRRGJgfM2k3isl3FKAYmCeaBaHYD6RGT0Hgi1dnFJNkt8NpU3h7CLZJuR3guAOxHpvB98KyKSMXD+Zn1kFHQRt52BbD8AwGMX38m7C8LC36/ULPGR4HleIZcZizundsEBALZffnvvGTU5RUS5WeJdf7uJrgFOBmYBAKy+IJUb+1kTkbhvXUbxGHPu+ZVv0BJUB6BWIZF5STcZ//6kl1eiZonmAufqHCKoDoBbEWk914ukEhGFKYPm03Yf2JeZdicA1CoiMvn92YKi2iKSoVnix8D5q/Vj+BHSEA8BoGYRkYqLZHJpaYpIlmaJ79rKWO8lJbQ/xEMAcO7SGry6tDQusCRTBr8KnDtw70hl91m2tAAACV0SOTKGpEUke+B8qTlx0slWrLUL9SEAOBcRqeBohq6+UiKSuVliqPlwdJkKukFHTiAAZVgjo9BLeudMRIbsgXOH7T6ixTZ7Tg8HAFh0aSW+FDJe/hKr9TqESezRgSsLAFxaH17WCS9Gp+Ixeq6LEEsLx5UFAC6t3NXHmVNwq6zM9sgTAECKy0HOz53MGsmciuuuWaIhK2QuYT8AAJcXhFzGTbJXpqDwaVacvxTDETnLjwJDAAp1abWCWUfqL81YGGhVQBqvgXN1K6QgYQUA/H5R7CWzjxIJX29MPIbSGgpGK3UioA4ASHspJ7hMRV/IBTdL3LjHJ0ErhDYnABRujUheykMl1khXaqBYMP07eQo4ACCfNTJ6CrILX3RupwwqcWEgxRkAkNdFlKAyOYNbqyn9VS3qxsIKAQBrxIFbq6VZolHrDisEAKwRD321hF/PVQTOP+xhyMYasEIAAFtf9rIB60TxgziVcBINnFd0CYpbdFghAFRrjex38q3Pdwlf023NzRKNWKDUhQBQuTXSiRfjpez0G6ra2wctk87jnI/Ne6WR5UZ1OgDVWyM7hZGxXabfso8xkza66s6rW//vixusUt+90nemRxYAQK3RYcvOGvm+8oF0OvUCAN5dNBqXDC0wShaQE7sLAHi7bLSqwiuMPRh7HGi0jBnYWQDAxwtHqwYDIcklIDrFmcxOBwDcuHgGhMT5NwwuLJ2mlbgoAQBfWCMaWTz40dMKyKDVEoYdBgB8fRGFinCt3lRkbek+AAa1tjC0NgEA3H0hLV1sNZscciHJfq+QGDGpfbPKKvsBADJC0quOmSVAK2WB6LbJJw4CAHjqcgr+9VF15CwB963fR7s9Pu5HAIBhN0m8qHBvPfVdBuXvQj0IAEDEXbJPMooWv/u93+OU4HsMCDsAQPLiOjCWtgrrI2lLfwAAQkKsRHvfl9hHGusj7D0JDwCAAoQkpAJX7uKK+z0hIAAAhGRL4L0y90rc4zHhHiMgAICihSSISeEXXQbxQEAAAFUJSXBzFTSWdY15hMFgY4a9REAAAFUKyTkt+OTV1RVTp9uM+zeQhQUAyH8ZpilI/PpCXF7zxi/FuFdNJquDOhAAgOnLcch8MV6+sE8WMruiq+olWhyjkf2hlQkAwKCQhF5OnZGL8n2q8Gm9zJUtlVVMg4uvMSSqNFMEADgSk3SFcduEZRG8IC7HNT5xXp+4edZ5Hed/JgjSKf7W3qRgfCzg3MNOAIAXIdkbiJOwCpnfslp4Z+EOrsE+ruku9+blo2GxFG88FkBF9xS8wr3FKs99dRFHapRn2swxTtWu1iipzuXfR/DKrVVywCrJkFzgiLwxlnQy4BY8H/4XTm4hlga8KkZIdlglidbroXHDiXDAR7NxpNByZ88JdnbXwKuCP3AwJ0cue7UstJ0TDvTO9nZcXRP4u+EVvDLim/SRweWJiObN5Ex9wTRekQ2V/vAKXtlxcbWIwKa03ROHPNtigBq8gldmgl/+zNDs4mGdaDHNe+RbAHgFr1KSA8vEv3jsKnwUjARK4RW8sufmIi3YWfAttrSv+bt1vB7hFbyyFIDPN2fDRraVk7zySl+Jn1uM1APAK3hl1tU1VWC+upqRElMrsRqvBEg5ufAKXtklV0mCMq4ZGQ7bI8QWEhxs5rbAK3jlWlAahy6v3nNfndgXDTcDI4jhFbwqzH8acsdbg63ZeyuDsoT81AOH+OHMugOnFF7BK39xlPRm5ptgHEp7KRgZhey5rxkHHl7BqwpFZLiYM9D8GkYVLYtaZggYPuj9jTVx4OEVvAJ5RYSRslYOen85/OcJV+c+9mzrsv8WDjy8gldVWSIdBz3L4QhZa0q58XGq3TGbH77yAw+v4FVNIjJVu4chW2ZMGijMMGsh2wyKSg88vIJXtYnIXGMqXTzoQ8IsExN9wRLPpaguTRNewas6RaTCKtFEkyjNNpWM/OmT7EFFhWPwCl7VKiJjZXuXYmiYi7kJsfZI23c/wCt4Ba/KFpG5lpbMCeprBm+mdnTBaLfiaOAVvIJXZZO2rcRfPSkG/E6u90e7KWChXVrhFbxCRN7IusNf/bSPel/QhTjgx4ZX8AoRwRr5+BrScTMUKL6KUzg7eAWv4FXJPtgSiavnbii6ZXUsKsP9AK/gFSJStzWiFNyrYqRnzLKRr6ouYO/gFbxCRCooPowtuMX7EVXGtQPBYngFrxCRKsmsUPhU5dQ1BReE62AovIJXiEgF3X0V9qhqc1khKNrCK3gFr0oVkQL60wi/FunXE/Z0qD2RA17BK0SkAhNboaL/AOtUMpIaeAVq51XJIuLX5SBrImMeX+6tbG2EKx82vIJXiEgF8RHhzBnSBq9fpk1t/IJX8AoRqcTsFu2mSgFTCvfDCK9ArbyqR0QcCYngpLUept3k4EGQW3t4BWrkVV0i4kBIRP2qhWR4xDGmh/iS7uMo1ZNEVpBgplILr+BVbbyqU0SMC4lg4NM9+aJr4Kv96LccekEeTsatEHgFrxCRGrK2xPypzl+LywF+wP0ybXkYiL0aDccJ4BW8QkQqqCMRdDm0BRz0KZX/uPR9h1fwChHRrmw3ovRi6YGOg3FPH/SNaadCQWeT2TTwCl4hImlW9hbWQq0ThkoP+qZ4l1j6q8EWIPAKXiEiKa2STK2YY7Cv2gIlkYO+If1UrBDP2P7DK3iFiORZY+oMLjH/qceGgHIHfV2ZX+ym/NfwCl4hIvnF5JTCzSVk9g61H/RNh11mNsRo7JzBK3iFiJiJmSgG4EXSAZ1NRdM46JsOe/h7tv8NljL+4BW8QkTMCspRMtglQnpH2TNaB33rq7m07wCv4BUi4mO9tUxYfNDLb3t0ZXwpFXTQN89hWB8IBQVB4RW8QkS+MLMVRlN6XQMHfXsAWLTTLbyCV5K8cuZWdCMiUeUREqHsjfW7LK66hfRh7aV8seoHXWAaXGEWMrwqi1cdyqEkIgjJ9ldKzCC5VV3bbjn0CQ76IMTLHcIBr4zyihb8miIS/zsP1R72JzPHYjHavXns0zPJBCkOumTmCuIBr4zyakA5lEUkEbGsvhj3ygf9qQPv7aCLZdLAK3ilwCuUI4GIXJC457CrBfvuOvAeD3o87D0CAq8s8grlSCQi7/yxVbwqn3wtbuszduPAez3oiAi8sswrlCOxiFwEtHoO+1WBnTUOvOeDjojAK8u8QjkyiMi7oPvEYRfPZvvtwHs/6IgIvEJEEJGvTO2Gwy5+Ua4HvoSDjojAK0QEEbnn//euuLqSBw+BwkU5lXDQERF4hYggIs+IiX8314NZNM4ssiFlB1NEBF4hIojI4xklX1fWlnXY/RRmDqlbYCMe8Moqr1AOoyJyJQOkcWedPDiJMcaHJg46IgKv3PCKticeROQTQRkcHPaH90IoHbOsg04DRnhll1eIiDcRueLyeonVuL3B19ZTHT6NJhgMuaa4Vd1/DV5Z5xVz1j2LyKfCEoZKHX61uA7DZ/onVrYZzMYO/JBzDKjQPJHxSQ5oLHhVCq+YJ1KeiJjzw29pqW3jwA+550iLXLxPdr6FV/DKC68QEZsiMuQmWeYDn/2gi126T7Q1h1fwyhOvEBGbItJZ8JlmOvA2DvoS8yosDRNewStEpBYREfLFC108bW0HPf7uprQMGngFrxCRekRkb8nkTXTgzRz0+Jslik0beAWvSucVImLXpTVbIpvygbd10KUuW4PBT3gFrxCRekREIiVzEv6b2tIPuujvNPa74BW8QkRqEhGpSt8HW1UkPvD2Drpcq44BXsGrWniFiFjck9BmZbZIOqEDP5h8qcsEn83yEV7BK0Skos0V6yT8YPfVBAfeZMsG0YaBhvP44RW8QkTqERGpeQy90t/XlnLQRV+LQmmw8ApeeeIVImJzX3ZifmKljI4HD7zdgy75WjTORXgFrxCRijZYsPW82ismVuGON8ea/piPlbzOFy7u4BW8qpFXiIjNvTkIklB1jy7a43frWv61g5x2wWCzm2pieAWvEJFaRER6OhyBOc1XuZtCMHgFrxCRivyFgoE5symQheztCK9A7bxCROy+GiWreZmK9k1h/K1wAR68glceeYWI2DWNW4gpyrmd8FjjEV7BK3iFiNREzmr92PEFPnB5wit4hYhUlUMt7GcNKZKVHXiVg+78tQiv4BUiUouISGfUVHjgVTrGKrT/gFfwyjuvEBG7e3UQJ2sFBz5elL3C3vXwCl7BK0TE26un58BndzWEPSuoihhewStEpJ792im4H4oM5MWq4VFlr4y33IBX8AoRQUQ+3zOp4UKf5PuXUDgWXTST0h718ApewStEBPfDrQpkp26I6GbQnN1dtLsBXsErRKSWfdPJqnG9r3d0fqWPEbyCV4gIIvLONzsrr9E6waM/v0+wFw28glfwChEpbf8OCUi++mut5a7HQ96m+v3wCl7BK0SkVD92KsIHv3bmbJvImbS/ucIutfAKXiEiHPhZNRC4TG5LFChdX4che2hI/jsrDnjCK3iFiNR14FMfhDf/9nLZLAFIwZfVyo3Q2ynX75oYuASv4BUiUs9e6lXRPnP4wyjTxbceDu3+2kWwBnGXf+9tDGpr5Ddw0OEVvEJEOPAsDjq8gleICCLiwZfNQYdXLHiFiHDgq15ky8AreIWIgHf7e+AQ37U6Djq8gleICLi2x6ECeeJAwx94Ba8QET7Wc/usN0DHt5+aCXLwCl4hIojIA/sdCqt4PeJmgFfwChFBRJ7e813Fr8eJjqnwCl4hIoiIzN4fKns9NrwS4RW8QkQQEWmfdqjoLfnQ9/QpglfwChFBRPRdEW2Bh3zP14VX8AoRQUR4QT4W3OSQwyt4hYggItkP/cFRv6Rx9U3jXoBX8AoRQURMuiQa9TnTz82eaMmKgVfwChFBRLx8r6VKOdQE5ErlHNaLhwMOr+AVQEQK+X7B190puCimGMQ8SQ8mAvAKXiEiiIjlV2UYCHSMA4TOQ4H6q+v8z4S1J3gJ4BVARAAAACAiAAAAEBEAAACICCICAAAAEQEAAICIAAAAQEQAAAAgIgAAABARRAQAAAAiAgAAABEBAACAiAAAAEBEEBEAAACICAAAAEQEAAAAIgIAAAARARa+KcODgAL+/N/8x7//mff/+Tkf//xnPi3r3z/n9vV/76+t8z+z/nOv/7llsYuICCJi8fsxxhQIY7nwl8v/VQy61zW8rllwTWeR+c9/55f/6+EVIoKIpLUyFgsjWBFzhrUIVbOICl+jLCtjsTCiFTFnWItQNYuo8DUQESD/jXbrxf3XPGYSjluWSouguLU2duvF/XMeMwnHp5bK6iZDUBARsOG7NPO/Xvf1oOCi0lpjjKns+Hp2sbiO/vxnPii4qLTWGGMq8KpoEflr7thJUfE4xVf+7HS1BOdNiscpxiNmj2uxTgjOW720tl8aPTsp4rJqHQvHVV4gJvldVjGDai5o9YiJtQtMwDfOLlZtedwjJrgjsDw0xAReGRGR7QFb0j+fsT4OhYvH+9XAE33EmEfJ4vF+NaQJ5xeRXiC4jnn5mOuqr0g8fs/oIptLzXWVMUU3e0YX2Vx5RWS7L/7HfGQn79jrUOMxVSogvyVjYJXIIdZ4TJUKyOXqsEryvIxPZGgliH3Ua318bpVgwW6OfVRsfXxeZ0LgPbmI7AmuK+7vUmWO9UGdkXTsI1SZY318spbEAliS9pW8/TJ4vSzZzQ8CfUAocG+JC0gIniMWuLdMxUVG4iIGY011rQEh+RoF1n2o9+VCSPxceAM7iYBsbp+CRYuAaLRP+R+88uF2qbyoLLoGB8RgY8AdIfkNMYA+IAbbAu4Iia6I7EQugIpdWoYEZFxjDKEh4uE8aOqaq+jXv7fMC3kbXjUgJAjItdf8EmOIg6YO50FT11xF539vqd24GF41ICTERe66wCrevyGjaLTSg6MuBl4NCEk+ZLx8x3NLdsmYwsXAqwEhKe8SbIRcWntiIElmeTSpLtnVUg2FkkOGWpJqXaQZYiBLynCT6pKNVfbHDIIy0XdL46JYXrJCDfcQEMUMpu/zIbPrc5/8N1eYtZVYQIbFRZX19y4usMS/mawtnQtxIsD+0IWaqg7EXFv1xO3rq3qYJKwDMddWPXH7esZYGH5Vt8XvVahE1493GG9YmLChZFOFgIRKdP0gufGGhQkbSjbc/FYvxoKDojETa6IdyAd3qO4c+MI7AMdMrIl2IG9YxE59DjwdgMWtkREXxJd71KvGAJwKcBTXlkD7kxem7st78JqVtIirsouLQLvwi/Io+Jresz8PzicvIIisPHCryMdJzFJSm09eQhBZeeAW8RGjrpqxpMya6P+flNxXhwJdo6OSW6uootbo/5+U3FdF8SrGjLTcW/T/E3TXtAREk7mxii2qU6ziL8qtpeTGKraoTrGKH7eW8It7xq31wUWDgDwnJD1urZsuGgTkOSHpcWvVY424dmspZWNV1dZj7ecl7wLcF3ARTgjIJiuuE48hMRnRqDXieISu0AjhqvtCKbm2XPdqiz2kEBB7rq1qewBat0ZcBkRVgumVNhZUERKnCQkawfRaGwtqCElpCQklWSPuCsbEhfR73eRUEGWXr0bpuofaLz0FUcYawZUj9nIWrQOBUb+aOFYrzPHlLFoHAqtCE0eE2e5FOtYoJMICygxxvb119WoUjoXQjVZvb7FGxA68XJt4N0IinpHFgKVrrsKhNjepdEYWA5Y+QjQ+Ql8t0QPf1SQkonUhzpopJttj2U7ILvL7JetCvDVTTLbHsp2QqRsx+zI3LiSCr2RM4tv73AiK9a6iVzK8ur3PjWDdyI4dte3WMhccFc1K+4E5nOxxYtziixlEuFmcuQ2x+ORfjm3pg4cEX8eYwveJ9qkGq0/wdQyv7nMdnrD67L4cB0Uh6XO7JcSy0b7TPiG5NWI4gUGq+yxtOTJYIyQwCB/6EBCdVIcPZXIDCQZ7B5iSwRox6tISDPbCqwzWCC4tjUOvGR+56LeV2ioRGzr1nUKlTNaIyUtWaugUBXDZrBHE2/SF+/XsiGSvAKG25RPseGrvZeJtBos6hdqWw6snINVihqJO6wf/nnbyCV73DOLK6tLal5oRJ+TKglfPiIhUOxQy4ooQElUxEbvEqE7fwqWxNBGXusQI7m4S8RERt3/4h4RCchaTk2TMRCi4SzrgNh41paVWCwV34dU2EWlIrbZ++PVTf78KwB+2+sKFWrvQUXXLNxBK2DB2gXV06s38Df47v0hYg+xkGiHpMwnJm6AsAf8nXEoiIkiFuoQ1UpRLUaTVCf54ie+AS9HRJdBmFpK3zK5QvHhaX7hfFP+VmhnkkD99SWJOZpCZ79Aj5giJbEwlXFaXy1w8JPZbOkaXSB/X8q+PKRvDLfUJMVXy/Df0i69f42UmEptSTAtfLvQ1WP56oax78Mm6+GbEQwxAIjZF0WFqIZFsp+5jdcIvpyZ3xkj0JX+V2dJLCpoQb8RjCLHqvJOcnnfn6rhNZB5CxKZ8CsleuUWKnSX0+o1VtkPu6XYPZrRMUlaJUKp1b+0C4vWbF0Kp1mRoZRKSXcbMrZQicsjou7VwaU5SFoklEckpILQ6EX8YISLOxeRUuIjsc15YUpdNjMNMOQ+ZlTRf4Sl5dO31LyKk+Rpxb42IyKckH3MHYLcWZkm4tSQSHTJahYiIXRHpEZEShCTUkzTFicjG9F6JV6/EBb61RYSED9+CiIhOIiS9FxEBCmISZnf0pYiIAMEl2oUfS/AbWxARqSpnLi1EBOi7uA4luLgE4iHZ89hjZhgi8k10vCqXFiICkri4QuB9QkTyupIQEUQEEeF7ICYORUQij10iCLt1EpxEQRbuLC4tRATU5+bamJ0lMMpzkgjCbq3Klkg1JrBOdhYiAiTFZB97cU2lp/huGeUp1ZJho0UkkmYs8a2tXDqIiCkRmRARXF0Hobkf8kugc+wGa2SSTAV92hoR6nIq8D0Gib/DQrEhnWNFRWTr9xjYxZIEJQwwas24vIR6Z8WLa8rRt+qdmD06B0OkGWRsk0PbE3pniULIPUnbk4JdXrtopbQZ+3SJdfiMQnJP0d+oNSgnCkl3l4gJ9ncSasAo2vk2p5DQOVZMRCQaMNJRuSphWYoZwzCqU6yQP88N0bJcxE3deHldswiGVI354uHrrlhHi8g10nNNrM4TydgKHheKzFlinghQFp3CZns7/g6dQHzqqPX3XQ6lWv7nrbX886T52oDQA+DIToJbl9dkIUOL71DWd5DICCJDi+8AfFxevUU3SnUuyMJm3UukCeNG2ejKEsqyoxkmuH2Bycw7wX+95Rv8mI8WZ91vusBk2qfAq21CLtHclFn34MsL7EUo1XfHbj5tDQ6WsuRELjCh9inSCQyVichAlhzQv8DCnJPZclC3cEtwV+L+C3VGJqj7JATb17D/INlLGNfDcyIiMz75b526mdwvYVxaz0GqG7NWPRYoT0QaK320Ktz7sbR4yIWINPTRyrb3I/EQkO4ik4qL/IX/lH2/uMik4iL45dl34OJFPBFgT77nvZUmmIov4okAe/I972mCCXJcaC3WSML9lumVtazJ8u/c0uafV/ET+y3TK2vtDcduglyuFayRlFaIcdGWnJSINZLOCkG0wbMXm1STRlpH37ZCDpaGgiW42EYhIYFXNyDZdZlkBvCsiDSWhlUVucehLkdqWqWL7BmpLC389J9DYMw0WVlA5IW8E2wRP1rq5VSoULsoBBOe2z7Sy0lZqCkwBBsvudbiwKoi9lYy7rRYM45EWirAjr/+ioAIxp2kR06DOq2RvfD43AO7Ku7GWlbj6fcLZg2dO/zCK3k3lti4Z4A10ou+mP+mdYL4+GKHGXBi9Qvn8cS05JBqLUMGHDBujVQeHxF2Ebp1E0pbI7XHRyRdhLgJgXVrZG3QWKOQCM0KcRsLUbZG1gaNNQqJ0KwQYiFA1RrZCV9+1dWPiNaDFDJFUjhTq8r6Ecl6EKZIAm1rpFEQkq4Gi0RFQApxCwqno55XV8NLWkNASJsGehehfEZRFa4tBRdWUQWcChlFVbi2FFxYFHCCJBfii8qFuAhJgT22FILovyy4oi5E2dqG34SkxAwj6SD6pQXHLQdSXIyd0sU4lTLIKlptg9o+FWi5LReY0sU4ldL7KVptg9Y+4cYC3t1aRQSLo7Wmtz+F9iFTdGsVESyO1pra/uDGAmkvSvnakY/uLWdFiVFcG+V9KbqCWKF25IN7y1tRYhTXRnlfqEwHWYTkpHxhrpemB9dNzL6atIW1Bl4tFoPyhblemh5cNzH7atIWVm4zkO/y1IuPvI+VnCyKSbTI+iR7UFFxpmJ85PdWKa+CZVFMokXWp9gD4iDAggtnSHCJmhKTGPfok/3uyvqNKQeQzYpJjHv0yX43/caAISEZE12oc3Qbtakzudaq/eDCS/lbq+18HIVkTHShhiyun3ObOpNrSUGOLryUv5XOx8CYkLy+lBPEBK5XbS9xE6WMpfV3hWLBIcNvq751/vJSThATuFq1vQazlTKW4u86JrS2EBCAkNzbj2u1FpZA94OWSrQ09tHa6LL/Fmav5BaS3/pxLdbCcvk+aqkslsbyn4nWRpf7tyAgACF5Vlw+X/b+XgTEopBcFZcby9zfi4AAhKSGhYB4ExIXCwEBvoQktI4fEIWHs8846F+4hnLFERyvCQEBPoUkZG31iANpvJKIWVs94kAaL6hFTPRbgXhfQ83jgp9FglYg3tdAISEoR0i0mxL6XfQs2iIk2k0J/S54BYqNk+DeOruvftA1VTBOgnsruq/oxgtqsEqOlVslHe4rFffWsXKrpMN9BbBKyl4j1gdWiUp1PdYHqFhM9sl7UeVJ3T1hfSQVk33qXlSZUndPWB8AfPs1j6NEMWkRj3yI8ziKE5OlUSTiAUC5YjKtac3f5x1fFDERDZr/nJvFZccXBeArMUk7r0My5nHE8rCLxPM6JDsKH7E8AHjOMskzw8P4bBOwDblmeFifbQJA2YKyNHYMgjJktzgW4SDTqgxX1//mP6Kg5O7JNS7CQaYVACkEZenLFVxeTQK311k0jvS3KhtrX67g8moSuL2CaPycj/S3AsCKpbIIS7BW2ot5Iff1rwr/bLf+5xfBWNKPiW9gqSwt6F+FZbFW4qXfPyAwQ/xnu2jtHBcXlff4xv8DeKmErJhZlPQAAAAASUVORK5CYIJ5N5bYuGeANdKLvpj/pnWC+PhihxlwYvUL5/HEtOSQai1DBhwwbo1UHh8RdhG6dRNKWyO1x0ckXYS4CYF1a2Rt0FijkAjNCnEbC1G2RtYGjTUKidCsEGIhQNUa2QlfftXVj4jWgxQyRVI4U6vK+hHJehCmSAJta6RREJKuBotERUAKcQsKp6OeV1fDS1pDQEibBnoXoXxGURWuLQUXVlEFnAoZRVW4thRcWBRwgiQX4ovKhbgISYE9thSC6L8suKIuRNnaht+EpMQMI+kg+qUFxy0HUlyMndLFOJUyyCpabYPaPhVouS0XmNLFOJXS+ylabYPWPuHGAt7dWkUEi6O1prc/hfYhU3RrFREsjtaa2v7gxg==;" vertex="1" parent="Gr0Zq-AI6Quabplr0KPa-179">
          <mxGeometry x="496" y="177" width="65" height="65" as="geometry" />
        </mxCell>
        <mxCell id="xX0nyE1Sm6BZzaNnp2QI-24" value="Build&amp;nbsp;&lt;div&gt;Deploy&lt;/div&gt;" style="text;html=1;align=center;verticalAlign=middle;whiteSpace=wrap;rounded=0;" vertex="1" parent="Gr0Zq-AI6Quabplr0KPa-179">
          <mxGeometry x="375" y="169.5" width="60" height="30" as="geometry" />
        </mxCell>
        <mxCell id="xX0nyE1Sm6BZzaNnp2QI-25" value="" style="shape=image;verticalLabelPosition=bottom;verticalAlign=top;imageAspect=0;image=data:image/png,iVBORw0KGgoAAAANSUhEUgAAAu4AAAIICAYAAAAxAGtVAAAgAElEQVR4nOy9eZBlx3Xe+Z1Xr/bu6h1o7Du4gQAIUGAXN3G1KBFF0mJRomjGSKMQKY1szVihibE11oRD4VA4bAXHVoxnZM9IIU94FNZIjdHStHaZIiWxIZIiwRUACYJYiK0b3ei1llfvvTN/3FzOOZn3VYEsdFd3nx8CXe/em5k3M2/ee788eTIv4DiO4ziO4ziO4ziO4ziO4ziO4ziO4ziO4ziO4ziO4ziO4ziO4ziO4ziO4ziO4ziO4ziO4ziO4ziO4ziO4ziO4ziO4ziO4ziO4ziO4ziO4ziO4ziO4ziO4ziO4ziO4ziO4ziO4ziO4ziO4ziO4ziO4ziO4ziO4ziO4ziO4ziO4ziO4ziO4ziO4ziO4ziO4ziO4ziO4ziO4ziO4ziO4ziO4ziO4ziO4ziO4ziO4ziO4ziO4ziO4ziO4ziO4ziO4ziO4ziO4ziO4ziO4ziO4ziO4ziO4ziO4ziO4ziO4ziO4ziO4zjnEjrfGXAcx3HqzC8s/iMAV7DYRwB4A3+LsAwQVcLGH9AvBHlOACAGmMowbXFq+VJxwg8R5o/uP3Twr0dWiOM4ziVO93xnwHEcx6nDjI8Q4XYCB4HbyF/iRiJTUOIkhDczN/uR9zVh47ZIKYr5ECfHZRBI7QdR0SnQlh8O6Ym9zADlfMs8IuRC5OcYABfujuM4I+ic7ww4juM4I+AobBvxy0CjtoPAZmJtHZe6ubCb6wBMZhfpMLljQCkvUrDH1DnmkbSUj2nJfDCCmCd5UkZp43ccx3EsLtwdx3G2KNG1RRF2cPJxyZZwDsI6/xYiPVi5419AurGQCs9ZkSe/Fo6/1fk5W+VN2tFKD2iLe6PbRSck5cRxHMdZDxfujuM4WxQl2pN7idzFeTtZxqmxjEcXF0T/duP6EuPEdCruNUq/EyV/+BRepKuzGo/rzkJ5/rzf7e2O4zjr4z7ujuM4WxQSVmsE4UxhRqkU2o3+5XScskO7trBHC7gSz9nFhWNiQXTriaecwlRdYuQkV3P+msiPIwbMLek5juM4BS7cHcdxtirRak3aik7CySUGiyIYgLGAE6QuboR02B9M7hwmo+aOQrOHwSBOqaisJdeZeIwAMIEpT2zNeQvCP6WVD1hrveM4jtOOC3fHcZwtSpyIKoVu9Ce3QjoGkRZxabCX6TWBVcycQNrOPu3xnCAzCiDWkRT2+JTPdE4zQiDzo1ezcRzHcUbhwt1xHGeLEm3fwRMm7KO0f+2qmzCY23P+MvgimPzml0C9FQB5hICSEd5Fu+M4zkZw4e44jrNFkV4kjdU72rUbd5Szr3kbVl5xjwykI2Y/FTHjNLvepL9F/PCPPF6LY/fV0gtp7fu1X0B3bVX4tucJrG5tdxzH2Rgu3B3HcbYqBOUvrj+fJMV5Wv8lRNLTSnMYI+xT/Bg3n1eFIxM2WMyFU31cnsacG0hO8jEH1uXHRbvjOM6GceHuOI6zRaEoiNN66PFTRXqNdiWiUbd414/ZiaEVq3mMRmktyNFp2bgty0wSA0ShJMz5Y1CO4zhOKy7cHcdxtirWvSXCJNzCgw1+bRWzn/0zdM6cAAAs3f129PdeCQCY+sbnMfGtrwEA+nv2Y+nOtwBjXXTOnsS2vzmUkl26663o77saIML0Fz+F8WcfBwCs7b8Oy3e8GQAwdvJ5zH7+vwJrPQDAmTcsYLhtJzDoY+aBT6J77BkAQO/6V2LlZXfXy8Wy88F5Aq7jOI4zEhfujuM4WxRmApHxAU8WdLOyS38NU1//HMaffxoAsHLrXUAQ7uNPfwuzX/oUAGD1uldg+fY3gbvj6KwsYfZLn0r9gtWb72iEOzMmn3gI0w99FmDG8ur3JOHeWTqN6a98GrRyFkSEpbvehuG2naDhAFOPfgmTjz/YZHNyGiu33l3MO23cY5p8y9Vk/BNMjuM46+NfTnUcx9nCsPUhsS7swXnGxNIRmoRapXH8qJPeYX/r2EQbENtUiSfyGD/MpL4A6ziO47Tiwt1xHGcLU87dZCiH8LjAugyhxH6exEpc7k6/9VeaNpa31ClQJzfZpfJcOpG8TrzjOI4zEhfujuM4W5Salo5fKc0LzRjRDq4byaV3jTnIZL5gKj7gpALVLPnmJ9czHTbzl1qjqwzA4muwjuM4zijcx91xHGeLk0Q1191W1Lb6WpNQ61YXV1Z7sfFJCvpRuloqfDmRtiUOIaxJn5aGHJG24ziOk3Dh7jiOs0WJq0Hmb6gCsEtBVt1a5IeXOP+GEdhhl15eMot9ZQm3HjCj/NK5fs7k8k4AsfyglK/n7jiOsxFcuDuO42xRtOFaC1uygdJmbWJpjFA5RtAdgeLrpy3xVRrCet92/rCdOwPm66uO4zjOuriPu+M4zhalmOdZmYhaDVg5xt+BOCai1ngbspBXPtaUl39EEPJubXccx9koLtwdx3G2KsEYzRUBXJtMqkNs4FhIh/WOPDk1ZkIeM3Fr+/OkVDtxNscj5I/CfiedCsdxnEsRF+6O4zhbGDLLJWZNTHpHDA8jhJlT+Da79rq+6vG3WWWSKq4y4VD+xdlnPjrIEFHhXuPS3XEcZ31cuDuO42xRogiPyyZu1KWk5mf+nbq8pMMUbeQNXJvoWqRZfC3Krjjfst9xHMep4cLdcRxnqxJXYCHKS0ESa9Hcau3WW6MEutLdYrIoBR/0ddNrywOXX3XVS8sLlxw3uTuO46yLryrjOI6zVSH5oSKgWf9ltFvJKPu2htW/WaCzcWPZSHqlu47ashNk4/rtKQS7yd1xHGcDuMXdcRxnq8La+g2UrubWql3zb68eC1BIW7m3bDAtqfWr5yF9MJ6nbS6r4ziOMxq3uDuO42xR5IeJyu8nta2DXjddc6GuxTmKk+aU2s6jXWVk/Epe7HLuMd0wYbZ92qzjOI4jcYu74zjOBQTR6C+Nqt1yo2W99PS9VGUlT1HKjzOl8LVUmjAbXpc9dh5ctzuO42wIt7g7juNsUdo/fMobdy8xrjbt56qI+g1/GEkuAMkVC7r2cSfSdnbX7Y7jOBvDLe6O4zgXAtJNBTRiVRe9botd8WWzaJsEq0U7q+NxTXogzLt1HMdxXhQu3B3HcbYoceHH5htGlPZpZ3cbS/qiy99swlLaDZivoNZ86ZlV54FJWP3lfhks+sCkVWVkubjY7ziO44zGXWUcx3G2KCQmdzIaKzWBwCQs1jWDuvyqahL8ZiFJ46dCFas9s/joU/EhJZFam/GfdB6StR2Uy1Qm7TiO47TgFnfHcZwtirREU1wHkkp/93ZI/2p1qTFRjNBuC58PG+Xdsia8DFAsa+lfYHIcx1kXF+6O4zhbmOiqIr1SWPmjkHFVMVb1Vj8UI5uzH0tLnJbwo5JuDUKIrjvy41KO4zjOaFy4O47jbFWEaT2vfZ6XhKzHkes5SlcZg/yaqXWJMctI1k+zAaFNZXw27jrNB5kYxTrzjuM4ToH7uDuO42xxGEgimIrV1bXgVXLafDRJi2aZghH7KmUxOdUGI67EsZNgYSz4lD6+1AQNS0S6xd1xHGddXLg7juNsVaSLeFDv6cOm0r98lOYVyy9WHWBqlnMxubV1cqrMhDgWJ8+mvIlCpMmuRI3LD7lgdxzHeTG4q4zjOM5WJrq0UFjFpepRwjZ4uUEtIn3EOUct99Lm4y6XebRQEvCyb8Cj/eUdx3GchFvcHcdxtjJpCUXYeagykA1e2WCMNs2XcUYb8utHab0RAAkLMe8+7o7jOOviFnfHcZwtSlwpneVKL8l1ZsQqMFz5zSPUNIuPOsm0bNr22LppQc2k5XAsut4TcfrgkzvMOI7jrI9b3B3HcbY0jV94+lhR3J18z60lvcWyTtwu3ouvJpU/kwhPm5z905VLjljyhuxfm7a0zrt0dxzHWQ+3uDuO42xRmLJUVxq6WLVFbggx3La/SKTyRVVECznl/SJO4+LS4gvfso676h5UDPyO4zjOaFy4O47jbFWs8I6/qL6/EqndkN1mZVdB7H5hcZei/jsR39Ya7ziO46yLC3fHcZwtClFWxJz83Ssq2bq0tFC1bttVXdq+nGp3FRNfY3IivZo/ftyO4dK53PTuOI6zHu7j7jiOs1VJ6z9Ssn5nvSw/jCR9x40JW7m3VM5BlL/KmndWwo3YlCvR1E+i/jCo+UDrqBM4juM4BW5xdxzH2aIkKa38y/Na6M1mZY1Ia/FGxVLP4of60JK1nos07QozLDoP8jzF6jNyBRx5crECjeM4jrMubnF3HMfZqshVXIRlPH59NBxpfnc6GOy8DBQ/2DQ+mdIYzs5hsPdKAMBgbjeiuZvHuujvuTKfY2IScRLrYNvOHGf7rvz10+44+rv3o9NbDtvdkB5hMLcnxRnObA/nT/+IP2Jiq1vaHcdxNow/MR3HcbYo8/cufpHBt1v3k2ZeKOPEuz+ClVe+TlvP2z6AxGGxdKYcLsZJSzjG+OY4yFjKwzmKlSc5py/zzMC+X/tnGHvhCOJiNAxh5W/y9nOHD933v76I6nEcx7nkcIu74ziK+YX3Xw2mVzaCLCozjp7WYf1uiH+zwOOkG9Ong0QcCtZioBCFKtUQDgQmzl4iUQ+G6GlX+PomS3ePmGPxZU6ZR7kuulWfcRIocTw/5X3h35RbVd5YF7keIsSUhCqDQazFdS4LZ93dhJmLdalqTNZhzkSMUyYscq/Wc5eVCWQBb4/b3zJJaThP5ye93yRPFK3uMptuR3Icx1kPF+6O42iYfoCJPwZkAU5MwZVaWkmzKNayFoU4jYI2R+UgjHWsJICjEA9ZymuGZ9FMSlACEGI85pkpx0KIZaNB5COXj7NoD50NTunmMMU8zKCJm7qicJxj9lIZQbHDwSFclK5S5QLMPJPcSkImRFWkcmvxbtdkN5kM1vomWykjundk0zLW89SDSheQRZ5EBdv4LK9tY9lvyu+i3WmYX1icAjB3+NDBI+c7L46zFXHh7jiOgom7BNoWt7NR1XzB04jEeEyKX7CwVhOF4EGQm0mQUTwm6RiEaiPkWbtXMCcLt/wOkBauwlYu3ENiB0SGaJKPgjp0DGR+gkCl6G4Sa4Qb8UkhjSYMQZRMCOXGgh8Fckw3/2WE5GKFpjRyBymm19TNzFcPY+KZb2300p5XOsunmzo2bj3xGrl0d+YX3j/BwM8T8Jb5hcWfZfAD9x+6b3i+8+U4WwkX7o7jKArXjOSuTNoiLd1QopAOX/rUx8hYm0mcK/wNol9NxkRjkZaW9ez1kac3RsNvSo9iCYIwFC7ayaFF5UFa6kkZl4u8Ksu/PCwUt1WgUXRH9xDiJFUJWsTL+KnzopLSFvmJx76Kyce+quvMnN7ue7FhKh4vYX++NrX4MY5Ki/I+USgX7Q4O3LvYAfOHiPALDHQI+H0wfubAve//g/s/7uLdcSK+HKTjOAXSZhwt69qHXAj2INKjW0k4EA5z8sKIVnsOIp+hBVxaDSU53kTFzWJZQk7nzednaQSvlKA5SPJIjJ4O63SVURjR6q4/VERpm8LKiEJxxwLLEYdUJ2GL42hArrN0HnBTHyzicKyzvF/nK8eX2aeYAOfRhFz/IR1RWfbcqTypXsRoRcgTiXPGfKWMyzoL+SMmJAmvozqXKER4HwO/AnAn3CtXg+g3iehfzC8supHRcQIu3B3HKchai6XJPYlKIFqPo59ydodpjmUBmaILEzWJ/9OZksFZT1tsfMajH3jIk/gYUe5MZHGa8gcpUuOZwz7OQjd/3Ij0OuTGZzuOKNhjTT6iG0sMx2GUgNS5o4W5ccVp6pCFeqUUJ3c+iDjHi+MJos4pVKCdoBs7SkCYaCvnJ0CPZiCmyaELkOqERZEZ2e0olDVcj1jHqm7JXM1ifXkKoyG2G+dcSswvvP8tAD5GRHPB8Sy20Rlm/E8Afmf+3sXLznM2HWdL4MLdcRyDFOpoRFn0yw5iMxiNlXhMoiyujBIFZbDYS9/yaMlWhm7xOxmsObi6hLDSWi3M+LmTQGICrLAwU+wOBMt4Es7IluOYjhTHcZ+cKJtGDaTODNsszh39c6LVO2aZxLnCgAKiNo7pxpGKaC2XIwOsysO5TqIrjsmz7HvEeksjFKKjkyf9Io+SxDrn3B6Y8uhC7Ksk13+wKEs8d04o1ritP8o5dS4x5hcWX8mgXwFwfXwuQN4b4C6Y3wfC7x9YWLxnfmHRdYtzSeM3gOM4CilR5TKLeVUZIcyEf3L+8iYJ83m0PDf70jKGwXKdfN+zgTf9biaeckiKQh7ksorZRhuPZXt+PI0RhOnUdp+wuMNESeeVUUjlOVaK2iQAcTlLtU+kC7GPchnVaj3Sap06Q8IKHuI3lm8O9Um57OEaEMy+mGcxCgKSVn6ItKR1n1W5Uxk4pwHSK+ow6f0xnYxb2y9FDiws7gXwq2C+HQDiCJWey5FutAME/GcG3nNgYXHifOTXcbYC7jfmOI4iOm5ER4q4ukoUXUyEQffCeG/ScICxfl9Nqm0svgBPTrXGY/PX7l8v3os9NjJNZtBaL61oI8sy6I6DO2PfYcrnlrG1Hgh6jmHp2uNcKhy49/1TBPxvAN6Yl10NK0+FTrBuGQwwbgThNwD65/MLi//H4UMH++cj745zPnHh7jiOobLKh3ABOX35Nfjqu/5bqDes8INvApq4MqwMEz8GlKyz5szKn4KE30kZNKeZN3c98RBe/onfEiWKlnXguZ/61+DJ6TLNZHIWvi+iDqrlU/tZH4sm/DZ9KuMIH/QYfuz4c9h98N+ie/L5ECSX5dHXvwfP3/hqVCtG1kWtvmL9B5eenF+Tl1p+U7lkWHktbRzGnb/77zB9+nhORK0mIyveudgJk03/EYAPAkiW9jjCk1BtMH1vYSczf4yJbjlw7/t/7v6P39c7h1l3nPOOu8o4jmPIE1CTd3Vt4mMSazJqFHJN7LxEIhmxxzmuFJfRYdqKXxUAQmByPifLdEV8DiMGKZj0GRdpFdrRmP3YxFH5FvWgXHFsR0QXQziCIwnolBdTjhA+Tv6U+3K9iTTkpIF4PdomFbR2Krj8K6+H7GhAtgfO+2O+ZB3IzgKgy+NcCryDGf9LbB95QnhcqYjz/kiam8EgQpcYP02g3ziw4JNWnUsLF+6O4xiyKiWIoWuz+kkTgLJQlVb39NsoQilSlZO4Satw4BZ/o1DNzuEivgwni0MimLD0Jn1tLOvS8qyrJJTP7E95F4kqp32Ugj8es2kV5REnJeG+pOpNhCWxL9WTKaedVKDqwoRLcxRMvVTLR6YM0H+TI7zG3WUuHeYXFm9k5l8iwlxsa2TaelyxShvc5bceCAA6IHyQgF+fX3j/teeyDI5zPnFXGcdxNIUbCGfjuBVYDEydfB4zp44CAHrT23Fm71UACGOry9h+9El0hgMAwMn9N2AwMQUwY/b4M5g8e9LEAborS9h+9Ek0XxEdw+l9V6E/OQMA2H7kSYyvngUArGzbjaVdjaGtu7qMuSOPAwCGY+M4ecUNYMo2CQ4WYLk8pDLig0Gry5h44qFm18QUelfdBHQnAGZMPP4gqLcCAOjvuRKDPfsBZowdP4Lu80+lilq95TVNfa31MPHUIynO2v7rMZzbDYAx9sIRdI82cXhqBr2rbgY6XQCMyW9+CRgMgM4Y1q64HsOZOV3VDKSuk+1YMIOGA2w/8gS6a6sAgFP7rkV/agZgwvSJI5g+fazJz9QsTu+9GiBCZ62Hnc8+mpI5ve8arE1tA8CYPfY0JpdOAQBWZ+Zwds+VABO6vWVsO/IkOtxc1xP7b8RwvKmr7Ue/jfGV5hotb9+D5Z2XNZlNK+mIPl6tTM5FzfzCYheMnyHCndFTK002l6sOReE+HCB+6Cuup5Q/4sUAowPCDwD0G/MLiz9z+NDBr53P8jnOucCFu+M4Giug5KojkqDC9j72FVzzxU8CAI5d+3J8/a0/DDBj6vQLuOWvfhfdIGC/uPCTWNp9OUCE/Q9+Bpd984sAgONX34qH3/4jAICZF57Dyz7x2yAwBuMTeOitH8SpK24AAFzzwCew49nHwGA8+/LX4bHXfT8AYPrkUbzsE78NAFid3YEvvuenmg5Cyr5wIaFgzVOdE0L3hSPY/Xu/ChDQ33U5jn/gH2OwYw8Awo7/+lvoHnsGAHD6je/Fmfl7ASJMfeMLmPvUfU1VAHj2f/y/AACd5dOY+4v/jPHjzwIAXviBH8fKq+abOI98EXN/+TsAgN7l1+L4B34WPLUNIMLOj/86Or1lDLsTOPHen8LqDa9WlU72OhhL+tjaKm74zJ9g5sQRAMDX3vFhnLzqJgDAvke/iKu+8mkAwIkrbsDDb/1hDMcnMbl0KtUdADz49h/BiatvBUC48quHsTd8lfX561+Jb3zvBwAAU6eO4Za/ztf1gff+d1jeeRk6/R6ufuCT2PlM0xF4+lWvx+OvfWfMoC6DNMiz/P6qc5HzRgA/BlCnGZjJHWrZvpevexV6V96C2Qf+HN3l02G/HLZSRoQOM94Gwm/MLyz+g8OHDj5yzkrjOOcBd5VxHMfASqTbb5DKI9q/XR7SMp8rYdhsj8iO+k1ysXRhyR0VR/q1x/XTi7CjLL5cOAmtn202hd2AHzdb9xx1EGl99lHJVf3fUxJtkVQCJr1KmEq4anrSl9/EyX7N0s/fuViZX1jsMvgXQdiZb918zZs2zejtvByn3vFjWH3NO3HiXR/F2tze5ngIH0fQVPMhgJnvAfC7BxYWrz7HRXOcc4oLd8dxFEnrqXmMlclicpalnVAqBRqQPjokj8WP9+iTFtEBO9k0fUFV+mnr+NKVJA27i4M1zWmLIDsmbFfMSUJUxjF5UAXRgrWto1Gs5yPrMYwcpPXfUctD9m7SO6JrQSmO5Rdum/BCTLGRVkVfROQh7ReRitPluif5z4Z7cc4FzA8COBDdowDdfogZ3J3Aqbf8A9DkDAjA8Iqb8ML7/jFWrrgpeVypbwYgt8Nggb+NgP8yv7B467kunOOcK1y4O46jIDkRMW6nj+dUJkXa33FbJ1qJI4KJyaNFdBMnC0wRBCQEvU5ELN8etsUHhIQCKObSCtWqDhFUftBahnr9xI9ZicyPFLq108ryVSe8kgmDpo5qc0AphFd1EsU1AcXKQCIeyTyI8yhY51Vd8+iwTC7bL2bmFxanAPwsgSYoNOTmj7ivOx2cvvMdGF55s2iTBGzbjVPv+ihWrrsN6Mj7Kd9Wus3x7WD+vw8sLN58bkvpOOcGF+6O4xi48Qs3rh6FsV3+NfHlAWUBVu4tItHC4t7uZpJe9oWrjLSKWxGPMGIAMJO2Lss0lKWaVP5Y5dXkr3ZOWQ5Vvkr8ZHi06VZM59W0uf1Y21CGyW6OQxAZql67uM2VsrMsq5yFGpNIbg6cOmLNT3eVuYh5F4B7ZHuMSz42bmiMtd1XYvX2tzTHpGsaETC9HWfe/qNYuvlucGcsj1qp+4bDrUXg5iur/2b+XnebcS4+XLg7jqNgsapDIlpFretHm9ayIlxalJWF25wj/bQW+0rCJA60WNtFJhCXl9MW9xxWWZftiaWVXI0uMJTrjoou1r1X1up63TY/6/WRziX+1tOGOWYSaqnv5qrLMklrfuV3Sq7SDqyVnnN6FCYjloMRbm+/WJlfWNwG4CMAOnlYi9VIHmgMZ+94O2hmO4AwOhTDIbTn6W04+70fwpnb3gx0xsQIGeeQKUkCwD8Awq+E8zvORYMLd8dxFBRMWckqGi1bQs8lK2rVWRzaRYOEhZuzuOWKv7VMQm0pA7IQylSNUJaJklctAConcNZOrKyDIe9FOJI/tfC35Us+94Wpuz3/1rdeZldZu1us8cq3SGXcWMlFEuqclbzKvNm8wHQ+YsLWF57FopwhjEv3ixMGXgnwO1SnP3wULd5ivcuvx9qNdwKhU5c/AZdvcGYGTU5h+cB7cfqOt4kRKcqecLo9dgC8jxn/5lyU03HOFS7cHcfRBN/jZLkKgpSU9VZYy2rxBc3EsRxNWbhb4ujNbJK2H2rJ4Ue7Wcg1okfmt8U3n9RsOFbJJKHKJn2ZlOjMUA5cP2cbVlhLS78N2lqm+v681F6RkIlrCqUubNhrxb2y2osRDHOODdaCcwExv7DYJeAnAZog2VZCm4hW8zN3fR+QlnDNE7AzadFI0PgkVl/3Hpy8+/tS54/iRBbVHAloPtL04/MLi78wv7Doy187FwUu3B3HKbGuC23W8WRFVjtNWjZum211xP7a6UdZg43PNRlf9jY/eb1qjrQotwjhNmu2paUjUi3HiESyy7iw0o9SvGqEwv4Wu6xur2WpMOzXT0xylq8aFaicV853cC5GrgfwlriRp17k671y5S0YxAmpRSPMo15qzkl3HL3veTdO3/H2xue9bJwJAjpg/nkAPzi/sOiax7ng8UbsOE4Fa3muBBG+y1rokXn/WlHWpjRb9lsLfsv+Nst5cpNps/SL/dpSLbKkTiVF8whr/UZpi9dqABf+weumjfY8GiP4uvmoHuYRx+T+ynnTObki2pyLhDcy4/q4IadLRPG+/PJ5YGIa+QjEb9PJle5Z3XGsvm4BZ18+D9BYeWY9wXWGGb8M4MB3WR7HOe+4cHccR8NsdGrFYmt8lqUxTB1AxY2lVZ+1HGB9iNY1Dcf8iTxwpf8wMi+jkG4hJq2NpFeMFOQkeWTZjE96W5qtIw+tyVUs4hscSaj4uFcDkMyHEPuj/PudC5oD9y52APx9Iu7UxuSIgP7MHNZuvEP0/+PqTZy3RaxmdEg8g8YnsXzgvVi+8Y5ycId0B4EI1wL4VwcW3n/t5pfWcc4dLtwdx9EQlTpO/YtsqW5xnx7pv1Ez0tuhbuOxUk173UmdQmC3quoRabS5b8hORGv52yl0cWmMzolb1x3ogY5qRlpHHmyctvgtadQmI6vVa2Iw+6EumDoT14VkfbiX+8UEEW4EcFflBk7uVMs33il82xtPdulqFdeWAYA8pcIMFU1vw9k3/TBWL78hB0R+PKj2BryRmImP+yEAACAASURBVH7xgPu7OxcwLtwdx9EwQ36JtFkVphGR6R1oLe+A/jpqmwYT4o+k/3Wh80zPQZ6vImbrq9vkzkb8WBAXYp+SBa/8omkelq+dMp+mXobRK7KY/SkJdaBU23JOgTQxtnYy1jmW8i86NiOyXeyvtQMprsQqQiqcOiW5Zr84eTOA/XH1mGZt9typG451sXrL9wBh7kbTpkUYzvZ2vQxt83/uIDJ4Zg6nvv8n0du1P52cgLRCVki62Sb+EDH++3NRAY7zUuDC3XEcRWP7JqGJg2CXVmyzmghbM3CL7pY+5UwMtquNJFoswERZ3EqLf20CrFitJJ++fZSg/KJpfumr/WJwQE10bRsZyAHzftURyDnUc4IrapbCCteMPF92lL/7SEEc6iddV5PfIonyPLVQQO0LrdSyWf+aq3MxwO8E0I1fCKDQduOI3nB6O4b7b0gryFC4Z/OjJtvbKdz3jcBvQut2CWBmDqfe8WMYTjfLtjMAjkaHkGa4yyZA+GfzC4t3naOKcJxNxYW74zgK65OuNau1ykZha4WZVu41caaGwYs8jMrgiGMy0AYGAAAIBVxz76hmXIxG2B6KzWcKqH5aw/rGMirCELKvf+F7YxP8DkQ9iTrRfTQRhMvrvt45YqctHJOdKufi4cDC+ycAejODi/YehfnSza8FdcKkUhWIqqM8cfI4iR0U7ivi5vdw37U49YZFDMcnc4fAdM5Dg9sN4JcP3Lu4cxOL7TjnBBfujuMUKDcIKTohBF3YU0fYw0gYcM0bmVUHYLRLR5HyCFeb6qTMdZYeZDaCQa500qouVeGM0ZrVIXtsXYoySbccm6DNkzyQXQV0eqI+rNbnShzbQWjpcBRuPLIDY11lyI4yOBcDBNwJYC51io271LA7gf5Vt6g4ah6KGO1Tf1M4saUGAglrL7sHZ179vWDqlK5c6bZhMPA2Ivz4/L2+RKRzYeEN1nGcguwaU3+RJjXeJkaNGKstOchqU5vltA417hlyVRLhplJ4mQgPFpmOdnth8dKvHaukbzTzKBeY7EZj1WnFBFlgK1GMbBTLOra7olTLLXYU7kNypGLkeer2cvWxqtROdL6jgZWly49z8cC4B+CZ5vJzcb8Mprdj7bLrVRQSN610kVF/wcjGA8oh1RyLDlbu/n6sXPPy4CrD6a+6Lxof+p9nwF1mnAsKF+6O42iMVVdOAiu+yFn1hbbWc9aWYuNmU0NpOTHBUvmUm/2tM0hF8PIYmXgmF7IqKoMMar8pT5u/erEqzKjVcUxniGv5YVvf8hhMHZVhqhb3kN/iPMWEW/MXgJqQyiEtsZ3aU2xToybQOhccBxYWOwAFk7ccpUNqB4Md+0DBFx0sJ5pqohXeHo/byUofhXk4hvFJnHnTD6M/t69xmeEs+OOIULOf9gL8L+cXFuc2ux4c56XChbvjOJrCOiqWaLMitbr0oLHgCqtvY9bmsFeuyD5KuBmrcRLQwkInrdGWSlZ18iNMvrIqasHk/hETX3U+Ktb3mr+IHQKIm8xNGiQL1mJxF9b8IphwL2ASGZRTTslYz9tGCmy6KY5xlSHRnqK/MlGepOxc8BDQBfFd6XFh2gYDWLrxTgD5w2gk7nE9NyVY1eUzCLENxWcIqQ59WkFqxz6cnn8fhmPj6t6M/VIxePhmZnzwJakMx3kJcOHuOE47LFxT7FBzOJ6CtmhvRt36zCwWPxzpL6ETznNJc36qPuOcw/OofHLLfvvVJq4I2xEJl6MAFZN9OlQMC5QDF+mkzT/Kd7+t+lrnFOi0ldMLiw6IXc6xzSFdpSst+Dq+XTqTgysFtTUe54KDgTmArlXtV8736IwBOy7TLi5k7yX9o7Gu24NBqDMjueTEw9yMDvZveDXOvvINOncxdrJF0AQRfu7AwuL133mpHefc4cLdcZx2hFXVCuBi0qhy/9BJZCEow2/QykpUCsO0n+tpsT5n6eFT+pyU2ckWPpZuQlKQqEgVE3t1RCImUkbdkHwNulgtQ9kWUQ1RmJ5Ai5Eewaoff/PIXOVwck/5BdhsDVXhOVv8R5/HuVCgxme8G43oaanYcM3Xtu/GYMfe8naR80FSs5UNK7rNZHeXFC8I9dTUYlpjXSx/z7uxNrdXdR5kWwt90RsJ+IebUgGO8xLjwt1xHEPwHG1dkUFAIo4U8mYSqv6ASvzZLtTajjRZENbp2KmwaUm9SlpMbtxArS2A4lWfjumyjSpJFs2Nf+4IES/32/5ItR6pEk5uZb8ZFSxd3liWUZ0QcS5xDmX1jzGrfkWl5ZTBwl1q1OKgzgXGzUC+1klQhzYynJ7DcGYHEI7J5wyzeMhYFysAYDEZNX4kLjwH8uTT3DAJBEzN4vSB9zYuM9KHjJs2GJp0F8BPzC8svvwlqRHH2URcuDuOY0hrOoh/xQs4BdNCj1osysTS0mot0KXFtrIp3uUsMySSqpidxfufZKmkRc74kWurexbEev3oHJCA0oqs8iSFQrY666rL9breKETyDZfCvxJlQ/78omw6Gd1hKFeWyUm15bcon/Q/lklRvDZubb8YONAsrfgaoLxnYlvh2Tl0xidSnLTf3hcxYujgNXMh5ChWbDy5baXOZEwz7O/ffDeWr79NGPWbNk7aFWwngH9yYGGxuwlV4TgvGS7cHcdRcLJWRUaLxHUZFadisS02la9sPTGb45o1X1uIW7LTel5tfa+cfGS6xWhFbYRgPdSIxgbC20y15VtYQ5ttKsOkcLUEXkx+zHniRfE1IS8SeArAlWlLjuqEdray/yYRXI9j1RsSiWeS6Hyb+I0W1ytfSaPD8ve8G/2ZHdl1J40IxNVpAAY+SIBb3Z0tjQt3x3EU0XKV/a65FJpA8dJs03TrnEz/TfvNbzXCPUodm3TF3mj4ZdR1IsNkgwC9ckslb9adpdXSbYW6CVgtUr1O1ul7GEaIa2n6bitfdD1oSyOdpuUAi/9FAizOy2Jkw7mwIUAJ93x7Z+t4f9d+iCEm0TaieGa1L7nbQIaTjbdpYGTbsel1DvdchaVXvD7HTXNWlJvWFJj/hwP3Lk7AcbYoLtwdx9FEX1EG0kvSulOY1UHsSohWmLZ/rTT7t6roxeoqWa7qdaGDJc72LaQlz6z8IvsBMu3qginVfVJYCOHBOoLuzKQKLetipNO93KCwEk/Mb4upv9hN4rz1kYjinOqyCFcgFZjAuvD5V5rcGstm2ksME1YEGTXfwblwYKIpBi7TbY2TdRsAaHo7onOU/ChSbgKxXTXPHmp5RqS4sY3GuRopnO6BEgirr5hHf9dlea9YVjUZKIjeR4Qbv5t6cJyXEhfujuMUJDuW1ZhFSC1U0w+jI/OE0tqZUAr9wtk1WmqFN7QwkXPhby0t7iJOmsxaBCuzJocdVADbS5ECRQzTk85FuzMA1Sq2BcoTW0koHjlpVPegcseERNyNny4jJgPnw+X1I7VN6o/WUhQs7jG8i/cLHQImCNgb11cH4m1EIAYG41Ogicl8N5hbNsp7IhE/tmHSMyHUvBnxLGjisnp2cRgZ47m9OPvqt4i+adONj79DmnuZ+Uc3rVIcZ5Nx4e44jia8+OLkQ63VtMVVrupCNbeSGKdFL7ZNorTa0+o/u1EkI49RfjXH/BSTJ2t5Uco7W+a0+4gQs8Wwg6krdT7Wh2r1YPcH63QxkdOct6w73ZkoTlPrI1Xru3JdN4LtAFVOVzmbc2GyF+AJ2beVk7f7szswHJ8U/Th59Ul7p0Uf9CaRmASq7YS0RxZB32Nx9SICYe3mu9HbdUXTzw7/xW5CMwjUWN3nFxav/S7rwnFeEly4O46jSMv0hZdYVX5GsWgmjYUESvUo1gXPXhO8Ye2nUxND58oDo+KCgjhyECa4tVrRay4sOqm0XKLyOBlhsrfWbTkztvVY/fzNqShZL0fGlbNwuZaQjpeXyazlwQydtOVvpKuLGU2J/7A9t1vcLwJ223tKNo3Btl3g8al4EHr+DOvbM3aQw988gTQ2HrkELWf3q7gtO93xODF4ejtWb72nEetsesfRWAHcCuBt301FOM5LhQt3x3EUxPET4tkKFmFYa5c0zYrfxqCc3TpkMGuh3gAs10Anc0qTmPHLj0sp6jBi0HyERVktbSfSrmRQhGktgpGoIwSr8WMnZe1vyYu0sit/hJZ4YpnKghGTaJtPzbeNsojwqj1wzhLlDh+pfDoXKsy8X4/wmHt8bEy0lWRjF9sQHWPx9GEkY0JuPIS4DjwXbTi7hXEQ57EDTwSsvOoNGEzNpkdIdKdLdwqjw8CPzi/4JFVn6+HC3XEcDeVPiGe9JazFajvDRmTqY3I/p33KL74NuXqNyWfrJFSV1+idwvqclfzruZe0rlW5LDOZYxUhX4jhEVZ7kzqH8E3S0oJvxkVa6rtanjggIicBVsOx0dacy6Kukbai6r9RaIVzpN8u2i8GiGhbvPyy2aQmMT4NjHVzqwgTTNOzhij7yoj7N9ras8zXjbm5VYXlHlzvo8cO4tQsll52ILdK5vD8YNnZvI0Zd37XleI4m4wLd8dxDNJiZn6w2RbGXP2hHi1GdTrZyroRw7W14OVNk0DLhFYpmItzssyP8efXOrya2dYyp2MqgfRvmZTJKxCEsih7tD8SQyddG0mQP4Q1Ui6dQyY/bb76dqKpKB8VYeJISln3Kl7MVrCaZlOrc4EzES+/ajaEsIJL3hXdUgA72kM5gAmX229sQGHddo72etN5hpx7E2M0cVZedg+4OxGiRKt8CgQC9hLh721WxTjOZuHC3XEcTbA8y8+RR393+UqUf5owLcKLxDFhikuW1xxIZkL/bDP0t5vPhbE32OLiudv0YWFxb0k/6oPqOVWFtBZJx8+CRtVhqxU6zj8Q1m5rIZcjGcbXX4VDvg75GrWctjJcUV3Ok6Gvay2pcL11am51vwi4ptwlLePRVcY8D4LFm+1+mURjkk8+7iwd4oWgb/bGTimJZJp40T2H912Ltd1X5E6j6K9S7hd84DusB8d5yXDh7jiORlhco3iPK8zkd6C1qBqrmRF4auk2sU+uONFqPS92i6H01mVphDhQlmRrTdZxtMV9hAW4dlprzpenYkC5ALRY8qt+5uudqmYhpzJgYekX1k59Ldo6YHYEoX5dmbgsh20PIY4O5Rb3iwfbA27+UqcDog5i59PemxTdvFK7zdby3I6bdijbWO1saTvuSJ3WIOCJsPyK14e5Gi2GB+Kb5xcW73oRBXecl5zu+c6A4zhbD2L5/oyWXci3IKKVfDjWxdrENABgMD4ZEiBwh9CfnI7TEcGU7QTD7oSIM4E4G5Y7HfQnp5t0xyfAnU46NhifTHGG3fGcBeqk/f2JvGJFKeqbCGowXZx3ODXbpD053awjH3TDcHI6HctD6wB3x9N+XXkd8OQMhlPbmu2x+JilEKfZz5PTCJMJACIMp2aATgc8PgHujOX8mbyCWa9zz+EfIvQnch3JuhuOjZtr1AgkJkr7mzhjSeAMxsU16k6mkzF10J/I1xXpujbXqD8xE+KMq7zZKwEgL/knO4XOBU2yeKcbLY/g1UI2fdpwHzIjrsMe3e/SPg7W8jCCl/eJ0cHYGeTYOaamPac+p87D2lUvw2B2B8bOnFDegKIrPQXmNwP4/CZXk+N8x7hwdxynJBltzWtM/WpelEdvugMnr2w+NNiPIpAZK3N78PBbfgjEQwDA6vZdKfbTt70eR25p5n31x6eSsDu75wo8+M4PIwrEle270rHHX/tOjK2tAgDWhGBe2nU5Hvx7HwYADDtjGHQnsiCOGCGfjgT/2MHuy3H8Az/bHOuOYzi7I5Xz5Pf9KKi/BgAYbNuZ0lh5+WuxdtXNOb3wz3BmO06+K8fp79iD6HazcuvdWLuiqSsenwBPTKW8vvD3/yFoOAQTYbBzX4hTjkLoK5KP9cen8Oj8AjqD5rwr2/ekwh655S68cM2tTRnGJzHsdgECVmd3pLpr4uxOeX3q1W/Ccy97bVOGeF2JsLxjLx5+a76uK7M7mo5Wt4sn7n67uEbbUjNRiEvBwupu7e/OBUgYWWLE0SsOK7mU3bLSv1241MSGIwR/0t1qwE3fH3FATrrLNLpdum4Jt5od+9DftR/dsy8ATEnjp9wwd4jorQfuXfx393/8YP87qhPH2WRcuDvOJjK/sDjH4In4qmksR/FtEF8n4vPfI7ZQ2WvDZ19R6KFl6f6JaI1C+bIDmslaQPoXwLZkBRP+HsW669yEX5vejrXpYF2mdBIMuxNY2r0f+U0axTRhdXYnVmd3agXKjSX+7O796rwxzsrcHmF1joWMca7Ub1yO9RP1ezanyWpq8szg8Ums7b8WOpEmYH/PFfmcMS4zhrM7MJyZ050EImCsK+IIlUqE4ewchrNz+hwhbv+ya/SFq9igleVS+e4SQB0s79hn0mh+9mbn0Jud0/lE00k5u/sKbREPeV7dtgurtNO0LcJwfAJLu/YngS/Pla6RqPKiEyWybapo2/zC+/cq0SUqPbZ91Z5TEWWnTNwrqbnEfTEl5LTMvUWi/nWuc2ji/JGyXAMEAL3Dhw6eKgt7iUDR2h5rJQj4UF/NrRNXfIlXAfmjS8I1T3W0w/VO1y20x9x2stBP4aKLX2oHuYsYLyx1Oli66TWY+vZDIZ65mk2cNxJhAoALd2dL4MLdcTaX/5dA74obeq1y+eKIQ71GiAWrUSk4mpcNxxcjoBRPthSRPhX0i1IJkfSSy+nV3GLisHTMb0pfhFG/reWU40u1dJlQ5SATN737tVUtpxPLKsSjFNdZL4v4+ljaySZgzLP1s01pmMQL1xW5Pwr02nl150gHIL1pq6+IY+qlRuF7XtmXymTjRMHD9XLLekxW0XhtW64PK3/4XwToF7Pokl8RiK1bTz7UZWFEP+kk9FJRcvicgkgzCUPZATD3VDoFqbCx+YX77A/nFxY/cPjQwaUyg5cQRnTHa8nDAZqazW5z6RnJeY+I3FzTilU+dQoAI8xhwuY2FvOC+GxlAvZejeH4JDq9VcRVZeQjBYzdAN8O4P7vqC4cZ5Nx4e44m0jWI8KKTnl1kerwMAcrYHhbcBBHLCaARqu4tiJSesFIH9EmfaS0KPpFQ/uFJp9SIRClQTanlf1MAUZ3ZRm7nnjoJai9zWfb808pK216aTMw+eiXwd3x853FdRk7cxK0tppGPNL1JGD22NONL/kFwFi/JwZKOLTd2DazEI6/pZty7OCkf2UnMgoz1bHM94m8l+R9AZFW6kRDWHTjB3xE7rKlV0xkJhHHOSo7ZaqTxQB4GFQ2531oKp6DYCbVJmIgPUm+PvmdUxq50yZs6JzDpY4bAf2dl2Nt135MPvd4ai+Qz+cm3D1w4e5sEVy4O84mQmn4Novl5IKSxHFS3iESZfHehBCWJDE5izi/76TF3k5WRHyviVcfZTEU1VD+6mU2EudOhxUhWaVMn3wet37qvu+yps4R3FjVlO9q6Ljs/KP/ONI4vWVgBgZ6lD5ez/0PfQb7H/7cecrYi4MGfSHEc3vP/tC5s8jCB8UKdCn+gbJjCSBNrmZEjZg70mrqQ3NS5DXus1jXYj7mJYg+gj5n7Za5NDnFqVOmq0S52uXLka6R1cr6+osPKrFwYUrPNYbs0EqRHl13Wi/R5AyG23YBRx5HnPidsxKvNd0xv7DYOXzo4PC7qx7H+e5x4e44m0r06dSe6NbtJHsoCEtgfLNYt4KcshDY0qJY+RCOcUuxowBNUHs8pE3Bk1e8FFMoCpZ/ISS1X/CIfdKCH88JZUfdoPYRAovbLZ3pHBQs7qTricIkzmoceZ1sCKaUpoxVK7OMl9Oy5UcqS9wgU76mvYgRlXC8MxwCGBbWyVH1UewfVYfp/G1ls6nakObaCosmhbrMp85tNthPke4nkWIeIYquXzFebrMqRmjcStinaytrjeQZQji7LdzNxAko9BTyfX1pwkAv/AVMiyEioLcMDPrg7kQefQR0pyleQ7GPpO9K6hBkS7x6psXRR3XuJmLsqCE+E4LAX7nqVkw/+kB6Rtj7iQi3MjAH4MR6dTC/sNhl5rnwFdkZJswQcD2AbQCuDnfITdodMuYbAKhHjKcA9EF4gplPAfQ0EZYAnAFw5vChg+vmw7l4ceHuOJtItuAZ8ZVCSGEi7HtsvXk5h5PvLCnkKcmW/IqM1kUl4PPJSH2ApxG16ZgS8hSEiBQ8rF5mKqyB0rljHcSXqsyelnhFKtL/WylcWR+kgsdOE6JI55i/LE6VsCo6OJysdclCqCIY0S7i21d+WU/237LMujOQ6yyWSw7163gjBLi6jvZYbEPRMgnIj9mQKptI0JZVzDuwOStFfy697gBRKkd2X6mtCZ+TIHuti7DxuDhH1n+6rcQQqQ7K+sr1JPPFuliXMAR8u+i5SGHd7wHDQWrXed4+pTZK5po1TZ7KaxIiZ9cZ+ZAUH1oyHcTkYpiDor/36hRHPq/FwM+1xJiBEO7zC4sdAFPh//0MvhOMu8G4loj2M7AfhN0E7JbuibmyomAPHb/UQW5yqbaJh2A6zuDjRPTs/MLiEwAeZuABAn8FoOMArxw+dF/vRV8054LDhbvjbCKU1WMWIEAWd/IllmPloXcp6aTAMGR9boRSsCwlwV5YImuWrZCmECPl5MCYrsiQEubCkpmEl0nXiOR2+Rp3y5dcud9axZP3EYngUdFBikAq0soF05FLrctN54ds/FhWmaRYsUS4eCQrWzKwUQqj8mHLTnaHOW9rPb6IY6H9tFnnWzJU1IPOXJlYsqbLupTHQz2lzl6l2eSVkvLchSIwZUFYL4rcLzqKpvOVrwpV4oXrxiHkpWxyr1ik5UhXZ+lUI94nZ0SHjlU7rI3YpEda2+Oodh/L1EgcLS45ozO1Tbc5WwZgPxFmAGB+4f17AXo9mN8EotsZeCUYV6dnJ+UccHTRodwh0EaWmJ/4TohpUA7b7OowsJeI9oJxa54PADDTkAhfA+iBAwuLh8H8KSJ66PAhX77yYsWFu+NsIumlI41wlIdo9aotKVJ6uOf90oIkonAUPfoFI22gSBaj+uTU/C7Mk2YbkRoFceXlJd6H2biaJ9Iqa72y9mvLqRXxxTaQPsqT0kpW4VLcZj/9UOJQl7ms4m1P0Wc52LFCPcdJkrnjlDtcdhKjHBkRRVRyQRifES14sVy5KuMLOs6AiJbcKFLY1BvS31jcdG5RxFg+OdIhxYsdlYiTLOV1LNKVrgfGAi6/NhkvDYfI2cc4lC+qJtHhAvScEKuL4zWJnZ58nrCRTw+OFlh5bWQbqpRNjzToDovsyJLcjoZS26Zlxi9RmPlZIvSYMdHsEZPziTBx4jmMrZzFYGYHsgsWUlsA8vOD5cWCfFyGThJRjquet9A3YY7VLOMZRK9ciWs4NYvenqswefwp0aZCwKaFTID5nx9YWLwZwF3M3AWhQ8hp5REDLd5lx1yu8KXfBdG40PxW4l6+BuIzVb4niDpg3AbCbQA+TERDZv72/MLiHwP4EwCfOnzo4PMv7ko6WxkX7o6zqURVXHEOKHYgP4hF1NYkY1QlsHVy6UWWXhbxYyjSvzumW7Mot2iPyjnz7jKCFP+jBE4WQlkg5fowojylTcEyVp67sK4KRZutsnryWX4x5uPpaEqLVHI2+by7rNMkuE05mosVxaZOyNZXTRcW+7isk/q2yAuV4Yp0kwCnqHaTaFB1nUSHiiysoubc4Xeuj3z+1BFSYfOp7P3V7DOuV+nSj6pHqv2pdl6t9T+nGe66S1y0AwAR9Rj8PBFdGfexec4M+32oTjv0pZXLz4ZE7Vn0fQD5CMlxYmeRY7sF0sTV/MAN/3YnMJjdARx/GqC8ahBDXnP6cJM/3RZUmuJZLTvbsr3JbwogGWIoNSFWnYrYeY0FND79oPz1YU6dpA6BrgXjoyD8N2A8O7+w+JcAfgfgTx8+dJ/7x1/guHB3nE0k+W4iS5bkx8uE49e+DE+/6vXnO5sb4sqv/DV2PfkNJEtYeDOt7bsWJ9/xofOat40y8e2vY+5Tv1uORAB48J0fxvACWEpxYukUrv/sn2B86UzYk6/H6TcsYPW6V56/zL0Idh36P9E5fRyA6MwAOHnljfj2Hd97HnO2cfY/9Bns+dZX0ihAI7TYiMdLmhUCPc3MV8YemBxMYTBw5jhw+XVpxCNaz+0H3uRiktn3O2yJ3iDF+zrr3zxNQ3bSxShLPJKWih3rgidnxbNbR8puLhCdDpF+KGMylKsRp6zoY2fAdt5lGoW1PY0GCcEuOwuigvP4Vkp+isHXE+jHGPxDBHpkfmHxPzHwcQI/cvjQfe5OcwHiwt1xNptkLclWkbjZm9mO05ddI5688Y+02on9ytTI+ndSCuIxXZDG9e0btEw7JdPsW3tkW2mxBWE4OYW1q28qlYrJXjU7bflL9SCQadWKJ4aY03i5eqMBneXT2Zdf+0HgzL6rMZiYrCSKnCbVCmX3iczVgkCa0FoqiWXe5fmBqVPHMBzrllZiAP1dl2PtqpvzOeNhW2c2P+tdHFmOlKYc+rFmwQ0k2R1XVuz4sz81g9OXXzsiA20Noe3aYPRvO2y0obbaBNr9xIOFlbhmNb6EWWHw02m0DfoxQSCMH38avZvuTNsQx9KtHLeTeM/XUMZpduh7u3lkGU/5YkCEVL5AHWBsLDRv2Ublik7ymqczmbDNedVIoplUa2eQ5HzpJUjjfSYniKuRTJL5ofz4k0NwUK6KMwBuZ+CXCfhZgH5v/t7FXwfxV3xS64VFZ/0gjuNslKgfleWItSUpQ/l/uZAxA+nLnGzDCwEix1WlAGR58hic9H6ifI4XUbjk08yk85sC2BOLzVgPMh9KtLP53+6XaYj4KYxJU2ylamJWLz+dR9kJAJLDPEQCqZNlz4/cKZJ5jWGk8DVFKq9XuM4yrZgF07bUQatvU9rymCiHrEvbRkn8Tc1OtD+W7U0fShmVadoqkW1JHpB1JuvLZkabN8V5yJyTv2cYCAAAIABJREFU9H51nvCbKvnImUSh7Dnnn2M52q7LJcbhQweXwHhCXl8yl3bq6UfC79xoOARIlnVm5RKiny2m7QDN6lhqv77PSFzjJMZF+6BOB52xbs4LYrNixNkYJO5H3UykhVvMx6AmPoe23PyXzynLwCIvqlxqH4vnCDdzZuRcD/M4VrezMAqEs1/JwE+D8FcA/cb8vYsXxrCdA8At7o6zqSRLifRDJNJP0chwiOlTxzC2tgIA6M3MoTe7AwBhfPk0Js82rojDsQks7dwLdMYAbr6WSTwAAKxs24X+9DYAwPjyGUyeeaGJ0+liafd+gAg06GPmxBHQsImzum0X1qZnAQATZ05iYvk0AKA/OYOVud1N3ji/CLOvqbZGxTJ1zhzH2Olw3qlZDOJ5eysYO/Zsymt/39Xg7iQAwtgLR9AJ5x1OijirS+gee7ZJnDro794PnpgGAIw9/zQ6veUmzuwODOb2NsF6y+gee7rJ0lgX/X1Xp7rK1yVcDyKl0+LuzloPMyeeC/U9juUde8FjXYCAmePPohPWfO/N7EBvdq6p76V8jQDCmb1XNb8GA0yffD7FWdm+G/2pWYBIxRl0J7C8Yx/Qaewns88/1az6hg5WduzGYGIaNcucXn0olxCDAbrHnm5W7QDQ330FeHIGYKBz6hjGYnuanMZg1/7mvGs9jB99MqXS372/cRkgYOz4c+isnAnXdRsGuy8HOF7XZ0DcfItmbd81QHccYMbY8WfRWW2u0WB2J4Zze3RjiZPwYMogOlKTp1/AeDjv2vQ2rG7bBTCju7qEqeBqw+hgaffl4LExgBnTJ49iLJR7dXYn1ma2A0TorpxNcdR1BbDt6LdTvlZnd2Bteg4gwsTZU5hYOpniLO3eX1R180dYVcHazeEShkBfbmwRwYLO0QrdHOe1VfDaCjAxlcI0z83grx225UR029nORmVu4qVnrcwJm4Eu8UxO/+Q0bLDaCFdqu2ayiU0qlYEJ3CH0prdjbWoWg+4k1qa3gYnQn5ipuup1V5fQGayhMxxifPk0uqtLGF89i+7qskhbumqlJgjEvJn6yoVDarOhnDMAPgTgh+YXFn8NwMcOHzr4SJEpZ0vhwt1xNpVg0UxiPVs7lfWEgc5gDdf93Z9h+3OPAwCeedXr8e3b3wwA2P3kw7j27/4MALC063I8/LYfQX9iCiDCrX/52+gGAfvYPd+PozfdCRCw68mv47rP/QkAoDe7E19690+Ax7qYWDqNWz55XxJDj7/2+3Dk1rsAAi77xhdwxYPNl7yPXf8qPDr/niZ/4qGfXwziC63CEDb91fux7W//CACwcvMdOPnunwAAjL1wBLv+4FfRWVlq0v/QP0E/iNvZz/4pph/8WwDA6g234cTCRwEGxp97Ert+739vzjUxhRP3fgS9q28BiDD3yYOY+PY3mjq543tx+i2LjaB7/insPvgrAIDB9l049qF/Cp6agbaO5VViol9yKgczpk4dwyv+7P9pyrB9Dx5+6w+ht20nwIybDh/C1MlmUYanbn8znr7tDQADex77Kq554BOICX32Q/8UADC+soSbPn0IU6eaOI/OL+DYDbc1cR5/ENd84S+aMuzej4fe+kEMJqcBBl72id/G2NoKht0JPPLG9+HklTdqK2MujPqdLGm9Zez40/+E7rFnAAAvvO+n0bvuFQAzZr7815j9uz9v2sY1L8OJe38CPDGFsVPHsPt3/m06xwvv+Un0rn8VAMK2v/1DTH39802d3PIanPyBHwfA6B57Frt+/9+DVpvr+vyH/2cMdu8H9XuY+9T/h4knHgYAnL3r7TjzxvcJcRvFbqUMoqN7xYP3Y98jDwAAnrv1tXji7ncCAHY+/U3ccP9/AdAI6i/f+xH0ZndgbG0FN/ztH2H2eFPuJ1/zNjz78nsAIux45lu48fChpgxze/DwW38YvZlGoL/iz38TCJ2Pb9/5FjzzyvlwXb+Cq7/4yRBnL7787o/ktiIvRrqvOQyYuWgPPADkKtIrFTG6p46he+oYhnuuSvdfM4E+enGLf4Wwt19HTZMyzahUEq9Z3qrnVb6OhUJvzpNXkhGWdCn69epOMaW16e1Ynd2J1dmdWNm+B8s79mFl+26szu4Ed8aa/6kD7ow1cTodAJ0iPzQcJKt6ZzgADYeg4QBjayuYOnUM0yePYubkEUyeOY6p08cbwwsP8xdjbTFNHaROc+pUASDqMvijBLp3fmHxVwH82uFDB49s7HI75xoX7o6z2aQnp7DCkXyQAggv+05/Dd21XvPAHQxyEoMBur1eY/lc6ymRNtbvobvWa04xHCB2Fmg4aNIC0O8Ll0VmjK2tNunFOMG1ojPopzhjffEl0fRikqsYGHtiSIMGfdDqSuPOGcoCMGg4RKe3gk5vJbyH8tuO+j10es1IQ7QQN2/2Aai3AmLGEACGw9QJojUZZ02o8GHaz71VcR2yFY71LqirESx93bUemIGxfi8t3Qg01vimvjnXNwgdUd9yeBzM6MRrxCFOfHeGOAxGp7+mXq5ja6vorq1iwE3d5eUqchi5br0exGkEDa2tprrAcJgtkv21sr7RiJ/m+oSVPIbDeCpQfy1f1/5a2NnUN/VWQKvLOU6s67Ve3j/oZ3MnC4um9MdV1wGhQ5vbZGfQTyZQ2b4HQ+EmAKR7AgA6w0FuM8Nh3q/aDGOst5pEHw3iNWJ0BgNxT/RyZStXs1hJsSProj3CxF8jYAWEqbREZxSJRBhbPgU6eRQIHz3KzxW5WkwUl3KkTKvlJE7DNZUW6IxR7FQ7plE+7qGF2DGuYXccvdkdWN6+B2f2XoPT+65Db2YO/ckZ9Cem0yiaqZnWc8r8RGEPAIOxbJFfm96Olbl9OHH1ywEAY70VjK+cxcTSCcw99xjmjjyGqdPHML50KozcWREfn4dixItUl6QD4GoAvwjgA/MLi/8CwJ8ePnTwDJwthQt3x9lM5Ed31Iuo7YUCANlHUlm6bdqNOSgdVCI0vZ+4jCdTVBnKLzVuizRqv1DESre0jNDag8UXZdlEas1DtoONKKw4D4SPq5kaJi2npnqkpRiA+Opsi+m19k6uRbEyQJ1HCllbc/H1awttK/zFC0q5Xr6+rrKCqBJHlKElO7J9JiFhwwgf3EruzM3T3ii5mg8rmFgdy62QIe+J4lrI+wV5Le1km42uIS25u3SgFTC+ROB75HMpTbJkYOy5xzC46TXNIUjXk1iPtfvBPEVMG2r6zHk1F0AuxWjvN/EMqaAt+QSA0J+YxMq2PTh5xU04uf8mLO+4DL2Z7Y3etSq5mnzlXLKZ1dJoaY5gYDAxhcHEFFbm9uDU/puA4QBTp49j27GnsOvbD2LuuW+h21tGZ9jXichrUZSXAHAXwJ1g+k0m/OH8wuK/AvgBn8C6dXDh7jibSXxJsBCmwvJbhVNE81Jh86gXAr1V51TeZm2/Q3ztm6stU5ysrHpiVWnBan/LZPtY3BBvtZb8qe6Hzaty1+G0X1WIjG5fpHLSW9ou821JeVLBSFhxTRmqvuhNHN1REqLQKk/bo0rWRSN2TM+JZfh4BWx+Up3KDyLlc5R5YF09sq1KfSXjyLoR5WuafCVcvJ6ycyMvK9s8sPqpPv6lL4Yptyxf/qk7IvW8pThxNEqNIIxqQZcGBAwZ+BwR3WO/Vhyv6/QTX8PKgfei04nGjSgqdVcKkNc1ivH4Ua64Ckv+iJjugFbu/fjXfLHXLiDQRGsSWN5xGY7ecCdOXnkzlnbuDy4uMkEg9+LEc5HR0nZkY7GNj8q0UptXN1lOM/aEOx2s7NiHlbm9eP6GOzC+fBo7n/4G9j36eWw/+gRoOAj9zziXIJYyPt/DNqXlLqfA/IMA3gLQf5xfWPylw4cOHq9fdedc4sLdcTaZ5vFnJjAVaGVZCPSwv7A8ExfBrPitphV+Z/2SXybZHUYE53wsvhiIZbZj3mqmpYrgrJjkCyOrqhJrV+Ycp1K+qttFy/n1R4PkS7S906Mm6RZZkJ0AXYY2dHVQy4FKz0z6ilfjQLeBtnLH/Ir99mNTRS6q8eviWn08R2po0l+WtP2XnLSpB5FHFaetfHZkqa2+5X1q8qnLmffJe7u1nJcwhw8dHM4vLB4G+KNE1GiMdIs016KzfLpxl9l1uY5sn3mIzwnZQdL3gHTDERGa3/L+Ts/P4iEJMGMYJpMzmgn8x659FY5dfzvO7rl6hF3CdhDFpnommbYZw8kbobj/as+l3MHJN5AIL57jazNzOHrz3Th6892YeeEZ7Pvm57Hv0S9gfHVJvHNyR4I4d5lylghg7AbhXgb+JZwtgQt3x9lE4vNUfma9OVBaRXVEIZyjaLZx4oM+hGeZ9gZJLiMmbfUeagKGYHYFhUrHIUWsC2el75Xl01ielIg34aRAlC9QYXHX7zdjYbUvXVnOWPXB2qdQHZjyGqn6KTIB2GXrquGU1Vjmu5C2ZZtKf+vplemrAy3BbHgpzlvSprZzRsGV89rkttmXOxhllqrLRcI2O3telFDlOqRtavktkmKdubiajPogTpGxS55PA7TEjLl8+fO9MrZ0EhNPPYy1XZenNgE0TaW4n+JxVtbgrM0BZXxQbcoK7GZWK+JDgOPHj3gADPpYuvrlePra23DiyluxNjnT+KrbDhmJ9Goiu2bLaBP+hDJ9RfXk9Q5IvFcr513aeQUev+v78cwr3oArHvw09jz+JUwunUpJyldLLEe0yhNhCOBX7z908Pm2XDrnFhfujrOJqOdvqyXVBmwJW7XYsjjGI8Ktk0Nr7rbnFII1vTqkOoniNVkh7cRVnaecRfFisR0ZqkYoXoY1i2tRBTWLqfxdEYqFIU5Zs2Sa2gJcPWfaVbk2IyzXZSfJhm1pJ9wSxmzrQy3XSHZmRtWrjiR22QoX5VCjS6LCresCrAUV8mA9P7a6VPOu55vtsVpnNhVBtyk7TiYNug4eA/AIEe6q+ZkTgPHHv4Leq94EIqrXG1XaDIvrJTSscpPKQYtrZB7Q+dajDs6+7j041p3ACYbupI4S10qQyw65Ue9S7LcJ+upOqhoEcqZiGJjGVzOkdNCb3YnH734Xjtz8Wlz2zc/hsm98Dt3eSnEfmO3PMfi3KqV3zhP+ASbH2WQaf8lskVX704aNY3804Ys4QlhnH+C6ZdKepzRGUo4iDKSFSGkrQ5tKKg7VzKAt1ujaMeHXrCa0infXqLSq6cs06kVVxwpLOFfCv7gs6BNV81/uj764RXlHicV18lW1Rlcv7Qas21WsWOFsAFWjGDKGEeQmubbT1LaLbIr23vQ/WYWPgUZN8y4SDu3yxX7T7GLl8KGDQzD+GECyEdj6nH7q6+CVM2nAqGxmbDa57LgDYOLQ18xnSDZ1FnNz0r2cO21ZlHdwdtsunGQRuejwywelEMtyxAbi3imaT6oIscs8QFQcY6SRnYnaPaGOm0zIe5wIyzsvw9OvfBNWtu2qPqsp11ofwH+4/9B9z9rSOOcPF+6Os6nkZbYA8UIZKT44u7AY62hhaIkdAiV6SL1PjAKqn1KkRcQoXR1k3ipqpNVShOKl0uZqQzavKlI96bbRhbKe7E8W/48wno1MX8iCZAw0dV28eFs6LTaDraMmZLYaAVLUXXH52noULR0EKXuK0Rjk/VxvW/YcuTNg20SouzBhQhkolVa3wrmlndSEjoFqx2STbBXbI28eLeYKS6sDwieZ+UwUyIWhud/D5De/gFbBCtId9XCsvFzhWctUzJUmMrMlotjOf8Bg9IYDPL+y3LRbPZmn7FSrjh7ldpBOxLpRJUHNRTsvyqFuPSoOJ0FOLWFgj5eHokFg51MPYzZ8dC4Wi1MG4l3DDwD88bYcO+cHF+6Os4k0H8gOUpEJ4OarfqQe7CjeC8ririw4JlLSByREZk5MRY870k/xghR+0TGf6hzWOlXokfgiksJshLmxqmeoNa/UZrpkEa7VdxuFiE71Iq1t8ZcUmSNHRZJa19dI1oG9xrXyMUOZZqlWgJZ90orMasPELaNCxhGBmuKINtA6SmQEiRRcKth6vSgSIqEueJsjVvyIfLSkXXQYEDsxVoRX2o65eXIMrtRJkoYqmn85NcPgzxDoMXA0XFC6fwkAhozJr38WNOw3Hz2K1vFglIjXMt5GTFFchuOh/aUPNlHs7sVOn76vGcEYIsQtgzFgxpGVJfR5AP3MjQYRsQ3ke0A9AyDCyPjxmR32p+Ye81dpL8kQ037/V+PWrBexE24MDxNLp3Dl1/4KNBwgrtTUGHCak8RRYwL9yuFD9/mHmLYYLtwdZxMhIE1kpPgMD4JHrwQiIwkRXjWz53AxIqnJnJStSDKtFAfpWIokfpN61+iXEoX8G7dSEYmK4lghqpfw02Vr9RE39aPfmdSy3yDy3FQrqX1N5nJ955GSGnpN/rqvOfS71l5LUcfr+o7HCJXdaVlHqSdM/Fq9ln0rUkHUPASO7azl+tj8FSNFsR1RNZy1hI4we5fla82TbPsiP62JIrTtyr1XdATtfQS1bQcpHOD+Q/edAPBxku1dXEsiYOqZb4KPP5vuvUZfUnqOxXbS/C+24/M0Pg9YHo/PWtFBjEFNH5IZeH5lCauDKNpj51o+PGQM8wxN+rvSylJZK8aA/HKoV558zsn8iNGIMtGyg6wKIb5DccVDf4Ppk0cBUacpHqdn4ecB/oN6Bp3ziQt3x9lEWDyYkyWu6mqiLZl5jfBsvmMTLJmb4k/5LG+1sFoBLYRJFHTSlz5nOgRjE2Z9YVO8yEhY1mWh1HltXmUZ8vkYLMot6gPWep8TafJOqQx6zWZpNa64NLEtv0g/7df7ctRRcUxmxTGdSCW9qBfUaIfOsr6ezU+y5bNlqLQhPRqEoj1pr2KTnj6JSq86MqSqSrYZVvHtvZPj1NoxAJCuV9Vu6nUFyiNn2eSr88Dmf9C6XvGXHoTfZ8aJfN+JOgMAZsx85ZPgQfNF4mRlT9ePU93L0ZScRhOGxX75wCBC+OIqIVu/c5ovrK7gTPpidHg+ttybslDxUHKr4bgD+jfkgxrmXWCOyf12k9QPE4byMXtjyfswRN1+5DHs++bnQywxPhGLDwYTDwF87PCh+05VMuicZ1y4O84movUqG83O1YB6+FZYgBnGh1pYjJX13Oai/TzKYJOs6sbiLyxBea1kUhbrPJJQUYIi7bhZtVar8+qCtA46xJdTDCQNY9r4quoqFqssh/49arBDW59N2uacqQzSlCUsje2+9GY/6WPxYzZFecU1b9qdyFRb+Sr10+xgcQymfPIaiVEkI0604duWPf4vegvyOthTyXvCFtzmp2I9Z9hrR6bsshGF4rCY/B3DmzzE65ivpzvKWBj4ChE+l9sY5TpD83yc/uYXQCePZEt5bL+hTlnEayDIe6HZDsJV7GsywKId5CmXDMbZ/hpO9FZyOHm9E7XflecuAXnSukhLau2ahaXaYEg9P/PjmHJ01TE2eTfPIXmiTn8N133+j9FdXRL3RR7FQPzL9BkAv13LnXP+ceHuOJuJtJbHoVqOFo36a70w6ChxbfYLi1T1IzzWkqlo+aImRJxolZLpERCt0fqLpqQFmzUCyd2pTFwNbjOttoSQLNZNF9HL9CjFkfWlTyWsr7WKK1765XnbytBkXShYaditWsVMGmTOJYIWftsyOZYfKVqvjuI+kbrVF22/VfZ0R01auwshwjmktqqrlOsWd5uFNou7OlbJNNfKmvNpDaMyvZjVtkvoZO4/dPAMgN+09cNCiHZWlzD58N8296lZF5JFZTN0OwCzeILlferaUr7vYmeBmdEbDnF0Zal+/zLQPlkf5pkne7bi2WnbFMd4QtyrOSrQjYrkgZgfVrd8FvO1xiq2Y7rDAfY/9DfYdvSJdAr7ldoQ4wwRfunwoYN9OFsSF+6Os5lQXvc8PsOTx6V8GSiLNFX3x/REQLGbiqAxTJvVGBAjAML8Xlg3gfz8D/lPVlT5spHvWGHZSi8UWaa0KV6k6sVUFKO6pb/yal/KMooUYdrvX4UT64erUQyDNmLJ/Jhz2lgtH6wqfcdFQVLe6nmINjJWB3SeSG7U9otj+V/RyVDZaJel2rJeO1DZlsZIZSEX52SUbdLksjjGVKnXSubIpFK9hpXjKqt6VKP1lnPA4D8m4OvmBkh9awIw8+DfoHP0ScSPWzXx4r3bhCdQ+ugchTSQtoTVWI6gyL9hY8CM55bPYjAcQj9AZDxz/VUbsZ3rXCZldElxSaQRnoXquwWswwJZ5KcgcZvzzdFSPpPZlLedzzyCq7/8iRCieYATogshEI0zBPzB4UMHfSWZLYwLd8fZRBpjDScrS15eDEaImVd9TYUzSouQsDZnQ4+0MmmLlT0Fyw1pKVJ+vsIMKX1LZZT0AorFyUK5sBbJ8rVamo1otpbTFN18or6WVopP4jfnctrqYVlWsZ/yMbk2v7Z62Xza8qnAIlkTrjKKUOtERB9ettfcth9lUW6pc4iyFXnK+7QuYBFE5kGXs/A1ZxmnObX2stJl0E3InHMUlTqhsnHkNKltnoW4WUSeM3nlDWkNZpNfByDQEQC/2Ww19UTyGQNGd+k0pr/4F+DhMNUlVZ5LFMJLf/n0nI2oY/I6AoNgae8N42RUQF0vzvH180W2TxJhZHsRz0SxW6WdhLRoUzVLS7wBao+DIjxXzhf2haDTJ4/gus/9ITprazovLPoLTd/lUQC/VGbI2Uq4cHecTSTJz2BFjV8eRdoXYfWr9qovn+naMmtkjkm1kjcprkVglieylk+VtpyMWL70lM4Sp8m+qLpATEZSyWMtJng90iBEuCla3Q+awFbGNRMJ0jnVWcWLVlnyWBUu14kMA6tlxcu1OiTCLcdEehw/+S59fCvhVDq6RdS9tUIZVJxauW0C1FKWiq+5iZa8BmRnyJSnWEhD5lWXtp6GuFy6P6TrSi2rqtqgvK61+zVYgEX7lv86DYcPHRwC+DVmPiJtvUBz/Tncl1OPfRljTz6YLOyx753ac+rN5TkU8c4trdcknr3Nv0MwjvdWcDZORi3aXEyQ6pdQNc+sdLMF3TzfGaLdiIdifK5UDTr2hPL+GBG2ouVjfXVXz+C6v/tDTJ86mu4eDs8tJll36AH4GBgPteXI2Rq4cHecTSa6c3B4cFLtiWuH/yvCudRwrIVTxQJcTnrU59Xn4TKOsdiTSVuugWx7FvZT5PrEIjvyJdtiQS0m5Yry5E3K70JlwaucUyRFame+NkT/P3tvH2zXcdwH/vre9x4eHh6+QQAEAX5ZIiVKli1Zlgkllu2sPypeoZxEyKYSe53aZDexs5sPV3mT2kqlUinX1pY3m0ol2Von2fWuXbFj1wbMxgZj2U5sS7JEwBIt0RIFSpT4AQoEQXwTwPu+9/b+caa7fz3nXEBxaBEgT0vEO/ecmZ6e7p6Z3/TMmYM2sK0BQZesjhBRTYzSTKJbVwC6v/eeZeM8Uu+/rdOlR1Fuez+rRBLO19pT001tOYKmRca9Dg59LUMbQGV5QtYk3NRPlRKYlqwfBuhTj2jlbTfVhMUiwXm3QuF5qxWBty6dg+D/AjDhF7rjeEdguL6MLZ95HFpeGPUJv8+82Esl/EIkv0tSt7PSH19bX8O19bXmQWtpreNeF1A34pU7E62OaUj1o9U/EnifRrVPTZkot8aCkm6wsY57P/eb2HH2Ky6z1YSPzSxV+lUofuHE48cmNxeqpzeaeuDeU0+vMzW7UOwrfrYn+xaDele4uk6esMdNvmjaNSihAlOVLBFdzNk8IlnjYm0LyKvG3YLlhxTsbsnUepFX61ExEw9AdZ68C6cBASFrNVGZAuSSPFMBWq5QU+yU6HBtI+2weQukalWPtpyd/G3LyDT3a815aEJVl5ne06iZVKKzHGxbS8GqbwmnU/nnicm0LLn+rRe5O7cZVbZP9UbYln3Ht8dUDaenRCeOH5sI5GegetF1Xq8KKbDp/Glseuq3odrsP7cjbEtLrsxW7pYgie9oUtr+VH4vj0a4tLbS5Ley6z6sdW9K27W0dj+ZvsOXWn0ys/s6JsmtiWf9s2ugUGAywT1Pf7w5+tHHC/F2UjX7MyLyd088fqw//vEOoB6499TT60yxM4MjfvygK1P5q/SjTt65/aP6LR3PPEkNXuwHA5sMTgRlgBT/Qckkjxn8vfEqiu+x3lYduuVuA/pqIGxVrjp6U4OJJIZSgl9fh03SmD5t4K7uaf4tybDiV61tNF2rFVW1LcSr5iOtiKBl0w49T5HZykz2kpyHI4RV/Tqv6zI1P5d0MQ3w1oDm1oA4ve9XyzatLfFWoJqqdsx5fQuR5I/X3GRq/panE8ePnVGRn1aRUeiNnFwEooqtn/11DF55LgIgsPZqkfpqtaNaiaq3kW1MJji/uhRdawLCEsA64fTakvUEumOi7fy06is7JinVz1tS/VVjqZ6lYIIAkwkOPPNJ3PP0xzDQCU14YqIhwW8C6I+fOH7s2a9Tmp7eYOqBe089vY7UGfG7ZaYpg0YdCaUx7g+zIj8t4t58nKhbFtv/nk5yMSLc3fzMoD+JXUUpq8vqR12/GqR2ld8BvjhwlkJM1T75rgBbi2r+HRHbGmi3ormRp/Moz64iq8hhxgQsQ1u0W9cp0iQWjGtuAkZvtoKTiOvhchcfmFYHZlmXM20bzlRhOxwyrQC021vnSTq30uVN5gA9FVL9OQE+Gz/zX6A5a3zb7/wicP0S7IhPjqI35mvAsF03tq9P91FsTCY4t7KEcfIhoOq4kNCsg/suY2qe7E2bwNtfL4t9jCMCiGc3c7Bpk8iOcmU8wj1f/ATu/dxv+KpfjgtoHKAAGQH4XwH5temMe7rdqAfuPfX0OlL0wxQBvRXKrqOavicZeewgANTqv1sDU1cxdRRS4rJTlvLzZttyuq4rwPn1lyspWeKXyp0W7aoHRLrPYyj4RB5K2xH07SReAahXDVJ+rlPk8a1HSe6pRmuxU7/dDR4sKnnTOkwvpnq5yVc2AAAgAElEQVQwfW6Uy7lFQebTLnc1yeuIitcrV93lTJvs5YlpZoxUVtf2qM5tRTetok1G/xAz6rcQnXz8scsK/JQqroFW+tiXFIK5q69i68d/GVi5kVY3gMZe8a5E9C+1mUcTpRNkQL5W/S39Q9DNoiOUcOr2F05OhVq/UW+165wxVwy5i9AqDYk0XF/FvZ/9DRz8wu909pNanN9eqhbg1wD8L+UF4p7uEOqBe089vZ6kWr0/WkDvzTr5KUHEFk5I+0IJJNSR3ikgMO39pIhtmiBUglhkq8XSQ78hbAYtVeyLf1JUM0c7p4CeFAmtx7kpwC0BcgbPTcaQNdft68JdLXtO13fOQ/en4M+bAz8p/tRZWnUp7dvTWE+xfUueessSBO3Pt1BE9CZi2jF+OUZa+15bLlsB6qL0RVyEjaT2zaQf8sFUtaqMtLLC0d9qj3sfcr8lCfAfBfoLUJm4/jQmWGav+ZdOYfOnm5dVBShHSDY6T7YojZ0nWxNVXF5bwfJoo42Fva+pfIKBfKJbNhz6WYPlOmiB3I9bm+L0nXlZzo6ohgIzKzfwwKd/FfufPYnBaFSKykGXiLwrFPoEBD9x4ni/r/1Oox6499TT60lSj/88oE+JCHNgtrrf/lKp0s+ODvxmognLw3mqMoiff/AoHWtGl2lcmg7CuurOkbNYnu4SnPNU0f80KFUDXbXNRG6W1qoz5SNZrapMiwJPtY9l7KomRRNvAfxu9uGtTnmSmDeflXTppL1aMr1YvjfNF3gfch355h9pgkJ+31Zpx0S2g9/UpiL8HgIId9V+nvVgJ9Wktxi0axrTU00njh9bhchPQ/B5D2oI+WdpqwLF4qlPYfPJX4GONxzg54+PlQgyRZ5VFVfWVnF9Y70d1GhmABR0UPjLEWkyX9nfgT73g1V63+7VNann56Vwyu7ytLaF0TVlTTKoYtONy3jod38Je174AwwmY//adUxa1XVTGJ0SyN88cfzY8+jpjqMeuPfU0+tI/BHum+5eqaOI3EFTVPymX1Vl7kod8xT0kM8wp0KpSC+/xqX157k9Y0uEHFEyHlOO7csrAJl1l6g+SPt97czCUVWWy/aJ8xjtoLBmwisNXBYP8sp16LBPl06UI/45Yet+qp8GENEqzbRjESvddQYPp5gglevl5MlQC1i0Mmsqt8mi3cnTpGcKzyl6a/JMqV/zNPMIp8j1o/i51vYOhF5YSPmrUT5uIkJPTieOH3sJwE8AWDX1ullE4noyxuLTH8fmTx7r9AdFE4mPL4Aqrm+s4+r6ahVwYJL8n7Un9h/elxZLdwhfpmiLUnohngD1m3Tfgib2NwF4gX+ciSfK6RohgwLbz30V7/rN/xPbX30BzWn1ZRRKk/yYICn0PKB/+cTxY092W6en251m3mgBeurpzUTct7ZXOqdFijWeTYmW+rMuMNNaCu0GcRmYchSzS66EYPMAwrL42EUR7UpORcW2q7gajNZRMu14VNVVOhNlndxEM5VA1aP6rHVaKfAIYFe0vNZb4VW/Rufytcrn+omXh9pnpqHFOkJ3ExmnQH+SVSoVEPOpqyWZefusf81peUbFaVr5Kv5Aa1VleoXyA2E98l3JqTj/NNY3K7anoEePHN2m0G+FYl1E5rl1pv4CAFSx+PQnIKN1LP/xPwtsWkh73Dnx8mgDF1aXeToHZ1p4JQBtE+qqvOxvZWLctcXFfFOrv1boNL/1dMwzWCbZ/FmRo8g+s7qEA1/8BO7+0hMYTMbESpyF9RlRTTkPxQ+dePzYyU7D9HRHUA/ce+rpdSTN/0THCWTQnSKXMuV+BRbr/Nypc5I0SGR+MaZozpOijsSjlOMYPWGbDP4ZH3YOVPaw1DdvLahAZYooAxY5S/WjHwptR/V5FQI2JgoNa1ZO1L212YEj6/XgztWqB9pW/ShPylhd1wi8wx9C00p/eKJEumAdadpk0OLb+SXHinfbb9pyp3ozCOGyoA4yOpjlWyRDazGHo/TOv4PfTZa/ut77SAmrVaHsT1Y4T8amzaJ6Onzk6CJU/5QCfx0q3wroXF7ZQGzP45sQzL/0DFaungf23QdefGqSCVbHI5xfXY7+rHMSN2VaFUgXqW+w34LoAFJHKHmmkfowmhDUjtuVftqzlhwTbH/lORx66j9g8fJZQCdJrqwXZiUvqepfPvn4Yz1ov8OpB+499fQ6kseMSkcf40F1wFwVJU9LmgT6ddoXRHlwI2Dk4ZVKoiZL14BoKWggSmNPA/Za2wAMyXcOPNoBvNuDaAtGMrZqTT6mDHAOqqTjbHQqsMgUCwWECr1udZQ1hCXIXdVH86SlLWQ7TwEnOY0B02qiJrX9im60BvCUrgXPu9O1g91mGJpccR0qrtMWgDKZL4jXoZkgNfe6/LFF9QRxSjKttzpo28bBszxJoItF6PA5oTpQCgWqBZkp4PAtTIePHF1U4EMAfkJF/riozjd9mMQ+bALttu3JvkmwsXM/XvueH4buvZei7OV4VBGsjUe4sLqM8aTqE1urUZVda7+4lT9zxF6TB3SnY9DdjqpEoRzJT37Mcik2LV3F3ad+F3te+APMrq+0xPVJu5Rra2MiTwnw108+/tgnb1HDnu4A6oF7Tz29ztR0z0L9uwHfaYiDxg+O5gjQWpRn1NICf4BItX+4KlKINw8OddTLoq8Z1NeUkHLwVkFrb2kCVHbd8eEn+pVjqZG9CwxLGahSQq3yePRJbpKuu4rtly2lfb/egjFl20arHKrTrV8gbfPrEjxuTak38ag/YJMnAfSzY0uO86QJR2tS0qqvTNl6nGcCHe7dcX+KrOlZ1fYSr25w3iqwJS8dZViX2xMA4PCRowMFtgnwvVD8NyL4XgBzAbxZ3VJ7XfNnMIOVQ4/gxof+HLB1V7KX9bEbk0k59nGSJ0+d/kM3adKP2lUYmKetM+YLDOCpP/Iiutual2t8OD8PBEJpAQzXV7Dn9Bdw9zNPYPO1854gTRgtICA+AgHAREQ+DeDHTxw/9hR6elNQD9x76ul1pAZLVh05bKtJx6ARudr3OwM0Qsm0lcciWJmJPZtyIgvLZnwp4tqNnzrRZ7msIsAJN2l3nnopuY6SaXcy3r4gdX7JaTrFru/VdmH+UyYZOa/Qz+4IW7LdzYSp8Gaa/HDam4W9W3Wb4oMtxUaR0vnDdF4Lh7zYUfNjGTh/lSGXe5P61e9SdD1r+daUyGdVTp4IVu2IwKXPeXvw7nT4yNEdAP6CAH8RwPshGKSVifLDNekYOdrxeHYTrn/7D2L9Pd8DGczEupHGNquxKs6vLGF1NEKFYC0xdUDUxwkySGbQPdWOHWAdlL6ro+RtVl3OniLz1QRRAOgEe05/Afu/9AQWL74M+CpDpPGtab5KIa4fAL8KxX9/4vFjZ6fVqqc7j3rg3lNPryNFfx0DUODYKdHyqdddJagni60NFUi+STmdGKg14AQaqUHbtPO502CSvj1f46ZcqThDu2PQ4jpo1LsrzbRockeRUwVPky7L6Cqu7TIFTE6TiXDDrY587Cqfebdg59fLb2p0eTqPm7GefixnnXLKCsVNDPN116+OuHc8U5Gp/PKETyodd8ta26+FEd+i9OiRj8wB8gEB/iygPwrIjpQgRa6zH0dAu7lYPfB2XP/O/wq6+x5/GGnji6mvrixhZVxAe1cf07mCUgneNfNioN3iMSXIIFUdeYLIc4fErruPmF29gV2nn8a+Z09i4er5XLoD9KYo36qngLhsugzI/6aq/+Dk44/1H1d6k1EP3Hvq6XUm23fpkUfuxz3RLRhgWsC9AyXUCaeVMyVdipAa39aqAVrjVZaLQH3XPgilvyx215eZqmL5B8Xo2kXcJDKrNKglHjwp6Mrf+VJjR/Su4uVlpkE6R21vSR1I0IBmChp3RPrTqo9MKTdCmGVSR9FBaE4TzPJvXuavRE/3U3C/46NkVV2VeZODNsmqfF31pmdSpWOB8nsfbFdtAFKXfClqHOW+VUH74SNH3wHgTyjw5wV4D4BtpscIePN7MqX9kR4NhG4s7sSN934fRg8/Cp2bL3jcFV3e72jSX1xdbj6w1EnEdNpqntmwniDzM25j05aH/FZVjvu4tP2H2ZRnomNsufgydr30Rex+6YuYW7oKmYyrtmwazBPLtJIBPQXI/6TAr/Wg/c1JPXDvqafXmXz7or+k2RVtDMpAK6FoYApQap5o6749Q+cvPnkl7ovQpgCLGvlvdYCt/NJpFV0SENDpwqQGtqrAVz5Duw26nKGX46NTK08btNGzJkFgUj5BxcSWPBhyuem4y4qUmVT7eBKArcHsrSjvMYKd0d+4FPPI6VpBbTZnxz6jRifd26jax3wmAUnFFehmPmmeEy/zCuevgPy0Z0L/1jR1QlfnqPbydE7iumw9ZUId76+8NZD74SayflCBRwX40wA+oMBBoe/C8GSm6QvF7wNoXMf8QIDJ3Gas3v8eLH/b90N33t0kofZqfiNoTiq/vLaCaxvrpTDUBgZa/kNpeBI9ZVWsHfC4hY19koDaOUiGqkwFZDLCpqWr2HrhNPa88AfYcvksZtaWQ8QKtLfaDXhyhGWI/DsB/ucTx4+d6ha0pzcD9cC9p55eR7J+u+lH498UxUS+ztHHPDBo60dHOsrfijoSCWerARgjdwZ7GsBE+KVTf8HKwEyFFlviSc5nlzWSnyZ5Le/NM7Qf26kyDWKo1B3IXWsGHo2vQGoFMjvnKkmRVf4aaPg8ooUYgp9HD+3RtPqTvlqRvrakZoOkE8cYpKt6D/g0fjc7Gaforvul62qWUc9NuqiepGThpmdtN6x2gnSkZi4mzsXJvjntO1h3Mh0+cnQAYB7AHgDfD+D7AHwA0HuhMvDJGG8PJBArPOGpJn86nMHa3d+Epff9AMYHHoIMB+CPKdkXdkUBaKP119bX8Nr6Wsu3wC5Uz09ru1jovstezCflvZlxq8lCpwwC6ASDjXXMri5h+7nnsOPlZ7Hl8suYX7rS5i+UudouZCtCZayZKHAW0L8LyLGTx48t30TQnt4E1AP3nnp6PSl3qAFSE2rO10rpMiatO3JGVDWWjcjOtHiuTgF6mooqgIWiVTbgtiLLOWOuGk0EUrJqP7HHUetobi0rY8+Oclp15m0XNvlI85NqAtJVFX9WHzVJl1150jMSvKsO/qxrMtKl2/Cn5EGUv6VvA061TyXfrMshWVu24zTtSiV+XT5X2SbdY3u2QBDZoQNMKf9Nk8ou2aX7md+XqfX2lZmqrVaB/DueDh/5yDxU3q/ADwj0UQU+KJAFe+5fRKgmkr4Vhl1f6JT7crG29z4sv+8HMHrgPZDBsLGX4V+yjxTeqoprG2u4vLYCZZ/Pb7ySL3G70JCR/ClHwTUcj2exaUKrFQ/iVc8cqC+YWVvG1vMvYtv5F7F46WUsXjwDmYxcztBj9xYtKXq1QIoffSq6rpB/LcDfP/H4Yy9NNWZPbyrqgXtPPb2OZH17K9qCevxXjGdmcfrbvg8z6ysAgLXFHd7nXz70Dqxs3wMAGM/MYTy7yRk/+91/FjJpti6ubL8LlunKoYewum0XAGAynIEOh4AINha24ivfdRQyGZc8e1yg8w+9D68deBAAsLF5sR2VTdthqjpJc7HyyKNYP/BNTblbtrkiRrv24coP/Rgwbsod77jL8y59+/dj5Z0faPIsbPVyN/bei8tH/2bzezDAxt6DXvC17zqKwepSw2vbLh/VR3vuweWjf6thPTMLnd1UWaURloFVAMDmYnXbbjzzfT/SyDMzi/XNiz5AP/fBD2NY9tKubt1VjCy4dN+7sLRrf0tXG5sX8NwHj3ie5R17veBL970Tyzv3NnWY3YTx7JyDzC9/z5+D6AQqguWdxLeujQ3etO0ACuimzXjt+38Esr4GANjYfx8M1C+/5zuxdt87m/pt3gKdmQVUMd62y3UHABv77nW93viOH8Tyu/9Y2FXNrvtx5U/9eNh1++4Gp8zM4tqH/gwGK0txn4EODMvEOd1d7eSVdz6KS/c9AgBY27Ldn1098KDbSEWwMb+lkW12Di98xw9iuLHmtjTbvnb3A8muG/NbXN/PfN8Pe9GrW3d5+7r4wLtxY8+Bpg4zs6024W2cKiA097xTwfvhI0cfBPAehb5HIN+pwAdFsNAsVkkAS79u8vE+dqc0F6KPAqli9dA7sPwt34vxfe9qAhwcpa9WnBpM3AQNrm+s4+LqStky5sCVZrG1AQq/MvkOoF0FIFjoGn/X6T1fla6UP9hYw/yNK5i/fhHz1y9j4co5bD3/IjYtXY3cJnLxIb8mkJ7fNWoKqD6PMYHorwPyUyf7r6C+5agH7j319HqSRUd4y0rXJ+5Lp7y0++4cISq0vrgd61u2oTVQQHFt/wORngae9YVtWHegE88mw1lc239/ABAa5Fa37gqgw+MTRUKFBqbWy5oiGO/c24DyatlaN23G+qGHqX7xeLTnHuCuezIvCHTzItbve5frjcO3o7vvzzq0PPNbsH7/u+JmFSENYED3KnuM5zbhtTL5yPUDbuy9Fy0SxdrWHVjbuiMnBqDD2XaeYo/1xR1YX8yHbZhw1+5+oKpbTWUAL6N/1KcAjuEMNu55Wxan8Bnv2ovxrn1tjnPzWH/gXeQb4nod7T0I4GBLHp1fwPq972iLNxhitP/+LsErnCTpXk4jWNlxVzMhlfxwY2EbXlvY1q7DYIgbew62+SmwsbAVry1sRURBjZ1Mtffa1p1Y27qzAwSSNFPQ+Z0A2h/98NEDItgL4KACDwnwXgDvU2CvQBcFMg8ADreF1SCo3c706u0MQD2FmczOY+3eR7D0LX8CuucgMDPnvqAdeZT4qSqWRhu4sLqcV0jMlypM7VQm2IBi55kvYeHqOawtbMdkZhbjuc3N5G/TltRPjmfnMg8FZjZWPegx3FjDYLyB4Wgdw401zC29hrmV69i0dAWbblzF7Mp1DMYjDMYjyGTU1kWJHsSKhLTnHL4yQJOOaJvrgH4SKv9YgI+dePzYjQ4T9/Qmpx6499TT60gN/okPLnl0FFP29fJSri/vJ4RJae2G5l6+FebzEFjhUV0brxTgIlnqEz4EzT5VjwBZ+iKPDTSWt45ccV2UZWMg1SULpyP9sJ54qVsje4yA1S2Kvid9sRz5oqNsTkL1oMlVHngrO6PiVX9p1pftBV0n9KT91dNkNF37cwI7KVJfgaB68mZ1pK0nCVg4CK+fhbThtyG/7WOWls9VTpPqRfzZ7292L9ms9r1aZzZRtPZRp63s4NnjXPFQwjeODh85OqfAfCl9mzbj+qIA8wrsgupBEblPVe8H8DYR7AF0m6rsEMG8RbBF4w2LrLp4W6dxB466l62BwnYt+UQw2robq/d9M9Ye/gAmew4CgyG5nZDu+LfAXuxXACvlq6hdLcGj7cnudB+A6AQHP/9bWLz8csklmMzMARCMZ+d8a4oOhpgM2pBoON4AtFnhHIxGGEzGDSifjL28ZttQ9PG8rZB7fhXTZKThfqmoobgvtxm5BuBJgf4MVP7jycePXZ3iDj29BagH7j3dEXT4yNF/DEWEMWtwkcZ7BiygMbpOmNBSvpUAs3Qm7S4b38qjXr09ZjDawOzKDVQPbksajDcIXJXhRQEZjzFYuvbGCvd10mC1eU9L0sSnUf/s6g0MxtOOk7t9aGZ1ubzgFz5qg/pgbRmDG6+9ccL9p1ABP/7F0dIeB+MRZssWqNudhqN1v85bPJzeB8UvHT5ydMTvFjTzmnoSB9/uxHMTngQ7/tQM5uKjOwAUCyJYKH3ULhHMAdgBYFEUC+iUM4B3rAxWMNIj6PYXAaxDCTS3a6Lnk02bsbHrAFbeeRijex6Gbtud89AcqH0mvj+BQrEyHuH8yhLG1QvCVI2OvwTmASxceQVbLp/1RAKUbVWCwWiN5DF7VWdL+XzP3l+qBok6+GB61JjMhH6zsPyxYql4qepERC4D+JgAP6vQT554/LE+wt5THUPoqafbkw4fOfqKqvrG3+jg+ci9fN8Qu71MlrF9jrYp/6542UtBzU14gDQfcRaDchPwiTxxrJliMjuH8dz8Nzgm94ejmbVVDMcbzeCj8CibDmcw2bz4Rov3dZGMNiArN1pzNYFgfWFx6gu7txPJZILZtWWgvNfAPqibt0Bn5m6a/3ahwdI1YDJO7UxEMB7OYLRp8xss3ddHM+trGJS99E3kuKmLAe58Pj/vC+e7VRxAAuTZc3iamGimfga5u4qz/a3foRcavZwomO7SqoG4rJm3TSrEAGXSib0sOVrcheW3vx8bD7wHk30PGPfS/2qamHB/azFoEU3d8tp4jFdWbmA8mZBWWgrKVCtXJ3jgycex/8snU4S7tZpgOnOAnicx+SXRJhDgaRKgj7qlrfE+ifPagmG966PJMgHwPIBfVtVfOvn4Y/3Rjj0l6iPuPd32dPjI0XlAF/MAZ8uhFl2h86HTVg8bdRxtZ+aSl+zzEqV19GUZNEWmmIXlLZ2wTRQ8ihLRscFoA8PRRnT+sEE3ltvrIx2zfBrRLQM/XBaQB0WenCCn4eV93+FSDTBcfw8cjUYYXL/iYME/bERgjNTn/JuBuUGdvKQek6cAKF66ix+TpBj8AR8dq4HVa0YTsxpcza3cyEJGctd563e2dCVbdq+mzIKyKVckCOBQZcx+SYzdLgYAVpYwwBKhsva2rAB07J8mQrkvATryR4nYPzt8Mm2bIFWSb3N6rdoqAAzHIwyXrxsiQh1dzv4b1mXbOOiqDBHATMhPrV7I8oPqUBnTq9bqQ1gvjgZjq4e3KwP5wciPPbQJP7Kumn4jThnJfmb1iHbZaMW+t2D1yja157G1g/wUrHezUUwW1OUu/wqwvmMfNg6+AysPfTt03/0QGZS6qMvX/ApQjMqXOGpvHeX6ZIRXV5cwnpixYkKSqOV3iPQQzC1fw66Xnnbd1CaM1R91P/IVkujuyWx05CXpy7cZCUhv0YNavSJnRU2SFwH8GoBfAnDyxPFjo3bCnnrqgXtPdwbtBaT5uIchD7+Os37jOo1k1DkTxwpQND/aYMGuO+9XoM8mDHUHz+XZHQNrNpRw2nTWsbS7+a6lbel8TnrqSqMx6Mc8h/mxTJy5lOuqqPcrcyUjv1L6zjJdlkpXiU8tU65Atkhi2smjEwh4mupc6lZqQYeJqxshUctr3H7akS//NbCRrVM7h1R/K7lqPzB/TzaJMjt9qv7N6ar21ZWfZZbaWqGUThu2LFD5S53ey/Nbca2UtluFHeAKQA6jBn8AZQLUVQ+6lpyv65sLN/c5fp6fJjBK70a0+VV/p7aNdprx7DzW9z2A0V2HsPq2bwO239V84RTSaldVN5yF7PpdOom1yQjnVpawMZnUSqvy1sxTQQCAHWe/0mxNBLzhSauTIHl5DOC2S36h1M+zJ7Dfho67drJrmT3LZSi+BMFJgTwGxSkIbvSAvadbUQ/ce7oT6CDKV/liSdEiHDYKlx7Zo74lZwKRpfOkaHMdyU1Lzx4tahg1A6J4NJE76ljm9k45ImLlD49REeksjJR4OJiil8U05+XxzLayWGkJlJdIn8tJ91MUn9WkpLakB81gHfYl1sgfgVoTKA/g9TJyAH7t0D1FF4G8GlAt15v0QjqBV5WifWxPs2XxodCpht4oPMsBTv4CqFVXHBFE3d0+LLJEvUz7qRwL08ZT5+rSS7mr8Rl4KfnDj8mfDCaX+42Lmg15LhyrKLUPQEH8SM+WroTyfXXD9Zb9B2LlSConZLe2BG80rhM+oYnbF00atbrn0V9qNK75aA7hD4huhQEYt1NflfCGFS9oesi2DgS4zuB14VmcuZ4ZJNioCyS+emP/GGD0XiH9SwUCvhWlHX3nSbxC/EvJk/lFjLbuxnjHXqzc/83A7oMYb90FzG6KeSmCZ1UySNlxHQ2gtRK2PhkHaE9tnAE+dVB+j/u8psDhxir2vPh5uJL9683Rmhica6iZJkVmd0bluV/wTjGt9FTFAOsAzgtwFg1A/ziAT4vg3Injxy7XKuupp5tRD9x7uhNoB4ABaNBpBnnqva2jZTA7JVIjMSqne91wCenKBvgKriKiXAReGF17UpNd8qMKTHO5/EEb/4Knqg8mHs2hscnlT8VrpPdxJi+Tmyx1Ns7nrCiUm8ZEq2bFKP0uusqrHaGvepWEQRxf1xQvz0VZDCK5BLvHZvJn0i5H6B/he/ywjNg8+BtYbm2pYC8zm6Z0qQQqFeT7Wf5UVX6zMaWrPLt2RQFqr2j7UlumqD6BFxKt5Q+sn477iUdnZDpwbiRun95k+6frCnCbjZcEO2xLcvAkOK+o1XWkvqhafUtXdbVKXv6IUe7HpL4shUhHk4j+yNkXv8vR98YfJzOzmMwtQOfmsXrgbdi4+23Qnfsw2rEfMjefVwAIiHfqo5aiVU+To9S3gPZXDbSjKxMpKW8gz+kLzy2XX8Hixa91tdZSZpaZswd35sntqN1Gy7iyCsGyAKsALkPkS4B+DpCnALykwEsnH3/sznizv6fblnrg3tNtT6q6FyIDGmMCINF+2by3PYApxQTjil6E8o5XkSJQ/gVUqQ5EK/tHY2CuwAYN1HlvNFCHXkPcZlDg6KRUBVCAzaPOapE+AQmiXjYKaGm4iRfFwFJJhDpaCeWIXB7SkrqFn5TfHoEzEJb15/uqrUwL+lleisCml+8KD456mnUYLJmubYrX6M3VA3Mm0Wxf1kFAAw4ZKsnKPqiBKawYxhYpUmhlKE2C8jGVQscTxq7/EIEBWEQLNSZ3lX+6Dtj/rGZJOQR0lSchrFdjoSxOilq7rGx7EB8YY9ZLgEslJhHl9koUjybblrorHweYyjE5w16e3nyFIqfefpLFyHfLTFmTP4ZdvD3QqoPdNF6mc66zFB3UL4FaPdxK3I7JPl4HmN9WQFeaD7NBBOs79mFt3/3Qnfsx2b4X67vvARZ3YjAYFH7AwN+EDp+OPeymi5Cvfk/C+2zBuJMAACAASURBVDOrPn0wyfRloH19nF9eDr/kCvsDJEc3Knl3n/48BqN16lODJV2UY4J0oP4OSG1bQAQT8wEBJoCOAHkJiqsqehYqL4ngBQjOAXgJ0DOAnDtx/NikbcSeevrPox6493Tbkwj2w3xVaLDiNMg3U+SLACFyioao/+/ce1oB8wRsOK2NkTxQ25hjrBxHVMDeBnzjiaouMIgtlK7i7yBIEPgjwH2kCwBnqweh2ype6aMtIXTiETrKKwyBnUI3zfYIKzMmTq6nhPwDa9gKCU80vD4UxTYtJf2JEC/bHlC7Qs7jAIuTcA4XQDm7p/EXmWki5LJVAIu3W4TPJIdMklVCudJMnNhmRaKC9Vf5NrL9K+YtO0sU5OkcLAr5FNkyvRxpuqaJYSiRM2U5W+2Sn7Gt2OeSnFwrsjNH6CveOaCe/Z8n65LyxGQ0gDoD27YcuW3lCWe7k6L8rcea9aPA+q79GC9sb7a3zG+BzM1jdd8DGO/YC2zZicFwmPQzQEVVQdZvpBd6W50BZbcJbThDbuPSnB7j22NaOrH01hl0l1MVivlrF7Hz5S+XrNme0e/gKQA/DGAVkP0CzLv/JNsCAF4sv9cBnDtx/LF+H3pPbxj1wL2n25oOHzk6UOhO67v5pBbriZe378Wl+9/zupS3act2zM7Nvy68euqpp56+ETTZtBnjLTuAwQA6vwgMZzCcmYUOZpp7gyHs/X7DpT6Rhs1Fq9UjS1NN5wNTWx+cgTm/owJb1agmUfZ+Qd7TDqBeLUl/ESCeVl4SyC/3d37tFOaWyvcNqndPyuRzAsi/UuBLJ5uo+PP/+VboqadvDPXAvafbmlR1IMDeOIosIjI2yFy/616cec+faHfmHt2pQi02QICeNeyxd/MWbJ2drSLsJYqm8ZJhGuSq+7bkXcSMqCdiwJIu+UgO+1opnw/M9fOtHVa+DbDSLifU0SV/NfaBosDVSkPXi612v97fml9kDb458pqPU0z8THnE37fF8EuQvCQvJe6ewENU0N87sPHd0qPESMk9bIUgAQfwQ+KHHE3O+ghQ05a3o97JVaX7fqmsv5T8dctSlyW+KpD9Hek+rxJN4919XR+X2XG/a8uMVC+El+sIXtsKg+Utl7SS4yy99XTIwnlBXcYtbBAmleq+RxVyG+P6sS9wn8Dad95AfUznNF1rEdjfv9E4RjKf+BQgll/0b3281/oB6mNCMfD7biX3FwlGvjqjnsepBdo5Eh92jYaqVZ9N1yybCAYb67jr+aciVasfAgRyDYJfONlvZenpDqTWylhPPd1OJCIDiOwxeFU9AwBszG+hjp2iKy3QTn/5vv1Xrbnnfc01iG1J4wCq2Stp/G1PahkEUS0xO3KI/2ILqPgXM7VVoEbETDxDKd9Ap8kde2fBoNfibtKc8OFLykhLxF6eg2ZTgNcL+Z6Dg9CBKVBZxaFUaAJcDRBpzBLlNCBcnK0g0odGaAzn2UcCsOKyiEUcHbSXndMOHo2hMSWw4/dDRgdq2oJjDtNE8ouEdpZ3CzzDWSOAnOnGtlJw3YT4ZN2QQitpAvgZ+EvAifw1AbPKjo67E9hl25D/+mk7TUYlu6QXsVPbiDZh/ttci9vMQGlz29qWt96kVFd1PtTesvhEIOlRC0/yYwluIRdyPrOX9ykueyWWWJs1uSNPgHMSl/oEobLq6oqXH3VKbwiUU7CMh+lCXB4S19Uu7uPWv0WR3tmUu+ZDtoWv40VUVoY3KaE+W+qZBaUP20MVO84+i83XLjaPNGRlNQN4/MTxY+fRU093IPUR955udxqo6jaAxlELvRWgOtq0JTpvG2H4iBUG8Qnc2z1LVgACRRapKEA5qk08aMBML9Ah0uVDLRJqi98a4gQgl4gYUfjIOWhc5IlFNdiXZ/zya9JCAhD2h0/aoUGVwGqjFuFC4NFuBryclXRvJfDLYyFPBkFsqlqNpdIBfKpEAVcl+JicLjOqF5zDxxLoB8DvDQQwIdXUsvoEpOvdCvaHRp9efym6IRlSVBOUn0F5crHaN8KfnKfrX4iF6UQINwWIqtXPoiQ5C680ISjoOO+VVl9NEQLmtRuE3OY7xLMi3uaRJ258KVztctHBjA1HEd4EWLnuXdfkf2H+2t8AofLTGw7Jtav3UVysHM33lRVa8UjvAHUaUos4RdKu/iurke5HfZq+LPoEKOJF1MkE5CBUD0H00yRDSwH2M6YPALD3uScxGG8A5rMqNJlUiMg1CP6fjlr31NMdQX3EvafbnXLE3c5ILw9FBOPZTUiDqUfXgRRG82sJkGMjC41MChpMCy+PiqahqkAdtbiSOkgy9hHo0RT1sYCSTzSserDoawasTZ6oYxNZV6+aBgOA8osDeEtRby0JQVVL+VV0UEt5PghzHUzVGtsbWGgl/SXSKIcnH56OQ6+czdNFURzZ7UJvWhlDPRpu4z5BVgcCDGpdOto+QGWZMGSTuhwvj/XAYJHyistcAaCWHkIXFiFOchW+PIFKZmhhIFMq50dzyobLWG5KXTOQn8J9xvWZJqgeh0Vz4lGpO1c5RUmV/gRPha0w5a0ptd6YlFfYKj2l9lm1W60Vl34rLBqfot7EiH0wTluh9udFVX0R+y5NzKweSvVQafOSLh9S6g7Tb/bn0s+WyVVMVNotzFY/Wt0qqhUgje0x6ynS7gLTLe7YtOWWcT/7yMLVV7HjzLOFCa18GjVsP6/QT6Knnu5Q6iPuPd3WVCIkizxwgCNKCmxs3ooUcksRyToKhBgYGg4EFhISLNnKEJSimgTwC2+HxVVxKgYxclQp8JUm2aRE3Bxoe8QxlpltK0cmOj5Om7qk7TJUeB0B9GPvTC+sGio/q7HE7X2JPdXMdchR4jTxSfYw5FBFrjtCgZLSMYAK0OQTjHKRtouwjq2qZNv4sBEVT8aMrQUkX4osW0GN7u1T6LX9Tfb6c/ZuO6pLwytvRXB9eoTaslblJL6pqjY1a9kYVXZ/D4BAaQaFpAvTP9fJi9eOcsRtpKhVRJPMaGwOCpPtKuL3CDTln5KnikonnZQK8X721P68vUq062oCUvt9TNJIRxL703n1L+UrrHk1o+HHMpm/5LYIV2Fs36tXoFhmla5+pu79cpCgKU4oHhH1XZ+M8crKEkYG2s0wrOd6WpD6/ZZy47cAmIyx79mTybytE6QgI0B/9uTxx9ZbFeuppzuEeuDe0+1NggGAOd/iQYOnXY9n5uBRGe7grV9ncM4hIz4XuBOcUiTPIlZCgMdSpa0IBlFiINdSFkcFJaPdvBXCwLxF0+zaBm871tBlqOW09PV5ECSbEgQqADfLZ9sj6OW0UiNlEKmRJsLxhhDzvnUexAOI5IHaJfT6uIKqyUGkacAx17tEcqk+NrYboLQy1NlR/UpZjisMfEldNtm8XMeKS0wibSUmSe9AiyehVG7yZ35ZkyclzAzknzyfkfzc/ZzbBK1AmN0crbL7BbCMl0xD162yXJ8AmSZKNJ4SZWnFA4hVBC6DX3Jl/OZe5PkDGLKvMXD2bWW0iuD6MK2XvsK6EwaZ5k/O18uAV9jrUHRi3ZCvSmj2WZ8MqGYfJp/gNpD7HeoXCD6nF2lDymy7yEw8rKr1io66w2XfrXgDWBmPcGF1uYB2aniVLlPfTL4daamfIf1CFfM3rmD36aeLWNSeqQgRnFLIb9Za6KmnO4l64N7TbU0CGQC6l/epNtE+i9LZy21CAwAjG02de7xcmEuJEaP5TYFc+iM0VhEQkyo/AQuYSBLFBlCxiGcV0feBkAapUre4FxMZ1wsIiKQBO1fZgUMCUqbbSj0ku9oef9aIix0DJakNrAYDAsL1S/q3IZZ2vPMkJ6MCAq9RSOinAUJWnqEed5HC0wEN+U89gRIDuQSaAkwGALS8005yEbpqPlqT35cIIE92smsC4jXrmEDAX2bmPdIMkEwnWu65aoQAmlDJRbwuH88+XbiyLNDkixAGoy54k8/9jh1QqR7iE0xWgMtVwC8csIXwPDGIFaDQi3TUUQglB660ehhIj3RKNkrtXJPW2H2Tz0V9ImEsABLgLv5tk+W4XftdqYcDX2obhU+ozvpJriPzYMEqSm3GfFdTkpXxCK+uLGE8UVJSEhPhaCBd1303qvaukQ6KPS88hdnVZWqPILs4r39z8vixs92V6amnO4N64N7TbU1l6EzvYgTUUYznNmMyM1cS50EfPjCW362xh1FlBiYOPQq4NjDDUd+MI+PUj0YUWv63QTCt20oWz/JU4CCHVlHdq7eBGGDNFXUOauCqG7xEfD4i9w6yYRFBer+ASqgjcUonVeQTJ6Jsn2igC+iaBaS+5flCT7GXlV/G41mJTUwY5DHAcnzjEURSdbvwqPctZOapCN/IL2VKAJOO+voPycXXOk11nqo3KyoQq+uzcrMM4qh+lany1oicn+ee5U7r9YV6GxFPRpPgXHhHXZNf1HVI+nYjxNao2s4AoBJzAceP+SXh8D6awLWM1GGT6trK8RWTNIEMsWt5w6Z5P3vYjoUPnWUsW/lr5eP80N6z8eY+tX6NTCvjEc6vLGHMTtDpr3V5Sn+l6p+5b2/uzS1fw+7TX6hEsHRlZQg4p8Ax9NTTHU79y6k93dZkQKO+GXvBS8Sd0yjg6MBGKDvKjQeNmq8BAFX4ufEc4TRBDMzTbyDAqANqVX+mJkd5nl52UwL6VmENWYCIrNvuGS1RKX9JDe1oW7P9RWOMA+3d9bK14EZDt6aJ4GXbY1DAu1g+Ra4H7Og7OJCLCYzJHy8T5u0pIW86+lKq+0l0m77F/1hu9TTqv1EmHir0QiQosismswH6WO5Xf551q5UuVKKuDr0sXamP7X3P9QmdwHXEdcjP3eGU66fEL3wj8oZiu14ODjmq3zV/jXp7JFyDFb9vYZM/t6HJ5T5tv6NM8x2qGdUD/u4I83U5YGrR9Dvksgl5Ejj0Zje93YTeeGJOivCpabJVee5iJdtqSpbmFIj2l2zI8wvLr5lJtAkrh0QRsmGt+3KfYD3ljbqmqD2iHs2f7Hs3Rhs4t7KE0YT17DMgm6GwgPnajqj1JmwAnvvwJs2ul05h89XzxSfgf136RuxjAnwVPfV0h1Mfce/pdqc9ORoMH0dzNFZjUGihfQub+cNWtM75IgAbJKLqTWDJ+NOLccq8aMuFA6vqBcByPwLp5TdoqdvzRfQ8R8ktspejchwx93JYkw5KAxTwEnven2vpxFUGkjktzRMeTHpiubl+LJDJTQNyHYMzfdSTjtjaY0AF+Qz8wo0t765AIWKH126btvwsl0UpBekGyS+tvAws/YVeUmvbVrQNIvm56aysZqR2wL6I7BsaoEtqeaf4WLKHrVBwm5AsV9qiFY4KB3xIrmKPqsgyrYRUdXbjCuXj5lu1B3TaTqI9gtwppaV+JpVvvoqcVjL/TEJmIR200qHlA6k+qf2Rj2VttmzCXZGnlo58SQfVKlj1l+97aWR7VcX1jXVcWF1Ok6CsKFAfTf6bygPdT5pJdZxZXcLerz5Z+Vze1qfAqgj+xYnjx0boqac7nHrg3tNtTroDCOAHMRynVTICmICDvTRS+OCXRsAgAcY66R4wGf4xwG2BITiYjIgyaPS000Aq8Z1HvCzmRwfafQNrlt/BklUl73lPiLUgW3+BtZIxTUAI5BnI4L3jLQtZlNQAcVZEimCniQzXmyJwjcrF9W6PeDKiGvuitYTUSHz4nm1TAZXdkjX5UvXiqSptl8gn4yjJ7GZiwKCVf3j5Xsns13Y7TYpsK0sN8s1uAXrq9PbYbQ2zB7LQLd2DFUsTT7ZdRFEZyHPdranUL5J6cWUC2/ijeXbbXiQ60vn5pk+p8pAu3S/YF90pQv+Eq1kJ0KQUqqP3QbxNjF/8Jo+ytsxdh/0Gt/PQTUws1fur6IpMIcGvpS/w73a9zY/zuymRX4oSFdEH+iSZ9GXycvmvra/h0tqKt8sM0o1hKchvWz2R+qvCnfJSweX+rq+dwuZrF9z2jWq4zwIE8ji0j7b39OagHrj3dJtTAUkIsMdAWYdD6GAYg0NGb4jOn0bTFrgs5ahiYuDWo98Mqtv57XhClpUjwQ60yyBlJ8L44OSTkXyaSy6nGdSEZUmgyKpC5XCUk4Ao57cyDB/EwC7pWcw5ctQ8WMQKRUsWspvXLzSZdV2ZpsnUfhnTJjYd5iBgbfuOs91a7Msgj5zMmIUOBM7VQXcrMmg/474wQy7f3VQTHyEetb5SMS19tdN7HqntAQL8xFmQ9ze7nTXrQjXpLHPKN1k+qSrifmf+qBER5vJqfgxOjQfrxXiEGStfpDrWbShVSAzAwvO09RiZUtvibkfjR9f7J12+3ABmdzqvawLm8SjXnfhGntRIOvsPsp73U2wPx9lT2t4EDWi/vLZCE6oCyFsN2wWgWyaYXZOwPFGlrxcP19ew78snIeNxq73FpAUjEfyTE48fW0VPPb0JqN/j3tNtToomLqXpTnOhGM9ual5O1TpP6ez5qyAMVjjqDh+RSu48wAqP0KouE8DZ7X+Wx5JzuK75x3OLel6bjKiCOKnn96i2WOnq0UqXpwCLqD3pjMC8qslVyvLJi7HistUHYI+4ge8zX46qVb9bOjElsIx5TzNMR1Pk4YiwRjLPrx6p5D3yvAdWYTvkSaBKjpDVS3MbNAXXW4wssVbymSEo7p70oVRP16nnpXpQfWLfd6ymJHksRWUPJT/yvc+5xq4nII5K9Gf24aRih9hbnOtk+ma9wmVHAtAsQbIZGdfVq1Q+tz9OZ3IQC293qR2zRbIH+pO0RMY2zL4T+i01Ee526F2VyietLfh+/dQPmPy2TYftn3Ue/3E7Y5/QdJyr+Vbkb27GikVJY18yJT6g8iequLy20oB2ZalY35aPQbwbhQqj/iFVMJIZnx1nv4yF184jVtiEym/+E8GnAZxETz29SagH7j110uEjR2ce/fBHbgP/EPqP78E/XhPJqpAeZ69u51CV+uVoMinL9kQ8eETYqZJSEqZs8pUIqBIjVRKp7Le1k0xgz8Qj+WlfsgIcT4ZFPk0CRUTJ7Ep98EJEcSPSlpaUKz0ayAdFDKFwCbwWWu13V/UvtrIOHXdThJmjfhYt5mPw+IU02wfv/1LkXzwZvRdQRnqrY6MPcV1IyZT2fFPUOu27F8MuZTVFbbuA5VeKxkr5v4S9fe7HFiIbR01gW5PcH6qTc0SzlYtSsz3DK8haMQHle019zBYx6TM9RTmRJ/mahO+Lassv3fgcDedourUbArimAwnDlvskA+uEbRnNGbaC5f/BBQjdq9DKWWjK+ap6nxA+yL9R/Mquy2/jlgBnTm/lk2I8ah8+az5Obd31U9eV9OTtLHy06SfIp0u5abXPdKnqZVPPlHQoaNrphdVlXF1f80linsdYQUUR7Br829KR3OSQcZ+SHzj1SQwm48a9kk3c85cB/MM7dW/74SNH+10RPbXoNgBmPd2mNAeRv3X4yNGFN1KIBgdSRAgK+0z61Awx2gTI9tMMJEJvWuezMTceaEE1dsqMDUwpKk6gzSKAXhRKfhs0RVJOA0kmp592YhHSEg33umtE1mwwdHDt5ZnsIDBjgC3OqE+6ZSVQaMtBpz1rRupWVFdIRkhz0k87TR0RdoSeIsj+tVnTp2Y9u13qe+BIItssZFfyHfYh55PKpGcI2QRw3sEnQIznqb8ZIMUXqL6tVRPjobEH2aKnvE/Z9WxR0jBo1J91VUzKkVjzu1hFAaUX0rM/iPbgRUqajDlwq7Cbkt9wEL2xk1Y6V6+Ly8oRftdZ2KaYl/yP/Uw60pPvdPhFy0dTmUW2iodFoBssSnWylZPiA669ogTjYfat+7tUDvkHKB/ry9qi8Q+edTQ625cj9Ch2ZP1av8q+NZ5McG5lCdc31qt+1focnsxw0Wod5JT/xOtEBkjPdr50ClsuvRw+b2zJtwCcAvDruMPo8JGjc4ePHP1JqL6h429Ptyf1wL2nTjpx/NiyAN+pwE8dPnJ08Y2SIyJNFgnNkR8ZjyGTMXywtyiOoorWGMPyQ+ge4nqiE+/4rUwf61IcsUSuFP7yn1pkzgactDWn/NHYO+r/WmTJ8lMEGlY+RWH92sC4p6uirRJlqvGBDeymqhylstoxSFENaZtqRSTQVBcRL3EOJqOB8ILwwibGk6KqEWEs+rC6mc2FnvM92KQkD/Rq0ekCGC3qXqcXZdnDHoMbVzzSHlFiAygVH4oic2ySnUyLr5gvB+Tk9GH3iKKGnWk25fcNI2mxNzgfwiUjmo/g5fZnSTP5RJEj1c47fCVH++Ov2Sm9HyG55pFfMFi6AoAi9xoRdktn9vQJDujFWMtZKi5kKy41RczJ/l6L0vas3RZlAOyHwjV1o8BXi5S6G6Xakl2jnyN7dugtGp3AV4+oX0g+XNK5rZV8SMO/4GWLuzYDZtN6kgnAxmSMcytLWB5tUH9rHYuSXkzlVm/TKyhtx1/ay57TKgajddz9zCdDF1JkFFtRBCCyDuCfnDh+Z+1tP3zkI/MA/haAj5x4/LFrb7Q8Pd1+1AP3nqaT6jko/poC/+CNirwrX2j1TIHhxhoGo3WkQVOrCx7z+CNINngY2JYIGvnXEWFgx8q0+0UgB5Y2TkXUucFFNoA2z1oDMPG0dNJRWQNINsjztowUUQZF4FJm5XG9WbVQPt1GQ/aK4oxzgX95s0SP476UvbNFP/4oA1IXwW8x3GeQ7wotOY1vM4jHnIiibZXMbDdIlFHjCX8uSPWX9VVs/Z1fxOxLpyA6iSdiAChkiIizICLLXbrMKymSlBXVtsi21czwC+vD4Cc/j0lBkB0/6bgThoOynyUwngC9BmCu6hMrTRmn+QQC1QPjyXtzShpbGZo5+1Vs/Z1fwGDptdImK5t1sJXK0PEoouDU4ujf8Cm+x3Lx86Qn+6vUH1AZUvO0STPID3hCm9JpS9eO96lP4QADWE4HyoSl2b8Flb2ifxCqvxiArjS6Ohnj1ZUlrIxHJlQUzHatWybXV/meCU1pUmWojahg+7nnsO3CaeScwbOsXjwJ4NdqNd7OdPjDR+dV8TcU+HsAzr/R8vR0e1IP3HuaToJ1EZ2H4m8A+EdvRORdgFUefNMzfmGMgU4LHVKnX0As+LEPToqxL1kbLCoAw6LrnMkGS8KwDmKrZWOGpz6BIHBrqewZD9s+jGkMYB7BVkTk30qiZ0j30ETPSxkGPgvHosKMNmLfetTF6+PIpwz8hAZyPrZTqV+NaYtuY8UCrTxZV/ZMQv/K5dZ86vrb7Vw/L38ywfyXTmDupS9i22/9PGa/9gxEJx1yWVkEsBHRYU4KlpH0l/dGRxpbHVArI6Nx0iGDmuo/IC0ymZ84T2ZqeRj4m72q4mv/4JcZrczkI1X9Yk84tRNVzFx4Cdv+w/+NuZdOYfMXPgZMxtQujHnmZStiERG3tMVXpfKRVvOP6Lx0yJv8kqtf+5dEGWwfcfeIdsq6a28ZMbvk+vhqnKnNdUw1oTaZjEE8VKvnQNXuan+MtqeqWC1fQ10d27bxVsfcLqAlVJecfIP9sjhwAfPDjRXs//LJOEaTc0X/MwLwMyeOH7vcIchtSYePHJ2H6N+DyN8HsAjVO3Jffk9/9NQD956mkip2NAMfZlTxYwr9+cNHju75Botxhpd0Wbj2kXYSIKrebwlw794GFCX/RCdIUWd7Jg04bVhqGTTUB1LlqJTtJ7U9zch7UW3/c9pJkyYTBNt9C4aN+AzYGqSg5T/f61ny2B5b2+/pe6Q9BNfwl5Inosh8oknUsSVbQSR2dFxTT8D2Ttt+ZI9aUv0S6lJEBL889/cMVJO8sQ8XbosoJ7sCp4DZjRFa0U3gS+OjmHvhKSx8+nFAgcHKdWz7rZ/H3PN/UPCDUFrLlyPphuDc5ZQk0UpeKluTvGQribqbjiv8b7jGvRT8b1opQvEn9nMq32xCcgoVYQWmvdYpja3IJAmCv0Q9gDilaPbsV7Dto/8Sg+sN1tr8+Y9h/pknwob+fgBcxwrESpLJZTqQqG9otvgzacf/Gk/SVbR49X36ltTt7HWXyobm44Zlyb+R65HaRWDUIlf4OIPu8GVLV3ibLROw5bag3ka9/qUPU+Jn8wfvRwAsla+hro/H1P9yZ2o6qiYlLqBSFu3O33ok8RfAzjNfwrZzz+e01J2Uf57UOyjafvjI0XkAPwvI3xbVhbLCuO0NFqun25R64N5TJx0+cnQgIo8A8MFRIH8GwKcOHzn6vd9IWVqgvbmbgY8PdgY0pQKolFY136PxZGLAwJKKlLkADdiNUMEmRYSaZ4SBAUT8HgLMvXQKC7//GxCLWPkATmUaX4lRNGTgbRgGGcRP2Ym9upm1gY0Y3BD8JSvTAWZSG6OJkDXtDS5q9wJVA6+4OiSEKX8aHG17lUsdiuP5uFzJ08wJpJI9ZGXQ3K6r+BYSZTQ0mWD+1BPY+tv/CoP1FRd6sHIdW3/r57H5938d8PcgFDFJMrZ0cKnYdKbUMW2vYWHhQJnmU2BraqlrAG8C2YkRtRcCmqwj3g/tEy3fEhN+2iVmmE1dLoLmXqzPu+yexoTEJjEupirmn3kC2z76LzC8cRle+MY6Fn/332DzZ3+jWe1olBiAVQFxMB9OJlZfZV1QhcqEI5qQxG3QaoOUdkX1irTKrMgOtkVLii9QejGfQcLbtsHM2oZzsoTFPL5lKE1I2ED5rr/LwPv30xaYqKi1uTh9hib05c619TWcW1nC2PolHePAFz+BXae/CNhqVALaoIoaqrZ2HT5HFchAP3dxAICZ1SXc/cynMODVr+Jwzf52nzL9o5N3SLT98JGj7wfwKQB/AcAM9U+PPNqfKtNTB/VO0VMnKfCIAPfaD/jAIQ+p6i8+euToPxPgfz9x/NjVP2I5GBKnQRUAhqN1DEYbU3Ib6CUAbPdrYFIKmQhiu4xtGaD8/JKaHxXHezRdYC6zXI/WMX/qCWz5vV+BTCbAzBxW3vM9BeAVAZSAWJV+mgAAIABJREFUieRBTgx1+1YGH25L6QysOV3oQklevpbW70r+NKh38GLIIxK/JeTy9F2ASmi6YQCgOgaxC6BHzZCchSd7pXSazlA+iUmCrN3Awmc+ivkvPYHB2mrYwNJvrGHLpx/HzKWzWPpjH8Fky/Z45vaObVaG5tkuDCr9RhGEvKi7jlYvAdLHijyR5OtKD81tBrCWpSpZOtLWctVbloBcS2flBklbpb3ElRtY+My/x+ZnngBG66kaIgDGG9jymX+P4WsXsPyBD2OyuDOkabmFks5rgeG+V2Wvq5TtaP7RSms1lWLqbutJ8eP0LoKTT1GTALG1qbZd6LhzQsLt3XmwD1O/xYnq7pHbiAgmqriytoKr62sk+gS7Tz+Ng5//bQCKl1/7Lpx7x2GM5+YpP/dHpPDaT7ncVmNmkRS7vvZFLFw9l8R0LSps5fOkQP8jbnM6fOToNlX8KIC/A+BgjLMosQ3dA8gHADzxxkra0+1GwzdagJ5uTzr08CN/RVX/S4m3IWMwEWyByocg+ODBhx955tDDj7x65tlTkz8KOQ4+/MisAH9FgIUQI0Ya0QkuPvherC3udECTQG89KnF03EZ39VEOUGBhdhabhjynjWMeGfTCImvGN0VUG2b2ufPhpTNY/NS/xcLnfxuD0QZkMsbM+dPQuc0Y7TkIyADN3nZ7gc0gTwCIhi0DYEsfgyM/M7spTTAMeyvJzi+6ilBd6Fl6GdYi/wxquez023QB4hP3WkTbfLhcLc8c+Lra6dhIKwN5cuKlMR+ecGxsYO5rp7D147+MTc99FjIehQ1qN1LF7KWzmD33HMbbdmOyZQcwGJBt+IVYm7AUmbVLxikTIY3tR5ZOWeet+qM9QWL7I7LFc2VGjfxiEV4+KScAcRw3iA4dR9vLW69I1ybrZIKZCy9h6+/8AjY9/7k4Gcq4aE47e/FrmH35Wej8AiaLO6HD2VyXYqOoaNEZ1SXe6eA2g+TPXb6d2kOlQxWNU6VCm+FjErXqnDRXbQ1C/lOXrVnumg+vIEU5Vf1TQIEAdmob8Ww0meDS2gqubayHeicT7H7padz3+x/F7PoyZDLGtvOnseXyK1hd3IX1zdvIBiwswuc4IuNiWL9NMtLzmdUlPPh7v4LZlestW1X93v948vhjT+I2psNHjn6rQv8pBD8uwC5rX4C7LlQwFMjKoYcf+Q9/VONrT3cm9cC9pxYdPnL0AIB/LiLbDTim00EacDIQ4H4B/jSAHYcefuQrhx5+5PqZZ0/pzXj/p9Khhx+ZAfBXVXV7AzwJcBe6+OC3Ym3rTjj4NgAvqAYCBtdCzxADhSjmhzPYPFOahmF6r38AGyFgkMAK4F8nHKxcx8IXPobFTz2GuXPPpxeqZLSBuZefBQTY2HsfMBzCXvD0xesKYCXAxxMHogD6xiPu2fGITdXjuEXjHnUpqnJdGaQKUFODn4iM228ksAe087WFJ+DPZSlcN8yPJwqmlyZd6M9BVamn6280wuzFl7Hl07+KhSc/iplrF8N90gSKyitiDpeuYO7FL2CwsYbxzn3Qufk26DKwVjiKsLxW10AvPEHr0nFMNsL7HYylPKFrti3c1QO4+Q4T0h2X7dJO0btlZR3XR2Mm+VUxWLmBzU9/Als/8f9i5sorURfSb+g+qjJcvoa5F7+AmUtnMdmyA5PNi5DBMIPqcFrPmPw46d6af6mPtesWaCchKh2m1SAG1hLglLeS1fZF0mPU37usqq2wbyeelb6tjuG3VXnaSkw7CxueG5MJLqwu4QataMp4hH1f/Qzu++xHMbd6nXgrNl+/hF1nvoSZtRUs79iHycxslj/5JZdPgRPrl1OeRth9X/409pz+QvJ99tXSNz4N6E+cefaZMW4zevTI0cGhhx/Zd+jhd/4PgPwzAb5NgBmfXIF6AztVSPEQBL9y5tlnLryhwvd0W1EP3HtKdPjI0Tko/rEKPhSwBRVaiD8KLAD44wL8EKB66OFH/uDMs8+8bm/DH3r4kVkAf0mAPU1UiIf3ZoC7vu9+LO2+pyPihip6w4OGI3J4lL7kmx0MsGV2DkAcuuegFhTMTsVROgAyWsfmL/4utn7sX2Puuc9C1lc8o+dVQHSM2ZefxfDaJYz23V8AoAsZkVDfulOBLntBD1XUuRqEm8tYNWiwXkTYawDvddKQJUWpA5dEVE8q4IIAdQ1ulBQpSzyVfM10WMCQGg+brBiQLGEpm4RYXZsyfAiEHQ0JL1cxc+4FLD7xb7Hl934FMxdewmAyppoDfOqJuB9ERBgiwGgDs+eew9zpp6GzmzDec5Dqrjlib7VjOYTaVq2LZrZVkhYZymDuX9otEcxQeYDmHN03qYUe2YSu4WHtyvQYzSf/NrkDT0V5eUUFXuuwLzD3/FPY+vFfwvyXT2IwWrP5BKx9eZ0Y2fFKjk4wvPoq5p/9DGYufg2TzVsxWdxFfqFePwiv1kQb9scGOQVlQl1AcYl+1n6aA8H2zCaGPDlVMnFe5bH6pVUNVNcInzae9h6C/za/sHaBaIfe7outmurTypTZ33OSnIU2JhOcW7mB1dHI7TvcWMX9T/573PP0xzHcWHe/iPcLBMPxBrZeOI09p7+AwXiMle17MRnORJ8WajPjmjHKT76OdjKztoKHfveXMRitU/8ZBilfal5V4O+cPP7Y53Cb0eEPf2RORH4UwD8H5M8DWLTvbtjki3oNwP4TzANy6NDDj/zamWdPrd20kJ7eMiS3TtLTW4XKm+0/qao/5YNRh4swyPIBJn6fgeJnIPi5E8ePnX1dZFL9DQAfyjOG6NSf//YjePUdh4twoI4fiOiU0jPJCTUPHvPDGdyzsOgdKmiwRRps27yGF1/G/Fc+g/lnnsBg5XpEH9MSNRVLIHmyeRuWvu0HsPbOw9C5zR3a0DTJMP2bUgzIN8/yFocWH6Bs68gK860eNhhrrQMa7isQ6pUKNMRQ15+HGfJ9RDZGSAGKwuFIJotq8zOyCVVvcO0S5l78Aua/fBKzr56OstlfGFynqGwFMJDFgACjPQex8r7vx9oD3wIMOdpospAv1s/ILmFLtOo6bRuB/Wi1WZv4oNouAURK8u2oGPMqvFWTKFnknNevAUAnzQvZT34UM6++mE9kytWOFQoHrsHLz6P3yUnjG+PdB7D68KNYf+A9GO/Y58+ynivZrFACil7f2k7Jx0lXBOzbCmGrtP3cJ3cFbOd8tYxo27ya0OdCzX7NdYrSd/hP2m4DYHm0gfOryxhPmvIH4w3seeEpHPyD38KmlWvUJttbcGqbjTYt4MID34KLD74XN/YcpLpVSrJqu+7p3mSCez/3mzhw6hMlCfsIuFl+DMD3nTh+7LY5RvHwkaM7APwlAP8dFO9I1ee+qrOfpiau+D8g+Dsnjh+78Q0Qu6fbnHrg3hMA4NEPH10QwU8q8HcFmANaY0Q1JDEmJpDT3JoAOAfgmEIfE8in/7Bfrzt85OgcgP8PwA8SrAG77pl3fze+9t7vB41EWWAfB6eAHo62QTA3GOLAwiJmBpLK4YlARLQnGNy4itlXnsOmL5/E7KsvQtaW89zBAHcLP7f0Bh0MMd6xFyvf/N1Ye9u3QTdtccDsLKqxrWFVRZWl/JNUUp/YEvcZoDdjSIfMNIoEeIEfB1nrMUdfaz1WKkgDP9dsGrjjJGHrZs+x+IA/uH4Zs+dfxKavPInZc89DVpcgkzGdwNOhzCKYug4zGOkaYF3E4QxGuw9i5d0fwsa9j2CyZTsBDQ2ULzZJMj1nG3Rg+WrXhpIonKnwNc+TDL7NRp7abYd22aBJludFB0AzGWniB0BWbmDu5S9j/ulPYPbcC8B4wzi1AX6XTqfqOupg0w8Vgc4tYLT3Xqw+9AGM9t2P8fa7ABnSay/Ug9nEUlnVtFWF/ahykRCrbje839zqGfvgkw29naBiThhOq6Id3/PEgvOYHQnwmw8oeXrdtovsiubkmMvrq5ioYri+ip1nnsH+L53AliuvVKtSoa0pLQg22QKA8ewmLO26BxcefC+u770Pq4u74t2Q1iSbOwhg82uv4t2//i8w3FjtMofRDYX+8Mnjj/1qlyjfSDp85OicKr5VBD+kwI8IcADQmZbUFsTomIDFJNL9aqSKfyk9eO8JPXDvCcDhI0f3Avgphf4IIAtl+AcP1r7MaqTwSFEsTXO/a4OrXgZwCpB/Jc3b8c+fOH5s+T9BthkAP6vQH00nrvigoTj/9g/g+e/4002G1LM7mrspaOY6AcBwIDiwsIhNw2HpOG1wLp3reITh9cuYufg1zD3/FGZffRGDG5ebk2KcT+bP5yanLSeITjuO+hOoDDDacxBrD3071u97N8bb9kAHMxTYs8lJAbzQCFiBtja4GZXKLiUzSLDhmF+u9HJMsYQbEFGvSEr72lGsX+oTosT51Q6TaABzocmnjDdMVn4B2TRZxJS1ZQxuXMHsK89j7munMHPxDAZLV4HJiHyW5OWoejW3sIvApzRBoa0FbOUGywkwGGK8bQ/WHv4A1u775iYSPDMXYFFYnxr6qCP90uE7NEmJrUI1wKsPDGx01o7ORnrzo/yCN7X/qatHxfsUkMkGhq9dwNyLT2P+K5/B8Mo5yHjD/YBlCnzJ70OgyBmabUeVu6Gb60sGmGzZjtGuu7Fx6BFsHHg7xlt3Qee3lLZA/UgN4FsT++K1Lld75cLbh+NPrfpHR9ywtqkoYL5qQ15fKzkZtwA5obYuoK1T3MZZtywrt5nos8c6wZW1VVxbW8HsjavY8cpXcddzv48tl1/xl7VZNvZR2H5sSKsdsSpVFRgMsbawDcs778ale9+FG3sOYW1xB3Q425UDMhrhwd/7d9j7/OfKsJL7Cirv3wL44T9sgOg/lw4fOTqnwP1Q/RAEf06A9wCyl8dR8+lwLV59LOMMVcjShGvJOhS/qqI/cfL4Y2fegGr2dJtQD9zfwnT4yNEZVXxABD8NxQcVOgCo4/cldVQgLUfWOAKVgB8Fhsr28nOAPiWQj6P5OMYZVVw7+fj0pc3DRz4yAOSnAfxkZhoFXzr0CJ79rh+JTPXJBSH2FI/PDwTA3QuLWBjONBUbrUPW1zBcuoLZl5/F7MtfwcylMxjcuBIvm9KabYoiowC5MvbGflpUA9A0EKkYL+7GxoG3Ye2b3ouN/Q80Ufhy6g2Dfhug23y5rgbAGJcYiAxAwJOyTl6cryOy7qePlLSZX5TRABghP9EIRGYhKzMpMJlANtYgq8uYufQyZs8+i9lzL2B49VUM1pbJf6v95QwQEWVH5RkrZT20tuWUzDFBCUNbBHYyvwUb+x/E2oPvxcbBhzHZvAgMZ1NEPyYyBiILoAToi7mCtJrBPsT+Z8DR/M0AnwN34iGp8g5kazuGFSr7KiDjEQarS5g99xw2ffX3MfvKc5Dla8l0LB85RcakpofAOrm51hO1elVN+UdcTmY3YbxzP0Z778PGgbdjdNe9mMxvad4nGQzhTBKKClDFOvSE7gvx7gFYbpffKlT7FOmhZceQI5/ik2UM8A96WLetUIR/KC31NYrJZIwrr10Ezp/GrtNPY9urL2DztYthn1RuqCAcsEwS6X0T9ytuy5VpFMD6wjYs79iP63vvw2v7vwlrizsxnt2EyXAWEGDH2a/goY//IoajDVgEP/oo2L2rAvzQiePHPoFvED165CMzALaJyn4VfK8A/wWA90Fx0OsYCD36yxgL20NR0WWjs+hXmsTCbJ9Cc4TkJ06+QROVnt5Y6oQxPb356dEjRw8K8BOA/reqso1BS6ykRufOxEvkaTGdO2XKY2NhGnQUIwhOCfBZACcAnARwqmSZnDh+zI+/Ovzhj/xtFflpCkEWINbwurH7HnzhT/41E85li4sanCH/4AETCqhivwh2XruA2Ve+gpmLL2N4+SyG1y7BPnvvIDcrhkAHgQjHnzHg19SKwJa8wrxEMFnciY0Db8f6wYexcfAdzVniwscRGkyt9yMXMMIYsAsdVeADtQ9IlVzrexRnJ95q9aFIcAb75EmaeTlwUAXGG5i58gpmLpzB7LnnMbx8FjOXXwE21khfiUlznwdBKjNHULM/tw1caiEB7FpU9MogVL2yCp3fio39D2D93kewft+7m3PJZcCndxJQysAt9Fx4hVtUEyJkrFCBL8aGDRBSJHftKpt5AYBOMFi5gbnTT2Pu9NOYefXFZmXD1ZSQXaVO6hu46VlzLHIZn4wBm+1FBoqnWCGVGe2xMBrOYrRrP8a778HGvvsx2nMI490HoDObCBRXxp+i+9Bj2N1E53bYsgfaOibsTUe4ZrtxmmRLYnwzHwj7KQYr1zF8+cvA6S9i/uxXsOnGFaSKkR6BmKTwey5ejwTS2dbU98Kn0G7opn2Y4QdY27IdKzv2YWnn3VjadQB3P/MpbD1/uoNxeq/q5wD81RPHj63jj4gePXJ0IMBAoQ9C5YMiOKyq74fgEQDz9YQ2CxuBAqt0+EY2lK/C2rO0UuLeBCiWRfCvAfxDAF/l8bKnNz/JrZP09GaiR48cfZsAfxGKH4Ngjz9IHQSRRQGsY0KX07TvVrtjp+ZV7oChVwF5VoEnBXgOwLMAzgL63dpE3We6+C1vuwtP/8kfw9he6OwWsnV/duUG5pavYXblGjYtXcHma5cwf+0CFq6ex6bl10ymqHsFUhPQ7AC/t9JS17JyTkwjb51fFToYYLz9LmwceAijPQcxuusQxjv3QzctZD5AsmFiNrUSXQnRXNsg1BmKC5tOqTXS+fPOvlLGaB3D1y5gePUChtcvYebCaQyvnsfMpZch41ErOWP1HCE2dVF5qOv+9VFjEs32MFCFthpz+eWOAbwiRGO/t2Hj7m/C6K77MN65v4kCS6Vv51lytl54qKLQ/FK2P+eXkTsqX/K59VIFJhheeRUzF17C7LnnMXv2qxheeSWtHlkDafu0baWp9/FmMfPJLKxTR7pTjBL6rbcChdrp5daUoLTywQDj3Qcw2rEfo7sOYbJ1N0Y792K87S5gdr5Je0tfqYwPhB1vZi/k+/l7DmbrajWT5c8Rk852KeurTfu58BJmLp7B7CtfxfDyK+WLtFP6JoTeu7o4U8m0JhyzELQ6utSFED8r/GaHI1TyXgT0O04cf+z5zoR/CDp85OgeAAcAHAT0QVW8HcD7pfn44B6Lfjf1rUcJ6mvKNXxyTNukuvpUUmJ9pCoDenJ4iMhVVf05EfnZE8ePPf166aCn25t64P4WoOZkFrxfBf+1qP4ZiOxS6CDtqaWeNDpgigRYZ+oASKM/pj2W3rlQmDCixnaKhaUFpQMs8lLAxwSCdYWOpAkpL0SfRVEJEWzMb8GZb/4ejKqTWIYba5hdXQIAzK4uYbixitnVG5hZW8Hc8lXIZILBZAyZTCCTcelclWQElcP1RK5HCpmBdFpgltD4DbgeufpdJzQ0rLLeu9MAGEiz/WJmronK770P4+13YbxtT/OC5OZFTOYXoZsWXKY82oTeGvbxwKN3PmDRwAQettTdyCrdRCHZHRQyUcjqEgZrS83flRsYLF/D8PolDK+ex/C18xgsvwaMRpDxCJiMKFJPO6Vdx3ESjldJLMrVAVPdhmxIpMTmW7wk37Va0rY9KbNK39oWRaAfMoDOzEE3bcZo190Y7TmE0V2HoAvbMV7YBl3YhsnspsQr8wZ4QpS2y1j61qCffQ8AZLSBwfK15r+lq5i5fBYzF77WTJjWliCj9WaLErFK7aVuEwxQKn2mKQQDegIx0Ucw/jNwSxgV7B9hvyjH7yK2TZnJHAQZa2AwhA5ngOEMJpu3Ybxjb9Oetu7GZOtO6KYtmMw3/+mmLdDBALFthvTPUVTVrI7aNiQWA2H2OCkvqTPQt6j1YH0FsnoDg5XrTXu6drEB6xfPYHjtYrPlb7QB/P/svWuwXcd1Hvitc+69uBcvggBJERBAiuLLkvyixtaQHj9ix05Ztqg4FvOYJI7HlSp7Jk7VVDJTk3K5XB5XKuUfLqc8nnEmY08SzZTHiWPQkxEQR1L8kC1LgCjKol4QRVJ8ghAFgnhe3Nc5Z6/5sXut9a3e+wCULJkEuVcB95yzd/fq1au7d39r9ere2rgB2jnFh/qtw0YTxh9k1l8kjY1Wd9HvWinz+l+0Ca+XVPNCes7ltqyXgFR1KoITAM6iDb1cE5Hnyzg7izaMhvQFKDAS6AFAlgCsALgZ0N2AHND2beHLoroAkSW0BzXYLtrUlmZk1vORd2IyoLqbTxEGCrVBeijQ7/TXQH1UqYFiFaL/AZD/R4GPHh82sL6maQDur1G67/73LAFyhyq+XwTvAfCNAPb2TWNA7SWIZw4/jPihGt6AeKSEp6Ql7lz8HOIYP5+UqgdbyleDVOk+9nvsj/Q91avUJTwnPZ66Pu8g68DrQ0yjKl1PkvNLEBJAbF5rZZaOzPZMrz05Xa9OPfkCGI+hi9vS/2bHHjQ79kC3rbSbXheW0Gzf3YLHxSVY6I0uLEHHV3/Vg2xtRKx/M2vBHYDRpbOQ2QSjyxcgk02ML51tgcXmGjDZgkzL/8kWpJl2lJeBpoTa6sm90rMBCtZ03jCY28pSZuytpcjcn5U6ldSMTOfUXm1TdCfuJHMIEu1YvuvSSttuS8totu9Gs2MPZjv3otm5B83KLujyjnZjn+15WFyCjrptJmU/ALeRbK1jtHYJo9WzGK2ex/jy+dJWG5CtTcjWenhkewZ16LYCmkVHfWOq1tu85wY1S7YtSae1+vgSj1fTa83bvJ9ewty2pSSqrYG82BrJurAELCyhWVqBbt+F2c690MWldnyNF9Dsbhc1uY0AoNnWd9xrptRmqpDpZvu5fgmjrQ2MVs9htLmG0er5dr/NZKMdS9NNyNYGMJsmvXJd6ietdtqAPcQ89Obpf56e89jK6fN17zdmSABpzHWM3WTY0LxGE1is5vbMJZV83fIsU8x5/hxXpT0qkTEdMqBCsvKzKnvPeWHVjVbTQ5ovY+UqHjJJaAjkokIfhcj/C+D9Ajz6Sm3YHejrRwNwfw3Rve96YDdEbxbg+wH5AQXeIe2SH4AM1O1K+2DoWZIrANnBTn560yyp6eEWG/QYaPdP8vYwrid6nqCBmCTiwU7l+UPUlvfnnTpQBXBUhkphme51gH6bioyaeNiap9GepvXmsI6O0ypFTjNPZ0wdIKiFb5lMIkYStEqfZrrYKCvtj/ZIveUA7ovboAsLuBqNNmIjKJopRgQ2XGs91lPvsY4IPYZnVEudAmzFRlwDCux5Jz1Tn8qrHl19hGUJ4hvAwPsEgDzbWmnwvpkLtb5AnjMHA94QVXRLgAM+1z7FRJeyWgOrPZVDl7a1nuKKpJlBNjfK9ylkshHArB7OLkvWPexYQR7i2lPvqp1TW/O4DCW57u0oywraUNvYuOExZ/3LUF2dL+SM8atZ1yzTnD4U/aQKc6kGKDV7yEltBKA1uK4y+8ps1gJwANCmBeaq8fwICalPlbxpEzM5GvgZh1gh6HNA8IMx1MWeZtBzKpRQA20frzFUQiI76haUh3UNe7ZX481F5gcc1a23L1pGeLmBg3mu4wmBQsySEkkIS0tzFu8Ry88Xfn4hyZ21SBcAsHvdlWgjJT8QOPcZqB6HyB+r6vsBnBSRi0M8/LVPV3l0DPRqpnvvf8+CQBYA3KuqPyCQ74Do2xWyW9wjUKh66GRPROXB9udb+0BInofqKdTOgX3e8pg4AGQvdU+e5DWu5AqOBoTjQV17gLp825x9nicHhsjzVoenJwDiSEqCauytqua/bliJ1dUe7LwGwrqIa+zt7OpPHc9wm3B5rD9CrW2pbPRQWVeqgyUUKlNJgY57KuMr89FKl/C6RFq4fkH5UthBpf/4y0vaBAwcRIP6c0y6tcEX2L5eIndxXV+BDwTKjWCpUpt2V2DYq5dk8XZDgAtTb2AfarxcDgNUUepxJY8NqVr31i+tLftXpcpzgpRRG8Sl0ztv91wW4Q0E+7OliuVmb26MGHQMGq8T55Pcx9kby/V1uTWAoiZ99Dw/Eo7qGQ9Azmft5V/rOPf8HDQddrAs92N6xuZ8HIaBcp469ftkABKARZYxxpZ6nbXSWwb8BIBdZtL1vHqTbDbauuMgzzfKivVngVVBY3xTPzEd+GZie3hWb+tN/STNjlZO3E/OMHMm8NtxvV/DH8ixklcZVlZ358sPmXQ1xj2VHaKYI8uqr2uAPKLQjwrkP6vqR0Vk49X0sqqBXj7VaGugVznde/97dgPyDgHeAeC7AHwHgN08qVSP0Q64ZkBXg7uAKOVXz0QSD5/g0f7ughDDE1IVWMsA2ERMd/q8QPwUoyS5DHtoF5nql41IlrVOEkXNK78rX1ePkb57NnqfDkLr7fO31KGauOuJOcleCZFwU/reZhKovyCF0wnpL103XSHNaUlfeQOgptwd48zKqSboYEd9j3VNAKiVpwpf6qSv+FM/qw2OyoLrQU1Up56+4YCE+lma2m0eLuV7iFHHgKROQu2U2tl59Y9h+x6rE0h6MmDWqcecPlclCXlq1VQy9nbOuoro6r+3DMC9xZ0XCXU7JNo2hgOzBMIJ2LMO7F7tte3d3GqlpE7Zl8C+1quewdu+u0wQ1F55fumdVu2WhyKPHS4/pzXZvX9Zm/QklPI7PRf8+Zv7cf9Ts9s+Co7VjvYKw9HKoM4O9sJLkZfHMY1tVH2+coqEvtrye/cRVc8EH0c+GdbPF3p+VsMrOZZc11lOmLGVyiHNsYxAR6vpGQ1qG9Aqlsga2veq/DHak90+euzI4fMY6Jqgfqwx0KuCyltD3wTgGwD9ZkC+B8C3AVgGsKSqoy4oIxKU5flYFrUHsHtgEA9pfu4ww+Q1AIKHZdIcvtJ+tad/TGZ5E06mFD8PpIeb8gPVy2lvdpY26cHqeR0+gSZIBHCdK3/O36qEeFV16MqY5QtvCT2Iy58U9lPzmjflUXrWeeeBX+kr82VZuvLXurCWtzRZ35TC9JpAErxUXwGoAAAgAElEQVQ/1e0OS0N65esJBxIgT9iwlonvzat3NTFyDUXqsmNfR932nt/qSIgn2iNar1seOtdY5rr+fTKj7g+de7nvWR1jYu8vo66jJbpS/2eOrEdLx0JGaJSNN657eCa5HBOAZajHQ8ib69IdGywz9W+i0GPqylxLr0vn3hXHZU/7Oq/oqf19Uiq52Hvbr29+doVcksoB1QVJrtxP+dme+lYPyG1/5n7Gz3HWvFRlpzZI/SI/u6LtqzC7joHNDPtvpfuUrjdLbxklZQ36JbUa3b+aMH3y5XJfLoeqLRsotkSwAeDTAP4U0E8AckKhTx4/8uDX7YjNgb56+gp7ykB/EXTvu95zk4h8n6p+D4ADENkrqtv9QSeoQt66y3wJ+IoN1J6JsH0aAsiP7+w9hz9MPXZ7XnmevkwffR4G9HU8Ks9kyaBuL0TeZCCQY9AVbR0u79gX9fqakEBGMv/BP9BAAw30KiRtGjeErwUSAMvrF9oXLYFMp2Ko0PP+vEKf7JjQNi/2zEsabJBPuspzTltc5c2e953krvdE9a0UZsdJPZ9GHXtlJw++ldfHn99v4IackMPBDYf5/IscGwDOQPECBMdU9Q+PH33w2a+2bQf62tPVd54N9ErQqqp+UCAf9OeQe3CBNobWvOXZ4oaQh8OHbHi0AJQV5hxPbt4B986Ql8CuheedPTjEuVwLfuUeGQ8dL0a4hSi/xEO4WCoq8oMC/CuoLptoLiqAycISHv2mH/yawnYAkOVljLYtXj3hQAMNNNArTKqATibQjc1rCrjvuvQi7nj0Q1BMIOTIB+BzkQimAH5BgN8EtGnD/YpLSizkCZ05JYNk9oIHcDUQyyE3SmW7tx9tEVyMr+jwxFTIw6uEjAJ00+X9FSZ7mXt7+EtkTPWJFRDeUxKysE6NZ2d1lPQgrWyD1/1VRgNwfxXS8aMPrgFYe6XleDXRffc/8KiqrkJkma+bJ0VUMdYpNpZ2VjlfzgLi/DQyWoAsLscSbXkKqxselaeEvviKfvn05duXKxZL6CEs/sdu9K4I1JfrVZGcGGyLZbEU+ZQRvo4+nmkxnlbSw3rjNRtfQQoxkgfL5zj3LFXxp1Qir/B41qsuh9fLzVTXjm5DQxxnnWPYzfokq7KjWV7N6ve0caO0egbxyJv7wgbui58G7JX01SJ9hKjU/YQBALJ++9u9GNfoUbWHS6DvbodHDh2Ah6WgV0c5f3gWo6ji6Izs5ERI4WmC2OzHxyCSPEpMo3nZV5tbus9Dmr2/0W513ftisEX4C6q2RItlN7agUwDjbflmra+Xe62meWEhnU1CVSNcYTCKNth/6nMYTzdzn1YDz87yOATvPX7kwSEWe6DXNY2unmSggV4FpPokIBcZdNjSHqAYzabYef7L2cukgO/usutavrMzSqX6HV90OrVvYLAFaOupSdfaySbhcwO9NPGrwqf7EElTDCgKH7WS3RuS66OSdaFet/azjqf1fKQDKwMGkjxdqafJzTJLJat9VQn9FrmCt7ZAR21SVrqmAWIMrNN/Y8ubwlqdUfl03+tB8pn8SnqhrKF/NxoKLKP0/Lp3M3aEdUpLzgk8+upRFOixupy/VqnzaDXBBpC3p6rz4vbl+trKF8D9zACqkmwMP03Q0Jn1Ra5DGDKlL1GjqJCBUeSM8AYuxxqdNv1peB+tbNaZtb/LVXqyjye0/cwN6FK2g+lUupCBHRr3fmHvWgBIZ9auBEd9rKv3C/MLQ7lsRYzott18ZZM7jo0lR7FcdowzNDM0l9egm5tJnQ60lfnZs4zbneTnQVFfF8l5FCBLiPJSmUL5Weby8w1ffgy7zp2qdGPjtZVRFFMR/PfHhw2UAw00APeBrg06dvTB8xC84GCSlxQBjLTB8uYlcmcBaeZxDyrC+9OXztI4eAAwnbWTr3kNacnSQQhjf3IqhfdSSkxluV95rUSEAI7Newo//QUGgEqJnp8mTeMhmW+agA3FiMmsziIAqdVRyLVowJHrKY5dUCQTibq0bRQrBVoAsavR7vLRGUq+RsMWZbJ3tReBvQ8ge+ddHq4jrLyomjc1gTA7H1tYaSyQxIUA0d22tL7BXnA7slETT5IBkY89ruGBtwta+iNJ6XWn5XHH+OJ6lDCFsqfd2kYMNgEsqPUrx4PWb6hNW3wpeSxo6lltmynrg2Tg1QrkbhEyszzxncFu9BMXtjWgveGjPlb3Nr2VG0J5Hok6Onc+y7+nj/oYJh17emkrGPYSjUuNIsBylj7iJ+qUa81kimZ1DZg1uS/6480GHTEW+qyNtqQ4fmYhE1vNrAcunMekEJMi58rmRRz64kMYaYNoX2rjNmmjgl9R4BEMNNBAA3Af6NohAR6ymP7w3rV3FMDK+kVGDGXSs4mFP7tgqwPe7VMVOpkmD52Dl2rJPoNAgHye7S+fyyqvX+1tD+jknCXYpPRid21yJw97C041fbaJDFkp8Yw5PDy1IXOSS40He8YKO64T6SLpDeFBZUDQzv3hRa1UEPKINZEWkFUBXaqTgVGrj+MUNyAMyBmWsjKCnxZBQy4zdmiDGHlMva2Lnnx1Q6Nlc+hTgEbzWibvO9fFDB2uA6pygUC9bqxq1BWkY+cZ+cmhng0i6hui/LsASl6VMPkIy7mnnAylut+GHNa3vLFhmwr9kq8uVIKqa9kBq+d1iZV0RLoQ0y+vUEU5edxazWEVzP0OZKRYu/IYEmozpU8CzmptYgNF7JoAjUI3NqFr694Hk9fbwbnENZeTEqWwruoe6FrytNugkUia2jCMGb+WHnEKaWa49cmPYTzbKvXPq0+xmoNHBfjl48OLgwYaCMAQ4z7QtUWflOKp4rnGVmr3nHkGcud3QmWOPVov85LnvHONccB0CtElQiFCIRvlN7kZk2fYgE5P7GjyHnau0+YiR3chex0D2zmFp4cXISjPn5OTBxvmkY3yOQ+XJZ6ewWJsykppeaWg8M4x00JNQCsrDvJ49SHKMOrKVeqTZIhMKaZcKn4G5AyU+KoDbzCLHuDV8jpEnUKLVScp30MHPf0EyMfIpXbhNrMuKqgVo7V8dRkCaHU9RJSUJgoqnCgd9xZSIqWjTfJ1Wb4HInhKnUdQ6Sr00NnfkJkn/Sqkhxc8XQS2cdlcRrUXgcZMNaSqcSkdXuhKjHRyiEQPc+NhNkWzvgnMZq7mrjOi5O3pD/4srJcnqjGcG6Kn7/bl7aPU2C2gv+n0E+0zG9EepkeruwKrAP7psSOHX5jPfKCBXl80eNwHunZI9cn2QW5wzK63H+PJBhZnk3zRvqeJquP+yT/TfQWapv0Pc2gFAM6TYfxsnWeaLnJsMRsQmguHEmzIJOTNytUMrxxJ7g4wqTVWO786tXYwSKEO2Que6yQmNzkyPaVYner6isvdF+dNQUIkp1A9qzZEGAZcD1WADRpeUAkveftZOw1drqqZa1lrOVLDgPVJHDwJe4R7slcAur3dbcueZM6zzyRQzkwXNYtOZdgYsnEA6xiZheksTOuOQFrpSb2tlfJXFQT1c88eteKwnS5V+vUaUf+mOpqHm/s9b5qu8xm09tUZqmPdX9OqmJVZNUQYrLXRBTRbEzSX14HZ1FO096hRnJ0glqAsuSZ+vKrQf6/i6UtAcav6Eh03DSj7IljZuIiDz/xZmFE01jLp7wrkd3tuDDTQ65YG4D7QtUMizwpw0t3tqjQZtpPddeeet8TtR1n27sYAMHgmN5kBKy+jTC2TKcIDzIATeZ4swF7SJNQFCTxZ93nPxZaKxUI04J4oRlcRqhBVTt5JtW2NBBw4P82rnk5jg19nQifeXjufpAFeFYitgm0bhG8xgHrrfcurC7zp0Pi3dc/w30VDvcxeOfhckrY+HGpsCnOgJVmn6QjUuOr9LcWwl3RJymQwRIgUb9JMsepWNZdtjhln/UNR+opfpjYp+esQh6i2GyfWJ2KlBd6WqlqaKcZQG4VW7icLuvRZcL+mvSAmmyLpNfQg3j9MV64ThslkPChVSyRC6NJGWOQ+KyRTWz/SkSeM50OM2TBEMxjtjkHuF7VhWm9E5jpEaJX3tvZ600DXN6BrG+5IiNI0PtPDiJ5xdq0yVpNnnautlDYNmJLXrGJUZZAo1YMCUGDUTHHrUx/H0sZqGDr0PBMbv4onofKLx44cHo4jHGggogG4D3Qt0SkFnraJm0GE0a4LL8AnL0ajRsnrLnmSar9Quvitk2kbU6qa5sVWAPtRJlqeDHliqoC1g36ezG2u9VCElnesVLeoTtOyfQBuVJ980ogbKwY6NcJhEkiy0AaEdzvFzLO6zDPpk7x4nVoDpFIWgYAa/HhYD+izyAot8cIF0CjXIVCu/01x+tYmKGfYEP6LOGaEvArXmxa9idfJVRSe8h7gEsZdlGG1MsPQnaTqmUrz0okktFk3VEWhFwJ/CzLL5caFnXVt9S16937sncc2R+fSPJyjoClhvZnhUsXxi3UQjXaAhnESG127oM7kqQNq6lUpvyXpUeD9InKz4ZQ/E0tbkUPu46KcsBWQ2932HHgfrMazG84iRYU0rszg8utmrEcFfciXDai6NaFGI+sl6YV1V6XrPLz6dFH++Colp9OkK0+X7pOIbNBIm/bAqc9hz5mnu89Nc4q0OaYq+nPHjx5+FAMNNFCiAbgPdM3QsSOHpwI8FKDLAFI8/LevncN4NikThdIEUyi53WhS4k9VpNlK0Xq4LJ605G1PqgjAbShCaULqAxwK9ZMr2MsrIr7ZMoEH88gasLINmVS25ycA7LKwB9EAuOUnqfKRkS1qSV56xEkmOZw1YtEdTwrVjfWZ9BOoq8XjpSzTq5CM1lYirodwxhISL/lZtwaAAg9xOeLytO0Ct7dcTsnXXZcIwMoGQJRteuT2C1mNJ6Fnkr0AP0m+6gSYYTpTeJs68BOTO69WiINRq1upqLe1+oqHtxf1YnXeZCCwbvjTC0oDNrysiLrC2ztWI1iHZpLxyUuGat0QMXk8b9U3/EhF781Ve8H1559cBwO01p+sHSRkcJyM+M469DrTPTtn33+jLVfL86vZ3EKztg405fljgfRsgSj9VrvGzx57bth9u0zjnZ0VyZOOKK8u1xVo+SWuJxbt/V2XXsTNJz9LmrBwPHr2tM+h3xLI+zDQQAN1aNicOtA1Rar6YRFpFBjFtCs+4e248GUsTjcxGy+l690NVWWCMVDJXiqp05WyJ1OMFtohU51jQnu8pMsSqFN7US1QggMS9uB2X7DTw8tAOHJ+oVTmWecySHPQxC8AseMUSht5AkczDmC5PR1vqnUEHdwMRPE7XLzOviognjo2spUr7IGm+nFR/oZh9yA7zA+dlT7B2uzbWOilGA8747tHv6FHoe/RfwzQi/Fx0FcQrua+ZfdbvC2ho6rMWgCFsVQvz4Bk8rQ7sLa4++6GZ1sRsnZV0mmudSs/n5jpclh9DOtVfdrSUoLQl85pfzdgum0A5L4n5YIBcC+RVjJS3Uie+iQpdPp0RcZWuD+THGlkRblomnYD6nRa3a8eMOwF5zCY3F3hGqzGX0dsJT0wA1NgzbcG7HWa0ujjZoJbnzyOha31qLtwLtfGSYX8/LEjh1cx0EADdWjwuA90jZE8CeAMAHjIBCK0YNTMsLJ+AcnLN/cT1YRTiD1X5DWqj4WcG0dM95RRsHsFC2QqCN/ActqYSSENUI5zJm9o4WMAyLx6BkTZAHAfmYVIOIfKawYGFuwl7MaheorqrO6oiwaIYL2SbMbLw1AovCCLFkaWwWvjJ4l36NH4Glhix384FOt46rK/gEGIyaqhrzrUJGLh4YCQZXGPKxkR1qbxi0jbmuZVlbhuclqlWLMhHwFrFtbaGYgwF5K3xeABhKMprD/ZNUk6tRQRl96uIIn39Twm3Kud6s5jKfqZtzV5hXmhi3nx8K44A9zWamMF/iwJ+aj94wbMdAwdI85nT88N88KH/FqU56sAGqX4KkPprzqZtGezT6fR8J6PnlkMsh1Eh45cIKtTclioDdbglZ5j1Xc+YjSlNXmYN+UvXv2DJz+FnRe+nMa56SL2GOiGQn/u+NHDT2OggQbqpQG4D3RtkeAMFJ+1OHIHEe4VE+w9/SSym7Hk9U/zVtmERxNOPRHapwHoydSnKPewVuDFvNscr2rQO7yb5DFzfsFACyKJFzOFMA7mEKdXqL2UR20K5dNX2jqryezzscZ8m8o1iaVoVHJ9IRFCQOryedrTSqo/SlgKn8XPlWe4ZNfrF+6EeAKl9lO+Z7wk8rXXteRTb4JWLKG2afOTSjyPA1pOw85FxndA6Nv0hORVzO1j7Wr6LvKpy9cyTtjJOk1ydsbG2Vi9kcLL+LbMA3SLGyVeF9IP/Dr1QW6jIqgbIjYWXd/RH4TYxPiJcZDWijTaMrWpFomo3+X9ETy0SMfch0qf8RSpn8R4S6s9krWQWpFWHMyY8JUBieeT9xEIYoTFpneo0gZUBt7MuHyyp53HMj/nXFQe9/T8s3rbs5IbyAwEjT7UIX/GWVrSI8UDXX/+JA4880kfHN4fbA+GPS8hvyuQ3+wpaaCBBio0APeBrik6fuTwRYX+KVABJEqzff0CFqabiMmt3Kg9U7Vn3Sihx+xV0q3yshAgvHk0KbKnu83FkycXF14mA96RS13G7F3n+gaIBhAecI7rZ490He9fOcuy1xWIjawBstlJF6fyCPHVAIOFZwpzLsylFZQMEjpJwjGTUrnhnw+YCxdGOVupqgDFc27pSpnsOSTBxLlbJaVkM6OofDcRki6zXmNzpHpSCzsxb64SD+eNaEcnsgrEylJQ+JGSLjLe1tJ+YvoshkH0fXVg3uqNQBcCUJqstfdaNIC+v6EVua+EXVE85Kq+yXjeqkvbtShUx9uYNi7b0LNCLIXavohKkUr6Kzpgb749JvLqRKkLhQRZZc2Q8z7ISw9C7Vq1s1v51t9JzGZrEhtQNXjDcwtdD9nT088AOCidv3CN8lTPCC9LKW8qN/cVp2Q4VHKUz+XNVbzpiWNQB/JtuaY/8pecUOBnjh05PMVAAw00lwbgPtA1RyLyR+40QnjCgHZa2H7xxTZcRpA9SwASeCfnlXueGPnU6SHta8WnM/a1JRnY013HXUdx6l4mzsNgXMwL5yAghGKnmN9jXvWKgVfR5Ip75t1lz3Z7X+M71NXDTjpf8ajzwtKJo5PsOa/USt481oODYMmaab9GXDVDzVRvMYBEZRYZXQUO+hThw48EIY+4rrxute4JZLvO0W64tDzxP2WImtG1qArVlbyiErWg6yQ+t0cBX1EHSTzdM5zKZt7cg0OnVl9ePTB+vDcghpiUtqv5s06V0lnZ1LCp3fO95NmPHDQmyv2kLxpnldc55KQQMpa9tD+vZHm7cJ9zPVnbkFXTKJr1jfYNqHbMYygs0glfp/tmunKdgCqP1Z3z1dcoLeaUibrs0Cl1x/JdMW62cNsTH8Hy+sWUxb6o9xVcBORnjx85/CwGGmigK9IA3Ae6FunTqvA36XHctkIx0ga7Lp3OXqWOh6lCKZ5GfB7MHq/yG4BuTbKHmvzBzNSlqp1/pYzKx05OtvCiKYcRsBeYvfXkuWSdBI+oVz7Oke9X6iHwDEhSQ+2k69Y3bpCp0VM+qnTVfQIh3L7tF4JCrkvWlVZ5c7k5fYQm1W+P6pc361lZYGllC35R/068dVZB5UjN3tbwOZM2zKHK3nDvHyZqlGPhW7XjlHUrfLFqmyQrfW9j3aOlU0y+c5Dgl8aDdq6HPnL/rL3oEWvOvKLP1bH71TCk/KzbqDHzUeobdZ+IlTek+1UtYcjW+kYbyz5Fc3kdurkVfYsbKK2OaM/13oKIT/W9fp4p5xNKo1f4LkiN1XlGqn8cOHUC1509SasV+bPYSw0Uv67A+7sVGmiggWoagPtA1yKtiuCjCRbacnrx5Ow9/ZShCHLzILBaPZGZOygBM/MylcnJ5pzJJL8Axc6o9gmZbkEBigePdWFLn0M9atCRHbDq3r54YVGUWa8AZIwZMcg1sIgj9tTTUXVSGa5OxyolvZLX1fkZHAp+4rLa3E6hGIYJGJAZKK3xjN0HKBQ3gJg3PSJhy19TurjNG3ijDLieOWSHdNEDSJmPVv3B5GSAm7YSq/UZ0q62lcztHXrxTqJK+xZN53RcqqW102u4n3r/zoFe6tcq48B1Zj+oD0lswHRQXMCv6YyPbzRdRd+kvRuef34bs/wWKhbgOOpi/D2Eyv4IbVAuoyTaIswu1xnZ9p7O5Yg+nrSpESoEUWij0I3N9pjH6TR3ZiFm1G+osa78nZ9pJmkdQkfPhWQYUB/jdo3BJN1yIJQ/irz+/Enc/Oyn2pAqH0fZYVJ61UcV+KXjRw5vYKCBBroqDcB9oGuOypv0PgBIY0AhJub2/7aNS9hx+VyAcakmIgbEPJHxkjIQ6NVjCQowIK+7h5OUDG1RfERflBmbCzUuE9KTdG41HOCkY+nstzOlU1OoPi1GizjlOLM8wIGDP5M0WQoxQUf4jIGnAq2KIVGHeJjaaoecRnBywQERguAsDGtIdVFNPvXmMIOHS+ez5i1OuzJr0i/jZ6qJ5iLkJpVu7EB0A9hFP8zPjD7DTxGyY0ZCaQcPQ7G2tw17FNMtJjfVgcJ+rMJkZ1VyiMfqp5Ae60cO/i1kR4kxlexhP6HJ1Pw+3uKeX4fFsPO4QaetcrQKxegj2r81Dkx/HFLD8uQTklwv3odoTPtoktAJSDdqINxi9DV+syWL0E99SpTzm87QXL7cetndAZCUGDqrxhUxzJ/JOpQA0G6h0DOMdNsJn0l9XByTd+RKMmvn3tLWGm57/KNYmJUXRpnBZQZQ6GUVqv/d8aOHT/dXdKCBBqppAO4DXav0QQBbKW7bPxWLW2ttuEy6ydm1mqwYuRNR7Crn0a3sdTfAoPXkptUEngBXO5HaS5fgdQmZunHcgJ804+Ak60AlMpTtmJEGUbZPtxJ8qaYE1oR4aRgACXCSfLA5X0lOeLl8rrtZMnwqiAPXhLUiXltVGCrAIBWfQc+6cr9eb/m53mw02cZOfntpdy8Dg+0AoayHTO6KLeBO/HqcIFS4uuPU+kLUtuab9lMIxeMDrsuoBYFgA8Va8aR2YWhmfaDlW4F65baXdC/1Bd6YXBmNYXtmI4N14+XQ/1QvxNipjd6wG03PeS9JFijGrp/6YuNRQjes/2zcFX2RR7vZ2GyPeZxZLHv1/MlNFNc8HYNtZB4S8sUnJyRerLO6j5rxBbgR1jEQaoBPHV+guPMLH8LSxiVShOQ2bD+nCvw0BCcw0EADvWwagPtA1yQdO3L4aQUeBpC8TT7hA7jhy4/nTAnU0cRToz0CVxkhUp6mgU6mnbyCmOvM7ZyBIbHm0AcHEhxcQuCnAqV+5rilZzF6ZGp5B2fmDtQ4gT276n89NAQMSLiEmrsB7A4ycDmzamxSr0BMlZ9sgVQW2T4dnUuKXc/HJPbJ1qqX5aDrVfoA29UmSi+rWxcxcCRdHXqN+nTTk9aoG8cd4LSLBEueVIfQh4fo2H2W3dq+0nEcXtIvn3PjoccDjDCkHdHZz6D+YfnZECDDwwA8ujJ7Xbx/ZAOhr13iXr6f9hoga00ns4hlTwy0r1NVQLkC2nNkS2l65Ot5UIDHTm/5HeBPlkVPl5Rmhlufegi7z53qPkOSA0MbqP47AX7r+JEHKe5woIEGuhoNwH2ga5YE+ADKacf1ZkSFYuXyeayY18cnQJ74QBMZTdZ21CFhggTgy6SpWxNo01Qgh2XgiZ7TaJoo22P1CPJonugihrzUzBlH3Hrw5ZAa1gsZCWryWPx0t8z6e7ZGFOaptjLa6Jw41s9kQwVmIra5whHK9yswpJS2/PCX37gHMJTNGzu9jt52JL9pl2TMoT09euwBtjl0SVMduUxNMlGYEXJbcPy3l62hJKn16F7lYge4fkxxBZdqRKpHfH2IyPr08A/Td1+9oCmfWHtXcqUwCWtPtfFBY7Jqi7pB0obdSvdRmap8S1x07ZIkvUYdlPL7ao2yHlAN32hbPzuf6q3l7afN2lq8AdUMBaUORXWijgX3fpOsPhY5XfqktmPeHDtvg4IHYKXbXCYrvfpP+W946Wm84dTnq7ahPQQxth6GyM8ORz8ONNBXTgNwH+gaJv19Bc5L5YI14DqebmLP2Wdjoqu9R23iyrtlIKBOV99H63UvZy53VrsdvKJM9CV0oUxkcYY5ymZOPtUCJfSZPJyIudNDXTR848lJyDKHDxMckaOmp8oTXHvRDJAHd4FtbnRZ7L9dF5IthRpZAbksBlgR2tLqKod8IIUB5YpXoJIxSRFdSzuEZ9mAsDjYbWWI9uzgb84TPwkUwts2AD/poPRFDhUJ/EYdyNvevM+VcViFxrBelfgbb9Md9ZheHXVWdrj5qD+FR5zQm4ZcyViyW0gHblJdrawyLkjPdkhnhGi1/a9974EGk+rtvR0Q6jKgGIbRp30cuH4IsJt+Rbjbx9jgE4RMGtPBdIrm8pq/+8HlsrZOh/bnPpkE9/btdMaedMa7j5/QdUrHZSi1J2suvWWOeYYRsGv1RdzyxeOQ2YwMWXjbtfpVoD0R7GeODUc/DjTQV0UDcB/oGib5M6g+Xb77VaXfN3q4TJ6sO58ElnoCk7lM8oKhinXXQAc0iaaNi+RBEwcflTyCeOkL3ZeS32OMhfKyR9i+qk24gdjNo9iKkTfUuvwEnIwlh8+omMe4CsIohklAKCWgEuVZWW5SCOC1svzF22jx/2Kgmu4xdGT7K8SJ2PN2A2Orj7QCAEGcK171Itadye2Xioe5bNaks0iKPAVyWttLaEWiZO8XXrZtIK3BkTicdL1mY5FkVXV5BBpdTymvyeDAvOgnmotk4t+5v/peBAe+6u1JjVu6RtaJG5LW39ijbmVZ2xSwLSwg6cyYWV814yWZw8xb2nQObr3s3N4JfHofjH7sfa6Ur8XLrusbaC6vl1h2ey7YQOhRrKWxgpJ6TSwAACAASURBVNNzpno+eT62qowx1ZWtLu8rPaDcVywIyHM51saclQeMANs2V/Hmxz6Mxc21LE1lxKrIFMAvHDty+A8x0EADfVU0APeBrlk6duTwloj8Nl+zDWP2f8elM1iZXEbMluZ5AgJRBhCvAnAzpTnN0UiJW9U009tmvJDHD05MiIidYhxS3YkqNm+jgSUSimN3efMg19FxPZed4lg1rjkWq9OETLEaYLLWyrLy2Mcb+nGIJYC9Jj02/5mX3eoqBcQHYInSDTAbQFAk4OOAJyR1r6oYmK3SG281GaldhfQtxJNAlcmmdN914Z7q6Hu+UVKAeLskgTNLEV2O6hjiWv8NcSXJqUkvpd6OCak9BEmP3BPZ+9sCZAsRIb056JSQ1/pwaX2TXaF+0pF7ZcV0n5sjf6E2pBFv40usHIkjKDt9WaLthfQUfZ3HM9+n9rF2LbrUrQmaS5dbg95kUErO5TiQ5r5n/cLAtF3SzIudDAbwrRMI8WOwz/xpTGSDoLbcmCfVgcbcSBu8+YmPYOXyOfjGe3/2sZEjEOB/A/S9GGiggb5qWnilBRhooD8nfRDQfySQm9t5LU6TsBjsm54/gWfe9O3IoL2Qx5GKz1sAYrLk6zZBuuesAIOtCXRpEbKwkNgCKF5xAmnOwibuAjGUY9MtXXhaLaWixRu+/FxVBZJBpH26h90F8Fyw0IOWf5zsYmXBwGqL6FyvsSkzji2EGHhuy2XM0notq6MaCcCJv0q+5k8401YLSnkjCG7fvQ3fdsMOfMu+Fbx51zbs3da2w+mNCb54cROfeHENHz9zGafWJq1MVgfSaa6XdQNOF20v1A9yG1k7W9tHHU0nrievK+uJT1XhvqNFbsCAufq1ONYw2tDKId1RXaKufC3qbfiuT0/C8lVVjnauMCIKrwo8Whsr5eG+xOOglTeHTSHlg4eX1f3Mr6Fu36SlNK5Se1mctkSgT2pXAJg1aDY2gOkMuRCxAZufL2zoclxRGroEyIXSsRXeUbx0y7K89fMLdb5KDs9fNbIi8bjti8dx3UvPUd+ggCgD+e359H8C4BeOHX1wOK99oIH+HCRXTzLQQK9euu/+B5YV+qBAfsinnRIzbcBvY2U3Pvut78ZkYRvCq2QTCvonMkZf6V6NcAotjDHasT0BncgSvOoBV4PzKL4fmPOlDAYtbwAKyYnh3sc5o77D3/4SYLKEye/v87omsMCwyJP1oUAusIP+etIUZrftXMLfvmMf/tL+XbhheQEj1r2JIkDTKL60PsF/eu4CDj91Fi+sTzu8ah3Epl/WLahGlaI6Ddgvf0f/hmnm8bqCLjqXa/2ZDH31tBZkhdW1myfLnLrNl5V5VytGbfhE9Hcq3DFrPUbn9Y35N+YnudKAqPP0tLNqu8+lffNpEwm9UUlhff1kbtE9g8GtsFoX9bX62TWvA1HdvY5z9NHpW+1K1/5TJ3DLkx+DKJ1HX2Uo0jwN1XceP/rgo/NqPNBAA708Gr/SAgw00J+HTj52Ynrwrrcuici7BZC0oazMHQvTTVy8fj82Vq6LSc48Wu5pwnyPlJEvc9vv8mlxqOMRMBqRx04om7RvbCyA1qY1llModrv9XWK8iyexjQuWEkWgXgefb42f+RO9OuLhCEXg8PQyUBWbk+tQFTYQ1OOHlTzC7Anl1YS0wo4wqNTlKDztOnt5DVOQjBDB4gj4y2/cjX/6bW/EvTftwI6FUQvayWvOoGkkgt2LI9xzw3a8fd92PH95gufXJkVY812TLjqrH+WkG/a4upxhBHIUOp9JDsRqQtiNsbrAmFDLS5fMcPCdABK/2TTMeJL6l1ge8hRLzkmtEHUhWB2LTVSqoGDIkBPeHaXKY/1SOnkCI1p/N/BuOoe3Qb2CZisRbODaSoz3Mj+H3sWr9Bv9zwxO1y/x97pI5XFXBaZTNOubwMTCYipwLgILAwsAz41mIB90T/rviVswpULR7yIP3Y9lhWogUdlCjWx8+L4/Fys+hfH150/htsc/AmmmZWO6rUDQClT77yxU/+Hxow9+GAMNNNCfmwbgPtA1T4fuett5QP8aRPakl3wQqFqYbeGlG28DZASf0YQmOc8jhj67/xnUJ2xf8swayNJiC74LIBMOSyHwK4pyygfFCDtwNoAkLgqHwbTYKQW0tHCFZHLgaNWx/14WA24Cjxr5XdaqygH8IibaZLKKBC6wOFcJDvxVQjohwGxK8LxFwPFI8CO3Xo+fe/sB7F1acEaz2QwnnzuJhx/6OD7+sY/h8587gZfOnMHC4iJ27d7l9blp+yK+e/9OPHp+EycvbwWIplAOVyMZUaRYkluTLpIx5pIF+DGDpv3g+G9EO9Rdk2BmGEF5RUWq/kzq9bYNTMlGQWlnKZDacB31GVTX1PGdhVKJ180NOZbNsGvh73H2pAd06lhAIKw/Rp8VF0ZTX+VPf3EWjwervYeFmUJC586fWs/7tRm22ipB1zehG5vwvTGexQcvqJL5WeOKiXJjIHGekD/SW8tRh9Dqk8vmTy4rGjKE97wkZ5/MAuxcP4s7P/9HWNzaSAasswzeWwD+2fGjD/4GBhpooK8JDTHuA137JDgJyO8B+AdpEiUwvuv8l7Dz8llc2nljXO+JV3cvl393iJPTJUBe0jQNdGMTsrIM8z7V4S4uHIOwwje87+xRzECQAWbyDMPhTZB5OxFe4JC3lG3xqJXnM1jkOGCYDKko+kHASD1beEQj3jjn43AIB7MELswb/O5b9uCffMvN2DZuec5mMzz80Mfxgfd/ACeffa7kbfUyXhjje7/v+/DA3/zrGI/HjjyvWxrjl+89iH/wp8/ikbNrRSUZqLBefBWHtBDdTLybGAdSX+JrqzBaDLcAipWnFNS2ls7zW9eOck3vjuP4OzT2C6hmj37gbDccarzo/Qxk3LAeSClhFMSGULBeuj00fpMMIJ20HnCTTWk85FWZ0IdSnUzWGMe28dU21YaBGMYxayAutfXXzS3o5mZ0AG5s8DWuKT1T+DkTCq6ePfBngAuWVgJ5jFagnC/1PseSoFQe8ayfWalsxfLGKu767O9jaeOyJ4mWlWTkAfqvReRXukoaaKCBvloaPO4DXfN08rETzcG73nJGRH5cRcdAOId8BbhpgPEY5/Yeiow2Sdeer3SdrtUTnN1jhrMGsrAAGY9gUMbBGAJMpbhxAj7BKowD92xrAN8W9BHIK3nqcAcH5QRI8vnUdj3CKhwvIMqMGtpNKSJWG0yFPfUCC9ewKiHuOkw0EJX2AohkrCHA3XuW8bPfegDXb2s97evr6/jN9/7feP/v/SecO3sOIrn8t37j2/D3fuLHsbjYpudmXhoJ7ty9DX/ypVVcnjYubwLdIbTrjjc62p5D12UFylyfSrrOyyJJzwzCuD3TZslkCAVq9i5rfcQNS3F+aUWkAsVtcTnshPWVTC2xFoyeRt2IxkopS6NvOLCn/l5VnQxV+wwQy3Y2evNJvAPB92KQnoQ1kvsdh/6Iyadt+TqZollfByb0EiWrJANm0k/HwPd7yJYeKzsamZRJ9/yBRoA8PUeYV0VCaVgWL1cikVTXS30Xpxt4y+c+gOW1C/EsS6zDCBLB+0TkHx87cvjCHIkGGmigr4KG4yAHek2QiHxWVY+zRy6O2muB4J6XnsXKxsWSg1EXc6q8nz4p8vXyJ+WzyU3RbGxCm6bMgwx6c3L+zgCIpK4q6XUlyFM8jD3lWMhBm1LIoSYB0AzMCIEWQl4MokLGgDjJ+29SKTnvWJcIWRwAFl36Jl0CHuKyAiMI/u7t+3Bg+yJUFdPpFL/9W/8WHzv+MUwmk2yYFN73vP0eLC4tlrYxfqHlt12/gh++5bqoP2EiA9pagI53KaqTfTfdJRBvmI7uW/lSCknaEMnlMi8Ng0QtTwK3ESaVY+clGQ1thAkZdcJGnLUDj5/oUaE2uy5JRhXzgFtPif5s5LpTwI9g5RKKXvwEI+82QnqPPQxeR9MbIgTIMwulLUVa2LmvIlD7hkFc+mQzQ7O2jmZtHZjNgruD3x5vt//W6jeRnzRDfNiQTs+bqEcokz3ysEqSpi2feL0iPRsVzNueJzxmg9dYp7jz0T/CyupZqqt4+/O+DhGcgOJ/OHbk8GkMNNBAX1MagPtArwk6duTwmoj8XwAadjjZRk4FsG3jEva+9Ey5I3kiJLjbSx3v1Lw0Asxm0I3N8CAjv9UzYE17L3nI+AVBQmno01/xjgA0PmUmXlZz85dmVxx7G21zakim6C/XUpfrUvNSxwvzSFwf6r9blXJ5SrhOcMvOJXzX/l3O4+GPfxzHPnIMTYkxTpKVspeWlggBd600EeCHD12HG5cXyu/aVSmIDalW3dyW8ZImEHAxgUKqbhiTpwwdcDmpbZIAyKA62p9fLMV1tOI68foIUN/X1mxElVLbe6wTrx9tZK50EEeXGjC0/2bQhNdWOnUw3UY/rb3KFVxNfS+qFnz8dlrpCeAPLS9R2txCs7oG5c2nXJpbM+i5D9h7ABIAZ6qfKalS2bCJlZo+Xj18597vG5w9z75KmePZBLc+9RB2nzvV7kWZk7O8pOo0FD9x7OjhJzDQQAN9zWkA7gO9luiwiJyxDWOMSWyT203Pn8DCbAL3rHexTkuOP3oS2Ia0NLHSp6I9Im4yDVAgAXwtm8MVcagK92AV4CrKYKD9bMEGeyHjXoB1pPxKHjxlWc3TrCBwYGkrgCTmtTc0WOmv3Oc0ftvqrAXGigBaQTaukwqVp/ie/buwZ2kMAbC+to4/+ODvU4gQ2zihkU/+2SfbemsYAaqKM2fOlOvAm3cv4xv2LPfrp8jCQJ1jp70OGqZT69A0cMT1K4aWYVf3mCPxD74Kc7xGqBKZfB3DSKKvd4yE6DPpsgYru5fDbKLsNBzcVjF9WV2VyhAvk+WHQ/wIm8lwPUJbbAxA2zJ8hcjlBJUfJ9Wkeiro9KNacbE6Ac+r7UuUVtegGxtwzzY3kY3/DlUXpXsp3ew8W3oAONub2k0ylzrlVs+qMvbnyxVlizY4cOqzeMPzJ2LfiXfkwlDVVs3OA/LTx44efuhlSjrQQAN9hTQA94FeM3TsyOGLAP6lQBqb6NQnqHay3bZxCTd++TECH0Y9k24N7rW6z0vTUucDdH0jTc7slWYQb16+ALfkvZS45ny9HCu9eFsdiBG4C/eih0aIgXuyajQZF8TckLEC9WkkiFsmZLGWeoANvRbW8QzpytVZgJaW9IZdvun6FYyKt/DZZ5/F0089nfTlerM6qOIzn/o0jr7vCGaNnTENfPGJL+JX//n/grMvvQSIYGEkuGffdgfoYVRlKBkyBhqLMGerr3mXU9WohqbvpJjgBVIbhYGwL73Pq66aV2nUJSFkbp9kQNVOWceIKSynLVUoT8Trx33Tk19WNkhihYaPgjRDUVPfD4EizKjI4MsHSXUIRMshTep9nNcj1EAmyewyzGZoVtfQrG+0YTFXAr9SKZMF0p7083gkiygpIGfxYak9aarO4w1A99PeCrrf+2yTdOPQc4/g4FOf8HA2F6myBQSyqtCfP3bk8OGeig800EBfIxpOlRnotUb/FsBPAri5/dlOKYGxFPtPfgYv7H9LAY8ZIPuEZpMqH73BCCgCxks29kQZqwbN2gZG21eAUQG+Yt7E4iU0YEwAw4nRX+0cUwIylsBxQwD/MqG24Ny92D086fXvkT94qcfklqu2OZV0nNFdlE5CW61JupC5xjl+TYA7r1v2HE8/9VSUax52teKjzOl0iv/4vqP41COfwu23346zZ8/isUe/gM3NTTz91NPYd8MNEAC37tzmhkJCtGoGDetLQ3Zqbj6tJeRmN2kARa2uwftEaNNSMuBXah9KGMaV6yz3BbvLYVBtkdxOSLyFf5fjF+u0dga+XU9wj/kbkKzqyTK0fcp40bBzTeWNo8qye/mS5YPmvl4Mu6QbBTBroJub0Mk0j2s3KEjfSbAe4B1Fl+8Gmuv7FepFTpKXQ+i+VPdB1+pE3P16xpcbnHX5GvkPPP9Z7H/2U+FMcE+DZLaCLUB/BcC/xEADDfR1pcHjPtBrihR4DIJ/r+RkaudYcaC+tLGKm04/njJlbxkhBp8EGWjZ71RAdQ+tANOpHx/Hmxrr5faEoTvxqYKIl0XBQEIp6u/S/9292AyoSr7KDklgxfMzXw17J6UxXuV+B6C0uqVoDNdN2nCpjJcFuxfHXpfLq5dJBy0gZPzRqqstpJnN8MxTz+AP/+AP8MgnH8Haenv848bGhoO6m1YWPFQoNjnScYOKdlOnhk7dC28ysw407oNaIIcCBZecl7nDZQk+JEMqO/Scwsm9D5DXubQDGwAGynhbqXi7UB9j+bie1QuPUPIZT+p+/ht2nTRVh4YJM031KbHxqZ5BtvWAQ5Lsj7fBTKEbm2gurxFoz3xA9fExbwfee+H0jODnAj8T/DenRTddVL2fV19eNhJsbLJDwjoyx77zda9fLvvA85/Fwac/AZlNYfsRMs63VQ1pBPJeBX7p+JEHtzDQQAN9XWkA7gO9puj4kcONqv4bEZxs559qIi5x0fuf+zQWZ5vpOoCYFKtsfo/T1xNv+6PzVTe3kjfPQGprTMRs6YAC2bnmHlK/0yMagOyJVbpuaSqALwbCWA4CR5VXP/MKAVMaQs922kSUF+DOVho6gIvixz0WHoyZugCRBbITd9pVAgMrcAyTdFBWH6ZNC3QC00j+9D4RALK+b/V0h71U5WmFmxIgpHSpj/XIkmuNOKEm9x/rX56WQTjpOIFbBnHUv7n/pOMTha/DY925VdkY4yMgJTEX5xH4MdeU5VYGnFTPMCqKTiVOuvG+pgo07clPzeU16OZWHvv2ySsvDJTZyKc+3Vlt6+iS+ynx6nQIqws/R7gMRLrO9Tm86megK7qun3g99r30NA499XGMp9NOn2L9ll9HofiZ40cevIiBBhro604DcB/oNUci8mmF/gcgrxS3Hy3wWF67gBtPP4HwTlUopeXUX0BfHCqD5tihGXfXN6CzWYmjTv7hWM5XdW88y+z3HF+wzytECo+tpqqIJdD49I2dpfx2vlaYHy2XS2V7yeJ5udrmmevXE6cNfalQiWrqM2OlvXB2s5yfLYodO3dknhpHLfaFILT3xFUgIti+Y3vBU4Kzm7OUz9VkeEiLppNCQ/umy7avkZ4pDYTqzKKX9HXsOuOwkIG+s96hea8Et79vGgx5chfPfcirWXV9DgHyZkkJ4uz30BXHtke63DupbFC9evRV42tAIJxP4jv3LxuPqopma9IC9o0NgPY+cE29EK2u1Xqp27MG5X69VmanIjkPOwWuWAbLdYVnUud79bt6zuw99xze/IUPY9TMEPsEctp4DuifAvj7x44ePtsjwEADDfR1oAG4D/Sao2NHDjcA/ncAL7D3maAPAODm5z6D5Y1LkbEXkBPV3q5etgqf6QjAoWnj3WM5XnK4CODeLi0AHO7dzKdu8Hd7uU2ANQ1DhDf9FbH7QFlb9XgBEflLw0sqGVxmY4gVEfmtppzGI7XNeyoRO+ugD3EUoVXhyYubzvHOu+6ippLQk4YOe+sHhahiPB7jzW++3XHTYxc2isERMgvgYT4cv5707HzJHSvienaZSh8UL6MYQ6B4+RAUtoESsJNUQuf+Qs1S58BrhSeVETH6dtoPvTjKwa3kMCk3fsi7nYwaLSsZ/ivKLXVtvethhFrYhg0JFEPDBoAmkB8GRzrtBVb5IquaLG09o8dRXbSMFpH2BUqra+2G8Vnj9QtDp2fsu1WQx1L6bkZKGmAV8FauWW5rT8/GvJBsHQAvxFOCpfNBlsfLlcwnVTd+7Dv7NG5/9EMYTzeKXk2zyt3C2v3TIvLjx44cPtNV3kADDfT1ogG4D/SaJIE8pop/byEZaWm3hFMsbazi5lOftwy0ZIwM/tjdzGiU3U9pyZvAuwF8kRa8X16HAZ68yk4AjXB3hJfEFGphEQDSi3cic1JEmcOLN74A2wBF6jpRvu7qCNAlkIQfUO5zXHSojMNses4xh4F4kxteBl+zun38zOUWb6niwBsP4K677wzdGdBPCoxSXD/l/z3/xT3Yfd1uQIGNWYNHXlozoZPeYDp3m8CQbZEz3uTDRRGDArATcAI8lr70TQao+ehEqyABOK5a4cGhV6zD9hqtRrBeJWTLPvjcB+ysc4tntzJis2JSVyiB60mrD9a63h5Wjaqf1yFuvr8gLf1Y2IZ4Dw3MXOo2nWK2ejleoFSPa7cmqDw2ClPlzDIR+nQLgaUN/vabDHYvJD0rJJ4VzobTV9fJeHJe2ers5qt5KH0HcOOLX8Rtj/0pxpOteEMvzDCyp47z/SxE/vqxI4efvHJBAw000NeaBuA+0GuSjh05PBXBv4Ji1byf7olEzHH7Tn8ROy73rPIS6AyqPGYMLvq89Zac597ZrPW8+2uilABbeL2dPXs7GXypVqwrrx6BvXYu15QyneyRqlGuk6Owe6IH8+rxJkqlGiqA8USOc/aLfsH0oqo49uXLOLs1BQRYXl7GD/7wD2E0GiWeXi+rA/01J+V1e67D9/+VH4CtIjx+YQOPX9wI8N/pJ/zyIPc0RmhGHc5hf4QMF1JGDW5d32zaKCCiFIITdYCVD9DGX/XrKZ1ZHK5LaiPlsmh8+G3a/EkZOE3UiYA+X/PmJfNOADtnXb3+3F5RXn7RlUmFKn3kjxNm0HrYL6+3hvKE3nhK/JNRzSBbKHktQwV2M0tN/TcZdZ2VIDPIqueM/6QByLL3PWesH6a+JTlBJx89J9CC9lufOIaFyWbKzgYW4M+mxwTyU8ePHH6sK8xAAw309abxKy3AQAN9vejQ3W89B+B2EXwrAEBsQyiKk0wwbrawMJvgpX1vQvKe6bxJl7xkgXpickuTcU8WIGJrF8a+CtAe15iTt0W34CKAs4QnvpqMnVcFPsxT3GbTlN7xJ3lsTdR0dKTpD5S+Rw7fEAjSsxgQ7MInrmOo3V6MEyDvwtYM+7cv4RuvX8FIBDfedCPW19bwzNPPoGkakoNAMsjbLYqVlRW8+6++G99yzz3AqG2G3/jCGTz84mUvKyCK1a0WNjdv6EuK2sVP/7OQEa9bzcjbRkvZyj2rq3+rFfOnJujDhplXXb6t3kh11dLXFQ3jMqQNXbtxmCor3v59AJJl5rIzjJfePPWwAtAe7bix0W46nc0iA0x+QQqB8TZmAF2PfbvN6aNfkeCAGztpAHb6ZnQkvk4N6R54tcHYNTIEkTfhf/ohdZlW79DLvrPP4LbHPoLFyUZHx13W8iSAHz9+5PBHMdBAA70iNAD3gV6zdPKxE7NDd7/1cQA/JSK+uuTzXZm/tm2sYvW6m7C5bWdJQJOhTZZCE23tSXVgQN8ZADCqsvsGKhbaYw7jFBAOO2lDHSKkIMoX8wR7PgJ6hDusXPboW10cnPunOj+71iY1WRAeaBNLI0yls1rgxYd3M8lcwIPVpT0uPNYGapmfXd3Ed75hF/ZsW4AIcPfdd2NzcxPPP38Ks+m0AErt1AtQ7NixA3/1R38E3/O9fwnj0Qgigk+cWcOvnTiNzcZ7BdWVwKzkewa6XGb3rErSe6eNqK3MGxvgu0hOOuf2qNvZgZdQj/Fr1H89DdXF28sydeWMa86Y2rQYJ9yHJHgn88fLZh2SLqnc0AMqmeD93vlLbqMWsG+WTacz5HFqsvQZ1ZymzsOdufK82/UULiX0vAi9xff62VGBdufJ5VftycAeFU9+qMUADb6uB5NVse/sM3jzFz6Mhekm/BSn0qesbb0dRVYBfdfxIw9+DAMNNNArRgNwH+g1TScfO/HiwbvfeocovqWd3gJ42gQ10gYr6xdwev83dCdJngjrSdRJw4vlILUCT8oTafk9az3vo4UxHZVXPOsGlDUDuTqevM0RYRkRC08TMIMVxy+mjdBDG7etDspYRy6XyWEAy7EDg0eHEJ7H4mTTQgZBPK15IPCJNcOlSYNTa1v4zjfswtJYMB6P8Za3vRW33HILzp8/j7MvnXXPvjFeWFjAt97zrfh7P/Hf4J6334NRAe0vbkzwMx8/iVPrU8dz3EwKQDTr1eL2LYQkmtPqERttDXTyqoN7Y2udOWirffLiPL0FJAJPvBxuJ1VqgzqNRF3Lb02WVqwOpD7jSXIfS72Vh42l8bbOnvnAqOGl5xUL658x/CKMKXRWvPizBs3GBnRjs11C6VsZ8w5BANe973yZxyloDIf+YOCc6hH6s2JNwZSu9pbbs6R2xNf303MG3TydTluV5TJX8gC4+YVH29NjZpM85kK7XO55AH/n+JEHP4SBBhroFaX6sTDQQK85uu/+B+5Q4I8FOMD7/OyLAYSn7v5ufPmmO8s9ull/78TD9qRxxj28fKm9vSdLixitLBcg1cOqJGWAnjaSUpw06vmb9GDAP87h5vwBPvm8bRMibTYlg0YZeLEsBrzA+awq1SZYv5dBV2CPkHkkgu89sAu/8PY3YtfiyOs5m81w4fwFPPHEE7hw/jwAwb59e3HHXXdi586dBbC3vL+0toV/fPw5nDgfoQFx/CS1AbUzh/pwiJFJ7cDe+BWQ7KfmmHGHuJY38FI7SLRvugYtG2KpGcyISjLznoRYhXFjQUNmbwSrBzj8hvZcWLHeH6KfpjAQy9cWTnH6GRCyIeTyUNk81uJa8MRshmZzC5hMQ4Z63DG47gB6+5l1kCzF5M2mOvL9mg+X5R04ZO/EzLsh8HJ58QDvkbMOraqdBeXaG5//DA4+9bC/XMnGIARV2wIKnAb07x8/+uBRDDTQQK84DR73gV7zdPKxE2cP3v1WiOr3isg4edkQjq0dl17EuRtvw3RhKU+efd/Zw1Yzqu3hq+WZRcx7e6kOF0AHiEUxFGYjGR45SHcPaZYrPOHGqrxIyABeX/0Ljwz6chiF8KzPaYXrUN1P+UOelL9ce+bSFj57bh1vu36lDZuBYDweYWVlOw4ePIjb77wDZa9zxwAAIABJREFUb77jduw/cADLy8uQUSvTtAE+cWYN//OfncLnzq1nw6UYKxxTHl5zrkepq9iqg7hWoq2oDVmfqRoSZZqnvjCqV0kCfJtBQ95/7wixCjIvzMfb2MQyo8hgc2oHroP6MZTWw/yYRQqVSqCPZSDemuSKfsMWKq9WCPFQAJhO0ayXGPZpFcPO4Jb6S3jITc76vmYe/snAvydf1aZ5nFAaVDzTd+3mdUDfd8+AOrrpmZfw9aijALj1mYdx4NlHMGpm3m/jlKto22I0vSAiPymC/3jysc9XVsFAAw30StAA3Ad6XdChu9/6OET+KwC3At35HQDGswnGzRTnrz8IeEg8Tc5zAbjENe1LV4GDQC9ReIl5l7FtWKUJtXhZfWIlQFB7vB1YE8DmbYTG10GrRMxwxhAZBCZ+bliEDpLnuFZNlOzgwYCh3VmYbGL58nnowhJURn6CjsERA4MCoIHi1NoEH/rSJUwbxb7lBayMRxiPjKd5t1spN2aKpy9t4r2Pn8GvnTiNZy9vhW6pXh6uI8SnU0c6HlGiHtykHPLTViNOhxFR10ltSMHawhWZQ5I4nKRlGL+5TItVrtspDKiolOPTUjc1ME39VUpC7w+lLXhVoGOcEUBtu3+A8tCtePm2GmHdMMKEStLZFM36ZgvYm9RRuYFMUQSaQSDWmFG+egynhsxtkyiVLdV9r1SWQaPeXjHeIBsdplufvvp6ufZcqXh5qE8rx3g2waHnPon9z34aok0RiUK/vN5e/mlAflIER48debDvbVUDDTTQK0By9SQDDfTaoHvvf+CvCPA7AHbHpAnYZKpQ6GgBj7/t+3H2+kNdj1e9yTQtWRtJXEtpmRfD6CgfALC0iNHytgJ4Yngq0B7/VwFOpRTsvQ0RwyecXrJUXKjxxknJfBw0alrm99CGAhjb1fpcdquq4OtyU34AGE82sbx+CTc+/Slsv3gGO86/gEs33oLTh74RZ/ffAYxSBLTLEnIJIIr9K4t42/UrePsNO3DbriXsLCsX5zaneHJ1Cw+/eBmfO7eOc1vTqCd52UOPVViH4X+TwlUR3uCQCV57X01wzBZc7fxzdYALaOqH0Y8cSntXjbZTiK+WaConVmcyp6ijXXNeGqE40RMkpY+vxfggXcT6DorOaNWip+xWNTksJvTaVlZQjr2cTqFbk/CuE488fkyZNP7gBbQ3tUpnbcTGdopPq8cn8anH9LxryThAXAOQ4uBdZdlYzHKzXEoiVnrIBQIQLEw3ccszn8BNJz9H4hLvWg2Q86L6dyDy/vJCu4EGGuhVQgNwH+h1Q/fd/8ASgF8G8A/tmr9IhkbC+sp1+Pw3v7M9ZcYnR5pwGbBLfQ3d+b7OA+TJvk68MMZo+wpkxK9ZiCjrAMfGpoqV7hGF6wsYcCJQRoZIAFQUfJA9q3UstnnCO6pBlRfAqGlw/QtPYOe5L2HPC1/EtrUL0Q6kyyff/k6cOUibhVMaOjrTvMqsVjI+WDYDlTmYKBsErNcoF61xonlzLRtJMF0Ll2UKMcMGqf3snjENUJ/ThU65vdi4MFOjGAdZDM/LewV4Uys4bfxBRJ7n/L6XojJ+UnkhZueex8l7Wi6n/aNbWy1gb+ZgxgSU2fCpx1VPnlRZkjIZ5EqVmAOerePxGGb0a+WAZE3jncs2ZaSOTNd66mg0z7FQaHGygTu+8MfYc/a59MywMoTKbT3wOAXgrx07cvihrhIHGmigV5oG4D7Q64ruu/89NwPyBwDeatdqgKsAzuy/G0/c+V35qk3KvV65edQHJnohdb42Eox2bG/Bu0hPjv6y+2yJPpnc43ZlKeZezd77fI2FGTcz7H7xGSyvnsfeFx7HyrkXINqCMYlk4YQsvy++4TY8/o53Yyajjpz9BkkXq9UbeKUGOJjflOY179VRbSilclC82P367TIL46aXX09d+2TJm4L75e7mbUuQqn/Vm5drOeYajH2hM1coOw8lhTYNdGvSAnYGpr56AwRoLY12xXLqsdejzd4BU491KtvT9Tw1EmhX4leVnQdNVYc+s+sqVK8MWtkAVjYv4e7PfRDLl893nnG+guZOAQDQJwTyXx87cvjhqxc80EADvRI0APeBXnd037ve8y6I/H+o3xxMk2gzGuPpO74DX7757vkevCrPVa9fNW01UYtAVpYhiwvlZ9dLyjwUDNyADACQM5onsMdbOtddDwJn9W1VjLTB9vNfxtLGZSyvX8Le5z6H8WQDi5vrkNkUMhdodQu7vPcAvvBf/gimi8s96asqEcab+0R7GRioD3C6h9m9plFOP0B9OQWx7FcDn18hac+1K5XzMrFhh/+cPvhyy0ie3+msBezTaXujd+xcodyryvw11vH8gvCVK/Mr7bAv87oqdl0+gzs/9/tY2rx8dRun5fCIKH762NHh5UoDDfRqpoVXWoCBBvqLJhX5PYH+O6j8LQhGfc5waaY4+MwncH7vQWwu7agYMNCur9F3A8fCwE8z2BShwqXDR9fXgWYbZNuS89MS283HDBpoZz7p+EgLaNBKHhAAVbWlcg9fSJ7P9gpGsxkWNy5hYXMdY21w3YvPYueZZyCqWF49i4XJpofGpJAImR/vzkBYFZiNl9CMFsGx7G30gm3wrE7e4XoVz2eEA9BRj+gexXglD3E0RdGLgIJRhNRjPLqbNs0Ln+8h9FN5n+d1pRp/x71WR57OdWmK5XLU5S7ihp6uUEZQd7DwyTLdUIweXaAF5zqZodmi02H6vM/uxWZFUN+MRumm5zRJYZWH2pVr9QNSZWrZ6kaJ3pLH99zGtIdMzzXUstX8xIsKNeUyBIrrz53Emx/7MBY219qipK/v01iBPiSQnzh29PAJDDTQQK9q+otwQww00KuO7rv/PW8C5AMA7uLr9cr5hX2H8IVv+D40o2LjzvOYewwqX8ecCZZBRQ0eCDgwLS5gtLwMGUvc0wLaHNdEnsAgdC670j0PkSiQngC6qGLUTDGabEFUMdYG2zZWse+pRyBQjGczrFx8EYtrF64QElEMDGSQ0JYiASDLXw4taUZjPHXPO/HSgTvb9AxAEQDQzBGrD4C4Z7HjbYUc9Acwsq986okp0pIEsCf0l8pnZrmeoReRrI8ur7x3gOtiKykklHcTltXav08ukyFtgqW20WgYePw6vJCQpehCTPOp2+TwHuvbEcJf9iU0Cp1MoJNJHIOqVZswqAwJor7pOt2XOg8prOZXh8G46gufpMZ5A7vHUEjlRP9L2XoM4rl16bPoUl4yatCueh04+RkcePZTGM8mGaSb4art5uiyZ6MR4EMAfurYkcNPXEGogQYa6FVCA3Af6HVL993/wAMA/g2AnXYtw6r2+8nbvg1fOvhNmI3GDoivGDfby+VK36usyatp1xUYjzHavgwZj6lsdPikc8E7/NXxz0hnWNpcx7bL57DzxWcgTYORNhjPpli59BK2n/uSw+KvqCbmVUdA88wj3+GY6uniMp795r+Ml/bfAR3NOa2WVgbmSXJFHXC65G2valL/1MrYqWSPNJbjKm1Nd9FJ4Yj3qvlJwH7D0uQU6bZTK3y3LlQkv101txdL3dfaUY7OmnbD6WQSfby3Ttl4KQXn+w6W+9JLlQ6UnkB18jij4lnLMk/elHlOXSqZ+uSr89YrAr38KgNBgFEzxZueegg3nfp8+wZkLk2zYVXs5gbQDyrkx44fOXympwIDDTTQq5AG4D7Q65buu/+BBQV+Ear/Y9q4SN7zeX4xHY1xefdNaEZjNOMFbKxcV66PMB0vucdVe5hs7NiD2cLSVy/49h0Yo8HK+RfSZTqFD6NyTvNoNsHS5hqkmeH65z53RbY1iK5PerGKuM+1DjtQ3uQGjyZoZYt06SVHANZ334gLN96KswffgtXrbgQz8JNL+OQVwy2VozOfemKy5jT8xBOtTtZJigj5I7wAzqDzoiYtxoJEF8qyAXx6TBRV+AmdWS5k1BT5+BQg92LTm1hTmqp8D34ybzJV2Y+mNP1lFTmPKJtCLghIinQlRtNAJ+U4xxkd51ivPCScnvsTKbncpobpBcbouV8Xkhol5JkXxmLl1nIYL1eYKasC6H18uY51p2HArlWdvP1y2m2bq7jjsT/BrnOnHLRTy0eYktcLWwp5L4B/dPzI4TUMNNBA1wwNwH2g1zXdd/8DNwP4bVV8d8eBaESeRw4l4IMl5jngOxtFFZiNF+Z6Rl8OqYwgUIynW9UNELgNwSyswdJkh2VsanWvKdUz10NSOZ2C+9JGMe5cXNx1HfYfugXPjnfgMze8BZNtK5gubks66QPKdfm8URaV/sPECOvB6t3TtL3V6h6zmb34V/2t3WauPfyB57r1rI2W/jI05a+p6wuOwxcdB0rmmRVa18Osht6k8M2mkwl0Ujabdjtd9bsStM/jXGHh9j5XizpYV+gMnPvuz8tjPDmc54ploMoj8aDoNkbXOEgyEUgX/o2UZ/fqadzx+T/C0sZqMZAli1iJDMGqqP6Sivzz40cOr2KggQa6pmgA7gO97unedz3wDgiOCPQmBopA+KxsMswOP/Kcmse5gKju5seWWzgCux7reRsmPa644+2LcjuebOKtdC29xMjjlat7xQtrse/uQbWPMvtLcf0qbxYkX6yB/227rsO+fddj780H8C3f/g7c8oZ92HfjjfjPz1/EP3vkBTRcJ6tO8t62+ulgHiCFBLjuGakXngx+E7oX7TpvNevVdZ4MCaATC+06CZlr0gTm4DquPcy+STiF4miIlKwPoSppda98dLzKWcZ4YRbV3+vdUw/7a3ybBlpOh8ne9dBpkikBUvvNZVGf6gtz6XjAgXz2OtDbDr2e8voelVED6T4A7r/JqOFO1Ref3llB4LK5AlLpJgofNTPccOZJ3PLFj2Fxaz3n5WdCDHII9CwgPwvgvceOHN7AQAMNdM3RcKrMQK97EsHDAH5eIb8mwIhfGpSwQ+XqkwpBOVil/HbSSHufPNm+cTJP4DEtE0Ag8JCwhi9/c0hJvm+SpbeqSi2z8WYwI5FTsiERfCO9lOsL25axsrKM7Tt24LZ7vh13HrgJN+7fj0NvPIAdi+MA4Aq889Ae/PqjZ/DljWnUBcW8EZeI4XuKQkhGB4UapDeIMv7h9iBAKSI5nJy07ThbTH+UkU5ygYW6ePsmRoiVD8mVQGC93P7e+FyFMBBBqygJ8Eb/S8ULcWJPuvXanvAcHwckLZ8WAwUwm+ajHDuoljtI3XiVjvpWoRj0dk6TofpzeQnfGpg3Htz2zIfGpZR6cBquixskQukKb6Gy0ltcqW5siAhdY9365tTKEil5FmZbOPTMJ3DjqUcxbqYxwq15ixwiqcxTUPlpiL7v2JEHh7ehDjTQNUo9T8qBBnr90b33PzAS6O8A+NHebY3kTLPfc72FBBrsdfIdUt5gyewyMMyevB6PHy8BFJDAoK5+22g2KPr5sVwsb10RA4cH77wLh+64C2+8bgf2HroVt9/2Jly3vIgRx6XUshd+/8eJ0/gXj74Y+CrFWyvFtgP2YqMa5MRPA6RseElSVeBqOh1G4GYNOC8ZLYTy2zQlBwog9rLc0xlitgYVtUv5zrKYnFZPA4bdoyUJTJe2CnkIE6aOVYwMIN6ySnlLY6a68/sAOk5he1HSdNoe5di7OsEZc5v3p+nJgypfDYBR8WPDs9MAdYfmPGwQ1GO4zkPlzqtfymuNURstfXzqelbXCy1vXMLtj38Yu8+dSmXmNxwjPXtU9VER+bHhxUoDDXTt0wDcBxqo0L33P7AH0D8QyNtbAGtzeh4mcQY5YJ5cIICjpWmBHJLnt+/EDvaGO1UjM83dc8BI5zx2Bj8Vo86bTzuYKGLfR6MRbt6/H3sP3op9u7Zj144V3Hr3W3Dw1ltw/co2jEZCfmFjRczccxgGRIG7eHFjgr/9R0/h9MYEMA83GMhm1Jh13ALu8CDnlRIhfhmMaymLwpUc/JjAcPDDYS18FnZSLocWSV1/kjH9YcMgSogGyY2XsR6BTu8OVWiEcTDDrW6XwtWPqeQ+yteB9hjH6QS6NY1QmCQigU1l/m6dxH0W0C/V/aWqcK3LDj90ATgD6kSVglDrux8wdwRMhkQ2gHL9ewyDmt0VeQTtPfcc7jjxhxg30/T8Ec9HIhWWCvyuCH762JHDL/QyHWigga4pGoD7QAMR3fuu97xDRH4HwC08C/a9tCQBsuT864lVJyBcp69+wEEl0AGlfWUZdTaPkqi1LAAgoxH27tuHlR07sH33bqwsLWFxPMKe66/HGw8exL43HsKenduxsrSApaUlLCxtw8J45A+N3je5EnCNM2aqE2poBUEV+PVHT+NffP5MOIcB966nEI4kv6RIBNZlxIcHyJXe9K0c6kCN0jvQbtO0t/NpKn6qC3s6rd4dTyra3Nx9oMkwTMdNksvcT+qhTaRuhKBauUkrBkjtDckbebt7J9y0ajk3DXRmp8I0GUx23PCmXISSO8AabLlEnsSP7ve6+4mu6LGf81nL36kPskx1vVy8Pr49zwYG5cmYIH5cFhsqVOeF2RYOPvsI3nDqRHkLsbHOqzihKoWIbAH4Vaj+4rGjD57tKnCggQa6FmmIcR9oICIReVhVf05E/ldAdtN1AEiT4513343de3YDCly8cBHT6QQAsDltMGvi5TIbWxOoNn4koqhiNtnEdDL9qmRcWFjAwuICVEZoxosAgKWFMcbjEQDBwniEpfEIAHDw0CHs2H0ddu/cju17b8C2bduwc9uSp9+xYweWlrZhcXkZiwsLGI8Eowosw4GhgcgWoHQxC59hbiDTAGSkgxhga4HnDx3agyPPXsBzq63+DOwbtna8E18oXY/3IclsbRegN0VQ8IkqwumNTZxkL1kywqP5emcvQEdeA92ShBchPhJGWeg0lBh5c4hNRwbLxyI7PpSKq0Ibhc5maCaTNgxGFV2UyULlOpDS8wUyHirEmnmwgAxia5DdJwd6rs/znFM/zY1A1zv1msOfE9X1r9uOO3USodOL/drO1TO49cmHsOv8KQDaabdUdID2s4D+PCD/57GjDw6bUAca6DVEPU+LgQZ6fdN99z+wDODnFPifUIzbPqfboVsO4Uf/xt/AzQduJlgIrE9mmDRtOIE0isubW0Azc8AhTYPZ5jq2tiZflXyLS4tYXFyCjkZoynnwy4sLWFgYQyFYWhhjeaF9edF4PMbKtiVsW1rCaFRAk4dTsDdRkWLqGQilOHNU3smcJoeKkMY6Hs7yWTzr//oLZ/CrJ06nPMkzTo+qcHh2+fuVvvIIlIW/usMZncei17OWixIkzznjRS3X+EhOA4WVZxzd+/WqCdDdN5Gr1gNSKR7KjJG41VpgWo5wxGwGND2e9XlUe6jnlj0ncw1a83LSyy/7ZfGu0vd5vauVr6+IriR7H7ur6E6aGW586SkcevLjWNpchZl86KtG9P9GgMcU+CfHjxx+31dWgYEGGuhaoAG4DzRQD913/wM7AfwGgL/lF+vlbwEOvPGN+Js/9ndx4003ICZWTR5N0DVIDhuxSdc8yoSxyrV2ds8x6RqTvpI4QuXDNkq2grYAfhuWty2Z6CUOvkz4WqR3+Qw/1oCcgHNbaIBmA6GAr0x46Er5BCI8hMN8Tq9P8N9+5Bl88eImhZ2gGAzhyZRkGMDDU9xDbfdKOg9zobCQAmHJm09rA3XIAundNC0GuqHgMBqOnjCPvxbQ3zkiFGYoZShGvYLqEH0pn29vfQNRx0pWE1iqNoJqe876dAqdhlGZwSeJRuzIxd+frv6sKdl0RQ9R+SDnoV6PDnJN5VQyMSj2flzn53spU7d++P/Ze/dou6/qvvcz93lIPpIlWZJlY2QhZMcGYQyljjmb+hKXcp3H0E7TaDchvWmbS5M78mha0pTRkXYwuIyUm0F729w2l5smTculKdchHDe9OS5tGvKAEI7CBUKIkY2QjW1kIcuyrLfOc8/7x2895lr7dyTZ1stH86uhs/f+/dZjrsdv/b5rrrnmquLWZU9t2nJvuXqp5QgRR5fmec2TX+DGZ/amvtTcyWcT1JujRWQAfEpV//6ehx96DIfDsSKxzJniDse1jQP79s7feufO3wW+A9Vb02u1WgI/efIk+/d9nW+783Vct2aiuRgIb7KFToS70qjZ5fZERq0G1hwwZH43REdCPJtmQwQlEm4kkdzBYMD8wgJz8wuA0hkZaby+BDLUWDBE8iiB4BqmIcE+O1xvyiepTqJyszAtCWYR2ZpBsj/1QHglhFsz2mFVR/j0oVM5bDSriOGgJO0xj1QFQjEhEkOqY5q5hrN8KYKmOCK5hMnTn5EpTI1MdzDppZlXLGOcypAnL5h7pi7sJuXc7rmv5PxTKXL9JGE0ySq2zEuD5mCkuTn07BwsLMDAeAW0s8ai0pXcWLktSzt2cpjCLCbGMWmbvjYcz7Snadeh9NrszwvSbicEdZpVPrkCSQmkSYIh1Lb8haz5GRmalIRnsgxrEPMx9XvDsWe4c++nWP/CM6T+KaR9DcUYkZ51FkX4FyA/tefhhw7icDhWLJy4OxzL4MC+vXO33rnzs4j8FYEbCzeL5u/ZM2d4bO9etm7bxvr16ysyWRL2NvKe3+eRhFnSFMLEzYgC6dAgQpz0aQiqZIogBeOAhcVFZufmWRos0ZFO8ApTppHoXiI05ebakE1zUJMGTy1po2eVVjExsaJICivArWtX8cUjpzl0doGoah5yW0mTV+2Lp/Qkkzd50lRXmmAYSpzqNm3/FNLkxN7PdUImWcmOPhO7It/ofpEYTnL9JV4oed+DRGov5sj6WHdBhoIPS1FH+dApyWkNBo1GfX4BPTuHzs03dutLA1IHKwiqbdia3FLdr36nJpf8u76fL+Q2Nd22TNsWtoXs1hOGc25itUnEclNNVOK9KkJ6llu0/vkBzWFa68WW104iSnnHFufY9vSX2PbEnzA2d8Y8N7mPxfFCQl2HvnAQkR8V5N/MTE+dHa4Ah8OxktA2LDscDoNur38/8BGF7UnhxvDDc8Omjex+17t47Y7XAobk1oGjRrBKofS8UgS+oGttWv0aiaJE4inC6MgIq8bHGR8bpdPpJHLZNjqUprgaVeBpEyuxaOmLmLgtBwOl4jSkZ8/hU/zdzz3NorYXs6ZY7SWU6lstt7l7PjvqoVSXa6cmVHsbWP86lYzLpGWVxkOpLcOpdTBo3DYuLTU+1q29eq1Nj7mkn20ElpZrMc5yabX01TwLGSrnsnINyWMYcdEv7MTuQspYpT9071w4V1pWuDa5WvJIe01g3cnDbH98homTzxOncG3FrbrrAPgs8N6Z6anPX0ABHA7HCoBr3B2O8+DAvr1P3nrn678l8B0ga7LGtPTpffbMWZ584hvcsGkTmzdvNikYzZy1Qy5+Z9LRKAOljAZZY11plRsZSAEt764P7iHar0tOZ0mVhYUF5hYWWFxaAiRsZI18I9LNimQWrDJqBGm08DETy6Mka6GT9YDmMguwdc043zgxy/6T84n4W1ecYmpBq3YghkhEiVQ3JZ/L6SYZ0ibSTLxL3/r2kKOaJBI2jEYNqeTYVTsPkd4QPtsua6qnXAYri9EsKw0xX1xE5+bRuQV0PpjARPeNtRa6aD/7O7aXJZz1fatdNu1rqWWt/Y4rBkN1do70Y5IpvSxyyjtq3eu86k+WycPK1kb+hz5ZJnxdZmmJT5V/rvuxhVle/cyfs33/DKtmT9gnPDRb0zfzM07sS6dAfxnkPTPTU1/D4XBcM3Di7nBcAG698w2PgjynyveI6Ei0n02mLuH77Jmz7P/619m85SY2b7kx2JGXhCVxGaM2LV28BUKXzCgySUm284YMZHJdkg0JcTXeTwTYEBnzoQqLS0vMzc0xv7jIUiLxnSzHMiSwKVMmM9lcKBOfxKMSuTFE1xDt29at4nefOcHZJa02dEqhxB+e0FBsXrXXoyy2/E3b5cQyj8xliIS5MCayWvJYBrGGOylkzifetyQy1IXdRJvkSILnzYipkRYW0fn5hqzPzjV+1gfWz7ohy7lxholoIIW2HFa24d+mPmkLb0m2YBqoUhXb9Fsa1MpsJn22z5Ry5ElQ+izyqvJIn4Z8p0mRkd2Gs7IUeQ91xuF8tE6v+b7u1GFu2/dH3Pjs1+kMBrmPhY4Yn+v0OxYNOYTwU8AvzUw/dByHw3FNwYm7w3EBOLBvr956585HRPQwyHcp2okkPNpER63wwsICe7/yFa5bez1bt766IM3NV2sLTSZUAcWGQvNbRPJR9kU4uzyf7gbOYcl/Sb4LwpuITtbQLywuMr+wwOzcHItLS0nutEnTaBUbzzFSEJfo/MaS8+QFBrC2+laWG1aN0QH2PHc6lSmfFFrxQG1kTkQnUpuQV+JWBTmT9BG/xGRKfieBWOf6ihr5zE+NptwQ4Ui2rdlRlK9wAZmumylIvKYKg0Hj/WU+bCqNRD1q1C3RjXEKAmwKlsoX5EwTQkOk20yHCo8nJj+bRyLYRpYYQMjxbTKFxr0l7TipsGGGyD5k1zum8to05oVMZhJg5TYHXw1r3Ashh7TnKd94v5Ajxx8ZLLLj8c/xmv17WH32JIUHphC3ngOFvjQAfg+hNzM99ccH9j26NFx5DodjpcOJu8NxgTiwb+9g651v+LLASRH5K4J2NJLyQgPZkMb9X/saA1W2vWZbqbXGKvKiAYa5lwKQyYhqIu8pm4KEY7R0kVzmdC1ZTDGGOFNN5MO0QDV5pZmdm2NuYZ7FpUF2HtIRM6kwxDWSZkIZTZkSl4vkNpqchPxvX7+aR184y9On5ks50yTAEOVI3iTyJy0UyhrLI8NkrNjYaWTTmpgRNuDG/GMcS1hrGS2RFynTNOGSi8bBAJaW0IVFBrNBmz43D4uL4TAkWoi1JYqmHHW7Fm4ny/IuF6UwUbEXqolmbkgqtpkK2ZJoWxx7PZLdyGBrQmwaN0VdRsbWft5WFns95mXTid+HhDaz1iuEAAAgAElEQVT51+XMcokO2Pz8U9z51U+x7thBOiZMeh7CLwl/c4pyRIX/FfS9e6Yfem44c4fDca3AibvD8SLQkPedfyowgchbRBktSLsxUVBVvvnUU5w6c5Zbt29n1fgomQxkEt24Bsw215GAR1MOS8ah0fBL+aY3hD5qV7WII+Z7Ed5q0EOYHEfTfWseMtABS0tLwb3kPHPzCywuLjIYqOFDMR1jrx3swJOpjC03kv+JMN7psG3tOJ85dJIzi4Os6U9li5OcXFdEsxIbdkh+DeS+IeKlorg0r8nhYn3HGo9y2DaSVO50PcUPcSIBVG3+B5LO/Dw6O994f5lfgIUl0EGxmlBqnUN/k9xfCnORGD5+LyZNUv7XluuxoEVYI4e1dY+fMY1CvuWuVzIV+WPI+jJpaZWm6V85fdOwRVomvRRH2suBFB+moyxT9lgv5SQVhDVnXuC1T+zhlm/+GWPzs6Eao1vQ8nkoshcZgHxaRH8C+MSeaT8F1eG41uHE3eF4kTiwb+/irXfu/GNgDaJv0Xi6aiACSj7AaDAYcOiZZ3juyPNsfe1rmVi9KpE/jFlKc8WSv8K+IoVP1NH4/k5xJZP2tDkUw4OSdjtfz3bzJDIRZVATv0nebM4MaLTxytJgibmFeebm55lfWGB+YYGFxUUGgwHLKiet+YHhkdGbyubVYwjwJ8+dCZll7bmETbbFZkAy6YmWFsmKQeLBRJIqRGw5Q1pihBFrl2QrIl8gThbqegmV02weDeYuumA3kQaSHt0z6qCqkFqzXpHd1D9i2Y18tTY8dQCThlUy2/6GVnGstpnqe5usbXlI+TsR4oJBV+lVeaaoMiy/vRfRetaB5KyK31ViRT1KmadNS6u6Kfpjc2t0aY5XHdzL9sdnWHv8WUQHKd9iE3RoAy3GBU6I8K9F+Acz0w/tPbDvUeN03+FwXKuQ8wdxOBxt6Pb6EwofEHgP6GixedLwkKjtfdX2Hex+1w/wqhs3GcWl8QyTmGlDxJMGPhCGyDEkEButwhZ284YABCkqc1tzQipJmJBHPngomug0SQaKagh0zpd8Omoi0dk9ogh0OiOMdBq/8SMjI4x0RhgZ6dCRTslRA0SEM4tL/MM93+SPD58u7NzzRtsoLynvSNIzpzVe3xNZMoOfabPsdz23W2kp0TILURozl8EguGQcoIGwJ+36UISa5JtLtX320P1lvp8r3XRLKTZ4LptH0VnOkZft6MuFbcvrfPkuF7YlXuLdZqa2XL5DFXOeehgq7gW0CSA6YP3xQ2z7xueZOHmkSG65JstfdYDKI4j+3Mz0Q5/E4XA4DJy4OxwvA91efzXwPuAf581lQZuW1dzphb/mho389b/xQ3zbju1JQ9dGCO1mzmEtpuY8sHEzi7Ca/EhEI2ezG1a1ZKU5/2ISkNNostckY5sdfSlbvKJF+KKs0niuaUh9Q+zjwVCdTodDZxb4wT98kjNLZdy00dXUX673mKvNuyTzOXy0iZccNhJuBTT4R9dMxnWg6foQMa+JqNX0WqIXNctUfaUsZAvpbEvL/E4NjSGzJp9WAt+S/3C3qn5XQthllPMS3eq61ewvh6FynkvOWO9GnhhGq7yGntN4Tco49YTC5m8uTZx9ga1P/Skbn30iZNMEsBPx8OiniUY8dEtEzqD6fyHyCzPTU0eXrwyHw3Gtwom7w/EyMdnrrxb4u6p8EGF8uYcqvvPHxsd5x1/9Prrf/hcZH13OWq1kA0NKwDat4LKXS0eF50KgGGXehnsul1abtLUs7Rw02pmfW7qHnzzOLz1ymPmoze9EUtUpMylMI1owqKwNBkqi9/FeGxlvhVX5nq92lwl7Qdrd86V/IfnHcBGFqrol6IvMe6ixzW+F4aWoGK+N2F9ovQ5l0h6n9eGhzP8cVXGheY/Pn+HVz/w5Nx58jM7Sgpmj5FWplEUm6jbRz6D6fhX57J7pqcULlcThcFxbcBt3h+NlIti8f17ghMB9COP5wCPI5BQQYbC4xJNf38cLp8+y7datjI+NJeVgeplrpsnRREWNdi5yDqBQyDefRhMeSFXe/NpELNwzRpMXJCkVs7Ix6aqT0jYftZ45WTT4KTSnhalJNmdpOKk1aYna+eqwKDNJeO314xw+u8DjL8xmzffSAAZLjdeVpUH4XIKFRVhcaD4XgkeWxcXsnWUp/h6YdOJ/HdbOFjbMtZZcSLOaoX0JJn5BEuvPtvxqQltfMyS8NU2jcU7xqfKT9rSH7jFcvoInG820LXMMY8OlTxm+R0vYZcvXcg+MGrslzaJvmofGTlJqeYZMhur6hNHFebYc3s9tj32a9UcP0NFBOpk4PnMCYV9Gzs+4Cj2o8M8E/uHMww89emDfXrdldzgcy8KJu8NxEXBg397BrXe+/ksKhwV5q4issVq17DmioaO6NODZA9/kqWcOcvNrtrNu4jrA8Agi+W4hU/F7JIQ5wJDJSryeiLiY7zUJM8GjB5i0vF+lFTmMJUONOJLzSaLGCIZU2RSTzNV9Y7rQ6Qh3bljNvuNzHDqzUOad5ErM0RTElD9dNnlJu0wp/1whZJJu2qHW+Lblkz4jobZRK6I5ROSr8mlVZitbax1HmVs00rG96rq39VikaepMbPotExZ7r9AqG4Kc5I+3pAxWfjF9frk0qzLEPiKx/OeSWSjkWW4ylNpIGVlaYNPRp9i+f4YtBx9ldGk+Zx9zkPgsx2SL77OK/jcR+XsCD85MT52pa9DhcDhqOHF3OC4SDux7dOnWO97wpwhPKfwlkOsLH+UauVIg8KqcOPo8X3v0a9xw8y1s3riBDtk1YyQiYshC0t5JJt7pd9JW58lCzi/5q0j5Z9eFWa7GY4uJU/yOfMlo3ynLFMsqOVSxEpBkSvmZ9IprFHKKwsRoh9vWr+ZLz53m5IJRSqYIlpS2EMLEywKRkypsmggZgmiv2xNwCy2zjV9pdQWSq5whYmiIY6Fdr2QSGz9es/GsLFqVw9RLKnv1OZROXfaWPLWqi5i3mrRseNuniwmRTdNcsnUwpBm332092MkVlbyxzOcqm1YyV2nHvjpYYv3JZ3nt4zO86sCfs2ruNHFFLJ4XIKYNmktqRJQBwjdA/rGIfGBmeurxA/v2LjN7dDgcjhJy/iAOh+PFYnJX/20iPAhsA4a12gnNjc7oKG/7zu/mL7/9L3Hd2Gi+q8t4Qlk+QXM3hNFwsmlBrNrTWc4avs7Nhiu/Zw50rvLa28mrjjGRacqeybuN/cXDp3nfnxxgttqsek7vIWWG5rvV1Jq4bdfPXeUtMrTVt00ot89wmHPI1ibMcmksL2h73tYU6MWkY7/WdXAu2c9b/3V6F/D7QuWN7ROJfpu9fZX2upOHedWBP2fjc99oTfFc18KNeRX+vSjvm3l46sgFCu1wOBwJrnF3OC4BDuzb+81b79z520AXeDWwzNs9EN6lAU/v/zpPfvMgN23dyvq1a3I4o6VuopXkepgrWo0fxkVjVD5GDWS8lklzmW6OI0Y7HM1nJBaqINiRDJWkOx2yZMhY0vinTCCWVI0ckjMDVV61ZoxXrxnns986WXrFiQQw2yKYejYNYAmZ1f7WbCtpgSvNbyvxrOPEjGKeNo6YtOo4FawmPJWlyj+FayHjQyS3qpuCX0uW+wK8pxSkN5axvhbTLfiyjRProy2ObSO74lDJuByJb2XUJh+kqoe6nXM9XX/yMDsen2HrN/4/Jk6/ELLSoj/H8LHFqjnQYjCL+dvAr+15eOo0DofD8RLgxN3huEQ4sG/vC7feufOTir4akTtQHYlkNfMbBc0a6ONHnuNrjz7G2Jrr2XLTFkYk2ppnHS2QyFDkLdF1YzIvCUQo246niMYCIFHv9LsgwjacVEQlyaAp1bg9NacFwwS1nCwUeWn2/Z7lMxthVRMR2rZ2FWOdDn/+/BkGyfWhrX0xpDDey/mXJJCW62WdmdkIieRbEw6bJzBkU57MNSrY+AUJbIsTw8WyVHLa8haFE0Oqzb3W8MNtlWVTE8+W34axJLtlUmHLEcs4NGEJnX0o7Up++xlP7SruR3lt2aP8dT9XI4ukZ/P6k8+x/Rt/wtanvsTEqSN0wvPaiC4p6yiuQFFN4cuXgX8iyD+dmZ56ws1iHA7Hy4ETd4fjEuLAvr0nb73zDb8nMCbCm0DGkw1sRUokkOP52bPsf3QvR8/McvOrbua6VasCK4j27pmYF5prAU1ENRCXaCJjmIVEdmEItbWPL8iLlHbzEO8b4iKSlKaJsEhDwutwOX6VVvgrVk5L2kMZYllHOsK3bVjNqcUB+4/PUrjhSPloSj8JZjXslrTbeylOTVyFwl58SCMf7ouUWvV6M6zYNBn+XUwAaI/XauNdpdmWbvwdyWsdr86zTruwl4/3zITCasiHtOXakhbVvWpyYvPT6l5R9kr+Qnbh/HWV73d0kXUnD/OaJz7Pq5/6MmtPHkEGi83k1KwG5I2m5qRikeg5aYDItxD+FejPzkw/9JkD+/bO4XA4HC8TTtwdjkuMA/v2zm69c+dnBfmmqt4nIhMA0SAkuVyUfMiRDpRDTz/F/v1PcN0Nm7nxhg10kgY66fJIX4TGnIWG3EbuZRlcfTiRJTuRmGsyJSjjacG9KiKO4T7Fke+xdMaMoE3zXF9LhJiSOxN5ciPPaAfeuOk6Dp5e4MmT85mIRm3wUFFjAYqil4ESQWwNkMnlcjpTy1NjfaR45whfk9NEjjWnMzTx0eHvy8pVEWibfyGfSXNI436O9GMYW3e5wUr57OcQAS8SrMq7XL7hj7S0edogrO1JmJWFzmCJdaeP8Jon/oStT36RiVNH6ehSE87OTWrxTLmDmdoJkN9U+Kk901O/cWDfoyeWF97hcDheHM4xGjocjouNbq9/D8qvI7yujR4qakyYG8o7MjbG3fdO8sB3PcCGNdelkG2Pb8NPrDZWUzpDoauLy4Vs+PA5yGwK14Rpy385eW25G7IYubeaSUI0T2hP68T8Ev/yy4f49METVR7nl/kchWk+LVFvJd9RbjNpaM3yJcgyZGde5dUeiQuvg3Pce1kbQJfD+erA3D9vfnW9VysBF5RH80dQNh79Jjcf/CrrXjiYwkXDr3M/N0PbuT+p6AcF2TMzPeX+2B0Ox0WHE3eH4zKj2+tvBD4M9IFR61ij2DunkDeawvUbbuCBv/bXePMbXkdHsuY9byLN/tCj2U3WlJaHIVlinXzG14fXaPk92+cPH+CURK5s3q1cEicjQ2RrWINdKM4NV2+TVUQ4vbDE//Fnz/KpAydyxMKkxFRuodU2pLzW2FvNc7EKoGX9WG25qe9CS53EreVqiWcrwd6v7+kyabVVZGruKi272lGUIbaJYOu/+QwRVMpytTWcmO9D8rfIVcjYUl/LTShaN9Oeo76A0cECW579OlsO7mX1meNpXmgnv3aDqX3OcpEUEVlU9HMgvyDwqRk/9dThcFxCOHF3OK4Aur3+BPAjwPtBt2jSLp8bo2Pj3PHGu7j/ne/klptubJbuI7Mgch1Dkol8zLiVTBxnee2shtgaCHLppz0TUjvRKPif+W5jaXUfjROHJGiyHZYi5rC8tavMMwtL/O9/eohPHzy5vEXHEPnm/KPgS3I3eCHa8UqeC9EY1+Fql0LnTyBPVGIUWqLV6dYzyrZ8lq3TC5GrLd9h0Yc70QXWm0lkzekX2Hj0KbYcfIyxuTNIa28xPTARecq6g0XgCwofFvjtmekpN4lxOByXHE7cHY4rhMlef1RgUuGfozpZ2pJnDXnUnltiv37jJu657z7uvectrF0zkUxKMt0oj1u32vvsNz2n3UQpPbgXmnw02dBnLWrkWSZNa+Ji89Scd8mBstwxXqHZJB9sk73KDF+P4aPZzB996yQDxfCvSD6Hpg6VZvlcGt1U+FihmAoxmmiGtdoF+a3YcqEZDn/qVQmbdS1XWzybh9WS24zq1QgbR4y8drIwVA9GnjYCXchTyTI0gWjTnmtZn22mU0OrB6aNQzIjSwusPfU8N33rUa4/foix2dOpL9l+VS0yESetxWnEIovAl6VZNfvkzPTUYRwOh+MywYm7w3GFMbmrv0VEPwjyLmAtYIhuoWMGlcSnRIRbXvMa3vHA/8htt+1gbHSsUsYa8xhJVKZQ1trrOZtMnLJis55I5IQKjXuldLXliBjSuFfku/4uBK81BREuZbNk9cTcEr+29wj/9eljLBVErihkKXlBIuPMwhL9sl6W1dwvR2xt/KocrfdrojpU0y2Ti3Nqtg3JHUq7rXwtZW0LY81hbB0WeZLDFOUw4VJcK4+J02o21DahKb+MLc6y6fmn2HT4CdYeP0RnsNRSRjvJ0fB8VRPfRq554DHgw4pO7Zl+6CgOh8NxmeHE3eG4SjDZ2/0DgnwIZXviWJSKz8w5sgZeRHj9m97EO77zAV5105aSRBosbyYdJwjm2PaKPxUkPBLrQNoKbTqZVJUrBSGHZQh6XaaoBdUUtpFETCEswcp8sfk9u6R85NHneOiJFxrNe0IbUW3T3FqCS8U5axJJSfDrPGIUXS6+1TCbJNpMOFqJdU1ujSg16vLUxLuchg1PZtpkb81bS/HbJiTLTlQqeerO36qFL6+vOfMCWw59jU2HH2d07kyedMYipCa3ezeo+mzsh4LCYyL8C+A33STG4XBcSThxdziuInR7/ZsVfT/wbpRxoCCrGEIRIeH62NgYb/z2e/mO+9/O5k2biES3WOavWahEnxjDxNrmU6dTbnS1GkoyeUsK2bbNqUNiEKl6cXhUKHuLuUL7dSPf4kD5L08e49989TCzS1qS1iGyB9lcRPLIaDW7Q/fsNWXItOSc4W09mQlAgplUDLk0tGHrOqmu5Zv5utVYR5JtJy4xTCx/ilrVSy1zMSGgKmObOHbycSFlCQnVk6DwfXxhlk3PPc6Nz36diZNHspwpaF7BiZmGKWYqfkqyCbeI6BdU+bCI/ObM9NT8ULU6HA7HZYYTd4fjKkO3118NPAD8gqq+TkQ6kb9kW3LS39IdhrBm7Vr+wr33cu/kvWzatAmw3Ety8EBaM1kxk4RIciSbDJQEL5KokkDbz1r1W3iTMZMRCaQ5OeAL95qDbDTEtROYXOY6TzVpKsLSQPmjb53kw185zPOzC1SVAbWby1r7bcl1DGd/txHwVphZis3LlHcovRjPnghqkx/KrypLmwjFhISyLuo80sSsyiMVpZ4ALCebVWdj+qvN35L4lglKkX6sE2V0sMD6YwfZeORJ1h99htGFs7Zb5qiRjEtd/y31J5wBPqPorwjy+65hdzgcVxOcuDscVym6vf5WRd8ryN8ANtt77TbwFKR70403cs/kW7n7zW/ihhtuGDZPCSRKVQo+XecRfhmzmri5tXIFCUjMP1wptJvny6dtgjBEhDWRfDtpyHcr2UJSXz5yhv/zK8/y+Im5nA4teRb1SF27w1riIc1x2/cWrf3Q95bfQ/ErwlvHW+76kNZ+uTo2CSyb1nK/W+rnnEFt/rB8nVTlQBhZnGfi7HE2Pfc4648dZPXpY3R0sOy8abi/VU2YszwCfAr4t8AXnLA7HI6rEU7cHY6rGJO9/qio3o/I+4F7FR1PFg+VpjN5xwCj3YQbt2zhDW+6m7/41rdyw4b1dDqdYXOVQLGt45NIvuMGvUYxmiKQNo1GI5d8K5vaGA1tMkkIRNKa0iezmyD7ORW48RqQXFYWyuqou7fec5QnT8zzK199js8fPlXZvbfgnNpzWgjnFcb55D1nXK5AMS4gU1OmztICqxbOsvHIN7jh+W+y5uRzzUZTm1LL/OWcuTQ3F4FDwMOKflSQz/vBSQ6H42rGVfLWcTgc50K3t3utIj8s8PMKmwtNc7IcCNp0y2KNZnrN9dfz7d0ub3nrvWy6YUMgyBosBiI5jye3Zjd5mm0NCBmEZLNm3SpFmzhSXJcQsdSIE0h3lnvIBSWZv5UWOqXrTGMPMWTeYw+DOj0/4D/ue56P768dglhzDq0+Ga5PyAIVSvFao32uOHX6tqBUcZaRrdact6UxxGxbwspysho5TBLLx6mqtS5Xa/lMGuVMjlWLs9x46GusO36IdUefIfkn0mCfLi0uUytTrzSd06YHhsADFdkvjXZ9amZ66kkcDofjFQAn7g7HKwjdXn8z8D6aw5vWAdjTUmukU04N0RkbG+PON97FW9/6VrbfdhsdEy/zHuuTPd3NRD1+GCKdclTyjRBPxNwrNP3lBKDdBCdq7RuSb8OUdvN5gtDUS6Npr1cCBqr88bdO8a+/8ixHZhcNma71s+Z3YQ9dadvb7OLTDIZKEx5mWcuNvIWwsLx9e8xDhuOlsDWZXkYrX8ct8raTohY5Uvy2+mP5lYmiI5hPgTVnjrLh6AE2PfcN1px8rijr0JkDy6jUC9N7DVPAJptZ4L+L8JGZ6an/PBzT4XA4rm44cXc4XmHo7to9qnA38F4R+T5gdbxXHiaTtddZ65hJ8fj4ODe96lVM/g/3seO221i37npj4kLW4FeECaJSNBO+HKZk5ct5gynQds3InbM2vrVVaaGbhXZ9OK1S5idPzvPLjxzmi4dPM2hX6w9rrmPhUyXZTOyExmqjlwkf0zKTkkz0a+14TMtq28nE2OZZrw60afbLyhnW6td1UBD5tvBkmZJc1cpA3T1C+NGlBdaeeJbrTx1h07NfZ2zuLCNL87mqVZNL/bJqJdV78rauZvN2ajJFlK8g8kmUX0d4YmZ6aralNRwOh+OqhxN3h+MVisne7glB3g78DMr9COMNyTF6Zx36MqSk7IyMsGnzZna+8S52vvGN3HTTFsbHx0PYoM3H8q5wrcWuOkwPzF+j9R8KF75XGvbWQPay1aYO3WtLy/inr3BsbpHfeuIFfuuJFzi5sJxpcyXIchs6zyX0cukOad8rLf8F59OWr2HKheZ/GW23vVeY4lCmvVwRh663pQ8dHbBq9gSr506x+dDXmTh9lFWzJxlZWjQxMwGnTrZKr6WLRxxW+BLKR0T4DHDY7dcdDscrHU7cHY5XOLq9/lqF7xP4aeBuVFdHkjZ0mEwwS7HeX+wgcN3EBK/editvueceXrvjtay5/npGOh2SPTwUmuMhf+/pBiQXj1KTx/KgpyZME6mW19qpF/lUNtNpeiEhvZCXtXNOYao8FwfKnx05w6989Tn2H581liWVpppY+BZiXduct2I5gmxqro2st+Zzod+Xkf28E4zzlfMcRWuZ6IwtzDK2NMfGI09y/fFDTJx+gfG500FZb0/XzWVuqqU8PTduRs7NoqYKBdAzIE8CU6D/BeQrrl13OBwrCU7cHY4Vgsne7rWCfC/ws8CbUTqWpyXqmvhlJj1KtkOPBHvd+vXc/rrXcfeb3sj2225jbHS0yC/q9ZNZwjKmM3lDIJUCOFA1reOQ5By2U5ekbR8yi9AUojDJiJOH0qIj29tHm/lTCwM++tgRHn7qGHNLmhMYIrBqzDRiMJN4vSSQyl0RaluRQzb0Vbi8PFES56H7lGhTqNvwy6Vple21jOebl6giKOOLc9xw5EnWnjrC9ccPserM8ZLbp35RTl6GV01MfVPJ2oQfiMgJ4JMoDyL8/sz01JllpHQ4HI5XNJy4OxwrDN1du0dpbN/fC9wDdOIGvUywJXGlTN7NYUaRuQWStPb663n9G9/I69+wk+07drBqfCzkFmj/crbstbY9af21lWQmzXrUskdb9mID6rCtu/Vpv5zWHs2Tg2wvnyuh0eoqXzlyll/96mH2vmAUtYUNfFU+S7rtBs1z2ae3aq5jPRHixDYwDYWQTmk19VaQ3yHCHUWqNPhV+dvJekXU63wiURdYPXeKdUcPMDF7ghue+wbjsydTe7Za3FQbTXO7kCZ7ViNv44X2PiPKf0f4BPDfZqanaldBDofDseLgxN3hWKHo9vprVfV+QX4M0XeCTABDJDQS46yIbyGXIezo2BgTaybYcfu3ccfO17P11lvZtGnjECHOn2DZY31wVNaaD5+6qlaVnuYRlnAboq/D8XN+RimeJg/NKkMsV00MTy4M+ORTx/j4149ybH5p2UnIuT9TIYOw1bX0u1KJF4clGbkt8YahuinJODnNmqgXSxRSybNMesltZ5Pm2OIca04eYdX8adYd/xbrjj5DZ2mBkaVFRAdmUhLaAeuWU0pTLQ2n5Kbi5cldNG3K/F+PgXxe4L8A/4nGbn1+qPM7HA7HCoUTd4djhWOy118rcLeq/oSIvBPVLQqdaCee9e9hY2uyL8bcM5rswC1HRka4/vrr2XLTTdz2+tfxmm3buGHTJq5fu6aYGFif7GBINJHfGXeQRpmcZKp4bbKHTvOKkHpMM16pNLbx4KeYY9bUa+mxJBBnVeUbJ+b4yGNH+MLh0435TBtJt+QXirJfOLEvVOMkTXuhAT+Hxr4g7DGemGSrCUdtO1PLbLT/o4sLrD57nLGledaeOMz6o99kdHGO8bkzdBbnU6XnLEy/Su1bryaEFo7mWqHeJTdqXC0ZCHpEla+IMA3y+8CTM9NTp3A4HI5rEE7cHY5rBJO9fkcaN5I/pKrfKyI7FMZJ2tCIgsobAp1NbfLhTxoIvrBq1TgbN9/IzTffxGvvuJNt225l7Zo1rJ64jk6nEzSqVpMe8rImNJHsmz/ZvaPR1KZJATSbYGNaJFOaIr2UHzk9Sbr+PMmI+QUNsKLMLSl7nj3Fb3z9KPuPz7IUxWkj4EPmL7k+S15eE29TF0XU5Qh6dS1WRqtJj5GvvmZWEESXGFlcYGxxjvHFs2x4/ptMnDrK6OIc151+gc7ivBGlbAPbN+prSeseTbCG+hDpWuhq8yJyFPiywm8J+iWQR3yTqcPhcDhxdziuSXR7uzejsgv0b6rwNkFWlyEsy2y5ZKw2CquISIQFRkdG2HLzzdx0yy3cuvXV3PJtd3LzDesYGR1tPNVAYdYStevRjCUpZ5OmP5P27B0nZJy08JrI/LDZBVhPN9GII16LNhgtTpQAACAASURBVPNR46xaEv7j84v8zjdP8Jv7j/L8bHZd2FZVQ7Ca+fPBmuVQktv2cMv8LsLG+M2qgeiAjirjS3Ose+EgEyefY3xxjtVnjjNx6vlzTkYsAT9/+SrBl+9Di8BR4DPA/wvsAX1iZvohd9/ocDgcBk7cHY5rHN1e/82q/E1Ev0+QHfF6NqIZZluZ12WzmuXC5CuwatUqbnrNdrZu3cqrtmxi47Yd3LRpAxNj2WNNto3PaRYbTmkbuIxWt9JIR228DEljiP1QvKzlr3Fifon/+LUj/Lenj2ff722k+YKvwfKnjhriblYnWs1lWuKJwNjCHKvPHmPtsWcZHSywau4U1x/7FqtmTxWToIih+UF13R7yZe+XdWzFDpOiYUkXQb8A8oeo/gEin3VvMA6Hw3FuOHF3OBx0e/2OwjqBt6H8IMJ3AVsKrSjxe2l+UphOBzS2y2F4CYbrWYkcJgSdTtK+37BpMxu37+CWGzdz4/q1rLnxJtatX8/668YZFSlso7PHmJg2hVlMliHbVtvNjtmbCYW/9yKuMemo0wQYqHLozAK/uf8of/DMSU6kDayYCoFovpNMZSAGSDKU101lFuRcDYMWQ4aVkaUFVs2dZvXpY4wO5hldnOe6sye4/oVnGF2YRYKGXQZLWaaQf56m1J54cojiRFyRIk5prx6uxmoIf5J5Fcwjsh/lSwp/BPrfReQwMOsHIzkcDseFwYm7w+EoENxJbgPuB3qq+hYR2Ur0C29VsMuZUlT2y0Of9maV3sjoKGMTaxgfH2f1+BjrbtzC2ltew40b17NlYhVr1kwwumYd49ddx3Vjo6wZ6yRTmtKrjeHPhrQPHUilNWkNlFXzZl2qgkdiujhQnjoxx28/eYzPHDzJ8fmlspCtywNt5iNlBXV0ic5gidGFWcbmztAZLNFBGVucY9XZE0ycPsrq08cA6OgSI0sLjCzM0dGK/7aZ3VT5D+9ZqM10zCQCglnScH0O58ks8DSwH/hj4PeBp1X1yJ6HH3JPMA6Hw/ES4MTd4XAsi25v9ziN+cwk8NdpNrduUdXxWsvdpoEP1uI0GtlszhLDW5/yyQ5dCNr6qPmNGxubtMevu46RtetZdd11TIyNMjHaYXzdesZuvIV1Gzdx3apxNlw3ztqxEdaNj8DYKkbGxkA6jI6NBdItrBrpFAPgiAijnVJZbpH2dCrMDeyhUDAAHj16lv/0+PN88fApFpaUzmAJ0aUm7cWFRuMt0Fj3NyRcBgNWz55kZGGWtcefbVwpAh0dlMR9aSHXcRRN7UQik+tK7OzZpdL4W8sg61M9TYCC/X+OExcPxMxlNNbnQOCUokdF2Y/wuyBfAJ5QOLBnespsCnA4HA7HS4UTd4fDccHo9vq3q3KvCN+t8E5gg8BqKIl62tRpiOGQ7blV1rd5WUlEOR8eldOSIeVw1gIb6xIB1q5nfM31yMgo162ZoCOCinDD6vFCB71qRFgzOnJBo+LxuSUGlRnN7OKAM/MLHDo1y9nFJUYX5hgJ7hLHZ08yujCfzG9a64dmQiGm/NlUqc0LS5xMVOVu0ZZnpflw3rk9qnt1PmYFQ9BFkHnQo8DnQGZU9RER2TszPXXw/DXocDgcjpcCJ+4Oh+MlodvrT9Bo4r8DeAfovYqMR1/sdnBJPDESSTAeXNqhllwmMp7j1GlYi5Mhy5xg9iJDjNU6vDQyZiPvbCATTWfid0g23zluS/4V+S6KVZma1B5zigNSjX26hszatg5j8m6+D7P00mLJtAlU4eyKCMcEvqCNT/U/Bb40Mz21F4fD4XBcNjhxdzgcLxuTvf64wEaFSYG/rMqbEb0LZWNy5Uj2yV7aRZca4vSrZdNojFtrkFtJpzGvyYcxxfxCWpHWLjcSGvv2eIRUnEDkPG0aw/bjtrxa2eCINQuCUt40pajKVJjEmPNIjRm6zTPma83Yk7mMRBmbnEOQRUSeAJ5U1X2IfFHQLyuyT2ARWPTNpA6Hw3Fl4MTd4XBcVHR7/Y6qrgPZDHoXIn8J1XtEZJuitwiyulI7N5+1CcfQdWO70dyIAcPfbE6TjNRrk5pkC27SC3mpBD/uMc9oaxPNUQI7LtwhGqYcCXf81eQ7ZI9C0ua3q8dL25Qon13GKNKwqwOl73nrKaYQMuSjcEbgsKoeFpEDwCPAn6HsV/SICCdAzjhJdzgcjqsHTtwdDsclR7fXXw1sBW4B7lLVrgh3q7JBRDYqTAh0rPvGZBZimHfSL6sx4CCSayhcMhrk9KgIdXBbGdxKNmEbLXhhf08+nTVtqpUgQ2UKY+W2B0eRczR5lbboddx0miiG01vSXiRfuW5svs0qnBDkDMIJYF/4/1XQJ1XliAhHZqanjr7oRnU4HA7HZYcTd4fDcUXQ7fXHacj8DlW2CbwR0Z0gO4PGflSEcYVRMApmsnkMlhOrBqX0sA19oUgn28drPQQmTtxugqM5dmHbHicXMc94uqhW6aV01NinR42+lTtOFCSWgySJmcgMUBYRWaQ5zGgeeBrkSVGeUOFx0IOCHAQOAQdde+5wOByvbDhxdzgcVx26u3ZvR2Qbyg6E21R1u4hsB7YreosonWgzX7hITNp40uZRjJkLGPIf44Nh9NFevEVTroFOW/Mbg6Txp/SAQ0yPisBHjXleLsied8IkpDnASAeqHBKRowoHgQPSfD4LHFDlsAhPgx6cmX7IibnD4XCsYDhxdzgcVz0md/U7InRo3KBHTf02GtObW4BXA5uBdcBGVV0rIhuADcAEDJuXJ7qvZgLQssu11tZTuafMpjIQT4wd9mypgJxA9RQi88ARGi35UZB5hUOgsyDfkubeERpyfpTm3mKYqAwEGbjm3OFwOK5NOHF3OBwrApO7do/TkPpxYFRExlV1VERGaQj9lhD05mBTTwj7amC0tIvPtuXDPhnFzgKepyHXNuoBhHgy6FHgaNDQz6vqAGRRROdBBqo6j8hgz/TU7EWqBofD4XA4HA6Hw+FwOBwOh8PhcDgcDofD4XA4HA6Hw+FwOBwOh8PhcDgcDofD4XA4HA6Hw+FwOBwOh8PhcDgcDofD4XA4HA6Hw+FwOBwOh8PhcDgcDofD4XA4HA6Hw+FwOBwOh8PhcDgcDofD4XA4HA6Hw+FwOBwOh8PhcDgcDofD4XA4HA6Hw+FwOBwOh8PhcDgcDofD4XA4HA6Hw+FwOBwOh8PhcDgcDofD4XA4HA6Hw+FwOBwOh8PhcDgcLxlypQVwOK4Eur3dd4Hcruja5jHQeWC/IHtnpqdmr7R8DofD4XA4HDWcuDuuGUz2dk+AfK/Ae4E7gHGg09zVAcg8cBD4CPBrM9NTR66UrA7HtYpur78T+EFFv0dUtiOKIogCwtPAJ1X1E3sefugrV1ZSh8PhuPxw4u64JtDt9dcBH1TVdwtMaOz6Aqgi0vxWBUTnBX4f5MdmpqcOXCmZHY5rCd3e7nFV+WERfh64RVWR8Jwq2gSSdOUAyIcUfnXP9NT8FRLZ4XA4LjtGrrQADselRrfXH1X43wT9cZDVDUlvSIGkqWvzvfkpIyKyA/Qv3HrnG6YO7Nu7cKVkdziuBUz2+h1BflSEfwlsUm2IuiCRsiPS/GoU77JOlXeCvrD1zjd88cC+vYMrJbvD4XBcTnSutAAOx6WGwn0CPwoynnm6oFHpnhk7CJHMd0DuB949uWu3PycOxyWEqL4Z1fcDa5VA0sNz2TyP+QGNOncRxkXk/QJvuTJSOxwOx+WHExLHtYC/D6wFQEBVQWlsZiNUiwiqijbPx08jMnHZJHU4rkEo/AwiNxOezeJeo2JvboXnVLWJpLAR+NnJXn/0csvscDgcVwJO3B0rGt1ef0KUB0ATJ2i0eSQlXrxm+YJkG5o7BO66nDI7HNcSurv6O0TkPqCxYRdNNu2qmkzYRMxzGZ/fhsHfg7LjSsjucDgclxtO3B0rG6o7EVarhhe/QlLpJTtais+ozZMc5J7LJ7DDcY1BuB3VLRA16oJkOzaa6zQadq2e3WYGvh1x4u5wOK4NOHF3rGyIbAQ6yWuMsZdNnmXIq/NBz2fs3xVgw+UQ1eG4NqEbESYazt6sfDXza43mMMRnstijQjBpUzoC266E5A6Hw3G54cTdcc0gmMo237Uh5eHFn7Xu1qAWRVVqk1uHw3ExET09hi8SzGO0+RHuCdLsO2nMaDROuyUm4O8yh8NxTcA39DhWNBJZD6YyGkxlok179t+efblL5u1B4+7HHTgclw6BfCcf7Q05T/bsCiqanmEIHqHCjFsyeXc4HI4VDyfujhWN5v0eDnKxdrEa7qa9btmmVqM2L5L6yyyzw3FNIZLx8JzmbSjJZzvJds1GSbvL1efWDofjmoEvLzpWNLLteqnRa7TuxV1DGIz9uzptdzguB+L2k+hBBqy3J8UarWlYEpP015m7w+G4NuAad8eKhkT3MHFDaiTv1ltFPOgFwgY4yYy/IPsOh+NSQI1FWkPWgzmbMY/JYY2pW7rlE2yHw3FtwDXujhWORhuXFOe1OznMez+p3Q2cDzgclxwSZ82Nq5hyspwOXdIUVlXDRnKM5xmHw+FY+XCNu2NFw5q/YGxok1bd7msLft6zls8JgcNxOaBmIl1ek8jqm2vhjzkgDff75HA4riW4xt1xTaDZj5pNYqKqPe5RNT7piDbvDZwUOByXFMH0RZqjUQM5b34neh5M2iRuNMccxgS4jbvD4bhW4MTdseIhQ18KJTvlUUwEghC/uo27w3FJIVL9NBp2yWHS3hSx4Zp9Kw6Hw3GtwIm7Y0Wj2NcWbWWrZffmgMbhl7+qCedwOC4J9Byem7LG3Ty1xuY9W8H5U+pwOK4NOHF3rHBoOEwpn4janMKIOcDFhNboYi7awzshcDguJYqDllSTWQxUvxUwJxlLXBnTIaW9w+FwrFg4cXesaCiCiGZb9uQg2gSSSNVJx6ZGl3T1wS8Oh+MiI656SXYFGde5xJrGhD8FSa9/OxwOxwqHE3fHNYLhg9HTJrfwPVnUiKT7UmnkHQ7HRYZoJt/BpZMazbpGHh83k2v+RMOKmj+lDofjGoG7g3SseETjl6R2r109JhYQCHv0BymKqjN3h+PSIq5yNd9Fw/qXmWUrpA3jcVXMbF65nMI6HA7HFYUTd8eKh0QjWOufPR6oajR89rRUc8vhcFxqhOcz7SmJXmSKZzDsO9FoUtOQ+eaEVSfvDofj2oATd8eKRjR6UbvGLi0b4gSs48d4rVDsORyOSwfzDGp4UNOCl5lFx32qzYQ8RvWH1OFwXBtwG3fHikYi7EFb15y7FIk87Uekan2yqmvzHI5LjjCJVlVEzdKYanLXqtHgPXmJSlEdDofjmoBr3B0rGpJPUopX0s+otYvL7hq8yRReLIq4DofjksFq3DU6gRJDysPzac1nkhbeqbvD4bg24MTdscIRfcnEjaZRdyfpU9GwIS7a2QJxGd7t3B2OS4zgGca4Ym2IeLRdN+5aic+jmmdV/Bl1OBzXDNxUxrHioQqizXFK2S979hWNBltaAQ0nujSHu2R3kQ6H41IhGLFpslxvJtlQ2LWLhGc4xLFB3JrN4XBcK3CNu2PFo/Y6Eb1S5PuRKMTNbtm+vfb97nA4Lj4ahfu5vDlJ9RnWzOKj6hp3h8NxjcCJu2OFI5/AGAmBYrXuxoY2uKBTyfHU/VU4HJccdo943H8CkaZreg7LYxXKUI4rg26v36zcN8Npp3HTmfYWDeLeoZnpqcEVE9LhWEFw4u542ej2+utUdQMimwUmhgJkFdo8cBiYn5meOng5ZFMkHKiUtemNo5h8WqMEh9CRHETb93gwk65AYtDt9ccVvRlltYhsBjpaTVNUFUFOIRwFnZ2ZfujwlZP42kW3118Luh24BWQjcIuioxA8JMWzf+OZBCGewDHgqKoeEuQAwoGZ6anFK1OKc8A4iJFg7x4XvoLvVuMSknSQmgYm76YylxfdXn8rsENV7xCR1yq6VZCbESaAW6qNQadE5LDCsclduw+KyFPA04o+Jsj+memp2StWEIfjFQon7o4LwmSv3xHYjurtiNwOvBG4Q1V3AGtFpEPTnzrpFayNtweVTAcVXQQZdHv9eeCAwiMCXwMeAZ4A9s9MT81fLLlTvuaglmbzW9bAE0xl8uFMmpbtS68Wrzx0e/2bgduBHcCbUF6HsB10s8Aood0C9TOnyaaX70CVRUHo9vrzqvq0iDyhyn4Rvgo8gep+RI65Ru3lo9vrb1Z4ncDdiv5FQe4FbgYZR3VUhVFUx5P5lzT7N5Bqdahpv0VVHYjIvKouCnJqstffK7AH+FOFvdI8b1e23cwm8PQcJneP+fC0tCJG6JqGtMsVsJXp9vqbgXcCd+TnRRcVeQz40p7pqScvu1AXGd1ef5Rm7Lgb+A7gHcDN2kz4x1EdLape09pIsYxiVlEGqrooIrOonun2+l9R1U+LyJeAvTPTU09fvtJdO+j2+qsVvUWQm1HdqLBORG4G1gLmOVMQOQHsB74wMz116ErK7WjHylMlOi4aJnft3iIir1Plr4C+A9gKbBZYi2SPD8nng4hdIs1qsPA9h4akyU5vYmZFOYrwNOhngd9VlUdEOPRyiEW3139A4Xfstai9i3a1qkb27CcyCabo+/ZMP/RPX6oMlxPd3u61itwhcC/odwM7FdkosEFVO4FcGNKjWWtrNJsawqX20ujVI14HFVkUOIbqERUeE+QPgM8qun/P9EMnrkDxX3Ho9naPgmxXeDOwG3izoDersk5EOsmrikTPR3kyKWo8rUR777BKlFovRzLPq6LIrAiHgf2gnwD5HA2JP3P566D/LlUeTNtL0oFoZpMqWXaKZ5b4rP7EzPRD/+YyydtBuV+FD6L6FoTxNLI1cs0rPC3wn4EPz7zCCLwh629XZbcIO4GbFcbjnCpN8SWO/lKslqjps/ldkN4UmH4YQ59SOCTIlxGdBj6H8vTMww9dNCXOtYJurz8O3AJsAyaBrsJ2gQ0K6wQmFFYD6flJj1HGLMrTCB8Dfu1yrZA7LgxO3B0Furt2r0NkJ/DXQd+uyE5goqTb0fLU8u4Mu7ks2TvWGjETycY3J5XO0yynfg54EPjyzPTUiyaD3d7uB1T5nfiStxvZrPzYsqhxPtNcf9/M9NRVS9y7vf64KtsQvl+U71TRNwuysWUwBkwZGQ5Q10cKT+vgPpxuY57xCM1k6beBJ2amp069pIKtYHR7/Y2q3AP6QyLydmBHdHpUrBJh6t2sCKULdq5p4g+tEkX+T/GMWcXoIVQ/j/AgyKdAj85MP3RZNPHdXv9dNM94kMlM6qOMmLLZsuQy/MTM9NQlJ+7dXn8CeLeqfgCRjfH6UL3mr48APwV89oqvbJwH3V39daB3I/wdkHcoui0rZgLMamSaPGZNLVINHmriGO6eDLyasCVzDKaLTwB7QB4E9igc3XOV19+VRHfX7tWIbAPuB74b2AlsB8atGVlT1RqeGal0a/GchDyoqDAA/QzIT++ZnnrkMhfLsQycuDsAmOz1N6D6vSLyt4H7gPHS5lnLN6cZbJMGpoURK3HQzoenaEhDjCbG6mNs+Oa2DkTlswgfAf7zzPTUsQstV7fXf4CocS+XAxPbyTxIcrC0IqCAvG/PVUjcg2blHpSfQvgulI32iS5shW2Zse/JqME0JNGEzxYAsW1CgprTTV+LF7eCcgaRPwQ+Cjx8JbS5Vxu6vf46hb8B+j8L8hbQUa1WP5LmvNBYYkZrq0WvJs1o6wsZxLSjaWOyFj/kMVB4BOWjIvrvZ6YfuuBn7SXXya7+u0AfLMpj/LinZzNr14tnNpjkXXKN+2Svv05U34/Ie1TpSOr/1swu122qV3haobdneuorl1K+l4pub/e4wvcL8ndotOzjRXnsGGFUtLav2fCQx3pg6F2Q+mC4l/o9lWKl6bcDER5B9UGQXwU9NvPw5ZlQvhIw2euvBR4Q1f9JRd4hsCHfNW/wOLM3o0VSqqVJsqY2s+atAZ9V+Kt7pqeOXrrSOC4UTtyvcXR7/Q0KP4LqTwM78sCaTxRNf8OLPhJuNeYl6V78G8kHcSCu1Ykk/hd/D7/8KEhneFnvR/gw8O8vRAM/2es/IPA71h1kdjunxXcToH4wriqNeyDsuxR+BtX7hKpewUyoKLRfBcmrtGdlG+S2jmYJVmWWSZPpEyENo0sL90BhP8o/F5HfeCkrJ690BHvov6XKTwtst9pzqeqxWKCyz0B8rsKtFKQIb1/EdR4hnp27Dj1rIY6AqD6NyC8Bv3op2yxq3G1/rKaWeYWokt+U8Sf2PHzpiHu3t3szyC8D/WIyW+syiolUGLeaknwS+MGrafVpshlHvkfg/cCby/EaM+7mHmctIIuwRWWQCXn9PrEDfnxbtPTH/GkmnXAU5T8g/PLM9NS+S1EnrxRMNhuEfwT4MWAbkaLHukZQydcKJUsx5ttnLqA2cRUQZAD8s5npqZ+7LAV0nBNO3K9RBML+w6A/A7Kt2WRUdgc7eBZac0piZ7VOWUNmnv+YXviVtTZWk9MykCRtrlQDD4uKPC3wz4HfOJcGfjJq3I2GPy7tFvmIpBdw0hgFDYTK1aFx7/b6HYV3oLxPhElgPHvHqZhE0EoC1KTN/kjtVZG9BpbqN2nn1ZIQx2rSGO4XIaNI5hdFZB/wYUX/nz2XQZt7pdHdtXutIt8vwj8C7kAZtStOGupVJLaXOTUUUh0Ok/toVQzlRMoSHoo8SKmGl7rmOA3JpLCjD1hU1cdE5OcVpi6FuUJ3V/9dij5oVxssCa57URsBvJQa9+BF5UHgbUCntPloPhuZbRsFiTXWqxxT+M49D099/lLI+GIw2djov12EnwPeDrrarvo0zZAG5LyiYBrETh5zm+QVo7qOynGBcNCd2RcQ04G8cmeJe9YqDFQ5KsJv0uwf2HsZquyqQHC7uV3h74jqj4JsRkJ/LN7duT8OaW+gnPXWWoJY78Q+UKR9CHj9i1nxdlwauFeZawxBW/sO4OcEJlVlvHGVmK0O07ah+MCbAb2B1RKWD74dwMt5gKagxQCd7ybyEa8US9A0A1FY2huVZvPUL4L+YLe3+xdA/rDNG43kyOFCttms80x0KREgo0G6gpjc1e+A3q6q/0hE+oiuy9oqQ5jFTIDMRMoWP0TKZM0Q9kwUJb+8gWgTmUmS0dikfhKTbtIeIvMiCDqqqjtF5BcF+aHJXv8DAn94VboofJkIL9m3oHxAhPtVmRAhTXzS8xYJU4hnJ0T2enPPTMAKjVre5tfEsXUf4uUHIaVnDeEKu+XiodRRRO5S+IjAX5vs9d8vF9sTTeprtj+WmsA0uST35/SMmhAXG91e/xbgQUXfJkinXO7IdVyMGURlh2kzYYPAW4ArRty7vX5HVXcI/CxCH9gMFONsueJBMXDY3jPcNuUgmcf22JfL9pE0qZGUR7EXysij5ro2JkqbUf1xRb5vstf/JYH/e6V7P5ns7d4C/DDwEwI7FDqmMfJ4oXEcCPUVJpZ5JJc0mZfwwsjVK4a0xz5s+zibpZm8fvLyldzRhs6VFsBx+dDt9bei+ouoPqiNpmW8eH1r/mgGVns9sQ7Kl2R4g4YwxfCd+F6M0/6SlWJgKYmnycXcS4R0tcL9IB8HPhRessOQHDe/d8sXUsqjIktDpPcyo9vrrxXhb4nINCLvBtbl2qL4NK/K6jpJqxWvS2r3XOeR+MX5ioWEAd/OY2KLqkmnuVH6g8+ksImhquPAfQKfQPnA5K7+zS+6Yq5idHv9jcA/QJlW4XtUmbAVmriJ0mjasZMkiMvTagLb1tOG7yftuN1IbfScaWJVUar0YTWsmPAppO0EqhPAuwSmgXteTH2cHyHnarxIZVBMH7V9UHOcS4Bub/c2lI/S7PnpNDLEiX18buKkNE+awBDOUBJVRZXXXCJRz4tur78OeLeI/A7oj6vq5nhPTD0GOZurcXbU3AiTzXjd9NWQSlx9iCjGXFXzu/TopVXYSBrrdo19NTwXHRFuEfgg8FuTvf6uYPqzojDZ2z0+2dv9APAQ8CFFbwc6dkVTNCtPRCT1T6B5zs2kOL+Bo+LAvhUB1XCnMqERRVQ7qrrzUpbXcWFw4n4NYHLX7tGwSfP3VOQnQTZEwpVn3wRiNux9RcyLybJgq+0qqLzVmmj+UlxWSteRQR6UvMGxhuackkwIqmxQ+HvAf+3u6t+bTvKDcvDPHKUpn7mZ6FGV9xXk7HR7/W2q+u8UfkWjr2g011t4qZZ0nfyiVXNdoulFJHx1PRKKb80QIuqJVs4mTdyqPhBDJPKiuY5j+yu6AfjHInyi2+tP2nZ7JaLb63e6vf7din4M+BDCzfX0SiIx0kiMo4lWWKUq7EOatk4Tr9CezcQqMm/T/ikrM1MNEBPO2rwnk4g868rmYrFd47PehLkDeH9zKNTFhUjZT2I/blxaaq47srxijd8vIhrzGPm32vhpT+QnE3IxspoyREJErluNGmW5/O/bbq/fmdy1+y5VPgb8CsqOpuPF2Vqu0KSpDZPJ4rkWEzaxa+yXPJEMY3uqGzNgiO1z5lYc2yW1a6i7OIlI75vgFjVzzg7oJPCgoB+abPaSrAh0e7s3CPIhUfktkPuA0dy/NI3ddrU8tmban1Y1Qp4ONY0YOUCCxLdq+R4I2vmOiKy/JIV1vCi8ol+UjvOju2v3OhH5eWBaVe/I3DuNimZcjYycNOuOxCtpSpKGrmK9cSzWcgiJWuwmuxxHsorKaAc0aa1yvuWAlNWJdgBSBDqqejfCHwDv6fb6q209FMpDU8468UxQDDm+zJjs7e50e/1dwAzIDwiMpxceRqMiEmxFG3m1eAlL0p431ZXbO7ZvEzS+beP1Jn6awwTCVMwLDFeKGsdSa0NOkNx38nQhRwlZ3wf6X1F+/GVX3hWEqv4I8HuofJdqPPo9TpEjz4mtWPardNCXWfY29RMCkS/Wk6nYNRpJ8mTMzJZVyziReUpIN2rukqI1UCeCrwAAIABJREFUmT3Fdk7P6v2o3v+SK6qGxnxCAYwpl6QBhLTsb4uVD067eM9p2Pj368ADOZ+KlKdxCkMwq2KlsZSSHF0mTDb+2H9ShE8LugtjXlHWmaS2tRPIZK8usZ6LdaE0tktsH3L/SSYYkN2UxjozaRTVJqTxLC3SxjRDJecJlElDBYG1qvIeUf10t9e/yCtClx+Tvf59IJ8GfQ8S3TFnD172+c/TK6PUYXiMibHqt35+Fdh3qiX9FNcdVx5u476C0e317wL9V4reL4hxXxaIQlKtUyxDxoe7saMdHlybT/NyJc/urfspM/YmwhJ/AsY7ldUCxvSUNPJr0KyVxrfYlQLip+qECh8S5Nu7u/o/G0lrtFdPmpv03ZKAqMUweV3mF27jS5mfQ/XvgUxYRp01fWaAtZOO+CPWYyB4aZJEGPo1GhyQWVpRTjEjvNj9rvnVoWV7a9CWRS1y3TapwokbI8vNlSgbEH5xstf/CwI/czV53zgfur3+BuADoD8JOpqen/QMZPaXHW+Yhy3cyy4ZhTyJrVazMjtPQU2TGC9PoW+b31Bm2bSXIhonDVmOcnNxFDFNvCYQ/jbw8MWov/SMW/lC/nGMsasLsW5TzVYTy5eDbm/3VuDjoJM2UbtaiB1vLEJdi0olj4ZJkz5+caQ8P7q9/i2K/guQ7wfGh+wOyfO/uKJSe8iJs8ayn4XnNlZ5euZjmqFuzP2my5rNqzFvTB2mj7i/qhp/xYwVxPmEmKEqbdDeqcrvTu7qv1eE/3AxT+G+HOj2+uOK/l1U/4mKbMxlS96JzHBtH3xIlZHC2E4Y35nm+Ydy3JfiTlvMAfCti1VWx0uHa9xXKLq7+g+g+hDI/YKEdpaCqWYSELUpmdBZe+nI++z9+C5Nmj77zEc+KZo0LQWCHV0erCvyndKVNHmwg0lc6TVGHoZUgiCjwA8gfELg7qTNNC/49DJK6gaGXxaXGd1d/W0I/xb4B4hMNPVgyUNeGk3tFV+4BTmP9VgTiNCGdfHMSzERuKjVskmY6hEbhiqb4Wyb94ttN9POph3HBd4N/LvgyeOqR7fXvx34CPCTIKOxULH+xbZBqFAVGW6aRNrLsClM6qZ2H0i4FgOZCZgU6TQv3pRn7CeBZKpQ9KdCJvOQS254ULmr29ttfEa/PNhs4wQkTiAKcy6RNOGP/fNiPa+Tu/q3oHwcmATpxHpOda22gc5VGIrxJGz+PCgiey6KoOfAZG93Z7LXv0eVhwT5AWhOdbXQ9EfMO6DseqmoRZMTVmIoxvbcDGY1SXJ8Uro5sCXwtR53yOgu6iPiakCMG+UJYVTSBHQDor+oqu8Ptv2vCEz2+ltQ/TDKBwXZaNuo8CIV+leql6wyDyurkAxqQv1ofD/mxq8m5oq1d88rIyYRWOQKbq52ZDhxX2Ho9vqj3V7/XYh+TIU7gE7UXjcbfuJ30kOeFi81mseQlk1TnHS/DNdctwNDHLTDABvzoVbglTZ0dVpgNnfZe1EHGQagLGMmhEHijqq+TeF92TRGcnnjIGcGwyZULmuS7WW3yvnR3bX7dSp8TFX7qjqeBltbMeaz+Bk1Y1atGi9H0yVjKlOYPaTBPuqsjA26VnURyEh+EUgZRpqXK+FerOvYV0q7yVKe3J+0o8oPKPor3V5/+0Wr4EuAyV7/btCPqOr3AqPl8xH7kqnz1J/zBlPbzvF7DF88Y/GlG7Xx5jmO6UmKr7m567TNcy1Dzz7pe76Tn7sYD0CFcZDCHO1lwZCGVM66HLFepIx2MZ7P7q7+dhE+qsjbVDW/FzU+D1qY6mDbJgoppWmR3ZwK/Cfgkrou7Pb6oyDvBD6GMInSSWN8MV7YutaqX5CGSlv/aQxJ/a8c21PYMBLbdsl9zMgheWxP441pyeIdFKTVOGZJVQ7T+eNzgbIWkX+o8KHurv5Fm2BeKnR7/W2gD6rwbkRWR+VJ+j80s8VMVMKzEpUy4V4z0bXRJa3iAWnvRXp7pggN8kQuKs/4cvjvuMJw4r6C0O31x1F+EuWXUWk26dgR1D6YxVomafBL+gzJGqN0nxxexD7ozQaytImN+LJq/scXn6TBNY+1RMIQN0QlLU0wnUHNWBLNP4xuPY0u9kUZXi7NKLXOvtkleTzJ5gBWqxm1G6nqzDvuUmGy19+JyLSo3ofkExkltYEhUUnaULcSWyCYVsSXVywAWfsSUW7+tVpNLcqfV0FIDZbdjZHDlxUcUg0yqulT6Vp4uUucKBg75dC+onyPwi9PNqYLVx26u/r3CPpxRe4D6ViSlvtVnOREm/NoVgSxHozvFBozhNyHo/bSkOVU9/mhCG9x00NiHabfKV42k2vuVN4oDDFPOcTnQ0tN6MXRcVdQMykBov169nKRh4dIlpvn+eVhctfunQgfA95paE3r5vXkcyNx2Nh2+VlJQ1hoFkX2ofyrS+n2tNv4Zv9+gV8Xs5G9Vs+m/hOJOVFDLqaP5PEvj+2B3Nl+ZcZ2iONBHtulliHlW45BcaIopt8W9tlixpH0bmhC1eZKqvm6oOOC/i8IH53s7b7om6kvFhqTVj4hyjsEOrHFisUvINZ3WpzTsp6atrNjQazy2HY5HrEnm+fd9pW8IhIm+cgx4IMr0XXvKxFO3FcIurv6HUXfo8KHVHRD9PGcyXCzxGxdR0EYCuK7J70i4+OfX9rDg6SZEBA0LJEQRGIWibxkkpxYRHw5pBedsVdN2t+SSNul+pJCCEkNl7Rf5UtVUm3kF6zmty/xxVJvoJUys4uO7q7dd0uzcfh2zWv/6QWIkbmY/CTtXiY1cQNZJhGSwkkoUNTQpD0F5DRCBWSCqaYtQzWVfcB4qkn1WFMF8uTM3CP0xUITGMsucUrAd4H8erfX33Kx6vtioLurfxfCb6nyukRsgExdLOnNbCVqza0JCCG0NVKrV3tiH0yaeuweAvsYShFHUqvGjhy+ayY+EAhWnOgS2zisjqTJVSQTYvrLxUQjY2z7SJHLcoWrpl5frhQNaZePo/q2NOqk2Uwcf8iecOPzkdhTlaDmvh/q/ZTAj808PLX/ZYp6Pnwfwr8DtjRFkNR2sRk1/zKadUnjQXTzGNu/6AfFmGTGAjMeaLqfpqZNvDieW5V7eteEX0kOkpY9dfxQ+Wr7v+Y8hp6jYhyXDvC9gny0u+v/Z+/9YyUtrzvPz/eq1eptIdRCiEUMy/ayDPIwCDGIRbcci/EyHsfj3LId30r8O4R4PDaTENvjSTyW10KWB3mIQzy245D4Z4yNCXZdm7juEAcnHo+HpWo9XtaLIg+LWEJYBiGEEEIItVqte/aP9znnOU/dC9zuvj/qdtdBza166623np/n+Z7vOc95Bge3oJ23VHr9wRXAdw27KvQz1DZL+gPy2Cq9mdfguuJTPXK5L6zZfxEMfTOJ8hoea8HzwEfGo+H3trTyczlhmQP3U0AW+4MFE/+b0McxO1Bhqm+29EWYpAyTDS6anL2usEPjt7qjgJI2w0LEX08DgMzi+aKfUFwbPlGVcAsPYXoxaDho1e+aGwq+tKsu7w25EN8u4D0BpxZUbZ/0+oNFpBXgwmkVnUyMeJdj8N3okCUQ0Wjg5IHwBdZaAOb31Yw1RUpBwnCB8jvtc0tRWPemtHkYDgruGTfivN3bMWOp46OnXw18dXFpNhizxaXlyxEj4Pw6txzoEBuHLYH4auSmRTMQUJ2S3um1P6shlvwh1SBIRlmw/GmMJGq1FMGBnF5k0SYMPa9BflYYjd14OWrYC1vSqJb7vfxc0T1VdSjaKtrL78MvHJ90TKdWBJcGRPG5lXSmlyfrBDeaHcTnLFjRH/AC8H7g3uMu3PHV4w2Gfd3MYo7kuV+mbTs+cN1bje1wI5TXThTkfRqh65NuD3JgPUXcvF33uTncLD9ZylTXk+RRTXWJf6rlzmvZukJ00+9NiFu2I43piUqvP7jKzO4046JYfcq48nMaQt9atQjzmtn2J2GQGT5n09qWDU1zcJ/WlVirk9EGDyC9BfjCNjfHXI5D5lllTgFRt6HvQ8CBcIMnoBCMi1VF6GxrVboEYw5T4K5Y6a6c66MDUr8geMqMZyQ9j/F86Ew5U2MHJZ0BOgvZuULBfiTMEmXLEuxVrnNiWaDBjE3DtPdMP2PdN/Dj5vMztgPC9/qDy4AvAhfBOp0aQDa2Y00vhFMVNk230frv+IWSaeSowdOSngF7Dng231MGzj7QIeCQyc4WOqt97pRB0dRjakHRVA/6+EsNXEM48uuOeZf0yV5/+XfGo5Uj7JL0+oNXAH8CHPZrXVmb0Vv+bzGfvI7T9a9/E0KMz5tx+DzwuMRjmB6T+H8NnhE8gbRWy8FhOh3w98DON3SOxLkG5wnOVPm9aaAUEzCK5uXZoBEUtXtgMlp57uVbbROSjMgEwQKc1frVNovWya+PQ3r9wSsMVtTlpW+nfBAPNL/T3VbnXR71rbcCgCPAJ4HbtvSU2SlZ7A+uMbhV6KCHG2aQ7OTNOs5iXX3SuLAKkpu2dX1ZFgyTnhM8Ytjjkh7G+FtJj9PVPSvlc4HzMfv7ki4CzgPOQ+yb7rk6AqaLmucLzddqPLfWjRsvq7o9T78h6f/r9Qe/v9vZZnr9wZUYt0u6CLPG8MljrOpbr1nVueEZT/bWhoRTzCGFWvG5H6cvE3PsGPAE8CBwJ8bd49VT+1TavShz4L6HpRxYcw1wi8GZEUIRTFmxvGNmWwu+QytbZeTji9PO8ACSa8DTwh4z46cS/xHTY4hnBM8avDBZXZ/Kb3FpcNDMDiIdAp1Dt2D+Y4yrTJyP2ZmWFgsgmLiNgXx7n5LSjo2SVNYsV7CQRQkVJGY6KbGAjetWvZOTcsLrrcCllPKuX1yTudIoWyfXI4a/1rUWvIAOizaQeA54EviZif8k4+eSPQ16BvS8Gc9PVluA0W1240zgTKGzDA4LenTHXl9opnOkLl+5F3kDW2hqySnlc1dwKSfZqIzvxaKyAPwL4P/p9Qd/vBtxlr3+4Fy6eXaVl7H2VxkzKQQlGyqxEa/2RRqnirqn9lnrjGD+BvgPBhOZPY70xHh184Cj1x8ctO5Y+/MMXS54o8FVgrNqHRwI1PK4O701Jp3vF4LnhL56/K34YmKsSz+VAPs0U5w9dunPpmVxaXCpGbcLLmbaUI8S1ZCxPP9awK6pv9GeR2T8AfAH49VtjWu/1OBzgvMooS6tUdaVzR0aVupqaZ1oQFt6dvNZbf9jBk9K+hkwEvwM4zFJT23WOFnsDw4JzrWOsPindOvXYaBjwjOR1P14NUIae3J6Lk2p85hQ3d+OxWc/2IcNPbbYH3xzso0G1UtJ2XT/dcRFbpBG4FCA97oCVY9U7SWLa3GpWfdc0m4wJHse9IyZPYf0mGFHih56AfEE8N/M7EGhxxCPjkfDXSNJ5vLSMgfue1mMSwz7otCZcpAeC2xZkK0CjIiLzu7Rjp+oC3e9RHalYrwg9DfA18EmGA9MVlc2DSImq8MX6FzHTwMPA/cBf9rrFPmVSP8M483WHWO9H9wDUBRYMCft4lObgkZ7V9aiRv6lx8V1/264fstfFfBleUXYAilg+BZgcd2HDYBP8Y4JVNV7WtRiMJWz2wAdpWNq7wL+woz7J6vDZzZb1gKQnyn/HgXuB77T644Wv0TiauBawSswDvrC0y2cbTylFzUbKd4fzvpGn+YFutZpv6QbwR4E/mqzddgKWewv7wNuBF6XR0IN03DQlBbZBvWWERiLb2U1UywuwDGwx0HfQPpz4P6TYWvHo+ELwGPl36S3NPiSxJXAb1pXl7OAhVzWCuapRmuqj2AN+AbYj060XNPiYTu1/y3GRIx3o72nfHMjXfBSstgfXCr4upldVufK1BRvwOLU79PwIM24La12TPAHiJtK+2+LlLMDbhZcEuE5xf4J/FfZ5mY+1n0vasdqQsIZE5r0AnA/2O2CH4IePtFxORkNn6Xz7j0IrJZ0ja8C3iJ4PeZjMvVB+b9yo5c6uZ7sNloW4991+5TnqBzUdKZkN4F+3tVpZ6XXH5xj2JeFXoHXJPdTMuZr9wQtE7rV789jMdaweDAIPW9mDxt8V2ICPCzp8d32OMzl5GTrEMlcdlQW+8vnqHNlvdryxC2SwXkL3G3qWvcmwCs0iyToBeBbkn0N9OPtdPv2+oMzzHizxAeByyh7MDZatL0eZOUe8XlJuWe2LBbhHBPZtpkrvynm52OT0fDfbkH99gEfAD7l4Dp+j7YPXAGXhbNOVItlKgE/1WfVKt9PZyCsjkfDrQlp2KhOS8v7kF4FfNCw12PaRylh8lcn/i4utUwRvvBk4MhU/wDi54JfGo+Gj25Xnaal1x/8c+BzQJP+sMaDTs+ZZBSr7umI+jT0Zky+Jw37pNA3x6Ph09tep6Xli0HvQPyamR1uoXAFzRtc+0PQR8YbeNVOuCz9wVvNuMPDi8J4KOAygMgGTHEVu348Wvnjl/mdSzC7E3RpQL7kfZwG75XC9T95nFr+qFwH0JfYgQPEev3lW4APmLHgCG9di9Aay+DFznHlde9CXifKvcfAVhGfE9w7Hm2eqDnBOh0GvR24ATi3qUczZ/IHXva6quV4d2esq14vdTa7D+mf7CSr3OsvHzT4NKZ/sVF/wbQufJH1qXmd1gMPjO/0ybPAbWb2NUk/2851ey47L3PgvgelMJ6fAd4X+mzaVTq17kxxFY0kMjd/54i63MM3AQ/u5MRf7C8fEHoD8DsGV7ag4vgk192lbYtpGLDhr3xsvDXA/TUY/wF1HoX6k953OZtOW5IGXLxIQ5jZGuJ+oZuBu3YypKQYJVcCvwO8iWbj+wYFnhqvG921keu3yNDgHZMdYI0W+4PLgf8sOKPhxkljKjO+G9Sru7yRhwiEPYf4EvDJ8Whl2wH7tBRd8lqwtxi6GuOCDJILKDqK+LHg0wb3TLZ4XPX6y281dIe/D+Ce5sJLSYEuLwncPeUe8Irmuxuw9Y2RT5qL5X+2cbnWgD81s9+crG7vPozFpcEbJO4ADia7PQiLaUMkew2n51u+lt4fM7PvS/o42M/Go5UdDU3rvAn2PtC7SXuAoAXwTfkzQUOqUzKuaa6xJunfATfuhJ4s6Tp/18QnZLbPDXgnYLIEGVNSLFfDtRpZoHLyefpu52l4HOM2k31e6Mk5YD81ZR4qszflzcDbc6wi0MUNp5i+hhEEsnUOFRD51C/3rQEPCD5q2I8mo5Vtc/e+mEy6DYjf6vUHPxb2G6APmnF2ZnGz5yBY9Cm22pVdpwMLoHK3pOUFOD83ue0LLWKcvPT6gwuBWwzb7xkzGsWdF2Bgvd8bqms4lbwyNE9K+gzwp+PRzm8mKovfZHFp8C7B60z2ceASjIWGJTWLjbRucKJUpzh3vSHsaWoulsB+nW3OdFAObvmcYWfkGPwIBWoKamH45u2SG6Z2rH32E9BHDO7dCSNkIyku89Vef3CPsLORLjejJ1RAof5O2L104RHb5LmpseQR55uM1Bg7Spv4GgPJXnKSLvaXLzGzFUkXW8yv+pWqS2pYCc7U+kzzk0KppGYyL44hfQO4YbtBe0mNegvGQS9DVx5REW32LLp+JEBfrScVBHZ1XDP0gMEnEXdvt9fgxWQ8Gj7b6w9+D/iWmd0g6ddknGWuHEM11vlX9UvWE0XXl+daMW6KPloAfgsYAdt+oq0Z1yDeL9iXDY+8ZtVxHysyvlSUt+V7KnpG2UJ5wdCfmdmnJD082WFjay47K8dLYM5ll6XXH5yP8QOwV7hV3knijwMYls8S2K2xdKTeL5pQdgT0Z8BHx6PhEztVp5eSXn95wdArgU+pY3T3BcZNi9F6l4Er9E6CxQv9uAGPOx0iUx93Uox7YTVvAf6lYQu+0Lau+ZZ9qZsBHSi0G1jDaOkMrZ/SZRWazMoBGYvdSZQfBxtQQGCTaaWpU7OJNuRlYpefMKM3WR0+th3l7/UH+zB+27BPCS00tGTTb8noi/GlBC784wKQujodw+ybJt042cGQn1mVXn/wVqBj3N1IS9Rq3vswbctWdnljxr1s4Lwds8umN7g2hqFajTC936IyummsAiaOCr5JFx7z7Fa2ywZ12U+XqeZfeSV8g7cbhNZMoErgZO9Bc0Pdh/K8wW3CbhmPVh7Zznocj/SWlvcjXgW6yeAqGTEXa9+nLySDztKAKWFM1ftQdcsq2DvGW5UhaaM69AdnA3+JcYWV9ar1viW9MVUHr2dDcjgh3328BjwEfIwuLHK+ofQ0kHke9z0m1gG0i41uwpt1LHFLOQUPFdwsJMalsJ7xzE6/PQP6CNh7ZwW0A4xHK2uT0fBewbKZfcWwI26rqL4oDHtZ3M2vWTpptdN2sehajT3uXlg5Qtpb1vmOlyTzNiVm9mrgnRgLNTNH/f2siP2QkciI42tr6S9n/ErPHgPuAn55PBreOyugHWCyOnzUzK4HPgT2ZLRiaXtUAW61Ruo9mWnq8hjHR/7/8wQf6y0NmrjzrRIzu8TEB9Ud4ILFL3unpPnlw7ASgvW9M4S1z44Y/J6J6+egvZPmkBj3WFibq7o7lMcK6Cm9YTZ1OmcrJTzm62CXBbmcf9f/7+xluqcOTb/QfKnrV3EMsx0B7UWuMvgXXmM3NSIjSSqmvIxWVwD5PMoN0c25J4H3CD44S6AdYLy6cnQ8Wvkh0JfxBcQLrs9jflHHEFTdnj/3eyTC61rkdZiWtqv8vf7yAvBhMy5nqo/CW5q8jNXjlOrD9Bg3J66OAt8x6I9Hw+EctJ8+Mgfue0gWlwaXgP1LxALqcrl2/zJAr6a4p5mqovJ5Ygg7eVpwHfDZ7d6AdKIyHg2fQLoB+IjFwS/JKEkvKsh1Nkr+rn6uxHirfq74j/XPPgHp9QcHkD4CHKqb26Z+P6EB70/X34ruTKXo+vso8McdWzQ7hlaWyerKC8AXQG+U9FB4e9TWpQKLZJ04ivP700cOmoFfM9krt7rcvf5gv6QPCjs/poyXUfVCgKOM5hoLK9VRwkxHEDdNRsOP7kYI2qxKzV/t3V4MaLX3+L+AMKW96ya9Kr3+8iuA2zEudyuwGXaV3GzLgmNbpaxB5V6aImFm30C8fydA+2KXfeVjmJ3hQ6tmKlIBfxtUqhmTzaD1xn4Q+MXxaPhns5xpZDwaPo24AfgI6PkmTIQ6hlzBu46tXr0yTixSmvqI2WfYhxe7FL3bIZcZ9gF52tywndyFkw3HGtNeM8MRRmxH1BVz0zgmcRNw3WS07afyzmXGZA7c94j0+oMDdFkn9kfYAYlpMIt/03G1lq5FaEm952nQr4xHw+/N+kaWyWh4VKbPIn6ZLq1kLNcNex5NUl+rKrx62wYElK/OmU09Scb914SDyya9ZnlwTTcXHKBN18vq7d2rI4KP0jFkM82yjEcra+PR8Cdg/xT4oa9VWSxwhDPZ1mCQzJaaA/qun/YLPtbrD87a2lLb1cCbG7dUYtabkwyhpA3duLx1TvKCsI+NRysnvcn5lJN13q9O2nasbzR1q00NqMX+4FIz/TkdaKphBuQ5bzmUvT7HWWpZk/c8/y5deMKXkK7fskOoXkYEbzDsmmYulAplz0B4Gxs9Y6FHnK0GMOlu4B+PR8MHdqIOJyvj0fDYeDT8LMYy8GRWzNkj1i5vuS1qP9Z9QiDpMsFbt7q8vf7gDEyfEtpX4bgboV1pczhnfV3GXiLa/UCszmDRMxJvw/i3u7UPYS67K3PgvlfEuErodVCYlmnvWZFgpZrFzPkZS+9B8KRh75D48XYXf6tkvDpck+mvwN4BPNUtZAnooXTgTVboDrxqo4XKnGpDX7+dXD1R6Y7Xtg+B9kcZPZxnww7MG8pSuI4pGVtaM+P3gT+cpdCYl5PxaOUx4F0GdwvWKvjNiLf0i2UwZqVNEvgIUG9gvAr41a0qZ5cdR79pxpldR1kNWfKyTMW0ezhCVCFAYok5FkcRNyN9dqvKeUpJstLyfM79XoFpi7bDkCuy2F++RNadiOohZ8VDhXekyjPyacO+GT2+Q8fO5nMjSlmPAbcB75/sUGhCOfzrQzLt25BVj3FHfBahdl2Z475kgH5PXVjkU9tega0W8VeYXWfYc05KVd9y1u2+ZTd5HIr+iOaqeuZXekvLW5usw3gd4tVe6Ky7cA8AefRWj171KDUfgngC420Y3xmvzjbRNpftkzlw3wPSWxocRLzfZN3BROQJP30AiYUidzehEoPp90h61oyPTEYr98w60z4t49Xh2ni0co8Z76U7nhlIjJm/dzdxAPuU+zxI23S/eey/g4VOThi7m/0q6KLuIap6uzAokRcngArBugTQKItNMcjWgK+Abt6L8Yzj0fAJwfWIuyWtGUQWpGgAB1keEqGyL6ELTg3vRDW6tA94z2J/+dwX/+XjklcZ9uqK3Yr5V4yuGm9dbnDwJ8i529zmK3P0zwT/fpZDEXZVwiBTBZmksJgGd6q+DuO3e9frL18quBNxcTCqgZeMHELh8w6SQe3qovznIYjp94+a8Q3g/dt5uNIGMjDs0qwSIvTDDZN82FnoDP96YdojdIR7gBvGo5XHd7AOWybj0XAN6X5JP/MxUwkPkm3igL0a1s2er+apOs/EVumQLvuP+JCZdcaAEeM5u5Es/b/7yMuqVOYY7Y8Z9t7J6vCeOWg/vWUO3PeCiMsNe21NTUaa8N0N/kEQUMEcVQBKjSE+ama3SLptR8q/TTJZHd5lZjcIPQWFrZhytTtz4WC4gsH2fjO/Xpnfurgfvyz2B2eYeDd0sY0tITbF9BcN3YagJtasMrwT4HcmW3j4zU7LeDR8DLgesx/XfqAxPlsjsxPnoWIJU2WsgMuE3rQV5TPjOqFD/qs+TioIJ1zdOazW7475Vypmxk+AD2/nIVh7XXxOBtzy8Z69MAWotn2Q4971D0Ffx3Rp93kCPHVSEaaUqmFQr6Znx+u4dkzwTYkP7mRfLi4tHwJ+swu3gNpGXsD1pGzzIoH8MoceMtNvlnm4J6UIQsvnAAAgAElEQVR4IG4xeFXW8S4+ZxtvKxTDv+1xi7WUg8A5W1jM19GcQVI9AJH5J5aBZOKnfmtugicFN0xGK6tbWMa57FGZA/e9IddinAEkIOmbbVo23XPZ5ok/rQxkulvSv99rTPtGInEX4uNmdiwztEDSeY6lXIXn8IwMlv3O7h5nek8MunOl0Ctj2bAGBDT9WEvUBtDU/WYG8KTQ9TuUvWJbZTwaPo70HsweKZbJuvCurtqlNRzTBUMqp6IobbbPsOt7S8snlWGm118+X+IN/r6NRkh7StooheZVU244Itl7diOv/l6SwOzNRCvGWXlZX/jH7awUvM/MLm9p1JpOderbMXZiE2DzPJu6GczsG8bObERtRHoT2IWVqJn2OPhtgLX7m0LqteeB90xW9+5mxl5/cL6ZfQ3jnYKFqsupnhsgwoXKa3B+pBqFcVaHGTI7pu6U8JOWxf7gDOA6nG13qcwNzYIQbLuXy8vqc0BH6fY0zUH7XIA5cJ956fWXL8Z4Lb7A5JALgLTwBKgoC6HHg3o8cVnAHkLbfyT3Tsl4tLIGfEnSHyi3AeAL8BQcrBemgtgjny4OrolNrccjvf7yfuC91oLLxO4XhRyPDoo2cy/58yPA7+yVTWSbkfFo+DDS25DSOEybPPGwGPc61LFfKNpYpwXIdLEl0H0iYsZbgTPrGKiATtEfJfmehd1Xvqu40DFqOgbcOB6tnDJ9tm3iOkt5LiZvWLxMBm8ZC2mvxL7WAHDYZnWcTIPx0Af+1/Wo8PCL8uUvSbp+sgteExkfxNjvQDRIgO7TKKOHb7n+sKQLS7MeA/vkeDTcM/uZpqXXX74c+GtJr62KPZ27UU/GcjdeURvVPeH7w9zj0t0qkJ4FtsQLIbOrgStNCkZfUj3DItadut+iFC+8efU+A/g9jNtOBaJtLlsjc+A+42KmqxEXxPvs/sXBBaGdfQOdNb790HHHDPso2J51k24kXeyw3Yw0kcebQAF3HiCDr2hlUd7oSSrYIN2/UdzGy4ouELyqxrFHZ5U/ta+6F63XpOa1jkJ+CxieQEFmWsaj4U+sO1DmKNAALeF7N7p7K16rLvCma2QHZLruRMuy2B8clPTLYO0BL1P9H2uu6kdtFpyIp70X+KMTLc9pJQmPN5mgfJ5WD0YF1PUKNc5Z0TeJrYzfyGx8pM72MSb3yTnmMyStmeweTDfsxp6SxaXBKxGXRgxdMWCTXujq4t4JdcZI3etTvYXWnX77hztbg62RXn+w0OsPXgv6C8MuBkK3l5d1U3HW7RJ+2q6LxfqQ29Aw+OGW7VuQ3mU5bacP30zcUAzHAs5db0SJYgnSj8A+NV7dO4kI5rL9MgfuMyyL/cGCxBsNW4hJbZUZrqRDjYXOYSJtdg5h2F1Cq4WlPqVkPFp5xuAGOndw1LtmiGhTKoYrMq7UDUwu7rY8AbnGsPOCKe4Kkh6cGERIRldmceMkx8cw9uRm1E3KZ4F7gzF0JhX3eiTDywpoSR4l39xaiKure/3B4RMsxwVgV2VG3S3eYC/VutfT4tqU2bCnBZ84Vbxa2y01e0zXiTY1P52hrBEG9aC07vvdczQN0jwcoujH+IdjN4tnWaHlI7OMtGZm3xe6dry683Ov11/eJ9m1Ziw0usLqvIgMO5B0V9F7lj0Oelbopr24z6JLg8w7zewO4FxZTs9Z+7VGH7ZjxzcX11WQ9pWBoacEt29ReQ8DVzdh7MnYh0rc5DVdyuUJPP8M8KHtPNV1LntT5sB9hkVwmC5WOqUuU7ArxDWClKksscqxyQXMy54X+sQpDACZjIY/NeMrZqxNx/XHhqDacBUQ5IdMK1hlZf/y0usP9pnZPxNaUHRI5I9pfyMxP74Edy7fWkbgc4gHj6MIe0omo+HzBp8Qeip7iDqxaJTizsbBtA/2dsxzAE44XOb1lA2AkSUmdUqkaVMAu/bbPp46YH+X7aEUq7st3rcx35xVVzXkgrp0Nj30Wp6gNT92jBclBjrd7kSHg+Jg3bv71oDvI3Ztf4IZZxt6vXIVEwAN3S4HrdVzEF5Hb1fsLrA9Nx57/cEZZvavDW6VdJaD4Kzb19V/SrcXH3R3mmoYh1TDpxsv3wF+ukXFfg1wTjbqq9OoCd4q4U0050BE2bA1ZF8aj4b3b1G55nIKyRy4z7CYsQic1YR7YClWMx07kWZ+F9dX7y/XvnkqxUi/mEh2s2SR5qw5PCXY7CmXvDNt+Lpds5ccD2gvcgFwmf9G4sOCSc/lyMxPXKmB3g8Z/OmpH9to9yK+E2O1u4b3Rl5s8zHmSgtg6d8F4Jd6S4Pj2qS6uLR8UPC/WpoyYURNh2UU5r0Dh57jPc81PQV8frKHcuzPjqT+1NTGVCM8Gx77a8pzxdY9Kua8AvMnfVD+qujTRn/aXwHvnoxWdu1EYomrMc6HPAZT5qVyJbyu5e26PTnGc2b6/KyeiP1i0utOiv2cpBvVZXxJVksdJ+4Ra7LINLpd+C7/ILGgGnXwc9AntzBVa9+gybff2oRepjrGu89L2avR8YjBZ7aoTHM5xWQO3GdYJPunQMnd7tdEs6K5675cyfGNAezNHkf65M6WfndkPFp5AnSrma1Vl3j3WQZitcXqu2DirF5xV+ymxbhY0vnx1DZUqf4tYME3Foeh5X7f7nTGT09Gw6ePqwH2oExGK8eAz4GezJvqoDKjQMOuplvqot3179XG8eVjlnQOcLnKAIhc/gUoqWB1ix6sYRsZbBZX/W3AKW8gb4dkwznICDeSmrvoQkGcla/MablDwcxXx4gDdeo98aM1atyM7yO9ZTczAfX6g30Yy9P5rBzwuV4PBhpn2at+sQC03C3xNztfixOXXn9wgcFfAL+W86DjL1RJlvCuOPliNLq93lckAs4B7Cng2skWpcYsYT3XBNcfutwXoMzOpPUZSyPcAFsT3LqbhuNcZlvmwH2mRa9ujq4mswnrM3DI8kFMVIZB+tZ4NHx0J0u+y/ItpEfqCYmWAHmo+7jZM1PEiY0BxvAvbV5kv2DWGVu+wPhvKBbTYhakeO66qSwY5kcRezrP/nHKQ4LvdS9TxgeCTQ8w0nVJOkwrM2ziANirjvO3DwPnuUnn2WPkqeN8DGRi3f30NP+eNfHlU99Dsg1i+dwCglkPw9kxK1Nw1mrWGPfOuAEem1uz56YC2jTfBGgNuEfibbudctXgPEOXuS6IQ7/ciLXIye72f3zRAazPD+BreyU8stcfLPSWlhcx/kLwSmCB4mWpqXFLm/igiOB298a0uj2MukSgFIX+JKa3yGwrQ1Guxr0D0IJ2/21r38ss+rMaH3qIUzAZwVy2TubAfUal1x+cB5zn4CCDvco0xv/KujXNS4HBk7ZFG2/2kDyK8T1HAL6QudcUppb/HGPL1OUAcpsVLcZjkjekxtz6fYnRdZdpjQFZA/5kh09n3FUZj4bHDL4MHPUGD8aqLL7yExADNNc5EEaQCUn/uNcfbFq3mdkiVnRhZuSaBb+ywZY+83HVeUzse0KPnFxLnI5izWuP/XXxMPfom8xl5Jhuqn7M8zvijfNY8Xu7PlwTfB+4drdBOwDGhZJdBMleDAdBeJZwiCrVNrOYLwLsQeC+3ajC8UrnZbA3I91hcEl8UHC2p/qtLHYFxeaeMveqMKU/3ENh0W4PYfbuyerwR+PVrUvUYPALlAP3wv7sOiWIIyt9F+dCQJfGMj2EjsDYk6fazmVnZA7cZ1QMuwxjIbtG8wJXPYeVkSTdmWiYn8DecpWerHRHYvNtE8/XzWk1HMYXtmC5oSrRwmrVPQMWYP/lpNcfHDK4qHuOo4W8ISp5SwtzVlnA5lFPYXznhCq/h0Xwc6Gfemc0zmPr8mtbCQmoXpJ0U8Xzlxqctfnf1f9CLP6Ep6RCIyf1E0D0cZEYP8HtWxgrexpJgtnZG1XE6ICbPMdt+uNgrvYXpR9rOlEF4A/0W0EgWkPa1Y2o0yLxKuKkVLdaKGNP9c0UE+9hXWlK3IMx85mNyp6U9yHdChx2b0iozWTIRUad7k23/nn9q/WGZ6gKEC0hsYZ0nxlvG6+u3L2ldegPDgguB2KfQcc3qOolmXvAq4/Oyx0eBJ4HW5l77ebyUjIH7rMrlyL2RTaLrLyoygFcQVgDDGtYsG6fnI5gwngIeKBxi3tIRWXacHVfjZ/uvqr0YznYxE/aYcEZwZ6rLroRAuALjxtcAQYrSyTTT8d7+HTDk5AXTPaXNc+9i+oCGO/rguz7OrruNYDDMg5t5gcXl5bPQJyHuXfFwV1FQEp9VHO2++bJKOXjSD88ibqf1lIdUSna1+oeA8jesvqtCBqxBIaqn8sfWcMnrD6gTNF7DN49Hg1nJ57Y+IX6suipouPrmKt6KtSHe6a6K8cw/fV4dbYBYK8/2AfcaMangLMtzbkaaZI8lcWLmUOdXM+GwVJ0e3R1Z6itGXxDsDxZXdmOTC0HwC7x9aWeF5cpNx+VdRDGp9VQvV/ooW0o31xOIZkD9xmUXn+wT+jvAwngEUyRT/SKGVqXYPc9oDsJbqvSXO0pmawOnxH8CIgVPxg5ErB2ptXXgArjG9W6GRE6bHCGv4+Y1OlYR19sfc2xyjBKHDPZHcdb31NBxqPhmtB3MI7ltbo4J4JhjYUvJkZeEAE4F3HeZn5T0tlYYecTZq8b3hw8OSBc35dl0b17PM8kc+KS49E3YN19zjT7T7LF7d3iRlyaWx0bne7tHoih+zDeNZkRph1gsT8417DuwD3X/U4iOF6nhvv4WQYR/03U8Khgpg3Jxf7yWWZ2h2G/KzhQl7HkbqPq5Uj/medfhM+QDLI6hsqFo5JuUGegbUtfG3YG6HAzxlz/U3VXBvDVq9h4eP96vDoD4VpzmWmZA/fZlH3AYaBbhAhU2YnaA0hgin0o9wB/YzA7TNIOi5n9oDtqmoZlq65kCwunpuNK7VoA3Kahu9m5ggP14JhqeGUWMbN+3rXpNL2ndJqFNk3JzxFPxcbBtNRln5Ofa5DXeM9tXRbIV2zu5+wsxFnRx6KwdZ4L3MdAZfXLpOy+3SGqowb/aQvqfnpKdGubBaZr2sRGel/b+u/G2PAJ3sQ811vD7BM/E7xlvDpbWZsE53fGZK13eB7SfOiGYYF9KdwP9zDCA+PV2T0AbHFp+WLQtxFvBhY6HZ09on5nXuemDp1y3VzAvto7KV7oRwS/DPzx9hrWusi6dZtMKmTPeOWJnHxL3w7aQX+1fWWcy6kic+A+g1IUwDndO1UfMX4AjIEplHlmqap7H4D/Y7JHMgpsh0g8aGbPFo6KODzHP/d2q3Rc3Ffe5D+bkf/RQy7y4uKFifdOt+c/dRF+3IzTdoNjie38Sc0qU/0e0TeJYE1dl64JGf/Tpn7QdCZwRibomnhZvxT96V8rVwVIzwt+dpxVnYtL9F9mjN0rlSxtEegnLhfDqoYztdfWfb379xPDfmU8Gs7iBsBzDTurIWDS4Cyx2onDSa4FJT0yw57WXn/wSonbBdeAFjzcJ/aQJFtNzQQvOnyjuZqY7e6vMDRBvA34/nbHjAsO541K1QuQ12VVQsDvywu22dNmdsoetjeXrZN9u12AuawXwT4zzna3YT2tsXyuuilJqu+rGzEUw092pQIzI3pB2IOYFi2vBpaVpSoALJ95Zobm1MZN/ZzOtRKD6RuoInPFVB9mRqn5THpoMppdpmwnxMz+i6Q3ReMnF7pvTnVvSNwS0TPB2m0qVMawgxgHch/EqZ2Ftys/XT0oIpj9woI+L+N03JOwpZLnianOIzbsG/DOtzRXfS7XazXcBAAxAa6bjFZmtb8Oy7TP1FQmtcH6OgdAjEZiDfFfd7ca66XXHyyY8QYzu0XShWnSVv0XzIqm5lyuX71HzbX47Bhwt9CHxqOd2StkcEFeQ+qa4XWsOiu0Sl6zOyLuQeC0JdrmsnmZM+4zKbYgcXb3umZHqB+XTxKdtMEWyjXg59tbztkWMzuC9LCD41jfKKyNJfauUH2Gbyyq0GDzoTIcqu5sD9sA1+JTThFqLvIM6O3/Ovma722R9KjBUQftxNrmbHsa7Q7maE+5NeOCTf0WOi/Po/CYxHurDL8ltixfMz08Xt1bJ1POnKQN4b4Jsxq++caSOcXoNhL7/DLIoTZuWJU3/hM/NbhuPBrOMqv598CxeAdMfTwqHRRVrdU4+CvGI9hRZiydYK8/2Gfw6xJfFR1ob/chkF7U/qyxMN3fCnqTbi0GTvn6mqFvgq7dKdBeSvHf++uG67Hmj9/bXctKTAD2AGZz4D6Xl5U5cJ9FMS2QN+sEk05yiZJiBazor5yRgSdg9lOBbadMVleOGjxRY0XLBwm0x6VOcUbohaeL2yzZXp57hr8wqmJumBhiaSqLjZHzlkvzjALA44IjeR9HHdv5IBrSwt6mcJTY1+svb8KjaAdIeCGPiTARYmzkDZT+OwLN2faTEgde/jo6os6X2i/W7UMp+i5io5WeFXtMVDWicb/Er0xmG7QDnN2aoSIroUzQdASEmqnQhZLoBWBmNtyWE0V/V/AnwCFPuVKmFdWJ5mEwMYsJnex9mueq31nGAtgRQ/92MhrueD5+w86aJmgaRiYV2ja4YrBmpr/dyrzyczl1ZR4qM4uSiMbyNqsxVw9lI2VhdssrK0oQ8biZnfYsoLC/ywo1Ebjl80580Zt+ne95OTE4J+ys6S/b9L2lxzINLx2zGVpwd0sMngGOVsOUaMe2j4iFv7voKACsS8t5Jt2zXkJUMWL8RuF9E8Nu2WPj3u8wnvm7raj3aSupi4NEbRj4PAeb+RKeGCdoA+WnZ4HuN/HGyWzGtE/L+cE+lwFWDFGsplZqvK1AGJilHY4iZiIzSa8/OAf4FPB2YF9XvuSVzIsc+fRcJdVpU++bbvaLT0v6MOzOadONQVU8tplIi3CntIJ3Y7d6VNDpm0hiLscnc8Z9BiVnHjES82uZUS8HkmRm2NkmgbAjSHPr3XQ0+yu7da+ueJZYvepZzyi7PcXxpUQ+n8zqw7KfPwW4uxs8f1nYs5idNqelvqgYzwLHEtEWi103NVIGifKiYeEJU+1l9ZtF7CnUjp5izkgYwdrxUZi+eZ9tkeRwZUhse2Npd6x7cn6EB6t5VnfHT4C37BHQjpnt7wzEotsTJMx7nKoy8zlRPuuechRs172tvf7gIuBrZrwd60jCDLibKUed41J0cwHsvs8keWD8827te1To3cBtu5GStdcfLBi2z88KiVSyqh1UTTAveCcpvewa8NROl30ue1PmjPsMiiDY9LiAA5Wqyn2Hunn4gDuTO+XxFDDPKy2eIFgcWiANsRq2e5xa9mTTlDutUeAn+gX4N3drV3XtC1LnLdGaxNzY8vHuq3eyg3zlj03Aqt6LPD9ayPNSP1VDNDLuq4ZA9dEEAxwbIeN3T3svyUmJkxTN3Kwb7h2Y11SAfjhPmyzUr1e2XhOw68azuxF1ndQxWOqexn439GsbNBvcy3id9hbulvT6gyvM7IuSruhOOq5Me95anDfe+vqVN/TX+2hcXGksPAi8e7w6vG9HK5jE4KDQIRpPHVXB+76n4h3q+svibIoyftfEbHhJ5jL7MgfuMyoZdDQZLNKO9exyC7KxAs+13Vffuy+GHVOJHwoI0DCpKftL+UanYCFBhk3+FmmxsQou/bdU/1YDIW+omwvQgOhwm8dC5ynVwrlUY899auj42tLBXvCVNg3SSzYbL5xfdwBhmhvIJyNBr5a3ibG0xmLz0IoE4Mkd3xjeD2J23WR1ZdZj2qek6pvI3969af2AGdiG62n3dUivP1jAuIYOtB+e/rxuxg8/QvmbGepkwFieb/VaR3DYA5iWx6Ph7qbPNVtAWsjGZtgZZA9SMkRUvQiSrz/2MmF9c5lLJ/NQmVmUDYKkw4CXuxMrOqmxoO2JenMBTGcSIJwNVjbFkeqdblUCadB892Wk7bW84IppFqwNxyng8DjCck5pcRY9L/AOlMFXvjaURW68+uK4WQjTAgNfVIEYFz4CwsAzNYBC4uAJ1HIuISWIQApd5m3cnHDsgUnBUFA73vVkxYH7YK/2S60PpDGZQ8HyHpy6r2NXpddfXgDeibgDOBwfuDdATAHaVOIov/d1nfcxJojra4buwfjF8eoug3aICrlBEnSPJS8QRB1lU31ns2F0zWXvyBy4z6KkGOkOMKTXU/HZ0zHwkQ2ly3Ay7191WRpe+p7s3ahcnstmF0TfmxBHW5fFVvnzDX7T3ydoelqLYCGyuZiHgUEmV83bOc0Bm17eNyHrIqcy5C/4PMBiCltAit8HNpUzfi4vJoVh97cGXerDaqjl8xH8D3kMWDV7C166CPTtXn+wuBs1OilJYSOu2z1+Osbk9L/jMFW3Q3r9wUHQjcCtBmczZVhUvZpFVVda8p6kOZf7tXgdjiL9kbC3jFdXZiImvK7RVl6FdZXWbiWP4Ivp+Dl0n8vmZA7sZlEa9qTGL5KUeLhRXadB5MUtVvxZhXU6rUVwRrRm/LH8tnVB0wLs41KleVPS9ObU5NoGow0BCFV/JujA8fzkqSl2Dth+oDBuRHiMyuonZ1vDt6H4LxD+JqSGSDlISLHD5r/n7uxK/tYwBgH8d1tX99NQrOu9HLMd4RIdCO8kk+8FBeYR0PWWh54ZEhcafL3XH1y1k9U5SXnMK+gngkZohXuCqHa/zwnZ7pn8vf7gbOAzwL8BDkb6dSz+g6RXc9C+yhmn04y7hdkWSRgkPS/j48CHx6OV53aqfpuSGKcKRn29oeK3TpM221u0uZx6MgfuMynV9QYpdCNcbvVwnwz/uvWusBjiLHR6A/fe0mAB+B88LtpZnLrMEyEZDvU63au493hE8Ex9Tl1Z3WXqBwVNh86YRarPA4bngj+t5SxM+zMSye1Zr4U9C1TjtfTiUdvEKYRmFntBclYLd23HXKMygLhxXO4x4/wTrOdcoAHmEPZYXMtzNnwi04ckyBlNZ+kjleRFBnf0+oPLe/3BHljv7HnXEtUwydhO66reofcMB+0AcNZOlHaxP7gA7KuG/QZGMba9vNWo9ndNwa1+0nzuky9ZypKeAa5H/P54NJy5LE7uVfCiZxu0+5P8gY0Lsco8vHUum5XTGtjNrHSzf01iIbsOQwWWN4WYaCQZ7+dgdlr3r8n2C10QUDoaj7rwU8Ff3aQIXQMHBN/UaXaGPRMbJeNZ8s+azVcOSCpDH+U4DNx70pXf23Ie4kBk37GUKSahumjf6sjIr1+YrA5fNiWe0JPlYd07f4aRUkWqfj6146z7Y5s6pXUuLyaWwggK6om2LZ+XCdN9lJVfBnudyGLeulwIdqehtwH370CFTkL0d5EmVtWzw/RQ9/DIJhwjhuUB8JO3t0e6FIhcitkXTVwVB9rlzaRRDeff230/Xqmab6HcJ4KYKnb4E8C7x6Ph97ezTicqFotHGr5pxTbKUpI+6b43lR1pzrzPZZOyBxiI01DEMWSP+xvfoGWZgol7FQxG3WAnDM5COmdnCz5jYjoAXJjBczSg/4m28y/JNxwSB2Ns8vhwoecsPSueo8yw19VX6ffTtX94grU9hUT/M7CvutTV9JV7mmo/Eex7BT2bzPQingfWTO3cchsrQmkklE64rSEMAFy02B+c1kbyyYlqe0ID2r3tawenkBrflNkwGuX7SUcWIH+xjDt7/cEVO1Gjk5CHkdayAQOVZ8jAuFIMNTyjU1k6aNu/7+LVMv4c6SrnmmNzppdV4Kek1pA31s1nD38zv8+9Jd39Pwf6swragepXUD10yfcdAIUEqN7waccDsQdgjtznsjmZA/fZlGOYnm3dasHI4ptQocXxFowUFBbrsp0s9KyJxCGMiysvV+nYGl5R29dTc3nbJofmZtN0PZG9IHnjXFMu6rUN3KOndZ8BGHa1A/Nm43UAs7TXo36nWyxr/z22yR97Bng2+i0zt4nJdxZ3ulwF358puOhk6nzaS/ZOdV6MMLOn55DUztmK132z49Tcko8Vu8iMby8uzfSG1afAnouQrFqF7q+aIVrDJd3Q7F7uw/hH21G4Xn+w0Fsa/HNgxbDD3j9t1qxuoermrRodq6lJttF+IqthP3dL/OJ4NJxtL0lS+hGPD8lLSLDxOdSv6i9rDM25zOXlZA7cZ1LsGPC4wlKn4HDfeFVZ29j8kzb+1JNXbVuU914Rg6vADjjwqwZP1ZKeIz9CVli/kGC2Kcbd4G+BNUo0oytvZ2LiLqtx0+3R5QZwuNcfnHtiNd770usPDghdnujXQCbVfR7b1tIBNWraGzZ3fLjJnjV4JkI1/LqjIbPKtFN9N87wlh0LB8EuPZl6n9YSHpQM6hTzNdhIT6FCPXTO52wDDivMrdfKXgWJC6XZ3bBq8CTomcrGJr2Vw7lic3Rus+51ISC23LPQ6w8OmNmNyG4x4xA+HxswyroSxX6swiqlc4+9kt0YKDcJ1szsC2a8e7xHTrzNgDy84E3bVOqo7qWJvU1oXZvMZS4vLnPgPoNipqNgj8VcLuChU9g5Zo60zikUQXrOlb3+8mm52XGxv7wg458E8JsKJwISUwdOWXVxh+GXBnFU0mZPxnwC7EiNc1ewMc0SK2fTUmyj08Wdi/vik6j6nhaDV2Kc4bGfHtKehnkKFyjXAgqUFu4+/ttN/uDTMp71zYB1/czGsBciM4dlwe367ADQO+FKn+6i/KLMFKvvm3ioyli0WCkPkrgrAX0PUeiM9IuAO3v95VncsPo4xeisezhquGSNh871zeBQBRxzRa8/OHOrCrXYZY65GfRvDJ0JltRb9Y50paiHZ9U9CilzjLX91cBV6QXQ7yF9aLI63FMnEtcxhq8dlYnPRmnmcCh+vPnG1Lkch8ya0poLMFkdriH9V2At4tudrdB6l1vDFUY8tUBcaqdpxguhc0y2GMRp+Tt1U7xwBjev/yWbz8NmdnRTP2r2OOiFaRVsOX6X9vmh52t5DmFcvanfO8WktzRYwPglYKL3R2wAACAASURBVKGzUVuQVtsp5cZXat8KZtaAhzbzm5PVlWfBHgtjC7fzFM8O0Jhi7KMMdXF+/eLsgcA9I9MHYEXceh0CQDp0S9OTmaaP4h651ySPEQEcNnSnGTMF3iej4VEz7sc9ddOALukMr294FJ2j6O48A3jVVpSp1x9cIOxW4LdJaVqJMtTfz8ZV3nO1USrLbi1TdImkZwy70YyPTkYvv7F8ZsSSTi8EgE2NU2s2XeS/Bbpno3Quc3kZmRmFNZdWBA8Ca+sP1piyziupix9E40BHZudIunJHCz47cpnQJflCDYsB8Dj3AgnKa1lib7sbHpa0KeAu6WHDnut0cO010bHrzrxTXMc1LrIN0zHZL/eWTsPNjuJMiSUf077RNB/AkrBcx+iFb770VzfwnwGO43AW/Z+QsEhgksQK+rgIEJjnoDB4heAVJ1DruTR7dor+wiIkJB9sVr6QyczkRbMSWWJNf+Hsr38WetIuRtzJjO0rkfiPUNvEUp26GyjeuhbUN/H+XZz7G3snuWl6sb98iWF3mjEAD89pIaYio0xai6zq18gqk0jnUuK8lD2Jcf1ktPL7k9Xh2smUecdF1V7xNaZuw4jQpSqJcc/BMnOZy2ZlDtxnV+4H1uqClainzMRkADjFGBdtcW2vv7x/B8u967K4NFgw7DpgX3Dd69zKQcalfXFd0EWc0igw7IHxaLgp4D4eDZ8X+pvu96YW1fLbNVa1liX0eF10L0L2yk1X+BQRw14NXFwXfQcDDUWVwImK12IqTSR62Mw2u6EYxI8oc81/01/UjWWVuU1hTRHTWwI83jNL7O2ekakY6fhb5mQTQw1gvtfBpr7jxm/rjQzyIz3P90LIuAjju4tLyzO0YdUepKQpzWM/p5ONuOgM5jWlT7A3AYdOtBS9pcFrgL8ALQZcD2Oi6remxRtjqnxSi0h1MVZCyrCfC/rj1eG3TrSsuy0tWCe8gzX0siXbunssrQs7VdK5nAoyX2RmVMaj4dOG/U3kLJ7KpJDTgQW6KIBzKvPA5bD1G5VmWSQul+nVXTyos6MVMDcgOl1pwYAhdEzo/z7Onx9H/2SWjMbzTz7eewNQeKbB206o8ntUev3lM4TeUweulXzObd90zVPPY5TlnNAOKOwhSc8ex88/BjzqNnD9HQ9Rq5uacyYI8vjp2MY3GJzeKVhPQtxh4vn6p+cnFC9MCTGwAIXTxrCDwimj3eqciw+67DWHJX2915+VbDN6DOz+NKqJTaoehuKMvCrT3umscl+nv84Be/Px/nqvP9jX6y+/07BvC12gMuewkv0kgffqtXQLN+lPx/kRhpb1oQCtIX4s9MbxaPjTE26uGZAIrYNQ8jksCKqRn/foeJadjSK/5jKXF5M5cJ9hEfpR+RvMS84JLpKb2OM5aRkQg7NB7zpdmMBef7BgxnsQ56Kaj933CqiAQam2ZW1Do27yFcBRM7vvOIvw026DFWS2MMIr0kazJqyxidMwhN7a6w9Oo/0JuhKzq8n9Akzv66hdVTwics+I0t4P/ZfxaLi5PO6AGU9j/FRTv5MXXjegndnPfejeGeBCwdJWtcjpIxaxzmHIQr1GPQ/BO0TR37lvHDhFR8Y9JZwp7vWYYj8Ex8wuAu5YXFq+fLf3KnQng+o/5kGYGW/zgal8tkfWcQogCby3t7T5LFW9/uAMsA+APi/pkC8migZufyP6hTw3umdZeq2Yq75/wY4BdwneMh4NH96alttd8Vxhdb22ZOi7TsupM1ObWuvFmMtcXkpOCzC3h+U/GRzJ4RWVYGoYxiYeuMt4kRlJ3mzYJRv+wqknlwJvBmeEptkhCObUnMVy/q66Koq6fXiyurKptIJV7EHBo9PskzNP5eFFoVeapck/3YH8Q8ANJxujuhdkcWlwhpl9EHEGVGI0xvlGfejMn9PkxFxYE/zoeH5/sjo8YrK/DkLWx4D5P8XPBCtcyjJ9DgDYe07ndJ4nImZ53ikY4+4zpt5bdLvfYO2FiGX3++OvVPs3jaOElw4j3YnZLGxYXQWex2yDvR7dH6W54detaQfD4HKTbcqYXOwPzja4CXQTcGbWSZXF97cWfeNFyt3Qscl5DnXlLQm1joC+QHca6p7KHPNiUuvum6A7iycgfB7f09/tvjZn3eeyadlt5TSXlxSbAE8DiWkypue+2dSsrz5WZ3DPFXrvdpd2JsTso8jOgeSd8AVHFQA0TLulzUFyl7MA7jnenx+PVh4HJt2jppjDdfGoFSkmlr+WF36jMIGntEi8HvFaqAeWWJB7NbtGhI2ldg22llgmH7TNHr6Uy4DuljiS7StfTL3v/LWHckBmz6JcVwHvPOHGOA0lWHEPGchexYLpp7OS5DCMOi78gTT9kj2WHXtcQxOU7+/m3cUSd7DrG1btUeCHwXQXb517g5q6uyhgI/5KaEHohl5/+SW9d52xaV8U/BawP7d59zh3bzg8JfrKw8vUwNI6l7MnC9kLwI0GHxyPhscTzjbT4vXvXtf/R3u5Dmm+Vcg1uYE5R+5z2ZzMgfsMy3i08pQKeJwiF6teCGrD2cn8hIahed+sHjqyVdJbGiyZNPBFumXUqSEzWcqClNms0qbPG/zlCRXE+LaZ1phirDK91y12jljaMrnL2czORnyic1+fmrLYH5yL8QmhAxDrXMnuU9nXatQ4xrPyOoMLA/i+jBNJJfeUGT9U6i/FhMu/X3Lym8dhU8pYF2wze/9if3D5CZThtJUui1O7Sa8eyJM8VQ0gb70z3bUCchtlScac66jNYJHx/uRijO/2+oNd2xs0Hq0cMeOOqI6lbC7JZdBtimwBdvYslnsvA33kxbwIvaXBxWA/kPEms4IJYn4R7VjHd/t9NxGyR7Hpt/q4p0HXGvz+ZJMb/veMRJzWug/ae6Y+KyvV+nVpLnN5CZkD99mX76rETHekRWPPp/AKZ2So4LOVfcDNpyoIXFxaPg9xs0oO8E6coWqTbbWbqgBZUqHlHvQoZpMTKox4QOLnSFNgwWIDkxNY7iZtpRpgQkuYvfWEyrEHRPAJ0wZeBdU9AX5j96cFY+T10jhmZt8dn0A6ufFoeFTiTkNr0UHx7OmN4N38qv0opOoJk3S+4OO9/uDg8ZbjdJUuQ1Da0EjSYdkDkr6T51HWiI4jc/5w/34TR2zt38wMmzgMfLEDtbsjEt8BHrc0tvyDNq681qtuCq3ei/LltzO1/6LbhDq4BvED4NImJt0bOxqFVIY6LyMEKUlei5L6e1iwbPCdyWiPpXvchFRdZe21De7c7Lu5zOXFZA7cZ19+gtmDeUHrpK5mzebVtLp5zLbql68GPnCqxU33+ssHJX0U6OL4IxyG6nQIwrRuhPNDMTSFBcvfuyarKyd0CIjBkwbf715nhlDRJ9O/N51ezctv3amcH+n1l08pb0mvv7zQW1p+E/B2GQvJUikxsVbtl6lwlJybO9tfBg8jnZix1cn3EE+HMZztBtW9EBFuNeUC697GhrTXmfFbJ1GW008CQFv1TPlHzcYDv4/wqPlgiQOz/Dk46VxZY++noOzT8MpjyuBygzt6/cHhLa/rJqSkof2KijEZ46v1pJJ3y+RsY109YrweAj7V6w/OA+j1B/vB3grcbmYXFNOJ+sQ6D5s5lkkhq+0ZHt90b/p8gtlbxqPhj09F0O6ev2Y/RRqv6dyAVkeYZwFat7jPZS4vKXPgPuMyHg2fQny70w4Wyjhr0npYUL1uU/9111gA+xDY6xb7y6dE3y8uLS8YerNhvx4Xnd2ORc5iWVL6LFINJmBYvvE0MDrRMk1GwzXB1wxe8N/qylWL12yOteoqzUtnYArpQkOfOp7sEHtADiN92oyD7t63QOpThlcACCPYx4roKN9ck/S1yXFkk5mW8Wj4rOA7nW1V5pv5Rua6uMp/0SFTmoM1Jp79wEcXl5avmYGNjjMtrTqzypiX8LIIK3MQqazzMuixCuyN6DOl3vLb8l9/Vn5MMR4WJLsC7M5ef3DhNjfDi8mXMZ70NI81dKaWO1n/4UkU+ObU8GIYdpFhn17sL5+N2b8Cfd7Mzk3TLLyRnTry9q0Gq+/xqNlS6m3gBlH5QdkasAr2jvHqyv0701y7IMUAVNmc02X0KSSN77/x/QmFWKt7d6iejfWu17nMZUOZLyh7QAx9B/R4Z9nXxawTlRB3EXEY5V9KIlapQ+MQ6DOYLt35mmy9SLoCs5uEurAE8xMTm7SORSp7VDd9lfYp4LAQdvcCPzvJoj0E3NNugq2sVMTbK6VPM19w3UOdwKLZqxCfWewP9vxhWotLy2eBbsU4rLToRTK1aLOUlhEhEzVqoB66VMb40xjDky+d3Y7xbN1YDPW1Yi7JlFJRksaZl8mQOFPSl3FP0Fw2lNj3GBf8eoWUrtYiRKQgUt8obHAU6rjx53kKwjxSako+n1s+7nxedoWoe010FXD74tLOM+/j0fAxE7dFCsjQa95Mqm2hXEOyzvd5tCD0q0L/wcTHMc6s4xkaXQXxG217WCqDI/xCjqRymVgD3WZw3WS08sgONNXuShgrhKehk7JeUw3DvCZVImlOus9l8zIH7ntABA+b2XdcgYZmcEIk0I2VHLkV9MW+pYJYi264UOLbi/3lPZ2xZLE/uMDg65IuAHxlh/rHrZbupTNx8aaTYOa7e48Ct272tNQXk/FoeFRwk2HH/DdwEDjlnnfWsI3pDfTiZVswGGDcvJfBe68/OCjpJsxeGxaTL154to/qKYmx7mEP3jZSZQC7pvreeHVL8kFPkO6rtCzN7yeknoBNBZABNBVw8zDY7b3+4BVbULZTU8KaTsA7wKezlaSxQer/AOC/Z9iP/A73mMQ3/L7y+AiVCX2ZvCxp7HW/YRi2KLGyGzpT2BeFHs2HTxHjPujxcnMxRpprjTKELvPR/mAIyvfChzTVVlCZ9g7AWzw3ewu9LAZHhW4E3jMZDZ/ewqaYaYm1Vnn8RHafZs1x/RJaRW03zmUuLyVz4L4HZDwariF93lBKDVkOssj6NbjI8v9gnJ3OahiVi4Tu6PUHexK89/qDcwUrgrp5rBJMLy6hIDV1rTC+Zj+kpHM8WTG4H2O1+40KRFoN7YA0cTStkRUMmmAB8VuCT+7FjY+9/vJ+4KMGv2EJTFhpmNwqwsNn0n3y+2vLlEXxSTO7dSvKOB6tHBN8BuO5CsNr6TxEwEuQX3cXSlI8834ToMuA23czS8lMi1KsBY7j8xmhpNcqbVzBafHS/DdJ7zCzH2fwr3hgfZaFEqjPqn2oZuxNZX66oujMHd2wOu4Y6y+iLlNVbQ1VveFcTlSkguuNqFz3MjT19tAkwBkg9w/G75lH1FcDobnfeFpm1wP/7ngOQdvTYuv/musB/3+QRh46qeQdnn7QXOby0jIH7ntEhD0i7Auhj4FpbR2LVGwosulnkLTLAnAl8Oe9/mAWDhzZtCx2G6z+BLjSzBbAq93GrsfGrGDU64KTU2d6Exp2VNLnxqPhc1tRzslouCbpM2b2bEfa1o1KTcaBKT9pNsLqNXkl99HlWv58b2lwzlaUcydksT/Yb8bHzOwDgv3eFhRGE6heIY9NVsDlYEHd5koQAzPuQjywhcW9F3WnFmP1QDMoBp6sxg/Hv5pSNHrOF+bu+hV0Gx1fs4XlPEXEjaLijMrMcpobQZKXzas1XWR373g0fALpbWbcK1jrrqb5ns3AFC+f6Y7Ksiv1nSWy1Lp+XNrxmPfbgAcquZ11HMGYR6mLepPZ1B4eoiFDJ6V9BdHs5cyLfPhTe7Kn/07Rt10DPSLxHqTbThvQDkUfpf4odqEi7r2MoRTj3rWxf31Otc/l+GTPgLXTXcajlWOGPg080a1nKc91ucdZqNDtQcZUkOrroANduvjbbwOvWdwD2WZ6/cFFmH0V7A0AvrGxW9CD9SmL8tRGIVxJtrGcicT6PvDDrSyvGfdK+h7GWrM5KeWs9rju2o8l9CL1UzC/3UKwH+OdiK8u7lLGi+ORXn9whrDfFfpd0MESFFNYv0yIOgyeMrJwHlQx7j2uV/CExJ9MRitbBhS6I+f5vKEXIo46gUt327RsWScmB5PyE3AzqL8Y7PZef/ntvT0c7rTVUg9FIzxS1QRK/kT5vXUOT3s8JqPhExLvsm6fylo1zqsJ6A/LDHOML1yPTIHUSmwvGHYF4o6d3LA6Hg0fB24BHWsP6ykx+eaQPTB4vK92cQHi3m4+h6QS2qUG1JN0krdPANHCKvunoAfMeNd4NLzrtALtRXxvRLPm1g9bd0gYSSX2fY7b53KcMgfue0gmo+HTJm5GdtRPkwQi/tCBXmw2ci3eKljKVqyIzQUuwuxOwQcWlwYHdqFqm5Jef3C5we2SXlvDEVwnOqNmdalPrCjQrMWW/l8w/AsYN45HwyNbWebJ6vAYcIuJx6tHIAEDU8WoGSuYA/xSxnCrFlAr9pnZ62WMev3BK3tLs+kx6fWXz8L4lKGPI/Z3/VIrHCxUeCOyd4HSx2rYVWs79U8M20q23Z97n4zvV0a3Mr6VCW7uj9lVKbV8CE0AnnMMfdWMm3r9wVlbX+69J5FdA4JJV2TxSdmfcvvn91PG03g0fFRwLXAf0poUM72OrfK+I4uNZm5Oj73ym9VoFJhdZd3ehR0D7wZ3GfywDsj2b8HhU0aKuoXAjcmon6ci9HoShkxcyxPN/HkpQxfRAfcCy5PV4X3b3QazLK672vAqq8aTcthXJ914qubRXOayGZnJxX4uLy4yvlDYpGBLSOxlTH3f7aLEZOGvq+ZPGQgOATdLfHenYzg3I73+4NcN+4HMrgJnhMqHqmx7s8tnerePpl7WOOs1wWcnqysnm0lmQxmPhg8IbpG0plS23C9MFTtvAMuZMjJ0Kc+6FPhLxO/OWtx7r798iaEVxPvkukaeMlFt//g4zmueb7qm3m/ebgDYzwz90WS0suW5ocejleeBj0t6rtnwXNhNCksZ/VQK7Zse1y/QljOc7Ef8a+AH89CZTupUVGxGncYxrrusGLuK+9c/bzwaPgr8suBbMa78OW54dWg1fjOMrDz2qkJNZSzfQYsYd/T6gwtOugE2IZPR8HnBR0BHvGwRqo+1zSVnyAlE784i15dBXridSV0vggBy3B5t7983TFqT6S5MvzQebcnG8JeUXn9wXq8/uGyxPzg8U6Gd4dXJ1yxsdV9jPWvY9Lg2v38uc9mkzHxoxFxaGa8Oj/SWBh9B/Dlwbhy9XjFOgIZw0xdtG0q4UADOdDrjJbGA2euQ/vdef3AjcNt4NDyhQ4i2ShaXBoclPgEMZDoQngXVEASvB/7emQ3zLCUF7FpdlDq8Vb4j+6nQp7azHmb2DUm/aGavD3ezalaGyM4QiE9NebsOrd8BChA0ZJwB+gTiny0uLX90srpy73bW5eWk118+gOnXDbtRcK6VtlYCXV1VnDlVtUvq4O3+17QRES4h6QjoN7cza4VhPwf9IWb/Blioc8hzXaf6UHFefAYpFj6BwlqfKwQrvf7gm8Anx6PhY9tVl81Irz+4xOAdwIXJPHwcGAM/Hm9XW4fzYmou+EBYNwYcPTresdBtWcaj4dO9/vL1RUO8NTxw/jyrLPX6eVg0SxqUHQjL2hUkXWnGF3v9wbXj0fDJbWmftrF+JvRZ4F8DCz4ngPU6JMJiVBn1iuTJtYm2j7v95+rOjcr3GMV4+EPEjSW0bEulAPOL6fYx/aKkVwJnGywI1gzuW1wa3DxZHf5oq3/7uKW0dW322obK097vTzouQmtUfTtzmcvLyQbqbi6zLr2lwUJh7D4Btt+BAhSwHgtSWn5Jir3IOiWd78WOCt0HfAa4ZzuU80tJb2n5XKQ3mdmHhC7yBRzW16Mrd1uXje7Z8D54CuMdk9XhX21TVUJKqM9fCmJTaWVh6oLqDMxG5fdS5z6f+uwpQ18R9sXxDudPLifyXgl8FOw1oAMw1RfTVHR3AxW5T13foM8NOybTv0d8eLzNJzH2+stnGfrPgktq8MGL9IuzZo0BVj+qTZDGYIArewTTrRLfHI+GT2xXfaalxNpfCVwHvA7sPNDCVIGPIHvY0K2Cb2zV5u1UhrcCd2z+G9ONC2DXj1dX/njD5y8tHzLpy4I3kMmqqQiFZoxFHM5Ub280fmHNzO6RdO14NHxq8/U4MVlcWj5L0g/oNjyXYq0H3NXqT32ZZeO6xEc13n3dc58FPgZ8ZSvXhcX+8oKM80GvMtm7BJeBzjFsX9q5RaxQpmeRfRb49GS08uxWleN4pdcfnInZd4FrKisBlXJXoxsq2QQpo9JRM/sHk9XTIOf9XE5a5sB9j0pvaXDI4KuIN+FMUFEKZFBnGyjtrLBzHLgzTv66e9ZzoB8J+7TB/ZPVlS1dtKdlsb98jtAbgPeAXWGwL2Iqs0KcBrm5/GrBb3VFOoNX3JfGUWQ3Cv3+Tmyo6lgkex/oM9ZlhwmPQGBXZ7iUNj/G9er69iw5TXxkYQ7pThF9BPg8cJcZj5dY++2q1wEzXiHxXowBsrOrl8OiLv4+ei+ta5V1JTwpXb0p9WqY7R8DbxyPhjuyWPf6gyXMvo506MVYTQdIJlVvTjMOIedvtfLarxdP0TEzfibxZYNVwRPbYZj0+oMFM84Wtgi6zsSrBYcCrGYiIAAHCK0B3zDsw5PRypaxy4tLg7cK7kicZKIoK2Dzt43RQ5AU149Hww2Be6nz2cCtwJvMbF/uD59XEW4SY66Wpe4fInBwnZuAtGZmdwPvnqyubDt47y0NXoP4Osa5jUJXSwbkA9/yDFs/v5gCmMRjG88EelLY+0F3nexZFy6L/cGZgksxexviNYYuxlioveMld/2XPCdwTPAV4He22qDcrPT6gzMNvgt2TWygT+3n7d0cGpb4dXVEzFFJ/2A8Gs6B+1xeVubAfQ/L4tLgYuAvJC6szN3GANfBXl6Qa8hGBUbdh/GVnGL5qMG9wr4O+j7wzFYo7uI92G/YYeBXMX5F0iV4THSuFxVIbJQVZh1hWz7ckHnvrv+ZGe+drO6cwu9YabsD05sNW1jnOWjAQmY9m8Wqflbu94W1LhZdWkVhjyDdhdntSD8Hjm4FGCzs+gHgGuBazK4x6VDT3oltsmbR1bqyOnhtgULLGJbHPUoH2rdhQ+qL1nUBuAXst81YUAI4XV0sLcJ5fvkcUgvyyf1s5RRWYsKVZzwK3I1xR9l8e2Ty/7d3/jGWX9dB/5zRaFhZq9XKLIsVucZEKzdUpTImwL4ETJoQ0+J5Kc28rb0NLopMFFk0stIUjGVZkYUEVqBVhZwf5Ieltmlsypsk8huZBNISjOX3ZCrXhMisLMtaLOMuK7NarYZlNYzm8Me9595zv/N2Pbv7ZmdnfD727Hvv+/N+749zzzn33PtdWb7i9tZbXJpDZIEUfnAf6M+pyvtEsgfaPw9Jp5VO3XLq4ZPAZ2blbe31B/eiPJWWNJTqIDaZhWv/kEJl3FIcedsD49F0j7u7zyHQL4N8HGXOa+D21lEvTCzkQcVGMWsdrveWKmoT3wU+vd2e91wn/zHwT1WZF8nLQuZcah0xuc7hv9uj+xChdH535EGo9VeRzyL6pCDnr8bZ0esP5hXdJ8jHSROJP6Cq+8q9ciKrsebTSklPOlTWED43Hg2fuNL0XA29/uCAqn5HRD5s27rhfaUz9TGt5WBQWBPRv3CtR0mD3Uko7ruco/3BnYL+ASrzXYFXOpmLhFxsUgCnHeYUSSj92jlBnwP+A8jzwI8uR4j3FgdzKhwCPSrIBxX9sCi3IzLvkzE1SZsMlItX4UvtVnhR0J8fj5bPbDXdsyJ7/76Pcod5u3w6q7Bvd1w0P6ZZLd2zVDcQ+ZGi/16U/4zIy3mJuctI99I8yBHgKPCzwF3ATVPv537hH8N5+FrlfUucBY6PR8PvXU66Z0FvcXAjok8pchdUe6NJu/vdNRovFrp1MTrt4LTAi8DLwH8FXgfe3IpyeHRx6RYRuQP4ICl86fbuxdtn8MYiRVsua06n/RdQjo1XhitbfqBL0Osv3asqTzVtgGo40N1Oq+Dnbe+ouKd7DQ6S3gHxS3AxGTEtiDDv6Yy4NFlZ0/OswCevgfK+H+WLCL/SSeRmZ4dI2ypLBzH9nE2YzpmOO4kyAf4Y4YSqvi7IqfHK9DkQvcXBAYQbQW9WuEWQW4CfBP0QyK3dNGyFKYe+hvLR8crw5JYuMEPy86VQGZc2v2ynjeiAlDla1qiyHFwjFPdgi4Tivgc4ujj4VeA3RFgAExzZg1ZdK+lggRKKkN0ZJcymDJU7tyd2mmlZFMULkQ1gDdVziLwmcAJ4C/gf6d7Oq4/8OYQbFY6IckThsIgugCz4Y6uXC+8QS15NCy/wWocfDvaP6b0dNSOsv3oN+GheeWJH6PUHd2haP/+9lrbGUe2O9Xlh+2FTsTrjynmm2PwdWANdV+S0wAmF10T1f6nIKfM6ZsfQnCI/gepNInIE5adU2C+qC4rMW5lI1mKLMmVpccqNL0urR9O8f/7Ja5kD6AUR+TQpxnpb49ovRq8/eB/KdxR9Xze8x7DmM73tuMnTXin14QzFs0lREHNLzqMtui7IOrCOsq5wWoTzChcktb0NVeYQDgO3iuqNiMyr6kLHc5rvry7BtV25dlu8nrTt7JnJyvIvzCRfFwf3Kupi3JP8qSMVdU/KP0uKTy9bUtzBPKT8axHuBa1lke/deqLz9d29cmt1ybItpS5vAE8rPDDZ5vCNXn9wGPTfotypTClHKJWyTS+0ba2raGrV792zlrxJdWkDWIf8qWwgrCv6Fsi6wK2aQl7mEOZI9XJe0wTTuTbfLV2tjG/WQ+9Ymx1nwAbw4E543Xv9wQHgO6h+2EJh6lBBXSAilYUTiPl37qfWgAiVCbZErCqzBxD4KqJ/HuRXwSvvbUfcrMAitt8L61ZY+o6repd83CRzoPsU9kmacPmBqiB65VmKslA7EnPhdNOaO2c3pFh3XdyD6cMqhHpeOS6nWdYibQAAGERJREFUIcd+37OTSjvAeDR8qddfehD4Bsjhts+tWnrZVIut6WTbDtcUXdmseNj3lNkLqiyI6K0gt1rP0fSDzuBrJj5jeVmT6d80WRUtLceJ1OdqVgvJpHW0vaLqy1ZBuCDIQ6o8PVnZGaU986oKDwrye8Chks7G3tD8zLWe2uNW9S4dV9qfN5qxZmFthpJnOf/ngfmiPkqKTc8tOP/fGkB5T1Yo8tKHdu1adZzhVxteOym4PpcItx1dXDo4WZnBpEBp23vJiiIbbHvNs02hcpfBeDQ81+sPPq3KBRF+WUQW2jCm1t/eypxahnXEzyvKAqpziPySwFpvcfDgeBtD8caj4elef3Afwh8IHElt35qeC5UpNlt1kKRnwz2bPSe4E5pz2/xgrjqLmgnoNxZZ4IwEP/+qCcHZdH/xWdqkS1zsZl1RTRFlDpGPAjsSLlNDjch1WYuMNJFZsyIbxE6e2zWCYCtcP2uhBlfMeGW4pshjwO8obIjToHwnXif9VUXAC0H7z9Y0thduVMnSVaqmdKxURcNOKi8NUveiE+c+tv4BO1eqQt9EDxc3Z0exs3/NWHB5Y52EoqjIGySvzEtXkd0zQ5FnUXkIYRX3rE3HmrTt2hlL7Vh9R9pxGjZqm5ZOQqqSiCnyTmH2HbMZBCLl/oArP98lu315g5Z7Vz2+plHbbd5gFH9FEJFVQR5T1ScmK7OZDHelZE//D4CHFM43yrpjmnFp689rfitarb/SnJO2SLVrpyiTZkCZV7SUV45zbt7EWOp/Vtilbm/qjR8FsDblldmOMaXogojM6GVtKR3NyFlKwHQFzv46iuTlMB4NzyF8RpGvoKxZGlJqxNXh+m81oMqGcj3vrda0fV5VfwXhN7JHdtsYj4ZvKHoP8CouzWL1r7Rd2nrnss3LHHeJTbJd/UmYPGfTtWx/UqxdHW8cNN1zWmPCH1e7kM0GlTMAfrqbN9cKa0v1L48aN89S62/6qVPyIAjemVDc9wiT0fAcyqPACll5V5ygrNKiKMt1Ih1FmZdNHVhVHMgKfVdSF3+fiHvlszkbqoIg0ioP9lIPTMBZZ4H/bAW9Np1q3i+m4NYO1oR9ThiCvCpw/3g0m7jcWTAZDTcQvgl8FmHNe9kNdV7rkus5v1pPaM2bdEzNc9w5tUyoea+uLMr9xV1fyjWt823SaGXUdDwlLKnen1qGFg41tazLZeS8ov9c0S9MVmb/kqUrYTIaboxHwycFHhVYVYqiBtQ61+YPNV6bqvx55VM7f+bZ9Yp1c8Fyrfq9ela7hpxfjaievymNHb1BOuXZPKMz9GaCtAaoqJddurnN5wQXw5BO4rfAZDRcRXlEha+oUObopMghbeskuLRpK+fMkNXaRvOxc8A/UHgoL7u5bUxGyy8B9ym8Wtu85Y+5aJwbxNcHnGGSK4id49u2rZjUle3WomtZmPFYjZzimPH371Rpu1dxAOQT7H0cVc617cx+q7Ivz2G45phjpIjRkijJeZk2+vaH2aXZGRIEWyUU9z3EeGV4StJ6zM82S5upCWEtrosiJ2yIzwns1G9VN00SRlK3O0XAOlEXPlM970Vq017TukS7pykC+Vgvw6Rewj1P04tn4ZgV3Hyt/HJD+34CODYebf9a7ZfLeDRcH4+GX1fVBwUuWF6VTtT1Vv7ZmJJHYvvAKR4+35ziTy2TpFi6452CZx1L6kDt2rSFhLuGS1u9v1aPsdYytmObTr1uPws8LMjj2/Fm1KtlPBr+psIjAud9vli5FaXP6j4U7QJqWYnT+Er5ktuKO94+i2Lom9IUxahpR6ZR1sOxFxB165a/irq0+OuaAT5LfL0t5DTaiJHVu2JzNum+MsVnsjJcFeVhVP9VKQcoMrJVwnKyzHBQrV5ts5gtn9u68OuaJnJvK+PR8EWB45o976mNmZnckaGZUpfKs6WtJfRNa10p1yhyRjfXeff8dsHiDmiqcwrXamSF1X937yLbMbmkXdmOjcCK6Pq1WiK2SzODQF2oaDakrTIV2e4+N1nMQfAOhOK+xxiPhmeA44J8FViv4QeY3zQr0FqUtmbdWapQ8Wtuo+aDobmG2NC/S4P4L+bVpTPUXrSC6qup3htLW/30in/qgLR6uMw5J1mFFMwjtoHwHKJ/81ouH3gliMhXVXkA4e2OfQNQh10bWZ/zwPJSXJ5ZiETxXlUfmg1v10gEbW9mRebupV3lyJS3MnpDuVI1Gs2TVDtiG3ERsRSlOlRsgXSxN4H7UJ7YqYmoW0GUJ4DPKaz6ULOmjHwepm+1meV9tVbX8rFMEqela1YUXWPNF6e0IS15XrUxP0ehMbBx59m/1Z1O1SssodUTC7ohIrMLXXL30mzV1ZT5Ni5Yvfd1+moYrwzPi/CoII8nHctrslraQx09amp5k6e1NKvsAhYEHsmrSW0rOQzwbuA572FvwhObdu3qisl0e4acx+Kep9RpJ9u9rG5ku92jpqLI9iwMqM6aNt8snUVWTMnjJOe1yCGQV2eXk5eJV77dd8vLbpgX+Zev40GwVUJx34OMR8NV4LPAb4rIKqWvrwLVhKL1SqY0VYXYDU+6TsqEaBrWdhH0JaSmHFQdhllT8R73oo8UDbFK+hqPmz0UzpgArem2tDmFPqVBEbgAfAlYGo+2/4UoV8t4NNwQ4Zug9wMnvUFVvKNgo6+5U5WaF+q20fHsuO+lTyyGDviOZlqcqyuBVsVXqxfWKXWW0Gs6q6wqqlPG3LlZod9QeEnh5xGeHe/sRNR3ZJzCd54EvV9E0guJaiUsCklpT1RFvBgqWdGvoUs5P7JRqurbQ83H6qmvualNO/HlQgldMK+flrTUbTVUxckE90zFSE7nv05annNGmPJHSXcNxXD56A1Rl19Xy3i0fF5FHwN+i7RqTyILQe+aSN5naeSQPUNpI9JpC3B7/tt2JqPha8AxRZ4G1tSls3q82zbYeoHr/CYv230cvJft1UCtMtsPFNmcqSLb3f0MH+NecAp9NTHJ4YN53g8WisI6sHxVGXcVeAOypIgiBjDZ53q62l6xcNJQ4IOtEYr7HiW9HEU/T4qffgsow3ZFkJbOx3f7TqE3V5PWTsrHmBdnuvOkV68Uzff00Xolqux2BoVdzikL7T4px1uaugqqiLwJ+iDoQ+PR9LWFr0dS2MzyMyLcA7zQdKbVrsG6VqOM1EsevZDaBTaTHs0Y6uYXUDqdxnNE+70kwzp032m36aidmIv7zImXWiGcN58LoL8jqndPRsMfX8+edk96CZkMgWMinJC0RGp9VhthcBZPMUglKea+O7cyST9tyN3uJk3bKF75fGIN22hsgHwpLXVnWtts0iamcG3el3+soyzPtoxMoXN1wtd5y0eREoZScm5GyvtktHwB5VER/ZIia9NkmTaCz/bZTml2YW0tVfB9XCPFHdJqMyJ8SkQ+D3pKXF6mTxPivpxdhVGrh04GNZ/UYxHEv8DPyXYzVOncH8BCXNq655R6ae8nUuVJc4+05UcoOzJ/qYxMe2PFGTVilnNu081op42Q6Sa3RxBclFDc9zDj0fIFhSdF5TjwsiAbNhxeh9QrxWeQ3YEWl2zDmXUYPSmO5h3zXvUuraLhhFu5l9YXezDtWPFHg09G2VS+bADPA8dAvj4eLc/kzY7XmvFo+CLoEvAt0sgB4J25WjO2zRrnxaneKu3krS/3dleTqZt/Nh6w3Ov7a1mnZClwyhfdtLj0SAqN+RzKA+OV5VMXy5frlcnKcGM8Gj4PcjfosyTFNuE8hq6hFERqp5/21gIRpHTqjfPbvMDWJq0tF+90vX4dYanzWrpt36eohEcUT3Pngumol0Cf2XIGbZlSCxtlfJOcEn+05dtslJ7xynAV5BGBrwDrTe124UNtHlsm+0TWZ6F6qv/MTBK5RfLI6xeATwAvYPXS0ubS25UR+Of0ddk9dyOCRDvlkb4VQwdtrm31tanz/v74kK+8w4XT1HQDyhkR+fx45fJeKDcrkrFeTIrGSYF5O0xpd8apHVxHurrtLAimE4r7HmcyGm6MV4bPaXrT5dcFWS8do9S1ZIGqLFA9WjgBC1UW2cuQahy80h3axM4v4rloDnmCkykbVZL5WEkxD75WpbFOlHPe/ZSC8yiPA397PBpOdovH9mJMRsunFP37qH4GOA1F9gNuyFpaYT/NYS65o1R/TMnjenBVCqsiUuYb5IpSVw4SvLKYtrg648o6deyW+FbBUnhG4SPj0fBL45XlC+xixqPh66pyD/AwoumNvMV9DSmTpTGAtJSlU3caD6WtzGGeuXwzAZulp67t2C3tclb21p78xLlyL6fQ1/Z2EXVY9W2QfzTZBgOrhF5k46E+g9TscZ5Je+q0bXZKT1Z4H0Z5osaEWJ5pvXfOOz93p35KkXPFENoBxqPhxmS0/Iea4t4fQ1g1Q8LL/Yp/PnObFOvPC6FaYN7VDFW2p2EgyvKzXpbYdVVzmzAZk/uKkiYzXnM/USzcnPfoaUXv12Qw7xQXFD3Lpmrg5xhBGRvwW6yd7VD9CHYnobi/S5ik2fYPAH0R+SN1AjfJwNr5F0XPPAeuszfZ2gy5ijYKXboO1dtSDAQ3Xmp9sXWMTlAXBaeq6M2wbTIkindxHVgB6anooylEaG8wGS2vj1eWvw70FL6pyloNobCRDutM0/bpnlTnCdIcl27nu87GD45UU6vm+9SOvvTdZkiYsunfGUDpeKsiyasIxwWWJqPlnZtUNmMmK8Pz49HwXyryN4DvVo9jVlSsCpcz6pyNOjuhpXbq7WRV88h3SqeWq5gynn6YQa7OZd2GxuR01tu5US9QeFuFY+PR8LkrzqApqLIKeTlU806a7usURZUU177J45o8nidnmabxaHge4WERedy72RsxtelBar5a3S+jlen0P5llGi+HLP//GfAXgW+JyGqxScyQc3UVKMahGY/VwJRGttOtuc7OqnlSK6WFx/g5Lj72ph0lquE0VhVzetYQhiryVyYry9/dyZWnxqPhuiD5JVvtHIwU2uVi3oHanqyOAMoGyK4J6wx2llDc30WM0xrU31PlbkEekvQW0RovWmSsNh736mnyCrpTKEzQmhKhTjSpKQU03n0/OSrpLR2V0evpdm+nlKbVbJgg+kng+Hg0/NH1uGzgLBiPhq8LfEqEJVV9HmHDFK30Ep7STZb8r95TV27mNfeeTNIJrYctjbuIStlXwjYc9Wzr3OvoSy1nmvQp+qYIjyt8BPj98Wi4zh5kMhq+AtyHcJ/Cy6hutDnmHZWpHM1YSsWmzV85LytM6i5g7ap4R/21/JBV1n7s+rVMKN746kXGafBsqPKSwC8IMlOlnfQ4rwKnqmFYBUazvKhSlxDMz5+f+y3gjVmnazwaXgAeAx5XuNC80NNGIouH2PLdGxXVMlb0rAiTWafxcsjy/yRwP/BR0CFwNnmGq7PF/3nvsbMZ8bK91LdS1bIs0jpqWtcn6zpqchm6Om6DsK4jqXUyTRx+HpFjqN43GQ1nXu5XgsJ/U7M2vXFe6jIuD7WclI4TFF4fj7bvDbvB3mKa3yB4F3C0P5gD3ivwGYWPCdyiqnPFKwqN8lW9cnlb3tetQDpl28Vo7rGV85K8XwN9TUS+pui3JrtgxZhZ0usPbkQZqPBpSW8KTC92yR3oJXPxcgrn8g6ecqZTWlLFeUvQ3wf5BnBiryrs0+j1B+9R5e+J8EngiMK8z9mSU50sb5bw4523Nw30IvumlerUben4DYE3VfmmCF8cj4ZvXfJBr5BefzCvsCzwsW6iptdCW6OnHPqMwD1Z0d6O9C0o+mui8ojC/otGNVwk//PmH6AsjVeuH+Ws1x/coHAHqv9QRD4MHL7kCZcQCd06Oa3/uOQ5l7p22rUO/Bj4MvDt623RgV5/cLvCWFT3JdvaVV6XAd6UK0Naad8XxqPhQzuS+GDXEYp7QK8/uA34hCq/jOgtwEKZlEq7dGP1GNSwhyqkssrmthVvrLafdrxm4VX3JQ+kv1cW7qvAK8A3QJ8Zj3bfJMZZ0usPDin8HeB+gTsU9jceHjR7cv1Zzheu3kvuJ0fJ5n3mQXOdj7tkOrtzrXzkmiqnRORpVX5XhFd2+9yDq6HXH9yssCjwgCq3ieg+L4K77a2EFSVPI/ZvzWfX+RdPn5VZ/t60vbTN6ocdZ83RKRFrAqeAp4HfJhla21puvf7gbwHLih5ox30UW61l2nOLyHlgaTwafm8703d0cbAgor+m8Igg+32cmVswZLMnIn2uoxwbrwy/u51pvFJ6yYlzu6p+Avi4iLwHWGjkuJipVC2qZkSH2v6bvgCfN9rKdupnpZUhqpwX4QTwNdDheLR8XSnsRjKC9ClBPpaaUWt52siE+HzKKLwtqnePV5Zf3Kn0B7uLUNyDQm9xcCPCXcBx0J9DWSiegiyMqmrRUS6gKN1Fz8idm24S1JoVvjqs6BX7dK1SNc8o+m1BngKeT8vvBUavP5hD+ZAKvyjwceA9ZafrO2rIE50es1W6m/32Iy37M8UQoPa6eeHxXNbrqvJD0N8TkWfyS8GCTK8/WFDVu0TkGMn4OgRZEVIoSlAxwNJ5qV3VUYxSFC7kyRdHU1jmcS/KmE7ZzwWQHwL/Brim5dbrDxZIYSn/pKaJTR7LTcN+wm8BD2+Xt71N49KcIvcKfBnlQDsiYKZvO0shJ/dbCp+a7IL5N8khoHeJchyRu1R1AartWEQGaUOJpnLGvpftSV/VqrxCqX9JrDjV3dVt4LzACiK/C/zgWpTv1XK0v/Q+QcbAQScYnfEydehhg+Rtf/japTTY7YTiHkwlv+VvEfiIokcFOVKXQxOv8wFeiU+/ixfWeefTca33r3rQsIttSBoSfUHh3wF/OEmrPATvQK8/2KeqR0XkF4G/qvAzKDc0xpV1qM7oKpOOpVs+AF7hd4XslKfsjXtDVV8Ukf+o8O3JaPiuHhHZKr3FpQMq8iHgboE7UT2iIvONw64aRMWATpO3vbLk/KGNkuTLnjriks5dVeUVEV5C+T7CD3fqlfEARxcH+0T4dZRHVXQhiZDWmK9zN+SCwhMCj4xXrq0x3+sP3g/8NuhPVcXMjzaSv7MBPItwfDfKsKOLS4dE5O8CP4vqX1fkFjPQpSPbu/Lf+9H9KCrU86EaoLlenhbhBeD7ig4n16l3/VL0+oNF4GsKN6Ut09ZnL6r8OvAE18jwDPYOobgHlyR7wg6o6s0i8gGFv4Tqe0XkMHAY5RDCnI9XbB266hQKk/Am6OUU8LYqp0U4ofDHwAuCnlLk3ORdFAc9S44uLs0hsl+SJ/cOhb8s8DPATYoeBjkkqvtsFaBLeIM63ncAziq8ncvoTYH/Qlo7/yRwLjqgK6PXH8yDHlCV94jwflU+iHCrwC0Kh1AOitTFBNqojDyR2I2uWFkKrKnqGUTOCJxS1TdE5L8DfwS8CpxTWJ1cJyFMvf7SPCp3InxSVd8vIoe8EQK8jfISwteAF3ZqBO7o4uCwCI+QRrluxqnvKBsIJ1F9WkT+xU4aQ7Mg9wEHVTkioneC/DVVbkW4CfQwypyP6W7j3c2gyeNIYqFguioipxRel1QX/xPwY4Uzk10sQ3LY0U8rPCrwIeDQ5jkpuga8jPJFRIZ7aSW04NoQintw2fT6g/3AAeAgsB+4kaQk7gN+4hKn/m/gDHBOVU/nJbTOIpwb70KP1G4iezMPqnJAYD/CflJYzTxwC/CnLnLq/1V4U2BN4Q2B86ieQ+QsSVG/LhS+vUivP7gB5RDoAYWDInIzaQLhnwZuoHj1Eqq8LcI54P+RDKm3Fc6Iskrafna3tLM8IfQmQfbXrQrIKnDqegiZy2l8ryB3AD+ZN/8flBMIPwZO7sX20esP5lX1kIgcBA4qHBG4FfizpD5hjiRT5hXOSJL5AK8DfwKcVPQUcFaQU3vR2O/1l25AOaIitwncRpWv/xP0FUVOTK6zCbZBEARBEARBEARBEARBEARBEARBEARBEARBEARBEARBEARBEARBEARBEARBEARBEARBEARBEARBEARBEARBEARBEARBEARBEARBEARBEARBEARBEARBEARBEARBEARBEARBEARBEARBEARBEARBEARBEARBEARBEARBEARBEARBEARBEARBEARBEARBEARBEARBEARBEARBEARBEARBEARBEARBEARBEARBEARBEARBEARBEARBEARBEARBEARBEARBEARBEARBEARBEARBEARBEARBEARBEARBEARBEARBEARBEARBEARBEARBEARBEARBEARBEARBEARBEARBEARBEARBEARBEARBEARBEARBcJX8f86Fi2M4cwNTAAAAAElFTkSuQmCC;" vertex="1" parent="Gr0Zq-AI6Quabplr0KPa-179">
          <mxGeometry x="634" y="170.5" width="105" height="79" as="geometry" />
        </mxCell>
        <mxCell id="xX0nyE1Sm6BZzaNnp2QI-29" value="" style="endArrow=classic;html=1;rounded=0;entryX=0;entryY=0.5;entryDx=0;entryDy=0;exitX=1;exitY=0.5;exitDx=0;exitDy=0;" edge="1" parent="Gr0Zq-AI6Quabplr0KPa-179" source="xX0nyE1Sm6BZzaNnp2QI-22" target="xX0nyE1Sm6BZzaNnp2QI-25">
          <mxGeometry width="50" height="50" relative="1" as="geometry">
            <mxPoint x="405" y="272" as="sourcePoint" />
            <mxPoint x="455" y="222" as="targetPoint" />
          </mxGeometry>
        </mxCell>
        <mxCell id="xX0nyE1Sm6BZzaNnp2QI-30" value="&lt;b&gt;GitHub&lt;/b&gt;&lt;div&gt;&lt;br&gt;&lt;/div&gt;" style="text;html=1;align=center;verticalAlign=middle;whiteSpace=wrap;rounded=0;" vertex="1" parent="Gr0Zq-AI6Quabplr0KPa-179">
          <mxGeometry x="249" y="252" width="60" height="30" as="geometry" />
        </mxCell>
        <mxCell id="xX0nyE1Sm6BZzaNnp2QI-31" value="&lt;b&gt;GitHub Actions&amp;nbsp;&lt;/b&gt;" style="text;html=1;align=center;verticalAlign=middle;whiteSpace=wrap;rounded=0;" vertex="1" parent="Gr0Zq-AI6Quabplr0KPa-179">
          <mxGeometry x="508" y="252" width="60" height="30" as="geometry" />
        </mxCell>
        <mxCell id="xX0nyE1Sm6BZzaNnp2QI-32" value="&lt;b&gt;HUB&lt;/b&gt;" style="text;html=1;align=center;verticalAlign=middle;whiteSpace=wrap;rounded=0;" vertex="1" parent="Gr0Zq-AI6Quabplr0KPa-179">
          <mxGeometry x="656.5" y="249.5" width="60" height="30" as="geometry" />
        </mxCell>
        <mxCell id="xX0nyE1Sm6BZzaNnp2QI-23" value="" style="endArrow=classic;html=1;rounded=0;" edge="1" parent="Gr0Zq-AI6Quabplr0KPa-179">
          <mxGeometry width="50" height="50" relative="1" as="geometry">
            <mxPoint x="320.5" y="209.05" as="sourcePoint" />
            <mxPoint x="489.5" y="209.05" as="targetPoint" />
          </mxGeometry>
        </mxCell>
        <mxCell id="xX0nyE1Sm6BZzaNnp2QI-35" value="Image" style="text;html=1;align=center;verticalAlign=middle;whiteSpace=wrap;rounded=0;" vertex="1" parent="Gr0Zq-AI6Quabplr0KPa-179">
          <mxGeometry x="564" y="174" width="60" height="30" as="geometry" />
        </mxCell>
        <mxCell id="xX0nyE1Sm6BZzaNnp2QI-57" value="" style="sketch=0;points=[[0,0,0],[0.25,0,0],[0.5,0,0],[0.75,0,0],[1,0,0],[0,1,0],[0.25,1,0],[0.5,1,0],[0.75,1,0],[1,1,0],[0,0.25,0],[0,0.5,0],[0,0.75,0],[1,0.25,0],[1,0.5,0],[1,0.75,0]];outlineConnect=0;fontColor=#232F3E;fillColor=#ED7100;strokeColor=#ffffff;dashed=0;verticalLabelPosition=bottom;verticalAlign=top;align=center;html=1;fontSize=12;fontStyle=0;aspect=fixed;shape=mxgraph.aws4.resourceIcon;resIcon=mxgraph.aws4.ec2;" vertex="1" parent="Gr0Zq-AI6Quabplr0KPa-179">
          <mxGeometry x="663.5" y="368" width="53" height="53" as="geometry" />
        </mxCell>
        <mxCell id="xX0nyE1Sm6BZzaNnp2QI-58" value="&lt;b&gt;EC2&lt;/b&gt;" style="text;html=1;align=center;verticalAlign=middle;whiteSpace=wrap;rounded=0;" vertex="1" parent="Gr0Zq-AI6Quabplr0KPa-179">
          <mxGeometry x="660" y="421" width="60" height="30" as="geometry" />
        </mxCell>
        <mxCell id="xX0nyE1Sm6BZzaNnp2QI-62" value="" style="endArrow=classic;html=1;rounded=0;exitX=0.5;exitY=1;exitDx=0;exitDy=0;" edge="1" parent="Gr0Zq-AI6Quabplr0KPa-179" source="xX0nyE1Sm6BZzaNnp2QI-32">
          <mxGeometry width="50" height="50" relative="1" as="geometry">
            <mxPoint x="419" y="305" as="sourcePoint" />
            <mxPoint x="687" y="360" as="targetPoint" />
          </mxGeometry>
        </mxCell>
        <mxCell id="xX0nyE1Sm6BZzaNnp2QI-68" value="Triger" style="text;html=1;align=center;verticalAlign=middle;whiteSpace=wrap;rounded=0;" vertex="1" parent="Gr0Zq-AI6Quabplr0KPa-179">
          <mxGeometry x="375" y="212" width="60" height="30" as="geometry" />
        </mxCell>
        <mxCell id="xX0nyE1Sm6BZzaNnp2QI-69" value="&lt;span id=&quot;docs-internal-guid-6f948acf-7fff-f695-3de1-053d634b28a9&quot;&gt;&lt;span style=&quot;font-size: 11pt; font-family: Arial, sans-serif; background-color: transparent; font-variant-numeric: normal; font-variant-east-asian: normal; font-variant-alternates: normal; font-variant-position: normal; vertical-align: baseline; white-space-collapse: preserve;&quot;&gt;pull the latest image and deploy application&lt;/span&gt;&lt;/span&gt;" style="text;html=1;align=center;verticalAlign=middle;whiteSpace=wrap;rounded=0;" vertex="1" parent="Gr0Zq-AI6Quabplr0KPa-179">
          <mxGeometry x="692" y="298" width="164" height="27" as="geometry" />
        </mxCell>
        <mxCell id="xX0nyE1Sm6BZzaNnp2QI-70" value="&lt;b&gt;Developer&lt;/b&gt;" style="text;html=1;align=center;verticalAlign=middle;whiteSpace=wrap;rounded=0;" vertex="1" parent="Gr0Zq-AI6Quabplr0KPa-179">
          <mxGeometry x="31" y="242" width="60" height="30" as="geometry" />
        </mxCell>
        <mxCell id="xX0nyE1Sm6BZzaNnp2QI-20" style="edgeStyle=orthogonalEdgeStyle;rounded=0;orthogonalLoop=1;jettySize=auto;html=1;exitX=0.25;exitY=0;exitDx=0;exitDy=0;entryX=0.247;entryY=0;entryDx=0;entryDy=0;entryPerimeter=0;" edge="1" parent="1" source="Gr0Zq-AI6Quabplr0KPa-179" target="Gr0Zq-AI6Quabplr0KPa-179">
          <mxGeometry relative="1" as="geometry" />
        </mxCell>
      </root>
    </mxGraphModel>
  </diagram>
</mxfile>
